<svg width="202" height="227" viewBox="0 0 202 227" fill="none" xmlns="http://www.w3.org/2000/svg">
<path d="M194.879 172.623C179.923 153.796 164.966 134.97 149.991 116.075C142.538 106.618 135.035 97.2481 127.581 87.7914C125.138 84.7015 122.466 81.3058 123.014 77.0475C123.694 72.46 127.375 68.3897 129.998 64.7502C137.208 54.6683 145.045 45.0059 153.285 35.7497C153.679 36.672 154.054 37.5259 154.38 38.4666C117.944 39.4924 81.4719 37.3706 45.412 32.1282C46.042 31.7391 46.7589 31.4002 47.3888 31.0111C41.5741 69.8675 36.6047 108.865 32.4623 147.934C31.6806 147.482 30.8988 147.031 30.0302 146.529C44.2661 135.813 58.4837 125.029 72.7196 114.312C73.2126 113.96 74.1949 114.064 74.6158 114.539C98.8849 142.911 123.966 170.479 149.878 197.31C151.296 198.765 149.047 201.057 147.629 199.601C121.717 172.77 96.6171 145.134 72.3663 116.83C72.9694 116.889 73.6594 116.998 74.2624 117.056C60.0265 127.772 45.809 138.557 31.5731 149.273C30.6556 149.96 29.0053 149.007 29.141 147.869C33.2785 108.508 38.2613 69.2867 44.1396 30.1196C44.2619 29.2058 45.358 28.9121 46.1164 29.0026C81.8839 34.2499 118.113 36.2898 154.257 35.2689C155.719 35.2443 156.265 37.007 155.352 37.9857C146.369 48.0286 137.944 58.5094 130.25 69.5284C128.723 71.7733 126.647 74.165 126.038 76.8246C125.079 81.1931 129.36 85.1122 131.803 88.202C136.022 93.5328 140.327 98.9138 144.545 104.245C161.963 126.23 179.45 148.196 196.868 170.181C198.378 171.979 196.128 174.271 194.879 172.623Z" fill="#0177FC"/>
</svg>
