<svg width="304" height="303" viewBox="0 0 304 303" fill="none" xmlns="http://www.w3.org/2000/svg">
<path d="M101.334 54.4363C96.4752 51.1812 93.0049 44.6018 93.0049 38.0916C93.0049 33.7284 94.8095 25.4868 105.914 20.2925C112.092 17.453 117.783 16.9682 122.919 18.7689C128.61 20.8466 132.22 25.2098 134.024 28.0493C135.551 23.9632 139.16 16.4834 146.378 14.6827C153.319 12.882 157.969 17.5223 160.051 21.1236C166.992 15.9986 173.447 14.6827 178.652 17.0375C183.303 19.1152 186.148 24.2402 186.426 30.4041C186.426 35.9447 184.135 43.2859 177.125 47.7876L188.716 60.9465C191.562 64.2708 192.603 69.1881 191.007 73.5513L189.202 78.4685L191.284 83.1088C197.184 96.2676 193.089 112.197 181.498 120.715L176.223 124.594C175.876 124.802 175.807 124.802 175.529 124.802C175.043 124.802 174.766 124.802 174.21 124.317C173.725 123.832 174.072 122.862 174.557 122.378L179.624 118.707C190.174 110.95 194.061 96.5447 188.647 84.4939L186.842 79.9229C186.842 79.5767 186.842 79.1611 186.842 78.8148L188.925 72.8587C189.966 69.5344 189.202 65.656 186.842 62.8164L174.488 48.688C174.141 48.6187 173.863 48.4109 173.725 48.1339C173.655 47.9954 173.655 47.8569 173.655 47.7184L167.062 40.1693C166.576 39.6845 166.576 38.8535 167.062 38.3687C167.547 37.8839 168.38 37.8839 168.866 38.3687L175.321 45.7099C181.498 41.7623 183.58 35.2521 183.58 30.4041C183.58 25.2791 181.012 21.1236 177.403 19.3229C173.03 17.2452 166.853 19.0459 160.399 24.2402C160.121 24.5172 159.635 24.5172 159.357 24.5172C159.08 24.5172 158.872 24.0324 158.594 23.7554C158.594 23.2706 154.985 15.2368 147.211 17.3145C138.674 19.3922 135.829 31.4429 135.829 31.4429C135.829 31.9277 135.343 32.4818 134.788 32.4818C134.302 32.4818 133.746 32.2048 133.469 31.72C133.191 31.72 129.582 23.9632 122.086 21.1929C117.436 19.3922 112.508 19.877 107.094 22.5088C97.7939 26.872 95.7117 33.3129 95.7117 37.9531C95.7117 44.8788 99.8067 50.8349 103.971 52.9127L105.845 53.813C107.094 54.09 107.927 54.4363 109.315 54.7133C109.385 54.7133 109.454 54.7133 109.454 54.7826L124.238 61.7083C124.515 61.9853 124.793 62.4009 124.932 62.7472C125.001 62.8164 125.001 62.8857 125.001 63.0242L129.374 75.629C130.137 77.4297 131.942 78.1915 133.469 77.7067C135.273 76.9449 136.037 75.1442 135.551 73.6205L130.623 59.6999C130.346 59.4228 130.346 58.938 130.623 58.661C130.901 58.384 131.387 58.1762 131.664 58.1762C131.664 58.1762 134.788 57.6914 136.8 55.0596C138.327 53.2589 138.883 50.6964 138.327 47.3028C138.05 46.541 138.605 45.7792 139.368 45.7792C140.132 45.5021 140.895 46.0562 140.895 46.818C141.381 50.9042 140.618 54.0208 138.813 56.5833C137.286 58.8688 134.926 59.9076 133.399 60.4617L137.772 72.7895C138.813 75.906 137.286 79.2304 134.163 80.2692C133.677 80.5463 132.844 80.5463 132.358 80.5463C130.068 80.5463 127.708 79.0226 126.667 76.6679L122.294 64.5479L104.596 56.0985C102.167 56.3063 99.9455 57.7607 98.7656 60.1847C98.0021 61.7083 98.0021 63.786 98.488 65.5867C98.9738 67.3874 100.293 68.9111 102.097 69.6729L113.966 75.352C114.451 75.629 114.729 75.8368 114.729 76.1138L132.011 125.286C133.33 129.165 132.497 133.528 129.721 136.368C127.014 139.276 123.197 140.384 119.449 139.623C119.102 139.553 118.824 139.346 118.616 139.069C118.546 138.999 118.546 138.861 118.546 138.792C118.616 138.307 118.824 137.476 119.379 137.683C122.503 138.445 125.556 137.683 127.639 135.398C129.721 133.112 130.484 129.996 129.443 126.879L112.3 78.2608C112.161 77.9145 111.953 77.6375 111.606 77.4989L100.848 72.3739L100.778 72.3047C98.488 70.9888 96.6834 69.2573 95.9199 66.6948C95.1565 64.1323 95.4341 61.5698 96.4058 59.2151C97.4469 56.9296 99.2515 55.3367 101.334 54.4363Z" fill="#0E2B49"/>
<path d="M114.937 73.0661C111.606 71.5424 110.009 67.664 111.05 64.3397L103.346 60.7383C102.86 60.2535 102.583 59.4224 102.86 58.9376C103.346 58.4528 104.179 58.1758 104.665 58.4528L113.41 62.539C113.896 62.816 114.174 63.0238 114.174 63.3008C114.451 63.5779 114.451 64.0627 114.174 64.3397C113.132 66.6252 114.174 69.7417 116.464 70.7806C116.95 71.2654 117.227 72.0965 116.95 72.5813C116.672 73.0661 116.186 73.3431 115.631 73.3431C115.7 73.3431 115.492 73.3431 114.937 73.0661Z" fill="#0E2B49"/>
<path d="M165.534 60.9465C165.534 59.3536 164.285 58.1069 162.688 58.1069C161.092 58.1069 159.843 59.3536 159.843 60.9465C159.843 62.5394 161.092 60.1154 162.688 60.1154C164.285 60.1154 165.534 62.5394 165.534 60.9465Z" fill="#0E2B49"/>
<path d="M150.057 74.1053L156.511 70.781C157.275 70.5039 158.038 70.781 158.316 71.2658C158.594 72.0276 158.316 72.7894 157.83 73.0664L155.817 74.1053C160.051 79.8536 167.131 78.4685 167.408 78.4685C168.172 78.4685 168.727 78.7455 168.935 79.5074C168.935 80.2692 168.657 80.8232 167.894 81.031C167.894 81.031 166.853 81.308 165.326 81.308C162.341 81.308 157.067 80.3384 153.457 75.3519L151.375 76.3908C151.375 76.6678 151.098 76.6678 150.889 76.6678C150.404 76.6678 150.126 76.3908 149.571 75.906C149.293 75.1442 149.501 74.3823 150.057 74.1053Z" fill="#0E2B49"/>
<path d="M93.213 134.289C88.9099 133.32 84.4678 132.835 80.0952 132.904C77.8742 132.974 75.7226 133.251 73.6404 133.805C71.5583 134.359 69.6843 135.259 68.1573 136.644C66.6304 138.099 65.1729 139.83 63.7153 141.561C62.2578 143.293 60.8697 145.024 59.4121 146.756C56.6359 150.288 53.8596 153.82 51.1528 157.421C45.8085 164.624 40.603 172.035 35.6057 179.514C30.6779 186.994 25.8888 194.682 21.5856 202.508C17.2825 210.334 13.2569 218.437 10.2724 226.817C8.81487 231.042 7.63496 235.336 7.21852 239.63C7.0103 241.777 7.07971 243.924 7.42674 246.001C7.77377 248.148 8.39843 250.226 9.23131 252.165C10.9665 256.113 13.6039 259.645 16.7966 262.623C19.9893 265.601 23.7372 268.025 27.624 270.103C31.5108 272.18 35.6751 273.843 39.9089 275.158C44.1427 276.474 48.5153 277.582 52.8185 278.275H52.8879C53.6514 278.414 54.1372 279.106 54.0678 279.868C53.929 280.63 53.235 281.115 52.4715 281.045C47.8907 280.284 43.4487 279.175 39.0761 277.79C34.7035 276.405 30.4697 274.674 26.3747 272.527C22.2797 270.38 18.393 267.817 14.992 264.631C11.5911 261.446 8.67606 257.636 6.80209 253.273C5.8998 251.126 5.20574 248.841 4.7893 246.486C4.58108 245.309 4.44227 244.131 4.44227 242.954C4.37286 241.777 4.44227 240.599 4.58108 239.422C5.06692 234.782 6.31624 230.28 7.77377 225.986C10.8277 217.398 14.9226 209.226 19.2952 201.33C23.7372 193.435 28.5263 185.747 33.5235 178.198C38.5208 170.649 43.7263 163.308 49.2094 156.036C51.9162 152.435 54.6925 148.833 57.5382 145.301C58.9263 143.57 60.3838 141.769 61.8414 140.038C62.6048 139.207 63.2989 138.306 64.0624 137.475C64.8258 136.644 65.5893 135.813 66.4916 134.982C68.3656 133.32 70.656 132.281 72.9464 131.658C75.2368 131.034 77.5966 130.757 79.887 130.688C82.1774 130.619 84.5372 130.757 86.8277 131.034C89.1181 131.311 91.3391 131.658 93.6295 132.212C94.1847 132.35 94.6012 132.904 94.4624 133.528C94.4624 134.082 93.8377 134.428 93.213 134.289Z" fill="#0E2B49"/>
<path d="M251.598 278.691C256.248 277.929 260.968 276.682 265.479 275.159C269.991 273.635 274.433 271.765 278.597 269.41C282.762 267.056 286.579 264.216 289.772 260.753C292.964 257.29 295.394 253.204 296.573 248.703C296.851 247.594 297.129 246.417 297.268 245.309C297.337 244.755 297.406 244.201 297.476 243.578C297.476 243.023 297.545 242.4 297.476 241.846C297.406 239.491 297.129 237.206 296.643 234.851C295.671 230.211 294.075 225.64 292.27 221.207C288.592 212.343 284.011 203.755 279.153 195.444C269.297 178.822 258.192 162.824 245.976 147.864C244.449 145.994 242.922 144.124 241.326 142.324C239.73 140.523 238.133 138.653 236.537 137.06C235.079 135.606 232.858 134.982 230.637 134.567C228.347 134.151 225.987 134.013 223.627 134.013C218.838 133.943 214.049 134.359 209.26 134.913C204.471 135.467 199.682 136.229 194.963 137.129H195.101C191.909 138.03 188.716 138.861 185.384 139.484C183.719 139.83 182.053 140.107 180.387 140.246C179.554 140.315 178.652 140.384 177.75 140.315C177.264 140.315 176.778 140.246 176.292 140.107C176.015 140.038 175.737 139.969 175.459 139.83C175.182 139.692 174.974 139.623 174.765 139.484C173.863 138.93 173.169 138.237 172.544 137.545C171.92 136.852 171.434 136.09 171.017 135.329C170.115 133.805 169.421 132.212 168.935 130.411C168.796 129.996 168.727 129.511 168.658 129.026C168.588 128.541 168.588 128.057 168.658 127.364C168.727 127.018 168.796 126.671 169.074 126.256C169.213 126.048 169.421 125.84 169.699 125.633L169.907 125.494H169.976L170.115 125.425C170.462 125.217 170.809 125.079 171.156 124.871C172.544 124.04 173.863 123.139 175.182 122.239C175.806 121.823 176.709 121.962 177.125 122.585C177.542 123.209 177.403 124.04 176.778 124.524C175.39 125.494 174.071 126.394 172.614 127.295C172.267 127.503 171.85 127.71 171.503 127.918L171.364 127.987L171.295 128.057H171.364C171.434 127.987 171.503 127.918 171.503 127.918C171.573 127.849 171.503 127.849 171.503 127.918C171.503 128.057 171.503 128.403 171.503 128.749C171.573 129.095 171.642 129.442 171.711 129.788C172.058 131.173 172.683 132.628 173.447 133.943C174.21 135.19 175.182 136.437 176.223 137.06C176.986 137.614 178.652 137.545 180.179 137.476C181.706 137.337 183.302 137.06 184.899 136.783C188.091 136.16 191.284 135.398 194.338 134.498H194.407H194.477C199.335 133.597 204.124 132.835 208.983 132.281C213.841 131.727 218.769 131.381 223.697 131.45C226.195 131.519 228.694 131.658 231.193 132.074C232.442 132.281 233.691 132.628 234.941 133.112C235.565 133.32 236.19 133.666 236.815 134.013C237.439 134.359 237.995 134.844 238.48 135.329C240.285 137.129 241.812 138.999 243.408 140.869C244.935 142.739 246.462 144.678 247.989 146.548C250.973 150.427 253.889 154.305 256.734 158.253C259.58 162.2 262.426 166.148 265.132 170.165C270.685 178.13 275.96 186.302 280.957 194.613C285.954 202.993 290.605 211.511 294.422 220.515C296.296 225.017 297.962 229.657 299.072 234.505C299.627 236.929 299.974 239.422 300.044 241.915C300.113 243.162 300.044 244.478 299.836 245.724C299.697 246.971 299.419 248.218 299.072 249.395C297.753 254.243 295.116 258.745 291.715 262.415C288.314 266.086 284.289 269.064 279.985 271.488C275.682 273.912 271.101 275.851 266.451 277.375C261.801 278.899 257.012 280.145 252.153 280.907C251.598 280.976 251.043 280.63 250.904 280.007C250.557 279.314 250.904 278.76 251.598 278.691Z" fill="#0E2B49"/>
<path d="M107.094 153.543C107.232 155.413 107.579 157.352 107.996 159.222C108.343 161.092 108.829 162.962 109.384 164.832C110.494 168.503 112.021 172.035 114.173 175.151C114.451 175.567 114.728 175.913 115.006 176.26C115.284 176.606 115.561 177.021 115.908 177.368C116.533 178.13 117.158 178.822 117.852 179.515C119.17 180.969 120.558 182.354 121.947 183.67C124.792 186.302 127.777 188.864 130.969 191.081C131.386 191.358 131.455 191.912 131.178 192.258C130.9 192.674 130.345 192.743 129.998 192.466C126.666 190.249 123.543 187.756 120.628 185.124C119.17 183.809 117.713 182.423 116.325 180.969C115.631 180.276 114.936 179.515 114.312 178.822C113.965 178.476 113.618 178.06 113.34 177.645C112.993 177.229 112.646 176.883 112.368 176.467C110.009 173.143 108.273 169.403 107.024 165.594C106.4 163.655 105.844 161.785 105.428 159.776C105.011 157.837 104.595 155.898 104.387 153.82C104.317 153.058 104.873 152.366 105.636 152.297C106.4 152.227 107.024 152.712 107.094 153.543C107.094 153.474 107.094 153.474 107.094 153.543Z" fill="#0E2B49"/>
<path d="M121.739 149.942C122.017 152.781 122.572 155.759 123.405 158.599C124.238 161.439 125.279 164.14 126.875 166.564C127.083 166.91 127.292 167.187 127.5 167.464C127.708 167.741 127.916 168.018 128.125 168.295C128.61 168.849 129.096 169.472 129.582 170.026C130.554 171.135 131.595 172.243 132.636 173.281C134.718 175.359 137.009 177.368 139.368 179.168C139.785 179.445 139.854 180.069 139.577 180.484C139.299 180.9 138.674 180.969 138.258 180.692C135.69 178.891 133.399 176.883 131.109 174.805C129.999 173.766 128.888 172.658 127.847 171.481C127.292 170.927 126.806 170.303 126.32 169.749C126.042 169.472 125.834 169.126 125.556 168.78C125.348 168.433 125.071 168.156 124.862 167.81C123.058 165.178 121.878 162.27 120.906 159.292C120.42 157.837 120.073 156.313 119.726 154.79C119.379 153.266 119.102 151.743 118.963 150.15C118.893 149.388 119.449 148.695 120.212 148.626C120.906 148.557 121.6 149.111 121.739 149.942C121.739 149.873 121.739 149.873 121.739 149.942Z" fill="#0E2B49"/>
<path d="M205.651 153.751C205.443 155.828 205.026 157.768 204.61 159.707C204.193 161.646 203.638 163.585 203.013 165.524C201.764 169.334 200.098 173.074 197.739 176.398C197.461 176.813 197.114 177.229 196.767 177.644C196.42 178.06 196.142 178.476 195.795 178.822C195.101 179.584 194.477 180.276 193.782 181.038C192.394 182.492 191.006 183.878 189.479 185.194C186.495 187.895 183.441 190.388 180.109 192.604C179.624 192.95 178.929 192.812 178.582 192.327C178.235 191.842 178.374 191.15 178.86 190.873H178.929C182.053 188.726 185.107 186.163 187.952 183.531C189.41 182.215 190.729 180.83 192.047 179.445C192.741 178.753 193.366 177.991 193.991 177.298C194.338 176.952 194.615 176.536 194.893 176.19C195.171 175.844 195.518 175.498 195.726 175.082C197.877 171.965 199.404 168.433 200.515 164.832C201.07 163.031 201.556 161.161 201.972 159.291C202.389 157.421 202.666 155.482 202.875 153.612V153.543C202.944 152.781 203.638 152.227 204.402 152.296C205.165 152.296 205.72 152.989 205.651 153.751Z" fill="#0E2B49"/>
<path d="M190.59 155.69C190.381 157.214 190.104 158.53 189.687 159.984C189.34 161.369 188.855 162.755 188.299 164.07C187.744 165.386 187.119 166.702 186.356 168.018C186.009 168.641 185.592 169.265 185.176 169.888C184.968 170.165 184.69 170.442 184.482 170.788C184.274 171.065 183.996 171.342 183.788 171.619L183.024 172.451C182.747 172.728 182.539 172.935 182.261 173.212C181.775 173.697 181.22 174.182 180.665 174.667C179.554 175.567 178.513 176.467 177.333 177.368C175.043 179.099 172.752 180.623 170.254 182.077C169.698 182.354 169.004 182.216 168.727 181.662C168.449 181.108 168.588 180.484 169.143 180.138C171.434 178.753 173.724 177.16 175.876 175.498C176.917 174.667 178.027 173.766 178.999 172.866C179.485 172.381 180.04 171.966 180.526 171.481C180.734 171.273 181.012 170.996 181.22 170.788L181.844 170.096C182.053 169.888 182.261 169.611 182.469 169.334C182.677 169.057 182.886 168.849 183.024 168.572C183.371 168.018 183.788 167.464 184.066 166.91C184.76 165.802 185.245 164.555 185.731 163.309C186.217 162.062 186.564 160.815 186.911 159.499C187.258 158.184 187.536 156.868 187.675 155.621V155.552C187.744 154.79 188.438 154.236 189.202 154.305C190.173 154.236 190.729 154.859 190.59 155.69C190.59 155.69 190.59 155.621 190.59 155.69Z" fill="#0E2B49"/>
<path d="M154.984 180.138C143.949 180.138 134.995 189.072 134.995 200.084C134.995 211.096 143.949 220.03 154.984 220.03C166.02 220.03 174.973 211.096 174.973 200.084C174.973 189.072 166.02 180.138 154.984 180.138ZM160.398 189.141L154.637 213.173C154.498 213.797 153.943 214.212 153.318 214.212C153.18 214.212 153.11 214.212 152.971 214.143C152.208 213.935 151.791 213.243 151.93 212.481L155.886 195.928C155.331 196.621 154.637 197.313 153.943 198.075C149.432 202.646 147.072 202.577 146.308 202.369C145.545 202.161 145.198 201.4 145.406 200.638C145.614 199.945 146.308 199.53 147.002 199.668C147.211 199.668 148.738 199.46 152 196.136C156.164 191.911 157.76 188.31 157.76 188.241C158.038 187.617 158.802 187.271 159.496 187.479C160.19 187.756 160.537 188.449 160.398 189.141Z" fill="#0177FC"/>
</svg>
