<svg width="36" height="52" viewBox="0 0 36 52" fill="none" xmlns="http://www.w3.org/2000/svg">
<path d="M33.0704 10.6924L29.3695 0.693359L0.996094 4.24376L5.35007 13.0835C8.61556 19.7496 9.55892 27.2851 7.88989 34.5308L7.30936 37.1393C10.212 36.5596 13.6952 37.2842 15.2191 39.9651C16.4527 42.1388 16.1625 44.8922 14.566 46.7761C14.2757 47.0659 13.9855 47.3558 13.6226 47.6456L15.7271 48.66C16.3802 48.1528 17.1784 47.863 18.0492 47.7905C21.7501 47.5731 25.1607 48.5151 26.9023 51.6307L32.8527 36.4872C36.1182 28.1546 36.1908 19.025 33.0704 10.6924ZM21.3872 36.6321C15.8722 36.6321 11.4456 32.2122 11.4456 26.7055C11.4456 21.1987 15.8722 16.7788 21.3872 16.7788C26.9023 16.7788 31.3288 21.1987 31.3288 26.7055C31.3288 32.2122 26.8297 36.6321 21.3872 36.6321Z" fill="#0177FC"/>
</svg>
