<svg width="54" height="36" viewBox="0 0 54 36" fill="none" xmlns="http://www.w3.org/2000/svg">
<path d="M48.2753 31.1682C50.91 29.4468 52.6313 27.2337 53.0177 24.6342L53.5798 19.1189C54.5635 11.531 43.9545 3.6621 29.7623 1.48409C15.4296 -0.729039 2.85344 3.66209 1.65905 11.2851C1.65905 11.3554 1.65906 11.4256 1.62393 11.4959V11.531L0.991586 16.5896C0.605166 19.0486 1.34287 21.5779 3.13445 23.9667C3.13445 24.0721 3.20471 24.1423 3.3101 24.1775C4.22345 25.3719 5.41784 26.5311 6.823 27.585C8.29843 28.7091 10.0198 29.7279 11.8816 30.6412C15.4999 32.3977 19.8208 33.6975 24.4578 34.4703C24.5632 34.5054 24.7037 34.5054 24.8091 34.5406C29.5164 35.2783 34.0129 35.2783 38.0176 34.7162C41.9872 34.1541 45.4299 32.9597 47.9943 31.3438L48.2753 31.1682ZM50.7343 12.0931C52.4557 14.3062 53.2988 16.695 52.9826 19.0486L42.7601 17.4678C42.9006 16.0978 42.4088 14.7278 41.39 13.428L50.7343 12.0931ZM29.9731 1.83538C34.3642 2.53797 38.4041 3.80261 41.8467 5.45367L35.9099 9.4584C33.9427 8.54504 31.6241 7.84246 29.13 7.45604L29.9731 1.83538ZM16.4484 1.65974L20.98 7.35065C18.8372 7.70194 16.9753 8.33427 15.535 9.24762L6.823 5.03213C9.31717 3.41619 12.6193 2.25693 16.4484 1.65974ZM3.90732 18.7676L3.20473 23.1939C1.76444 21.0861 1.20236 18.8379 1.51852 16.6599L1.79957 14.517C1.8347 14.6926 1.90497 14.8331 1.9401 15.0088C1.9401 15.0439 1.97522 15.079 1.97522 15.1142C2.01035 15.2547 2.0806 15.3952 2.15086 15.5709V15.606C2.22112 15.7465 2.29138 15.887 2.32651 16.0627C2.36164 16.0978 2.36162 16.168 2.39675 16.2032C2.46701 16.3086 2.50214 16.4491 2.57239 16.5545C2.57239 16.5896 2.60751 16.6247 2.60751 16.6599C2.67777 16.8004 2.74806 16.9409 2.85344 17.0814C2.88857 17.1165 2.92368 17.1868 2.95881 17.2219C3.02906 17.3273 3.09936 17.4678 3.16961 17.5732C3.20474 17.6083 3.20473 17.6435 3.23986 17.6786C3.34524 17.8191 3.45064 17.9596 3.55603 18.1001C3.59115 18.1353 3.62627 18.1704 3.62627 18.2055C3.73165 18.3461 3.83705 18.4866 3.94244 18.6271C3.94244 18.6271 3.94243 18.6622 3.97756 18.6622C3.94243 18.6622 3.90732 18.6973 3.90732 18.7676ZM4.46937 18.4866C2.74805 16.2734 1.90494 13.8847 2.2211 11.531L12.7247 13.147C12.5491 14.4819 12.9706 15.8519 13.9191 17.1165L4.46937 18.4866ZM24.2471 33.9785C19.9262 33.2759 15.9566 32.0464 12.5491 30.4656L13.3219 25.5124C13.4624 25.5826 13.6029 25.6529 13.7435 25.688C13.7786 25.7232 13.8489 25.7232 13.884 25.7583C13.9894 25.8285 14.1299 25.8637 14.2353 25.9339C14.3055 25.9691 14.3758 26.0042 14.4812 26.0393C14.5865 26.0744 14.7271 26.1447 14.8324 26.1798C14.9027 26.215 15.0081 26.2501 15.0783 26.2852C15.1837 26.3204 15.3242 26.3906 15.4296 26.4257C15.4999 26.4609 15.6053 26.496 15.6756 26.5311C15.8161 26.5662 15.9215 26.6365 16.062 26.6716C16.1322 26.7068 16.2376 26.7419 16.3079 26.777C16.5186 26.8473 16.7294 26.9527 16.9753 27.0229C17.0807 27.0581 17.1861 27.0932 17.2915 27.1283C17.3969 27.1634 17.5023 27.1986 17.6077 27.2337C17.713 27.2688 17.8184 27.304 17.9238 27.3391C18.0292 27.3742 18.1346 27.4093 18.24 27.4445C18.3453 27.4796 18.4859 27.5147 18.5912 27.5499C18.6966 27.585 18.802 27.6201 18.9074 27.6553C19.0479 27.6904 19.1885 27.7255 19.3641 27.7958C19.4344 27.8309 19.5046 27.8309 19.61 27.866C19.8208 27.9363 20.0667 28.0065 20.2775 28.0417C20.3126 28.0417 20.3829 28.0768 20.418 28.0768C20.5936 28.1119 20.8044 28.1822 20.98 28.2173C21.0503 28.2525 21.1205 28.2524 21.1908 28.2876C21.3664 28.3227 21.5421 28.3578 21.7177 28.4281C21.788 28.4281 21.8582 28.4632 21.9285 28.4632C22.1042 28.4983 22.2798 28.5335 22.4906 28.5686C22.5609 28.5686 22.596 28.6037 22.6663 28.6037C22.9122 28.6389 23.1581 28.7091 23.404 28.7443C23.6499 28.7794 23.9309 28.8496 24.1768 28.8848C24.2119 28.8848 24.2119 28.8848 24.2471 28.8848C24.4578 28.9199 24.7037 28.955 24.9145 28.9902C24.9496 28.9902 24.9496 28.9902 24.9848 28.9902L24.2471 33.9785ZM25.2306 28.5335L25.1955 28.7443L25.055 28.7091C20.699 28.0065 16.7294 26.7419 13.3219 25.126L19.1885 21.1915C21.1557 22.14 23.4742 22.8777 26.0035 23.2993L25.2306 28.5335ZM26.6358 22.4562C19.329 21.332 13.8488 17.2219 14.4812 13.3226C15.0784 9.42327 21.5421 7.175 28.849 8.29913C36.1558 9.42326 41.6359 13.5334 41.0036 17.4327C40.3713 21.332 33.9427 23.5803 26.6358 22.4562ZM38.7202 28.9199L34.3642 23.4398C36.5773 23.0885 38.5094 22.421 39.9497 21.4725L48.3105 25.5475C45.8514 27.1634 42.5493 28.3227 38.7202 28.9199ZM47.7133 30.9223C45.2542 32.4679 42.0223 33.5921 38.2635 34.1893L39.0364 29.2361V29.2009C39.0715 29.2009 39.1066 29.2009 39.1418 29.2009C39.2823 29.1658 39.4579 29.1658 39.5984 29.1307C39.6687 29.1307 39.7038 29.0955 39.7741 29.0955C39.9849 29.0604 40.1957 29.0253 40.4064 28.9902C40.4767 28.9902 40.5118 28.955 40.5821 28.955C40.7226 28.9199 40.8982 28.8848 41.0387 28.8496C41.109 28.8496 41.1792 28.8145 41.2495 28.8145C41.39 28.7794 41.5306 28.7443 41.636 28.7091C41.7062 28.7091 41.7765 28.674 41.8467 28.674C41.9872 28.6389 42.1277 28.6037 42.2682 28.5686C42.3385 28.5686 42.3736 28.5335 42.4439 28.5335C42.6195 28.4984 42.8303 28.4281 43.006 28.393C43.0411 28.393 43.0762 28.3578 43.1465 28.3578C43.287 28.3227 43.4275 28.2876 43.5681 28.2173C43.6383 28.1822 43.7086 28.1822 43.7788 28.1471C43.8842 28.1119 44.0247 28.0768 44.1301 28.0417C44.2004 28.0065 44.2706 28.0065 44.3409 27.9714C44.4463 27.9363 44.5868 27.9012 44.6922 27.8309C44.7624 27.7958 44.8327 27.7958 44.8678 27.7606C45.0435 27.6904 45.2191 27.6201 45.3947 27.5499C45.4299 27.5499 45.465 27.5147 45.5002 27.5147C45.6407 27.4445 45.7812 27.4094 45.9217 27.3391C45.9919 27.304 46.0622 27.2688 46.0973 27.2688C46.2027 27.2337 46.3081 27.1634 46.4135 27.1283C46.4838 27.0932 46.554 27.0581 46.6243 27.0229C46.7297 26.9878 46.8351 26.9175 46.9053 26.8824C46.9756 26.8473 47.0458 26.8122 47.081 26.777C47.1863 26.7068 47.3269 26.6716 47.4323 26.6014C47.4674 26.5663 47.5376 26.5311 47.5727 26.5311C47.7132 26.4609 47.8187 26.3906 47.9592 26.3204C48.0294 26.2852 48.0646 26.2501 48.1348 26.215C48.2051 26.1798 48.3105 26.1096 48.3807 26.0744C48.4158 26.0393 48.451 26.0393 48.4861 26.0042L47.7133 30.9223Z" fill="#27B727"/>
<path d="M28.9897 14.025C29.4464 13.8494 29.9733 13.8142 30.5705 13.8845C31.2731 13.9899 31.9054 14.2709 32.3972 14.6573L32.4674 14.3412C31.9405 14.025 31.3433 13.7791 30.6056 13.6737C29.8679 13.5332 29.2004 13.6035 28.6032 13.8143C28.0412 14.025 27.725 14.3412 27.6196 14.7979V14.833L25.6524 14.5168L25.6173 14.7627L27.5142 15.0789C27.4791 15.3599 27.2332 15.5707 26.8468 15.7112C26.4604 15.8517 25.9686 15.8869 25.3363 15.7815C24.6688 15.6761 24.177 15.4653 23.8257 15.1492C23.4744 14.833 23.3339 14.4817 23.369 14.0953C23.4393 13.7089 23.6852 13.4278 24.1067 13.2522C24.5283 13.0765 25.0552 13.0063 25.6524 13.1117C26.4604 13.2522 27.0576 13.5332 27.4791 14.025L27.9007 13.9196C27.444 13.3927 26.7063 13.0414 25.6875 12.8658C24.9147 12.7252 24.2824 12.7955 23.7555 12.9712C23.2285 13.1468 22.9124 13.5332 22.8421 13.9899C22.7718 14.4466 22.9475 14.8681 23.4042 15.2194C23.8608 15.5707 24.4932 15.8517 25.3011 15.9571C25.7227 16.0274 26.1442 16.0625 26.4955 16.0274C26.8468 15.9923 27.1278 15.922 27.3386 15.8166C27.5142 15.7112 27.6548 15.6058 27.7602 15.5004C27.8656 15.6761 28.0061 15.8517 28.1817 15.9923C28.6384 16.3787 29.2707 16.6246 30.0436 16.7651C30.7813 16.8705 31.4136 16.8705 32.0108 16.73L32.081 16.4138C31.4838 16.6246 30.8164 16.6597 30.1138 16.5543C29.4815 16.4489 28.9897 16.2382 28.6384 15.922C28.2871 15.6058 28.1114 15.2545 28.1817 14.9033C28.252 14.4817 28.4979 14.2007 28.9897 14.025Z" fill="#27B727" stroke="#27B727" stroke-width="0.5" stroke-miterlimit="10"/>
<path d="M36.3957 16.5526C36.8237 13.9489 33.275 11.1978 28.4696 10.4079C23.6642 9.61805 19.4216 11.0885 18.9937 13.6923C18.5657 16.296 22.1143 19.0471 26.9198 19.8369C31.7252 20.6268 35.9677 19.1564 36.3957 16.5526Z" stroke="#27B727" stroke-width="0.5" stroke-miterlimit="10"/>
</svg>
