<svg width="47" height="42" viewBox="0 0 47 42" fill="none" xmlns="http://www.w3.org/2000/svg">
<path d="M45.8483 19.3576C46.4104 16.3365 46.0239 13.4207 44.5134 10.9617L41.141 5.97338C36.6445 -1.0173 24.3493 -1.3686 13.5647 5.2708C2.67465 11.9453 -2.55959 23.1866 1.83155 30.353C1.86668 30.4232 1.90182 30.4584 1.93695 30.5286V30.5637L4.95804 35.2359C6.39834 37.5544 8.57637 39.2406 11.3516 40.1891C11.4218 40.2594 11.5272 40.2945 11.5974 40.2594C13.0026 40.716 14.5483 40.9971 16.2345 41.0322C17.9558 41.1025 19.7825 40.9619 21.6444 40.6106C25.2275 39.9081 28.9161 38.4678 32.4641 36.3249C32.5695 36.2547 32.6397 36.2195 32.7451 36.1493C36.3283 33.9713 39.2792 31.2663 41.4923 28.3857C43.7054 25.5403 45.1457 22.484 45.7429 19.5683L45.8483 19.3576ZM34.5016 1.72276C37.1363 2.56586 39.3143 4.11154 40.7195 6.28954L32.9559 11.0671C32.1128 9.83758 30.8482 8.95935 29.3376 8.46754L34.5016 1.72276ZM13.9511 5.41131C17.3235 3.37383 20.8013 2.03892 24.1737 1.37147L22.9793 8.2919C21.0823 8.71345 19.08 9.48629 17.183 10.6455L13.9511 5.41131ZM4.99317 13.3856L11.8082 15.4934C10.649 17.0742 9.84099 18.7604 9.52482 20.3412L0.953321 21.9571C1.51539 19.1117 2.88542 16.1608 4.99317 13.3856ZM8.40071 35.3413L10.9651 39.5216C8.57633 38.5732 6.67938 37.0275 5.44986 34.99L4.1501 32.9876C4.29062 33.093 4.43112 33.1984 4.57163 33.3038C4.60676 33.3389 4.64191 33.3389 4.67704 33.3741C4.81755 33.4794 4.95805 33.5497 5.09857 33.6551C5.09857 33.6551 5.13369 33.6551 5.13369 33.6902C5.27421 33.7956 5.41475 33.8659 5.55526 33.9713C5.59039 34.0064 5.66062 34.0415 5.69575 34.0415C5.80113 34.1118 5.94165 34.182 6.04704 34.2523C6.08217 34.2874 6.11731 34.2874 6.15244 34.3225C6.29296 34.3928 6.43349 34.4631 6.60914 34.5333C6.6794 34.5685 6.71452 34.5684 6.78478 34.6036C6.9253 34.6738 7.03068 34.709 7.17119 34.7792C7.20632 34.7792 7.24143 34.8144 7.27656 34.8144C7.4522 34.8846 7.59273 34.9549 7.76837 34.99C7.8035 34.99 7.87377 35.0251 7.9089 35.0251C8.04941 35.0954 8.22507 35.1305 8.40071 35.2008H8.43583C8.36557 35.271 8.36558 35.3062 8.40071 35.3413ZM8.54124 34.7792C5.90656 33.9361 3.72853 32.3904 2.32336 30.2124L10.2977 25.3295C11.0705 26.559 12.3 27.4372 13.7754 27.9642L8.54124 34.7792ZM32.0074 36.079C28.7053 38.0462 25.2627 39.4163 21.9605 40.0837L19.1151 35.4467C19.2556 35.4116 19.361 35.3764 19.5015 35.3764C19.5366 35.3764 19.6069 35.3413 19.642 35.3413C19.7474 35.3062 19.8879 35.271 19.9933 35.271C20.0636 35.2359 20.1338 35.2359 20.2041 35.2008C20.3095 35.1656 20.4148 35.1305 20.5554 35.1305C20.6256 35.0954 20.6959 35.0954 20.7661 35.0603C20.8715 35.0251 20.9769 34.99 21.1174 34.9549C21.1877 34.9197 21.258 34.9197 21.3633 34.8846C21.4687 34.8495 21.5741 34.8143 21.7146 34.7792C21.7849 34.7441 21.8551 34.7441 21.9254 34.709C22.1362 34.6387 22.3118 34.5685 22.5226 34.5333C22.628 34.4982 22.6982 34.4631 22.8036 34.4279C22.909 34.3928 23.0144 34.3577 23.0846 34.3225C23.19 34.2874 23.2954 34.2523 23.3657 34.2172C23.4711 34.182 23.5414 34.1469 23.6467 34.1118C23.7521 34.0766 23.8575 34.0415 23.9629 34.0064C24.0331 33.9713 24.1385 33.9361 24.2088 33.901C24.3493 33.8659 24.4547 33.7956 24.5952 33.7605C24.6655 33.7253 24.7357 33.6902 24.806 33.6902C24.9816 33.62 25.1924 33.5146 25.368 33.4443C25.4032 33.4443 25.4383 33.4092 25.4734 33.3741C25.6139 33.3038 25.7896 33.2335 25.9301 33.1633C26.0004 33.1282 26.0355 33.093 26.1058 33.093C26.2463 33.0228 26.3868 32.9525 26.5273 32.8823C26.5976 32.8471 26.6327 32.812 26.703 32.7769C26.8435 32.7066 26.984 32.6363 27.1596 32.5661C27.1948 32.531 27.265 32.531 27.3001 32.4958C27.5109 32.3904 27.6866 32.2851 27.8973 32.1797C28.1081 32.0743 28.3189 31.9689 28.4945 31.8284C28.5297 31.8284 28.5297 31.7932 28.5648 31.7932C28.7405 31.6879 28.9161 31.5825 29.0917 31.4771L29.1269 31.442L32.0074 36.079ZM28.9863 30.8799L29.0917 31.0907L28.9863 31.1609C25.6491 33.1633 22.2064 34.4631 18.8692 35.1305L20.0284 28.2803C21.9605 27.8939 23.998 27.1562 25.9301 25.997L28.9863 30.8799ZM25.7545 24.908C20.2041 28.3155 13.8457 28.1047 11.5974 24.4513C9.34919 20.7978 12.0541 15.0367 17.6045 11.6292C23.1549 8.22164 29.5133 8.43242 31.7615 12.0858C34.0098 15.7393 31.3049 21.5004 25.7545 24.908ZM38.0497 23.1515L31.4805 21.114C32.71 19.4981 33.518 17.7767 33.8342 16.1257L42.0543 14.58C41.5274 17.3903 40.1574 20.3412 38.0497 23.1515ZM45.2862 19.4629C44.7242 22.2381 43.3893 25.1539 41.3166 27.8939L38.4712 23.2569C38.4712 23.2569 38.4712 23.2218 38.4361 23.2218C38.4361 23.1866 38.4712 23.1866 38.4712 23.1515C38.5415 23.0461 38.6468 22.9407 38.7171 22.8002C38.7522 22.7651 38.7874 22.7299 38.8225 22.6597C38.9279 22.5192 39.0333 22.3435 39.1387 22.203C39.1738 22.1679 39.2089 22.1328 39.2089 22.0625C39.2792 21.9571 39.3494 21.8166 39.4548 21.7112C39.49 21.641 39.5251 21.6058 39.5602 21.5356C39.6304 21.4302 39.7007 21.3248 39.771 21.2194C39.8061 21.1491 39.8412 21.114 39.8764 21.0438C39.9466 20.9384 40.0169 20.833 40.0871 20.6925C40.1222 20.6573 40.1574 20.5871 40.1574 20.5519C40.2628 20.4114 40.333 20.2358 40.4384 20.0953C40.4735 20.0601 40.4736 20.025 40.5087 19.9899C40.579 19.8494 40.6492 19.744 40.7195 19.6035C40.7546 19.5332 40.7897 19.4981 40.8248 19.4278C40.86 19.3224 40.9302 19.217 40.9653 19.1117C41.0005 19.0414 41.0356 19.0063 41.0708 18.936C41.1059 18.8306 41.1761 18.7252 41.2113 18.6198C41.2464 18.5496 41.2464 18.5145 41.2815 18.4442C41.3518 18.3037 41.422 18.128 41.4923 17.9875C41.4923 17.9524 41.5274 17.9173 41.5274 17.9173C41.5977 17.7768 41.6328 17.6362 41.6679 17.5308C41.7031 17.4606 41.7031 17.4255 41.7382 17.3552C41.7733 17.2498 41.8084 17.1444 41.8436 17.039C41.8787 16.9688 41.8787 16.8985 41.9139 16.8283C41.949 16.7229 41.9841 16.6175 42.0192 16.5472C42.0543 16.477 42.0544 16.4067 42.0895 16.3716C42.1246 16.2662 42.1597 16.1257 42.1949 16.0203C42.1949 15.95 42.23 15.9149 42.23 15.8446C42.2651 15.7041 42.3003 15.5636 42.3354 15.4231C42.3354 15.3528 42.3705 15.2826 42.3705 15.2123C42.4056 15.1069 42.4057 15.0367 42.4408 14.9313C42.4408 14.8962 42.4408 14.861 42.4759 14.8259L45.2862 19.4629Z" fill="#27B727"/>
<path d="M21.7841 16.2313C22.03 15.7746 22.3813 15.3882 22.9082 15.072C23.5406 14.6856 24.1378 14.4748 24.7701 14.4397L24.5945 14.1587C23.9973 14.2641 23.365 14.51 22.7678 14.8964C22.1354 15.3179 21.6436 15.7746 21.3626 16.3016C21.0816 16.8285 21.0464 17.2852 21.2923 17.6716C21.2923 17.6716 21.2923 17.7067 21.3274 17.7067L19.6413 18.7606L19.7818 18.9714L21.3977 17.9526C21.5382 18.1985 21.5031 18.5147 21.3274 18.866C21.1167 19.2524 20.7654 19.6037 20.2384 19.9199C19.6764 20.2711 19.1494 20.4468 18.6928 20.4468C18.2361 20.4468 17.8848 20.3063 17.674 19.955C17.4633 19.6388 17.4632 19.2524 17.6389 18.8309C17.8145 18.4093 18.201 18.0229 18.7279 17.7067C19.4305 17.2852 20.0628 17.1095 20.6951 17.1798L20.941 16.8285C20.2384 16.7231 19.4656 16.9339 18.5874 17.496C17.9199 17.9175 17.4633 18.3742 17.2174 18.866C16.9714 19.3578 16.9363 19.8145 17.2174 20.236C17.4633 20.6224 17.8848 20.8332 18.482 20.7981C19.0792 20.763 19.7115 20.5522 20.4141 20.0955C20.8005 19.8496 21.0815 19.6037 21.3274 19.3578C21.5733 19.1119 21.7139 18.866 21.8193 18.6201C21.8895 18.4444 21.9247 18.2688 21.9247 18.0931C22.1003 18.1634 22.3462 18.1985 22.5921 18.1985C23.1893 18.1985 23.8216 17.9526 24.4891 17.5311C25.1214 17.1447 25.6132 16.688 25.9294 16.1962L25.7537 15.9151C25.4376 16.4772 24.9809 16.9339 24.3486 17.3203C23.8216 17.6716 23.2947 17.8121 22.8029 17.8121C22.3111 17.8121 21.9598 17.6365 21.7841 17.3554C21.5382 17.0393 21.5734 16.6529 21.7841 16.2313Z" fill="#27B727" stroke="#27B727" stroke-width="0.5" stroke-miterlimit="10"/>
<path d="M24.1237 21.9808C28.2508 19.3965 30.4613 15.4886 29.061 13.2525C27.6607 11.0163 23.1799 11.2985 19.0528 13.8829C14.9257 16.4672 12.7152 20.375 14.1155 22.6112C15.5158 24.8474 19.9966 24.5652 24.1237 21.9808Z" stroke="#27B727" stroke-width="0.5" stroke-miterlimit="10"/>
</svg>
