<svg width="759" height="759" viewBox="0 0 759 759" fill="none" xmlns="http://www.w3.org/2000/svg">
<g clip-path="url(#clip0)">
<path d="M27.5932 627.632L26.79 632.233C26.3884 634.534 24.3435 636.068 22.1523 635.775L17.9526 635.373C15.5058 635.118 13.2052 636.322 12.1097 638.514L10.9048 641.106L-4.43414 625.767L4.25752 628.178C6.55826 628.872 9.15106 627.886 10.5021 625.732L13.0947 622.044C14.1902 620.437 16.1987 619.743 18.1343 620.291L24.8904 622.738C26.753 623.578 27.9947 625.623 27.5932 627.632Z" fill="#0177FC"/>
<path d="M13.0708 825.126L-19.3601 792.695C-19.5793 792.111 -19.6158 791.563 -19.2141 791.161C-18.8124 790.76 -18.2647 790.723 -17.8995 791.234L14.5315 823.665C16.7593 825.747 20.3017 825.784 22.5292 823.629L76.9757 769.183C77.3409 768.745 77.8887 768.708 78.3269 769.146C78.7652 769.585 78.7652 770.096 78.4366 770.644L23.99 825.09C20.9956 827.792 16.1021 827.792 13.0708 825.126Z" fill="#030D18"/>
<path d="M-60.7755 751.28L-146.564 665.491C-149.377 662.313 -146.565 654.535 -146.565 654.535L-65.79 573.76C-65.79 573.76 -57.8655 571.095 -54.9073 573.834L83.1438 711.885C83.436 712.396 83.436 712.98 83.0343 713.382C82.6327 713.784 82.0849 713.82 81.6831 713.345L-56.368 575.294C-58.5227 573.14 -64.3291 575.221 -64.3291 575.221L-145.104 655.996C-145.104 655.996 -147.185 661.802 -145.104 664.03L-59.3148 749.819C-58.84 750.148 -58.84 750.732 -59.2417 751.134C-59.6434 751.535 -60.1912 751.499 -60.7755 751.28Z" fill="#030D18"/>
<path d="M-32.0346 754.459L-33.4589 753.034C-33.8241 752.669 -33.7877 752.121 -33.459 751.793L-3.00405 721.338C-3.00405 721.338 -1.98153 720.973 -1.57979 721.447L18.1052 741.132C18.5069 741.534 18.5435 742.082 18.1418 742.483C17.7401 742.885 17.1923 742.922 16.6445 742.593L-2.34655 723.602L-31.1948 752.45L-30.5374 753.107C-30.2452 753.4 -30.1356 753.874 -30.3913 754.203C-30.7929 754.897 -31.5233 754.97 -32.0346 754.459Z" fill="#0177FC"/>
<path d="M30.6311 736.057L-16.2259 689.2C-16.5911 688.834 -16.6277 688.214 -16.226 687.812L-4.06613 675.652C-3.70097 675.287 -3.08015 675.25 -2.67841 675.652L49.0725 727.403C49.3281 727.659 49.3281 727.951 49.3647 728.206C49.3647 728.499 49.1091 728.754 48.817 729.046L31.7997 736.349C31.325 736.458 30.8867 736.312 30.6311 736.057ZM-14.7287 688.506L31.544 734.779L46.8814 728.206L-3.77383 677.551L-14.7287 688.506Z" fill="#030D18"/>
<path d="M37.4519 611.052C37.3058 610.906 37.1962 610.797 37.1962 610.505L36.5386 605.757C34.9311 595.166 41.1386 584.576 51.2177 580.779L54.7599 579.428L56.403 575.886C57.9001 572.782 61.0406 570.737 64.2543 570.445L86.6404 568.949C87.1516 568.949 87.5899 569.387 87.5899 569.899C87.5899 570.41 87.1518 570.848 86.6405 570.848L64.2544 572.344C61.552 572.636 59.0688 574.243 57.8638 576.543L55.819 580.779C55.6364 580.962 55.4174 581.181 55.2348 581.364L51.8751 582.824C42.636 586.366 37.0857 596.007 38.5836 605.611L39.2413 610.359C39.2413 610.87 38.9492 611.454 38.4379 611.454C37.8536 611.454 37.7075 611.308 37.4519 611.052Z" fill="#030D18"/>
<path d="M83.6119 610.471C83.3563 610.216 82.9181 609.777 82.8085 609.376C81.7128 607.185 82.6621 604.628 84.8531 603.533L93.654 599.334C93.1062 598.275 92.4122 596.485 92.8503 594.44C93.2518 592.139 94.4934 590.094 96.9035 588.196C97.3052 587.794 97.9991 587.903 98.2547 588.451C98.6565 588.853 98.547 589.547 97.9992 589.802C95.9907 591.3 94.8588 592.943 94.7128 594.696C94.4573 597.143 95.7721 599.042 95.7721 599.042C95.9182 599.188 96.0278 599.589 96.0643 599.845C96.0643 600.137 95.8087 600.393 95.5165 600.393L85.5837 605.14C84.5246 605.687 83.9769 607.039 84.5248 608.39C85.0727 609.449 86.4239 609.997 87.7751 609.449L96.722 605.104C96.8681 604.958 97.1237 604.994 97.5254 605.104L113.156 610.656C116.406 611.715 121.701 610.802 125.39 607.114C127.836 604.668 130.137 600.176 127.543 592.981C126.046 588.782 123.745 585.897 120.349 584.399C114.907 581.952 108.955 584.106 108.808 583.96C108.407 584.07 108.005 583.96 107.713 583.668C107.457 583.412 107.421 582.864 107.713 582.572C107.713 582.572 112.606 574.684 109.173 569.133C106.214 563.984 100.043 566.284 99.7872 566.54C99.495 566.54 99.1298 566.686 98.9837 566.54C98.8376 566.394 98.582 566.138 98.582 565.846C97.8877 559.747 95.5868 555.547 92.2269 554.306C89.3784 553.356 85.8361 554.196 83.1338 556.898C80.4316 559.6 77.9486 564.493 79.5923 570.227C79.7019 570.629 79.4463 571.177 78.8985 571.432C78.4968 571.542 77.949 571.286 77.6934 570.738C75.6479 564.092 78.496 558.541 81.6364 555.4C85.0325 552.297 89.2687 551.055 92.7746 552.443C96.6822 553.941 99.4214 557.994 100.408 564.385C103.402 563.582 108.296 563.582 110.999 568.184C113.847 572.932 111.803 578.775 110.452 581.733C112.898 581.185 117.098 580.783 121.188 582.683C124.84 584.436 127.58 587.686 129.333 592.434C132.474 600.979 129.078 606.275 126.741 608.612C122.943 612.409 116.991 614.052 112.499 612.555L97.3064 607.149L88.6151 611.239C86.8258 612.078 84.8172 611.677 83.6119 610.471Z" fill="#030D18"/>
<path d="M26.6902 787.621L-7.93216 752.999C-7.93216 752.999 -8.18785 752.451 -8.22439 752.196C-8.22441 751.903 -7.96877 751.648 -7.67664 751.356L86.4304 710.789C86.9782 710.534 87.526 710.789 87.6355 711.191C87.8912 711.739 87.6356 712.286 87.2339 712.396L-5.52193 752.488L27.7126 785.722C33.0077 784.226 76.5377 771.374 107.322 755.198C118.716 749.209 125.91 742.308 128.758 734.858C134.746 718.863 123.898 690.925 85.7701 664.994C74.3757 657.105 59.5849 648.815 59.5849 648.815C59.5849 648.815 55.4945 644.505 55.6403 641.364C55.6401 638.37 57.539 635.667 60.2778 634.316L95.2985 617.483C95.4446 617.337 95.7002 617.374 96.1019 617.484L105.341 620.734C106.693 621.282 108.19 621.173 109.395 620.479C110.6 619.785 111.696 618.69 112.097 617.485C113.047 614.636 111.695 611.678 108.81 610.692L97.2698 606.747C96.8681 606.637 96.5759 606.053 96.5759 605.542C96.5759 605.031 97.2697 604.848 97.781 604.848L109.321 608.793C113.119 610.181 115.165 614.344 113.814 618.178C113.157 619.931 111.915 621.465 110.126 622.378C108.373 623.327 106.474 623.327 104.538 622.779L95.7004 619.638L60.6796 636.471C58.4886 637.567 57.2836 639.575 57.1376 641.912C57.0282 644.213 60.2787 647.463 60.2787 647.463L60.5343 647.719C74.1199 655.316 75.1789 655.864 86.6099 663.716C114.585 682.708 139.018 712.618 130.364 735.954C127.407 744.097 119.775 751.145 108.089 757.425C75.2232 774.514 27.9684 788.096 27.4206 788.133C27.238 787.877 26.9823 787.914 26.6902 787.621Z" fill="#030D18"/>
<path d="M96.2116 615.475C95.9559 615.22 95.8098 614.781 95.9193 614.38C96.0289 613.978 96.6131 613.686 97.1244 613.686C98.8773 614.343 101.032 613.284 101.726 611.495C101.726 611.203 101.981 610.947 102.273 610.947C102.419 610.801 102.675 610.838 103.077 610.947L109.833 613.395C110.235 613.504 110.527 614.088 110.527 614.6C110.417 615.001 109.833 615.294 109.322 615.294L103.333 613.102C102.128 615.403 99.2792 616.644 96.6863 615.658C96.3577 615.621 96.2116 615.475 96.2116 615.475Z" fill="#030D18"/>
<path d="M76.5261 585.784C77.3661 586.624 78.6808 586.624 79.5207 585.784C80.3605 584.944 80.3605 583.63 79.5205 582.79C78.6805 581.95 77.3657 581.95 76.5259 582.789C75.7225 583.593 75.6861 584.944 76.5261 585.784Z" fill="#030D18"/>
<path d="M65.9357 593.598C65.1323 592.795 64.7305 592.101 64.7305 592.101C64.4748 591.553 64.5844 591.151 64.986 590.75C65.5338 590.494 65.9355 590.604 66.3373 591.005C66.4834 591.151 69.7339 596.009 75.4308 594.694C75.8325 594.585 76.5264 594.987 76.636 595.388C76.7455 595.79 76.3439 596.484 75.9422 596.593C71.0852 597.725 67.5792 595.242 65.9357 593.598Z" fill="#030D18"/>
<path d="M75.9792 598.821C75.8331 598.675 75.7235 598.565 75.8696 598.419L74.2259 593.27C74.1163 592.868 74.3719 592.321 74.9197 592.065C75.3214 591.955 75.8692 592.211 76.1248 592.759L77.7685 597.908C77.8781 598.31 77.6225 598.858 77.0748 599.113C76.527 599.077 76.2348 599.077 75.9792 598.821Z" fill="#030D18"/>
<path d="M60.868 722.474L-75.2474 586.358C-75.6126 585.993 -75.6492 585.445 -75.3571 585.08C-74.9189 584.496 -74.2615 584.423 -73.8232 584.861L62.4017 721.086C62.7304 721.415 62.8034 721.853 62.6209 722.255C62.2557 723.058 61.3793 722.985 60.868 722.474Z" fill="#030D18"/>
<path d="M-36.8526 790.612C-37.8022 789.663 -38.4596 788.713 -39.1535 787.508C-39.4092 786.96 -39.1536 786.412 -38.7519 786.303C-38.2041 786.047 -37.6563 786.303 -37.5467 786.705C-36.3414 789.005 -32.251 794.41 -21.9528 792.001C-18.0088 791.052 -12.3119 789.153 -5.6656 786.816C-4.8622 786.524 -2.26944 785.319 0.578954 783.859C8.97807 779.769 15.6608 776.373 17.7059 776.519C18.2172 776.519 18.6554 776.958 18.6555 777.469C18.6555 777.98 18.2173 778.418 17.706 778.418C15.9531 778.272 6.86017 782.763 1.41901 785.502C-1.68501 786.999 -4.13171 788.35 -5.0812 788.496C-11.7275 790.833 -17.7165 792.731 -21.624 793.644C-27.8687 795.214 -33.4561 794.009 -36.8526 790.612Z" fill="#030D18"/>
<path d="M5.92818 488.821C9.61684 492.51 15.5695 492.474 19.2211 488.822C22.9093 485.134 22.8724 479.181 19.2203 475.529C15.5316 471.841 9.57901 471.877 5.92734 475.528C2.27567 479.18 2.27603 485.169 5.92818 488.821Z" fill="#0177FC"/>
<path d="M3.84873 525.961C3.59308 525.705 3.44698 525.267 3.70257 524.719L7.64615 517.781C7.90174 517.233 8.59558 517.124 8.85123 517.379C9.39903 517.635 9.39907 518.219 9.10695 518.731L5.16336 525.669C4.90777 526.217 4.39653 526.217 3.84873 525.961C3.99481 526.107 3.84873 525.961 3.84873 525.961Z" fill="#030D18"/>
<path d="M7.82894 518.986C7.68285 518.84 7.5733 518.73 7.71937 518.584L5.30854 509.893C5.19896 509.491 5.45455 508.943 6.00232 508.688C6.40402 508.578 6.95185 508.834 7.20752 509.381L9.39915 517.27L49.9711 505.988L-2.07046 476.222L2.53204 493.313C2.64162 493.715 2.38604 494.262 1.83827 494.518C1.43656 494.627 0.888733 494.372 0.633064 493.824L-4.66343 474.651C-4.66346 474.14 -4.51739 473.702 -4.26177 473.446C-4.00615 473.19 -3.45837 473.154 -3.1662 473.446L53.0387 505.477C53.4404 505.586 53.5865 506.025 53.4769 506.426C53.3674 506.828 53.0753 507.12 52.6736 507.23L8.6689 519.169C8.37675 519.169 8.15761 519.169 8.01152 519.023L7.90195 518.913L7.82894 518.986Z" fill="#030D18"/>
<path d="M-29.6006 551.011C-29.8562 550.755 -30.0023 550.317 -29.7467 549.769L-26.4604 544.072C-25.6206 542.721 -25.5111 541.224 -25.9129 539.727C-26.8626 536.075 -27.8125 530.743 -26.3155 527.127C-24.9645 523.877 -22.7736 519.787 -18.9757 518.984C-16.2368 518.437 -13.2787 519.788 -10.43 522.929C-9.22479 524.426 1.11099 537.975 0.307925 543.161C0.0524375 545.316 -1.18907 546.849 -3.23409 547.507C-7.28761 548.858 -12.8752 546.264 -18.9743 540.457C-19.376 540.056 -19.4125 539.508 -18.9743 539.07C-18.5727 538.668 -18.0249 538.632 -17.5867 539.07C-9.55196 546.812 -4.95063 546.009 -3.74553 545.608C-2.54043 545.206 -1.73705 544.11 -1.55454 542.905C-1.04353 539.107 -8.89584 528.261 -11.8907 524.17C-14.3376 521.723 -16.6384 520.518 -18.6834 520.883C-21.7875 521.577 -23.8323 525.521 -24.6721 527.675C-26.0231 530.925 -24.8176 536.221 -24.1235 539.106C-23.6121 541.005 -23.8676 543.159 -24.7805 544.949L-28.0668 550.646C-28.3224 551.193 -28.9067 551.193 -29.418 550.901C-29.491 551.12 -29.491 551.12 -29.6006 551.011Z" fill="#030D18"/>
<path d="M-19.7065 520.737C-19.8526 520.591 -19.9621 520.482 -19.9621 520.189C-20.1083 518.144 -19.8163 516.538 -19.5242 515.442C-18.3193 512.046 -15.8728 507.992 -12.1844 507.299C-9.44545 506.751 -6.4873 508.102 -3.63861 511.243C-2.43338 512.741 7.90238 526.29 7.09927 531.476C6.80724 533.374 5.74825 535.018 4.25101 535.712C2.75376 536.405 -0.0947079 536.77 -4.44064 534.323C-4.98844 534.068 -4.98845 533.483 -4.8424 533.118C-4.5868 532.57 -4.0025 532.57 -3.6373 532.717C-0.64263 534.324 1.65813 534.725 3.30144 533.959C4.50653 533.265 4.90815 532.06 5.05416 531.11C5.5652 527.312 -2.28709 516.466 -5.28192 512.375C-7.72885 509.928 -10.0296 508.723 -12.0747 509.088C-15.1788 509.782 -17.2236 513.726 -18.0634 515.88C-18.319 516.428 -18.465 517.67 -18.4649 519.788C-18.4648 520.299 -18.903 520.737 -19.4143 520.737C-19.4508 520.993 -19.5604 520.883 -19.7065 520.737Z" fill="#030D18"/>
<path d="M-5.86632 510.987C-8.86107 507.993 -9.40922 502.843 -6.81669 498.352C-5.46566 495.905 -3.27464 494.006 -0.864446 493.203C1.69181 492.254 4.28463 492.364 6.32977 493.605C10.6757 496.052 11.7352 502.297 8.92359 507.3C5.9294 512.486 -0.0230339 514.64 -4.36895 512.193C-4.77069 511.791 -5.35502 511.499 -5.86632 510.987ZM6.76821 496.162C6.36648 495.76 6.0743 495.468 5.5265 495.212C3.91961 494.409 1.87453 494.262 -0.17048 494.919C-2.21549 495.577 -4.00479 497.366 -5.17325 499.411C-7.47365 503.61 -6.81595 508.65 -3.27349 510.513C0.122911 512.522 5.0163 510.623 7.31669 506.423C9.47104 502.662 9.06906 498.462 6.76821 496.162Z" fill="#030D18"/>
<path d="M15.8258 512.596C15.6797 512.45 15.5701 512.34 15.5701 512.048L8.81082 461.542C8.70123 461.14 9.24898 460.592 9.76024 460.592C10.2715 460.592 10.8558 460.884 10.8559 461.396L17.5056 511.792C17.5056 512.304 17.2135 512.888 16.7023 512.888C16.2275 512.997 15.9719 512.742 15.8258 512.596Z" fill="#030D18"/>
<path d="M-5.71654 564.598C-5.97219 564.342 -6.11831 563.904 -5.86271 563.356L-2.57634 557.659C-1.88255 556.454 -0.933139 555.505 0.125862 554.665C3.37593 552.51 11.1176 546.376 12.5047 536.077C13.1982 531.878 16.1562 531.038 19.9542 530.235C22.8026 529.578 26.345 528.738 30.5445 526.438C33.8311 524.539 35.4013 522.092 34.6342 519.937C33.6845 517.089 29.0464 514.642 23.2034 515.591C22.6922 515.591 22.1079 515.299 22.1078 514.787C22.1078 514.276 22.3999 513.692 22.9112 513.692C29.0463 512.743 34.853 515.336 36.4966 519.39C36.8985 520.887 37.5926 524.795 31.4576 528.227C26.9659 530.82 23.168 531.623 20.3195 532.28C16.0834 533.229 14.7322 533.777 14.3672 536.625C12.7246 547.764 4.61771 554.263 1.18507 556.6C0.345161 557.148 -0.458229 557.952 -0.969425 559.047L-4.25575 564.744C-4.51135 565.292 -5.09569 565.292 -5.60697 564.999C-5.71656 564.598 -5.71654 564.598 -5.71654 564.598Z" fill="#030D18"/>
<path d="M-57.4639 574.198C-57.7196 573.943 -57.7561 573.395 -57.6101 572.957C-57.2084 572.263 -46.1807 556.122 -31.8292 547.979C-31.5736 547.724 -31.1719 547.833 -30.7336 547.979L-0.348596 566.168C0.199208 566.424 0.199249 567.008 0.0531946 567.373L-20.5774 609.186C-20.833 609.734 -21.4173 609.734 -21.7825 609.588C-22.3303 609.332 -22.3303 608.748 -22.1843 608.383L-1.95534 567.556L-31.1717 550.317C-44.8659 558.313 -55.711 574.345 -55.857 574.491C-56.0761 574.491 -56.77 574.6 -57.4639 574.198C-57.3178 574.344 -57.3178 574.344 -57.4639 574.198Z" fill="#030D18"/>
<path d="M88.987 714.442C85.3348 710.789 85.8459 707.795 85.8459 707.795C85.8458 707.284 86.3936 706.955 86.9414 706.992C87.4527 706.992 87.7814 707.539 87.7449 708.087C87.7449 708.087 87.3434 711.191 92.2007 714.734C92.6024 715.136 92.639 715.683 92.4564 716.085C92.3469 716.487 91.5069 716.523 91.1052 716.341C90.2287 715.683 89.5348 714.989 88.987 714.442Z" fill="#030D18"/>
<path d="M-21.0157 606.995C-21.2713 606.739 -21.4174 606.301 -21.1618 606.045C-21.0523 605.644 -20.468 605.352 -19.9567 605.352C-15.0631 606.959 -10.5713 606.046 -5.82384 605.097C2.31981 603.454 11.4129 601.446 25.5464 611.49C25.9482 611.892 26.0943 612.33 25.8021 612.841C25.4005 613.243 24.9623 613.389 24.451 613.097C11.1574 603.601 2.61205 605.353 -5.42203 607.106C-10.4616 608.055 -15.0629 609.15 -20.6139 607.397C-20.8696 607.141 -20.8696 607.141 -21.0157 606.995Z" fill="#030D18"/>
<path d="M310.7 812.874C310.554 812.728 310.445 812.619 310.445 812.327C307.851 798.632 304.636 783.951 303.796 779.605C303.65 778.948 303.504 778.509 303.54 778.254C303.54 777.743 303.833 777.158 304.344 777.158C304.855 777.158 305.439 777.451 305.439 777.962C305.439 777.962 305.549 778.364 305.732 779.057C306.28 781.504 308.033 787.64 311.283 789.502C312.342 790.05 313.584 790.196 314.826 789.758C320.011 787.859 319.827 768.176 318.621 756.088C318.621 755.576 319.06 755.138 319.425 754.992C319.936 754.992 320.374 755.43 320.52 755.796C320.922 759.192 323.773 788.407 315.483 791.511C313.73 792.168 311.941 792.059 310.48 791.109C309.421 790.561 308.581 789.721 307.887 788.808C309.239 795.345 310.992 803.891 312.636 812.035C312.636 812.546 312.344 813.13 311.832 813.13C311.248 813.13 310.81 812.984 310.7 812.874Z" fill="#0177FC"/>
<path d="M397.458 224.039C395.689 214.931 399.221 203.63 406.56 196.292C411.478 191.373 422.788 184.103 441.074 190.678C451.189 194.392 458.107 200.216 461.826 207.995C465.854 216.708 464.976 225.666 463.795 230.887C470.11 227.99 482.582 223.599 492.691 229.649C502.49 235.388 502.465 245.824 500.736 252.214C514.282 254.206 522.991 259.948 526.163 268.429C529.026 275.977 526.435 284.939 519.797 292.198C513.552 298.443 502.713 304.155 489.791 301.383L487.933 329.19C487.371 336.123 482.993 342.831 476.288 345.963L468.725 349.486L465.825 357.047C457.595 378.484 435.056 391.856 412.479 388.484L402.203 386.952C401.58 386.797 401.502 386.72 401.191 386.409C400.648 385.865 400.337 385.554 400.262 384.386C400.264 383.296 401.746 382.591 402.836 382.589L412.645 384.122C433.198 387.188 453.787 375.3 461.311 355.656L464.444 348.484C464.834 348.093 465.303 347.625 465.693 347.234L474.738 342.851C479.65 340.269 483.168 335.043 483.727 329.2L485.824 299.445C485.514 298.979 485.437 298.434 485.594 297.966C485.673 297.732 485.829 297.576 485.985 297.42L487.114 281.53C487.116 280.44 488.053 279.503 489.144 279.5C490.234 279.497 491.166 280.43 491.164 281.52L490.113 297.021C501.478 299.485 511.147 294.477 516.612 289.013C522.389 283.235 524.199 275.677 522.189 269.607C519.636 262.37 510.692 257.486 497.611 256.116C496.988 256.117 496.445 255.573 496.134 255.263C495.823 254.952 496.136 254.172 496.138 253.549C496.684 253.003 501.701 239.907 490.657 233.548C478.759 226.334 461.99 236.732 461.99 236.732C461.443 237.279 460.275 237.36 459.653 236.738C459.109 236.194 458.8 235.26 459.036 234.403C458.725 234.092 463.429 221.309 458.161 209.795C454.986 202.56 448.923 197.591 439.897 194.497C424.568 189.005 414.977 193.935 409.746 199.166C401.939 206.973 399.809 218.27 402.128 225.274L403.211 228.386C404.297 230.097 404.839 231.42 406.081 233.286C406.158 233.363 406.236 233.441 406.158 233.519L414.899 257.874C414.898 258.497 414.74 259.276 414.505 259.822C414.505 259.978 414.426 260.056 414.27 260.212L404.956 279.315C403.781 282.2 404.942 285.078 407.198 286.241C410.077 287.402 412.961 286.227 414.135 283.966L424.311 262.758C424.312 262.135 424.859 261.588 425.482 261.587C426.105 261.585 426.883 261.895 427.193 262.206C427.193 262.206 431.236 265.155 436.456 264.442C440.195 264.121 443.705 261.854 446.909 257.407C447.457 256.238 448.937 256 449.792 256.855C450.958 257.397 451.188 258.876 450.33 259.735C446.267 264.885 441.9 267.544 436.991 268.412C432.706 269.279 428.893 267.809 426.559 266.724L417.558 285.515C415.21 290.194 409.753 292.232 405.086 289.907C404.23 289.675 403.298 288.743 402.754 288.199C400.19 285.635 399.266 281.276 400.755 277.456L409.523 258.9L399.236 229.564C396.283 227.079 392.157 226.233 388.104 227.644C385.532 228.507 383.19 230.849 381.704 233.423C380.218 235.997 379.977 239.19 381.138 242.069L388.021 261.756C388.253 262.612 388.329 263.157 388.017 263.469L351.933 338.243C349.037 344.091 343.186 348.077 336.878 348.17C330.569 348.419 325.047 345.396 321.71 340.342C321.4 339.875 321.324 339.33 321.403 338.785C321.403 338.629 321.559 338.473 321.637 338.395C322.262 337.926 323.431 337.222 323.819 338.078C326.456 342.433 330.733 344.992 335.64 344.747C340.547 344.501 344.915 341.843 347.263 337.164L382.878 263.17C383.113 262.624 383.192 262.079 382.96 261.534L376.695 243.715L376.695 243.559C375.614 239.512 375.546 235.541 377.58 231.797C379.614 228.054 382.814 225.476 386.556 223.91C390.297 222.499 394.113 222.723 397.458 224.039Z" fill="#030D18"/>
<path d="M391.988 259.425C389.886 254.08 392.23 248.169 396.932 245.794L392.155 233.352C392.128 232.293 392.702 231.098 393.528 230.892C394.587 230.919 395.813 231.555 396.061 232.393L401.485 246.515C401.733 247.353 401.823 247.884 401.528 248.179C401.543 248.784 401.027 249.3 400.422 249.285C396.826 250.553 394.673 255.034 396.127 258.699C396.154 259.758 395.579 260.953 394.753 261.158C393.927 261.364 393.089 261.116 392.469 260.496C392.546 260.573 392.314 260.34 391.988 259.425Z" fill="#030D18"/>
<path d="M461.893 303.011C463.898 301.005 464.063 298.032 462.269 296.238C460.475 294.443 457.501 294.609 455.496 296.614C453.491 298.619 457.946 296.972 459.741 298.766C461.535 300.56 459.887 305.016 461.893 303.011Z" fill="#030D18"/>
<path d="M429.362 300.691L440.436 304.448C441.618 305.021 442.191 306.203 441.976 307.055C441.457 308.213 440.299 308.732 439.436 308.479L435.98 307.31C434.518 318.501 444.176 325.11 444.495 325.429C445.372 326.306 445.705 327.249 445.106 328.327C444.267 329.165 443.339 329.456 442.233 328.807C442.233 328.807 440.732 327.916 438.977 326.162C435.549 322.733 430.555 315.605 431.897 305.971L428.361 304.722C428.056 305.027 427.737 304.708 427.498 304.468C426.94 303.91 426.926 303.286 426.822 302.115C427.341 300.957 428.419 300.358 429.362 300.691Z" fill="#030D18"/>
<path d="M313.669 645.072C319.76 649.448 326.474 653.355 333.266 656.717C340.059 660.078 347.162 662.972 354.5 665.007C361.837 667.042 369.33 668.141 376.821 667.836C384.312 667.53 391.646 665.663 398.042 661.923C399.602 660.988 401.24 659.975 402.644 658.884C403.345 658.338 404.047 657.792 404.827 657.169C405.451 656.545 406.231 655.921 406.776 655.219C409.349 652.49 411.61 649.605 413.714 646.407C417.845 640.09 421.194 633.147 424.154 626.126C429.995 612.006 434.508 597.183 438.397 582.359C446.019 552.556 451.534 522.048 454.629 491.46C455.016 487.636 455.403 483.813 455.633 479.989C455.864 476.165 456.173 472.264 456.17 468.674C456.167 465.396 454.37 462.195 452.338 459.228C450.228 456.183 447.729 453.371 445.073 450.716C439.762 445.249 433.905 440.327 427.892 435.562C421.879 430.796 415.632 426.265 409.307 421.967L409.464 422.124C404.857 419.544 400.329 416.887 395.878 413.84C393.614 412.355 391.427 410.793 389.397 409.074C388.382 408.215 387.288 407.277 386.351 406.184C385.804 405.637 385.335 405.013 384.945 404.31C384.71 403.92 384.476 403.529 384.319 403.061C384.163 402.593 384.006 402.28 383.928 401.89C383.536 400.251 383.535 398.69 383.612 397.207C383.689 395.725 384 394.32 384.389 392.994C385.089 390.263 386.101 387.689 387.581 385.115C387.893 384.491 388.361 383.867 388.828 383.243C389.296 382.619 389.842 382.074 390.7 381.372C391.168 381.06 391.636 380.748 392.416 380.593C392.806 380.515 393.274 380.516 393.82 380.594L394.211 380.673L394.289 380.751L394.523 380.829C395.147 380.986 395.694 381.22 396.318 381.377C398.816 382.003 401.314 382.474 403.811 382.944C404.982 383.179 405.841 384.35 405.608 385.521C405.375 386.691 404.283 387.471 403.035 387.313C400.381 386.843 397.883 386.373 395.23 385.746C394.605 385.589 393.903 385.355 393.278 385.198L393.044 385.12L392.888 385.12L392.966 385.198C393.122 385.198 393.278 385.198 393.278 385.198C393.434 385.198 393.356 385.12 393.278 385.198C393.122 385.354 392.732 385.744 392.343 386.134C392.031 386.602 391.719 387.07 391.407 387.537C390.238 389.487 389.304 391.828 388.682 394.168C388.137 396.431 387.827 398.928 388.297 400.801C388.533 402.284 390.485 404.081 392.281 405.721C394.156 407.283 396.264 408.768 398.372 410.252C402.667 413.143 407.117 415.879 411.567 418.302L411.645 418.38L411.724 418.458C418.205 422.912 424.451 427.443 430.542 432.287C436.634 437.13 442.569 442.286 448.036 447.909C450.77 450.799 453.426 453.767 455.77 457.046C456.942 458.686 457.958 460.482 458.818 462.433C459.287 463.37 459.6 464.463 459.913 465.556C460.226 466.649 460.305 467.819 460.306 468.912C460.31 472.97 459.923 476.793 459.614 480.695C459.227 484.518 458.762 488.42 458.375 492.243C457.367 499.968 456.282 507.615 455.039 515.261C453.797 522.908 452.555 530.555 451.079 538.123C448.361 553.338 445.096 568.475 441.363 583.455C437.553 598.512 433.195 613.336 427.355 627.768C424.396 634.945 421.046 642.043 416.838 648.751C414.734 652.105 412.317 655.302 409.588 658.187C408.263 659.669 406.703 661.072 405.066 662.241C403.506 663.488 401.79 664.58 400.074 665.514C393.132 669.488 385.096 671.589 377.137 671.894C369.177 672.199 361.294 671.022 353.723 668.908C346.151 666.795 338.813 663.823 331.865 660.305C324.916 656.788 318.124 652.802 311.799 648.192C311.096 647.646 310.861 646.631 311.407 645.773C311.796 644.603 312.81 644.369 313.669 645.072Z" fill="#030D18"/>
<path d="M259.302 215.585C265.815 218.191 273.306 216.605 278.191 211.508C283.293 206.298 284.813 198.256 282.099 191.234" stroke="#0177FC" stroke-width="3" stroke-miterlimit="10" stroke-linecap="round" stroke-linejoin="round"/>
<path d="M313.581 213.772C307.013 216.645 299.333 215.429 293.99 210.789C288.536 205.928 286.532 198.194 288.981 191.234" stroke="#0177FC" stroke-width="3" stroke-miterlimit="10" stroke-linecap="round" stroke-linejoin="round"/>
<path d="M259.302 222.832C265.921 219.981 273.662 221.297 278.935 226.011C284.432 230.836 286.339 238.511 283.871 245.419" stroke="#0177FC" stroke-width="3" stroke-miterlimit="10" stroke-linecap="round" stroke-linejoin="round"/>
<path d="M313.581 221.152C306.693 218.418 298.888 220.013 293.607 225.14C288.212 230.38 286.49 238.469 289.245 245.419" stroke="#0177FC" stroke-width="3" stroke-miterlimit="10" stroke-linecap="round" stroke-linejoin="round"/>
<path d="M495 521.621C500.269 523.616 506.322 522.397 510.357 518.517C514.505 514.527 515.738 508.32 513.496 503" stroke="#0177FC" stroke-width="3" stroke-miterlimit="10" stroke-linecap="round" stroke-linejoin="round"/>
<path d="M540.232 519.871C535.244 522.085 529.389 521.136 525.268 517.656C521.039 513.966 519.521 508.272 521.473 503" stroke="#0177FC" stroke-width="3" stroke-miterlimit="10" stroke-linecap="round" stroke-linejoin="round"/>
<path d="M496.508 528.275C501.632 526.007 507.519 527.028 511.553 530.884C515.696 534.854 517.222 541.092 515.26 546.649" stroke="#0177FC" stroke-width="3" stroke-miterlimit="10" stroke-linecap="round" stroke-linejoin="round"/>
<path d="M540.232 528.107C534.995 525.997 528.979 527.219 524.968 531.105C520.845 535.102 519.508 541.32 521.625 546.649" stroke="#0177FC" stroke-width="3" stroke-miterlimit="10" stroke-linecap="round" stroke-linejoin="round"/>
<path d="M523 378.533C534.426 383.023 547.309 380.216 556.047 371.573C564.896 362.593 567.697 348.899 562.88 337" stroke="#0177FC" stroke-width="3" stroke-miterlimit="10" stroke-linecap="round" stroke-linejoin="round"/>
<path d="M614.972 376.408C603.734 381.446 590.697 379.431 581.595 371.147C572.267 362.638 568.783 349.091 573.054 337" stroke="#0177FC" stroke-width="3" stroke-miterlimit="10" stroke-linecap="round" stroke-linejoin="round"/>
<path d="M524.508 389.265C535.403 384.377 548.151 386.488 556.867 394.82C565.91 403.374 569.07 416.816 564.93 428.815" stroke="#0177FC" stroke-width="3" stroke-miterlimit="10" stroke-linecap="round" stroke-linejoin="round"/>
<path d="M614.972 387.393C603.594 382.778 590.765 385.479 582.064 394.146C573.14 403.038 570.351 416.771 574.925 428.814" stroke="#0177FC" stroke-width="3" stroke-miterlimit="10" stroke-linecap="round" stroke-linejoin="round"/>
</g>
<defs>
<clipPath id="clip0">
<rect width="597.064" height="475.627" fill="white" transform="translate(336.319) rotate(45)"/>
</clipPath>
</defs>
</svg>
