<svg width="294" height="151" viewBox="0 0 294 151" fill="none" xmlns="http://www.w3.org/2000/svg">
<path d="M178.576 34.2262C179.858 33.0948 186.119 27.0606 185.515 19.0654C185.364 16.7271 184.686 14.9923 184.308 14.238C182.8 10.7684 179.632 7.22331 173.371 4.80964C167.941 2.69768 163.113 2.54682 158.739 4.65878C151.648 7.97758 148.707 15.7466 148.481 15.7466C148.254 16.2746 147.802 16.5763 147.274 16.5763C146.746 16.5763 146.218 16.1237 146.218 15.6711C146.218 15.6711 142.597 4.1308 134.225 2.69768C126.607 1.26456 123.665 9.25984 123.665 9.78783C123.439 10.0895 123.212 10.5421 122.986 10.6175C122.76 10.6175 122.232 10.693 121.93 10.4667C115.293 5.94105 109.183 4.65878 105.035 6.9216C101.64 8.95813 99.4529 13.1066 99.8301 18.1602C100.207 23.1384 102.923 29.776 109.937 33.0194C110.465 33.2457 110.767 33.9999 110.541 34.7542C110.314 35.2822 109.56 35.5839 108.806 35.3576C100.509 31.7371 97.4164 24.119 96.9638 18.3865C96.7375 12.3523 99.1512 7.14788 103.526 4.80964C108.353 2.16969 114.689 2.99939 121.855 7.44959C123.59 3.82909 127.738 -1.07367 134.677 0.208589C141.843 1.41542 145.841 8.43014 147.651 12.3524C149.235 9.48612 152.403 4.9605 157.758 2.54683C162.661 0.434869 168.167 0.510297 174.352 2.84854C185.44 7.07246 187.778 14.9169 188.155 19.2162C188.683 26.2309 185.214 33.5474 179.858 36.7153C179.783 36.7153 178.878 36.6399 178.425 35.8102C178.199 35.0559 178.501 34.3016 178.576 34.2262Z" fill="#0E2B49"/>
<path d="M131.888 53.8374C133.396 53.6865 134.528 52.4043 134.452 50.8957C134.377 49.3872 133.019 48.2558 131.51 48.3312C130.002 48.4821 128.871 49.7643 128.946 51.2729C129.021 52.7814 130.304 53.9128 131.888 53.8374Z" fill="#0E2B49"/>
<path d="M155.948 54.2143C157.457 54.0635 158.588 52.7812 158.513 51.2727C158.437 49.7641 157.08 48.6327 155.571 48.7082C154.062 48.859 152.931 50.1413 153.006 51.6498C153.157 53.1583 154.44 54.2897 155.948 54.2143Z" fill="#0E2B49"/>
<path d="M195.397 34.7543C191.852 30.832 185.742 30.5303 181.82 34.0754L178.803 36.8662C178.954 37.9222 179.104 38.9027 179.255 39.9587L183.705 35.8857C186.572 33.1703 190.871 33.472 193.511 36.3382C194.642 37.5451 195.246 39.5062 195.246 41.3164C195.246 43.1267 194.492 44.9369 193.058 46.1437L183.555 54.7424C183.177 55.1196 182.951 55.4213 183.027 55.6476C183.027 55.7984 183.102 56.4018 183.555 56.7035C184.158 57.1561 185.139 57.0053 185.817 56.3264C188.835 53.611 191.852 50.8957 194.869 48.1049C196.679 46.2946 197.886 44.1072 197.886 41.4673C197.961 38.9782 196.981 36.6399 195.397 34.7543Z" fill="#0E2B49"/>
<path d="M190.72 37.1677C190.192 36.7151 189.363 36.5642 188.91 36.8659L180.915 41.8441C180.462 42.1459 180.236 42.4476 180.236 42.6738C180.01 42.9756 180.085 43.4281 180.387 43.6544C181.292 45.2384 181.217 47.2749 180.236 48.7834C180.236 49.3114 180.311 49.9148 180.311 50.4428C180.311 51.0462 180.387 51.7251 180.387 52.3285C180.462 52.2531 180.538 52.2531 180.613 52.1777C183.706 50.292 184.762 46.3698 183.329 43.2773L190.419 38.9025C190.796 38.4499 191.022 37.6202 190.72 37.1677Z" fill="#0E2B49"/>
<path d="M92.8161 35.2066C95.9086 30.9827 101.943 30.0776 106.242 33.1701L109.561 35.6592C109.485 36.7151 109.41 37.6957 109.41 38.7517L104.583 35.1312C101.49 32.7175 97.2663 33.4718 94.8526 36.5643C93.7967 37.922 93.4195 39.8831 93.6458 41.6933C93.7967 43.5036 94.7772 45.2384 96.3612 46.2944L106.619 53.9125C107.072 54.2897 107.298 54.5159 107.223 54.8176C107.223 54.9685 107.223 55.5719 106.77 55.9491C106.242 56.477 105.262 56.477 104.432 55.7982C101.113 53.3845 97.8697 50.9709 94.5509 48.5572C92.5898 46.8978 91.1567 44.8613 90.9304 42.2213C90.7041 39.6568 91.383 37.2431 92.8161 35.2066Z" fill="#0E2B49"/>
<path d="M97.7187 37.1678C98.2466 36.6398 99.0009 36.4135 99.4535 36.7152L107.901 40.8637C108.429 41.09 108.656 41.3917 108.656 41.618C108.882 41.8443 108.882 42.3722 108.656 42.5985C107.901 44.2579 108.203 46.2945 109.334 47.7276C109.334 48.2556 109.41 48.859 109.41 49.387C109.485 49.9904 109.485 50.6692 109.561 51.2726C109.485 51.2726 109.41 51.1972 109.259 51.1218C106.016 49.5378 104.583 45.7665 105.638 42.5231L98.1712 38.9026C97.7187 38.3746 97.4924 37.6203 97.7187 37.1678Z" fill="#0E2B49"/>
<path d="M115.896 55.7986C115.896 50.3679 115.896 44.9371 115.896 39.5063" stroke="#0E2B49" stroke-width="3" stroke-miterlimit="10" stroke-linecap="round"/>
<path d="M110.315 34.8296C110.466 41.6935 110.617 48.6328 110.768 55.4966" stroke="#0E2B49" stroke-width="3" stroke-miterlimit="10" stroke-linecap="round"/>
<path d="M179.18 55.8739C179.18 49.1609 179.18 42.4479 179.18 35.7349" stroke="#0E2B49" stroke-width="3" stroke-miterlimit="10" stroke-linecap="round"/>
<path d="M173.598 40.2603C173.749 45.5402 173.899 50.8955 174.05 56.1754" stroke="#0E2B49" stroke-width="3" stroke-miterlimit="10" stroke-linecap="round"/>
<path d="M216.893 148.8H71.5454C66.5672 148.8 62.4941 144.727 62.4941 139.749V65.3022C62.4941 60.324 66.5672 56.251 71.5454 56.251H216.893C221.872 56.251 225.945 60.324 225.945 65.3022V139.749C225.945 144.727 221.872 148.8 216.893 148.8Z" stroke="#0E2B49" stroke-width="3.5" stroke-miterlimit="10"/>
<path d="M142.749 118.403C151.497 118.403 158.589 111.311 158.589 102.563C158.589 93.8153 151.497 86.7236 142.749 86.7236C134.001 86.7236 126.909 93.8153 126.909 102.563C126.909 111.311 134.001 118.403 142.749 118.403Z" fill="#0177FC"/>
<path d="M63.1729 76.0126L46.2019 85.5918L37.754 90.4192L33.5301 92.8328L31.4181 94.0397L29.3816 95.2465C18.5955 102.035 9.99684 112.142 3.73639 123.23C2.30327 125.87 1.85071 129.038 2.15242 132.13C2.45413 135.147 3.58553 138.24 5.62206 140.352C6.60262 141.408 7.88488 142.162 9.24257 142.388C9.54428 142.464 9.92141 142.464 10.2985 142.464H11.5054H13.919H23.6491L43.1093 142.388L62.4941 142.162V144.802L43.0339 144.651L23.5737 144.576H13.8436H11.43H10.2231C9.77056 144.576 9.31799 144.5 8.86543 144.425C6.97975 144.123 5.32035 143.067 4.11352 141.785C2.83126 140.503 2.00156 138.919 1.32272 137.335C0.719303 135.751 0.266739 134.016 0.115885 132.357C-0.261251 128.962 0.26674 125.417 1.92614 122.325C5.1695 116.517 8.94086 111.162 13.3156 106.259C17.6904 101.356 22.6686 96.9813 28.2502 93.4362L61.9661 73.8252L63.1729 76.0126Z" fill="#0E2B49"/>
<path d="M40.4696 118.22L45.6741 115.882C47.4089 115.128 49.0683 114.298 50.954 113.544C52.7643 112.865 54.7254 112.261 56.611 111.884C57.5916 111.658 58.5721 111.582 59.5527 111.432C60.0807 111.356 60.5333 111.356 61.0612 111.281H61.8155H62.1926H62.3435H62.4189H62.4944C62.4944 111.884 62.4944 109.999 62.4944 112.563C62.4944 115.203 62.4944 113.317 62.4944 113.921H62.4189H62.3435H62.1926H61.8155H61.1367C60.6841 113.921 60.2315 113.996 59.779 113.996C58.8739 114.072 57.9687 114.147 57.0636 114.373C55.2534 114.675 53.5185 115.128 51.7837 115.806C50.0489 116.41 48.3141 117.24 46.5792 117.994L41.3748 120.257C40.8468 120.483 40.1679 120.257 39.9416 119.653C39.6399 119.05 39.8662 118.446 40.4696 118.22Z" fill="#0E2B49"/>
<path d="M226.548 73.75L262.753 93.2856C268.787 96.7553 274.218 101.205 279.045 106.184C281.459 108.673 283.722 111.313 285.834 114.104C286.89 115.461 287.87 116.894 288.851 118.327C289.379 119.006 289.831 119.761 290.284 120.515C290.737 121.269 291.189 121.948 291.642 122.778C293.301 126.021 293.829 129.868 293.226 133.413C292.924 135.223 292.396 136.958 291.491 138.542C290.661 140.126 289.454 141.634 287.87 142.766C286.362 143.897 284.401 144.501 282.44 144.501H277.311H267.052L246.461 144.576L225.869 144.727V142.162L246.461 142.313L267.052 142.389H277.311H282.44C283.948 142.389 285.381 141.936 286.664 141.031C289.153 139.221 290.661 136.128 291.189 132.96C291.717 129.792 291.265 126.398 289.756 123.607C282.892 112.142 273.313 101.809 261.546 95.0959C249.553 88.6091 237.334 82.2733 225.19 75.9374L226.548 73.75Z" fill="#0E2B49"/>
<path d="M248.874 110.181L243.217 107.919C241.331 107.164 239.446 106.335 237.56 105.731C235.674 105.128 233.789 104.6 231.828 104.298C230.847 104.147 229.867 103.996 228.886 103.921C228.358 103.846 227.905 103.846 227.377 103.846H226.623H226.246H226.095H226.02H225.944C225.944 103.242 225.944 105.128 225.944 102.488C225.944 99.8479 225.944 101.734 225.944 101.206H226.02H226.095H226.321H226.699H227.528C228.056 101.206 228.584 101.281 229.112 101.356C230.168 101.432 231.224 101.583 232.28 101.809C234.392 102.186 236.429 102.714 238.39 103.393C240.426 104.072 242.237 104.977 244.122 105.731L249.779 108.145C250.307 108.371 250.609 109.05 250.383 109.578C250.081 110.181 249.478 110.408 248.874 110.181Z" fill="#0E2B49"/>
</svg>
