<svg width="328" height="317" viewBox="0 0 328 317" fill="none" xmlns="http://www.w3.org/2000/svg">
<path d="M206.959 135.93C206.741 135.857 206.451 135.857 206.306 135.567L202.387 131.002C193.534 120.931 192.953 105.498 201.081 94.629L203.911 90.7888L203.258 85.9341C202.75 81.5867 204.637 77.3842 207.975 74.8482L230.761 58.1106C231.341 57.7483 232.067 57.8932 232.43 58.4729C232.792 59.0525 232.647 59.7771 232.067 60.1394L209.281 76.877C206.596 78.9783 205.072 82.3837 205.362 85.6443L206.015 91.4409C205.943 91.6583 205.87 92.1655 205.798 92.3828L203.185 96.2955C195.784 106.295 196.364 120.279 204.492 129.408L208.41 133.973C208.773 134.553 208.846 135.277 208.265 135.64C207.684 136.074 207.467 136.002 206.959 135.93Z" fill="#0E2B49"/>
<path d="M255.36 104.048C254.925 103.976 254.199 103.759 253.764 103.469C251.152 101.875 250.426 98.5416 251.95 95.9332L258.481 85.4993C257.175 84.7023 255.288 83.3256 254.345 80.8621C253.183 78.1087 253.111 75.138 254.417 71.5151C254.562 70.7905 255.36 70.5007 256.014 70.863C256.739 71.0079 257.029 71.8049 256.667 72.4571C255.506 75.4278 255.433 77.8913 256.521 79.8477C257.9 82.601 260.585 83.6879 260.585 83.6879C260.803 83.7604 261.238 84.0502 261.456 84.34C261.674 84.6299 261.529 85.0646 261.238 85.282L253.909 97.0925C253.111 98.3967 253.474 100.208 254.925 101.295C256.231 102.092 258.045 101.73 259.134 100.208L265.737 89.5569C265.81 89.3396 266.1 89.1222 266.608 88.9773L286.927 84.2676C291.136 83.1807 296.07 78.6159 297.522 72.2397C298.465 67.9647 297.884 61.7334 290.265 55.8644C285.838 52.3864 281.484 50.9373 276.84 51.6619C269.438 52.7487 264.576 59.1249 264.359 59.0525C263.996 59.4872 263.488 59.6321 263.052 59.4872C262.617 59.4148 262.182 58.8351 262.327 58.3279C262.327 58.3279 262.182 46.6623 254.852 43.1119C248.176 39.7064 243.242 46.2276 243.169 46.7348C242.879 46.9521 242.516 47.3144 242.298 47.3144C242.081 47.242 241.573 47.1695 241.428 46.8797C236.566 40.8657 231.268 37.9675 226.842 38.9819C223.141 39.9238 219.948 43.1844 218.932 47.8941C217.916 52.6038 218.569 59.4148 224.157 64.3419C224.592 64.7041 224.665 65.4287 224.229 66.0808C223.867 66.5156 223.141 66.588 222.488 66.1533C215.812 60.5016 215.086 52.6763 216.32 47.242C217.844 41.6628 221.472 37.5327 226.116 36.5183C231.268 35.4315 236.929 37.895 242.226 43.9814C244.838 41.0831 250.063 37.8225 256.014 40.8657C262.254 43.9814 263.996 51.5169 264.576 55.5745C266.826 53.3284 270.962 50.0678 276.622 49.3432C281.702 48.7636 286.782 50.3576 291.861 54.1979C300.932 61.1537 300.932 69.0516 300.061 73.0367C298.61 79.6303 293.385 85.4269 287.58 86.876L267.769 91.4408L261.311 101.657C259.932 103.614 257.465 104.556 255.36 104.048Z" fill="#0E2B49"/>
<path d="M292.659 91.7307C291.498 86.8036 286.564 83.688 281.557 84.8473L266.681 88.4702C266.1 88.8324 265.447 89.4121 265.81 89.9918C266.173 90.5714 266.826 90.9337 267.334 90.8613L282.21 87.2384C285.911 86.2965 289.321 88.5426 290.265 92.2379C290.628 93.832 290.265 95.7159 289.394 97.2375C288.523 98.7591 287.072 99.9184 285.258 100.281L273.284 103.107C272.776 103.251 272.486 103.396 272.413 103.686L246.725 145.132C245.491 147.16 245.273 149.479 245.564 151.798C246.217 151.725 246.652 151.798 247.378 152.16C247.523 152.232 247.596 152.232 247.741 152.305C247.523 150.566 247.813 148.755 248.829 147.088L274.59 105.57L286.056 102.889C288.451 102.165 290.482 100.86 291.716 98.6866C292.877 96.5129 293.167 94.1218 292.659 91.7307Z" fill="#0E2B49"/>
<path d="M29.1711 250.847C43.249 278.815 91.6508 281.786 133.086 272.294C150.067 268.526 151.518 267.946 170.095 261.933L170.458 261.643C170.748 260.991 171.038 260.556 171.401 259.904C170.966 259.976 170.458 260.121 170.095 260.194H169.587C151.228 266.208 149.776 266.715 132.796 270.555C76.3393 283.597 41.2897 269.685 31.6384 250.484C27.2119 241.5 26.9216 228.892 31.203 213.314C42.5959 171.071 58.9234 136.799 62.1163 130.64L121.185 128.394L87.8048 231.211C87.5871 231.718 87.8773 232.442 88.603 232.66C89.111 232.877 89.8366 232.587 90.0543 231.863L124.015 127.307C124.015 126.8 123.943 126.365 123.725 126.075C123.507 125.858 123.217 125.641 122.709 125.641L61.2455 127.959C60.7375 127.959 60.5198 128.249 60.0844 128.249C59.5039 128.829 40.6366 167.086 28.3729 212.01C24.1641 228.095 24.1641 241.137 29.1711 250.847Z" fill="#0E2B49"/>
<path d="M272.123 100.86C271.688 100.788 271.252 100.425 271.107 99.9182C270.962 99.411 271.397 98.7589 271.978 98.3966C274.3 97.8894 275.897 95.2809 275.389 92.9623C275.171 92.6725 275.316 92.2377 275.606 92.0203C275.679 91.803 275.969 91.5856 276.477 91.4407L285.33 89.4119C285.838 89.267 286.491 89.7017 286.854 90.2814C286.999 90.7886 286.564 91.4407 285.983 91.803L278.146 93.5419C278.436 96.8025 276.187 100.063 272.849 100.788C272.341 100.86 272.123 100.86 272.123 100.86Z" fill="#0E2B49"/>
<path d="M224.302 82.6733C225.754 82.9632 227.132 82.0937 227.495 80.6445C227.785 79.1954 226.915 77.8187 225.463 77.4564C224.012 77.1666 222.633 78.0361 222.27 79.4852C221.98 80.9344 222.923 82.3835 224.302 82.6733Z" fill="#0E2B49"/>
<path d="M225.245 98.1791C223.867 97.8892 222.923 97.4545 222.923 97.4545C222.27 97.0922 222.125 96.5125 222.27 95.8604C222.633 95.2083 223.214 95.0634 223.867 95.2083C224.084 95.2808 230.833 98.2515 235.985 92.9621C236.348 92.5274 237.291 92.5274 237.727 92.8172C238.162 93.1795 238.162 94.1215 237.799 94.5562C233.445 98.9761 228.075 98.8312 225.245 98.1791Z" fill="#0E2B49"/>
<path d="M239.395 96.8752C239.178 96.8028 238.96 96.8028 238.96 96.5129L233.735 92.1655C233.3 91.8032 233.227 91.0787 233.663 90.4266C234.025 89.9918 234.751 89.9193 235.404 90.3541L240.629 94.7015C241.064 95.0638 241.137 95.7884 240.702 96.4405C240.121 96.8028 239.831 96.9477 239.395 96.8752Z" fill="#0E2B49"/>
<path d="M149.051 58.2552C149.776 58.2552 150.284 58.1828 151.01 58.4002C153.405 58.5451 155.146 59.7044 156.162 61.3709C158.775 65.8632 155.437 74.703 149.631 87.2381C149.414 87.4555 149.196 88.2525 148.978 89.1945C147.019 93.8317 142.81 105.135 138.384 108.685C133.739 112.743 129.53 117.453 126.628 122.67L123.943 127.379C123.725 127.887 122.782 128.176 122.274 127.959C121.766 127.742 121.476 126.8 121.693 126.293L124.378 121.583C127.571 116.149 131.707 111.149 136.642 106.874C140.415 103.613 144.769 92.5275 146.584 88.3974C147.019 87.383 147.237 86.6585 147.454 86.4411C152.171 76.3695 156.38 66.5154 154.058 62.7476C153.55 61.8056 152.316 61.1535 150.575 60.9362C136.497 59.5595 129.821 86.1513 129.603 86.3686C129.385 87.0932 128.66 87.383 128.152 87.1657C127.426 86.9483 127.136 86.2237 127.353 85.7165C127.571 84.7021 134.102 58.8349 149.051 58.2552Z" fill="#0E2B49"/>
<path d="M129.603 62.3853C131.055 62.3129 132.288 62.5302 133.522 62.965C135.481 63.6171 136.497 64.7764 136.787 66.4429C136.787 67.1675 136.352 67.6747 135.626 67.6747C134.901 67.6747 134.393 67.2399 134.393 66.5154C134.393 65.7908 133.885 65.3561 132.869 65.1387C129.458 64.0518 122.71 65.501 119.299 69.2687C115.09 73.5437 113.421 85.6441 113.421 85.6441C113.203 86.3686 112.768 86.6585 112.042 86.6585C111.317 86.4411 111.026 86.0063 111.026 85.2818C111.026 84.7746 112.986 72.3844 117.557 67.3849C120.533 64.4141 125.54 62.5302 129.603 62.3853Z" fill="#0E2B49"/>
<path d="M112.695 66.8777C114.364 66.8052 115.815 67.0226 117.557 67.3849C118.283 67.6022 118.573 68.3268 118.355 68.834C118.137 69.5586 117.412 69.8484 116.904 69.631C113.711 68.7615 105.221 67.892 98.6896 79.4852C96.2224 83.9051 93.102 90.7885 89.5463 98.9037C89.1109 99.9181 88.0224 103.324 86.9339 107.236C83.5233 118.467 80.9834 127.524 79.0967 129.263C78.6613 129.77 77.9356 129.77 77.4277 129.336C76.9197 128.901 76.9197 128.176 77.3551 127.669C78.9516 126.148 82.6525 113.975 84.7569 106.584C86.0631 102.454 86.8613 99.0486 87.587 98.0342C91.1427 89.919 94.4808 82.8182 96.948 78.3259C100.794 71.2251 106.672 67.095 112.695 66.8777Z" fill="#0E2B49"/>
<path d="M160.371 68.8344C161.314 68.7619 162.04 68.7619 163.056 68.9793C165.523 69.6314 167.265 71.0081 168.571 73.6165C171.691 79.558 167.483 82.8186 160.444 88.3978C156.017 91.7308 149.922 96.513 143.173 103.541C142.737 104.049 142.012 104.049 141.504 103.614C140.996 103.179 140.996 102.454 141.431 101.947C148.398 94.7015 154.493 90.0643 158.92 86.5139C166.467 80.9347 168.499 78.9059 166.467 74.8483C165.451 72.9644 164.145 71.8051 162.476 71.3704C158.557 70.2835 154.711 73.5441 154.711 73.5441C154.203 73.8339 154.566 73.7614 154.058 73.1093C153.55 72.3848 153.768 71.8776 154.493 71.3704C154.638 71.5877 156.235 68.9793 160.371 68.8344Z" fill="#0E2B49"/>
<path d="M84.3943 231.138C90.9253 230.921 93.1748 233.964 93.1748 233.964C93.6828 234.399 93.4651 235.196 93.0297 235.63C92.5943 236.138 91.8686 235.92 91.3607 235.486C91.3607 235.486 88.8208 232.442 81.4191 233.964C80.6934 233.964 80.1854 233.529 79.9677 233.022C79.6775 232.515 80.4031 231.79 80.9111 231.573C82.2173 231.211 83.4509 231.138 84.3943 231.138Z" fill="#0E2B49"/>
<path d="M169.079 260.339L218.86 244.615L243.75 236.79L256.159 232.877L259.279 231.863C260.368 231.573 261.311 231.211 262.254 230.776C264.214 229.979 266.1 229.037 267.842 227.878C275.026 223.385 280.541 216.357 283.081 208.314C283.734 206.286 284.242 204.257 284.532 202.156C284.822 200.054 284.968 197.953 284.895 195.852C284.75 191.649 283.879 187.447 282.283 183.534C279.09 175.709 273.139 169.043 265.665 165.13C263.778 164.116 261.819 163.318 259.86 162.666L258.336 162.232L256.812 161.869C256.304 161.724 255.796 161.652 255.288 161.58L254.49 161.435C254.199 161.362 253.909 161.29 253.619 161.217C251.369 160.638 249.192 159.333 247.668 157.449C246.145 155.566 245.346 153.102 245.346 150.711H247.523C247.523 152.667 248.176 154.624 249.338 156.073C250.571 157.594 252.313 158.609 254.199 159.116C255.143 159.333 256.231 159.551 257.32 159.768L258.916 160.203L260.513 160.71C262.617 161.435 264.722 162.304 266.681 163.318C274.591 167.449 280.904 174.549 284.314 182.809C285.984 186.94 286.927 191.432 287.072 195.852C287.145 198.098 286.999 200.344 286.709 202.518C286.419 204.764 285.911 206.938 285.185 209.039C282.428 217.516 276.622 225.052 269.003 229.762C267.116 230.993 265.084 232.008 263.053 232.805C262.037 233.24 260.948 233.602 259.932 233.892L256.812 234.834L244.33 238.746L219.44 246.499L169.587 262.005L169.079 260.339Z" fill="#0E2B49"/>
<path d="M190.486 194.33C191.574 194.04 192.663 193.823 193.751 193.533C193.751 192.881 193.679 192.229 193.606 191.577L192.373 181.795C192.881 180.273 194.042 179.259 195.711 178.607L205.217 175.491C207.757 174.622 209.498 172.086 208.628 169.55L205.217 157.377L188.817 158.826C186.495 158.899 184.535 160.565 184.318 163.029L182.794 173.607C182.649 174.984 181.633 176.361 180.472 177.085L165.378 182.447C157.541 185.201 151.953 192.156 150.937 200.417L150.284 205.633C163.274 200.344 176.989 197.591 190.486 194.33Z" fill="#0177FC"/>
</svg>
