<svg width="328" height="317" viewBox="0 0 328 317" fill="none" xmlns="http://www.w3.org/2000/svg">
<path d="M206.959 135.93C206.741 135.857 206.451 135.857 206.306 135.568L202.387 131.003C193.534 120.931 192.953 105.498 201.081 94.6293L203.911 90.789L203.258 85.9344C202.75 81.587 204.637 77.3845 207.975 74.8485L230.761 58.1108C231.341 57.7486 232.067 57.8935 232.43 58.4731C232.792 59.0528 232.647 59.7774 232.067 60.1396L209.281 76.8772C206.596 78.9785 205.072 82.384 205.362 85.6446L206.015 91.4411C205.943 91.6585 205.87 92.1657 205.798 92.3831L203.185 96.2958C195.784 106.295 196.364 120.279 204.492 129.409L208.41 133.973C208.773 134.553 208.846 135.278 208.265 135.64C207.684 136.075 207.467 136.002 206.959 135.93Z" fill="#E0E6EF"/>
<path d="M255.36 104.049C254.925 103.976 254.199 103.759 253.764 103.469C251.152 101.875 250.426 98.5419 251.95 95.9334L258.481 85.4996C257.175 84.7026 255.288 83.3259 254.345 80.8623C253.183 78.109 253.111 75.1382 254.417 71.5154C254.562 70.7908 255.36 70.501 256.014 70.8632C256.739 71.0082 257.029 71.8052 256.667 72.4573C255.506 75.428 255.433 77.8916 256.521 79.8479C257.9 82.6013 260.585 83.6882 260.585 83.6882C260.803 83.7606 261.238 84.0504 261.456 84.3403C261.674 84.6301 261.529 85.0648 261.238 85.2822L253.909 97.0927C253.111 98.3969 253.474 100.208 254.925 101.295C256.231 102.092 258.045 101.73 259.134 100.208L265.737 89.5572C265.81 89.3398 266.1 89.1224 266.608 88.9775L286.927 84.2678C291.136 83.181 296.07 78.6161 297.522 72.2399C298.465 67.965 297.884 61.7336 290.265 55.8646C285.838 52.3867 281.484 50.9375 276.84 51.6621C269.438 52.749 264.576 59.1252 264.359 59.0527C263.996 59.4875 263.488 59.6324 263.052 59.4875C262.617 59.415 262.182 58.8354 262.327 58.3282C262.327 58.3282 262.182 46.6626 254.852 43.1122C248.176 39.7067 243.242 46.2278 243.169 46.735C242.879 46.9524 242.516 47.3147 242.298 47.3147C242.081 47.2422 241.573 47.1698 241.428 46.8799C236.566 40.866 231.268 37.9677 226.842 38.9821C223.141 39.924 219.948 43.1846 218.932 47.8943C217.916 52.604 218.569 59.415 224.157 64.3421C224.592 64.7044 224.665 65.429 224.229 66.0811C223.867 66.5158 223.141 66.5883 222.488 66.1535C215.812 60.5019 215.086 52.6765 216.32 47.2422C217.844 41.663 221.472 37.533 226.116 36.5186C231.268 35.4317 236.929 37.8952 242.226 43.9816C244.838 41.0834 250.063 37.8228 256.014 40.866C262.254 43.9816 263.996 51.5172 264.576 55.5748C266.826 53.3286 270.962 50.068 276.622 49.3435C281.702 48.7638 286.782 50.3579 291.861 54.1981C300.932 61.154 300.932 69.0518 300.061 73.037C298.61 79.6306 293.385 85.4271 287.58 86.8763L267.769 91.4411L261.311 101.658C259.932 103.614 257.465 104.556 255.36 104.049Z" fill="#E0E6EF"/>
<path d="M292.659 91.7307C291.498 86.8036 286.564 83.688 281.557 84.8473L266.681 88.4702C266.1 88.8324 265.447 89.4121 265.81 89.9918C266.173 90.5714 266.826 90.9337 267.334 90.8613L282.21 87.2384C285.911 86.2965 289.321 88.5426 290.265 92.2379C290.628 93.832 290.265 95.7159 289.394 97.2375C288.523 98.7591 287.072 99.9184 285.258 100.281L273.284 103.107C272.776 103.251 272.486 103.396 272.413 103.686L246.725 145.132C245.491 147.16 245.273 149.479 245.564 151.798C246.217 151.725 246.652 151.798 247.378 152.16C247.523 152.232 247.596 152.232 247.741 152.305C247.523 150.566 247.813 148.755 248.829 147.088L274.59 105.57L286.056 102.889C288.451 102.165 290.482 100.86 291.716 98.6866C292.877 96.5129 293.167 94.1218 292.659 91.7307Z" fill="#E0E6EF"/>
<path d="M29.1711 250.847C43.249 278.815 91.6508 281.786 133.086 272.294C150.067 268.526 151.518 267.947 170.095 261.933L170.458 261.643C170.748 260.991 171.038 260.556 171.401 259.904C170.966 259.976 170.458 260.121 170.095 260.194H169.587C151.228 266.208 149.776 266.715 132.796 270.555C76.3393 283.597 41.2897 269.686 31.6384 250.485C27.2119 241.5 26.9216 228.892 31.203 213.314C42.5959 171.071 58.9234 136.799 62.1163 130.64L121.185 128.394L87.8048 231.211C87.5871 231.718 87.8773 232.443 88.603 232.66C89.111 232.877 89.8366 232.588 90.0543 231.863L124.015 127.307C124.015 126.8 123.943 126.365 123.725 126.076C123.507 125.858 123.217 125.641 122.709 125.641L61.2455 127.96C60.7375 127.96 60.5198 128.249 60.0844 128.249C59.5039 128.829 40.6366 167.086 28.3729 212.01C24.1641 228.095 24.1641 241.138 29.1711 250.847Z" fill="#E0E6EF"/>
<path d="M272.123 100.861C271.688 100.788 271.252 100.426 271.107 99.9186C270.962 99.4114 271.397 98.7593 271.978 98.3971C274.3 97.8899 275.897 95.2814 275.389 92.9628C275.171 92.6729 275.316 92.2382 275.606 92.0208C275.679 91.8034 275.969 91.5861 276.477 91.4412L285.33 89.4124C285.838 89.2674 286.491 89.7022 286.854 90.2818C286.999 90.789 286.564 91.4412 285.983 91.8034L278.146 93.5424C278.436 96.803 276.187 100.064 272.849 100.788C272.341 100.861 272.123 100.861 272.123 100.861Z" fill="#E0E6EF"/>
<path d="M224.302 82.6738C225.754 82.9636 227.132 82.0942 227.495 80.645C227.785 79.1959 226.915 77.8192 225.463 77.4569C224.012 77.1671 222.633 78.0366 222.27 79.4857C221.98 80.9348 222.923 82.384 224.302 82.6738Z" fill="#E0E6EF"/>
<path d="M225.245 98.1795C223.867 97.8897 222.923 97.455 222.923 97.455C222.27 97.0927 222.125 96.513 222.27 95.8609C222.633 95.2088 223.214 95.0639 223.867 95.2088C224.084 95.2813 230.833 98.252 235.985 92.9626C236.348 92.5279 237.291 92.5279 237.727 92.8177C238.162 93.18 238.162 94.1219 237.799 94.5567C233.445 98.9766 228.075 98.8317 225.245 98.1795Z" fill="#E0E6EF"/>
<path d="M239.395 96.8752C239.178 96.8028 238.96 96.8028 238.96 96.5129L233.735 92.1655C233.3 91.8032 233.227 91.0787 233.663 90.4266C234.025 89.9918 234.751 89.9193 235.404 90.3541L240.629 94.7015C241.064 95.0638 241.137 95.7884 240.702 96.4405C240.121 96.8028 239.831 96.9477 239.395 96.8752Z" fill="#E0E6EF"/>
<path d="M149.051 58.2557C149.776 58.2557 150.284 58.1833 151.01 58.4006C153.405 58.5456 155.146 59.7049 156.162 61.3714C158.775 65.8637 155.437 74.7035 149.631 87.2386C149.414 87.456 149.196 88.253 148.978 89.1949C147.019 93.8322 142.81 105.136 138.384 108.686C133.739 112.744 129.53 117.453 126.628 122.67L123.943 127.38C123.725 127.887 122.782 128.177 122.274 127.96C121.766 127.742 121.476 126.8 121.693 126.293L124.378 121.583C127.571 116.149 131.707 111.149 136.642 106.874C140.415 103.614 144.769 92.528 146.584 88.3979C147.019 87.3835 147.237 86.659 147.454 86.4416C152.171 76.37 156.38 66.5159 154.058 62.7481C153.55 61.8061 152.316 61.154 150.575 60.9366C136.497 59.56 129.821 86.1517 129.603 86.3691C129.385 87.0937 128.66 87.3835 128.152 87.1662C127.426 86.9488 127.136 86.2242 127.353 85.717C127.571 84.7026 134.102 58.8354 149.051 58.2557Z" fill="#E0E6EF"/>
<path d="M129.603 62.3858C131.055 62.3133 132.288 62.5307 133.522 62.9655C135.481 63.6176 136.497 64.7769 136.787 66.4434C136.787 67.168 136.352 67.6752 135.626 67.6752C134.901 67.6752 134.393 67.2404 134.393 66.5159C134.393 65.7913 133.885 65.3565 132.869 65.1392C129.458 64.0523 122.71 65.5015 119.299 69.2692C115.09 73.5442 113.421 85.6445 113.421 85.6445C113.203 86.3691 112.768 86.6589 112.042 86.6589C111.317 86.4416 111.026 86.0068 111.026 85.2823C111.026 84.7751 112.986 72.3849 117.557 67.3853C120.533 64.4146 125.54 62.5307 129.603 62.3858Z" fill="#E0E6EF"/>
<path d="M112.695 66.8781C114.364 66.8057 115.815 67.0231 117.557 67.3853C118.283 67.6027 118.573 68.3273 118.355 68.8345C118.137 69.5591 117.412 69.8489 116.904 69.6315C113.711 68.762 105.221 67.8925 98.6896 79.4857C96.2224 83.9056 93.102 90.789 89.5463 98.9042C89.1109 99.9186 88.0224 103.324 86.9339 107.237C83.5233 118.468 80.9834 127.525 79.0967 129.264C78.6613 129.771 77.9356 129.771 77.4277 129.336C76.9197 128.901 76.9197 128.177 77.3551 127.67C78.9516 126.148 82.6525 113.975 84.7569 106.585C86.0631 102.455 86.8613 99.0491 87.587 98.0347C91.1427 89.9195 94.4808 82.8187 96.948 78.3264C100.794 71.2256 106.672 67.0955 112.695 66.8781Z" fill="#E0E6EF"/>
<path d="M160.371 68.8344C161.314 68.7619 162.04 68.7619 163.056 68.9793C165.523 69.6314 167.265 71.0081 168.571 73.6165C171.691 79.558 167.483 82.8186 160.444 88.3978C156.017 91.7308 149.922 96.513 143.173 103.541C142.737 104.049 142.012 104.049 141.504 103.614C140.996 103.179 140.996 102.454 141.431 101.947C148.398 94.7015 154.493 90.0643 158.92 86.5139C166.467 80.9347 168.499 78.9059 166.467 74.8483C165.451 72.9644 164.145 71.8051 162.476 71.3704C158.557 70.2835 154.711 73.5441 154.711 73.5441C154.203 73.8339 154.566 73.7614 154.058 73.1093C153.55 72.3848 153.768 71.8776 154.493 71.3704C154.638 71.5877 156.235 68.9793 160.371 68.8344Z" fill="#E0E6EF"/>
<path d="M84.3943 231.138C90.9253 230.921 93.1748 233.964 93.1748 233.964C93.6828 234.399 93.4651 235.196 93.0297 235.631C92.5943 236.138 91.8686 235.92 91.3607 235.486C91.3607 235.486 88.8208 232.443 81.4191 233.964C80.6934 233.964 80.1854 233.529 79.9677 233.022C79.6775 232.515 80.4031 231.79 80.9111 231.573C82.2173 231.211 83.4509 231.138 84.3943 231.138Z" fill="#E0E6EF"/>
<path d="M169.079 260.339L218.86 244.615L243.75 236.79L256.159 232.877L259.279 231.863C260.368 231.573 261.311 231.211 262.254 230.776C264.214 229.979 266.1 229.037 267.842 227.878C275.026 223.385 280.541 216.357 283.081 208.314C283.734 206.286 284.242 204.257 284.532 202.156C284.822 200.054 284.968 197.953 284.895 195.852C284.75 191.649 283.879 187.447 282.283 183.534C279.09 175.709 273.139 169.043 265.665 165.13C263.778 164.116 261.819 163.318 259.86 162.666L258.336 162.232L256.812 161.869C256.304 161.724 255.796 161.652 255.288 161.58L254.49 161.435C254.199 161.362 253.909 161.29 253.619 161.217C251.369 160.638 249.192 159.333 247.668 157.449C246.145 155.566 245.346 153.102 245.346 150.711H247.523C247.523 152.667 248.176 154.624 249.338 156.073C250.571 157.594 252.313 158.609 254.199 159.116C255.143 159.333 256.231 159.551 257.32 159.768L258.916 160.203L260.513 160.71C262.617 161.435 264.722 162.304 266.681 163.318C274.591 167.449 280.904 174.549 284.314 182.809C285.984 186.94 286.927 191.432 287.072 195.852C287.145 198.098 286.999 200.344 286.709 202.518C286.419 204.764 285.911 206.938 285.185 209.039C282.428 217.516 276.622 225.052 269.003 229.762C267.116 230.993 265.084 232.008 263.053 232.805C262.037 233.24 260.948 233.602 259.932 233.892L256.812 234.834L244.33 238.746L219.44 246.499L169.587 262.005L169.079 260.339Z" fill="#E0E6EF"/>
<path d="M190.486 194.33C191.574 194.04 192.663 193.823 193.751 193.533C193.751 192.881 193.679 192.229 193.606 191.577L192.373 181.795C192.881 180.273 194.042 179.259 195.711 178.607L205.217 175.491C207.757 174.622 209.498 172.086 208.628 169.55L205.217 157.377L188.817 158.826C186.495 158.899 184.535 160.565 184.318 163.029L182.794 173.607C182.649 174.984 181.633 176.361 180.472 177.085L165.378 182.447C157.541 185.201 151.953 192.156 150.937 200.417L150.284 205.633C163.274 200.344 176.989 197.591 190.486 194.33Z" fill="#0177FC"/>
</svg>
