<svg width="67" height="61" viewBox="0 0 67 61" fill="none" xmlns="http://www.w3.org/2000/svg">
<path d="M48.8292 60.6152C53.2555 59.8775 56.9441 57.9102 59.4031 54.6784L64.2158 47.6174C71.1011 38.0272 64.5319 21.1652 49.3913 9.7834C34.1102 -1.70381 15.9133 -3.31975 8.74698 6.23536C8.67672 6.30562 8.6416 6.41101 8.57134 6.48127L8.53622 6.51639L3.93432 12.945C1.6158 16.0364 0.597029 19.8654 0.878062 24.1161C0.807804 24.2214 0.807816 24.3971 0.913204 24.5025C1.12398 26.6454 1.61579 28.8936 2.49401 31.177C3.37224 33.5658 4.63686 35.9546 6.18254 38.3082C9.16851 42.8047 13.2435 47.1256 18.1967 50.9195C18.3372 51.0249 18.4426 51.1303 18.5831 51.2006C23.5715 54.9594 28.9111 57.6643 34.075 59.2803C39.2039 60.8611 44.1571 61.3529 48.4428 60.6854L48.8292 60.6152ZM66.1479 36.4815C66.4992 40.4862 65.6912 44.2099 63.5483 47.1607L52.6583 38.9757C53.8527 37.2192 54.3094 35.0763 54.0635 32.7578L66.1479 36.4815ZM49.3913 10.3806C54.0635 13.9286 57.8926 18.0387 60.7029 22.2894L50.656 24.1161C49.0049 21.7273 46.8269 19.4088 44.1571 17.3713L49.3913 10.3806ZM33.513 2.12526L34.5669 12.4181C31.7565 11.6101 29.0516 11.3642 26.6979 11.7155L19.6019 0.895742C23.7471 0.228289 28.5598 0.649838 33.513 2.12526ZM5.76101 17.5821L1.58064 23.1324C1.51039 19.4439 2.49401 16.1066 4.53149 13.3666L6.49871 10.6265C6.42846 10.8724 6.35821 11.1183 6.28795 11.3642C6.28795 11.3993 6.25283 11.4696 6.25283 11.5047C6.18257 11.7155 6.14743 11.9614 6.1123 12.2073C6.1123 12.2424 6.1123 12.2424 6.1123 12.2776C6.07717 12.5235 6.04203 12.7342 6.0069 12.9801C6.0069 13.0504 5.97178 13.1558 5.97178 13.226C5.93665 13.4368 5.93667 13.6125 5.90154 13.8232C5.90154 13.8935 5.90154 13.9286 5.90154 13.9989C5.86641 14.2448 5.86642 14.4556 5.86642 14.7015C5.86642 14.7717 5.86642 14.8771 5.86642 14.9474C5.86642 15.1581 5.86642 15.3689 5.86642 15.5446C5.86642 15.6148 5.86642 15.65 5.86642 15.7202C5.86642 15.9661 5.86641 16.212 5.90154 16.4931C5.90154 16.5633 5.90154 16.6336 5.90154 16.7038C5.90154 16.9497 5.93665 17.1956 5.97178 17.4415C5.97178 17.4767 5.97178 17.4767 5.97178 17.5118C5.86639 17.4767 5.79614 17.5469 5.76101 17.5821ZM6.60412 17.5469C6.25283 13.5422 7.0608 9.81853 9.20368 6.86768L20.3747 15.2987C19.1452 16.9849 18.6534 19.0575 18.7939 21.3409L6.60412 17.5469ZM18.267 50.0764C13.7353 46.5635 9.90626 42.5588 7.09593 38.4136L11.733 32.2309C11.8383 32.4065 11.9437 32.547 12.0842 32.7227C12.1194 32.7929 12.1545 32.8632 12.2248 32.8983C12.3302 33.0388 12.4356 33.1794 12.5409 33.3199C12.6112 33.4253 12.6814 33.4955 12.7517 33.6009C12.8571 33.7414 12.9625 33.8819 13.0679 34.0225C13.1381 34.1278 13.2084 34.1981 13.2786 34.3035C13.384 34.444 13.4894 34.5845 13.5948 34.725C13.6651 34.8304 13.7353 34.9007 13.8056 35.0061C13.911 35.1466 14.0164 35.2871 14.1217 35.4276C14.192 35.533 14.2623 35.6033 14.3325 35.7087C14.5433 35.9546 14.7189 36.2005 14.9297 36.4112C15.0351 36.5166 15.1054 36.622 15.2107 36.7274C15.3161 36.8328 15.4215 36.9733 15.5269 37.0787C15.6323 37.1841 15.7377 37.3246 15.843 37.43C15.9484 37.5354 16.0538 37.6408 16.1592 37.7461C16.2646 37.8867 16.4051 37.992 16.5105 38.1326C16.6159 38.2379 16.6862 38.3433 16.7915 38.4487C16.9321 38.5892 17.0726 38.7298 17.2131 38.8703C17.2833 38.9405 17.3536 39.0108 17.4238 39.1162C17.6346 39.327 17.8805 39.5729 18.0913 39.7836C18.1264 39.8188 18.1967 39.889 18.2318 39.9241C18.4075 40.0998 18.6182 40.2754 18.7939 40.4511C18.8641 40.5213 18.9344 40.5916 19.0047 40.6619C19.1803 40.8024 19.3559 40.978 19.5316 41.1185C19.6019 41.1888 19.6721 41.259 19.7424 41.3293C19.918 41.505 20.0937 41.6455 20.3045 41.8211C20.3747 41.8914 20.4098 41.9265 20.4801 41.9968C20.726 42.2075 20.9719 42.4183 21.2178 42.6291C21.4988 42.8399 21.7448 43.0858 22.0258 43.2965C22.0609 43.3317 22.0609 43.3317 22.096 43.3668C22.3419 43.5424 22.5878 43.7532 22.7986 43.9289C22.8337 43.964 22.8337 43.964 22.8689 43.9991L18.267 50.0764ZM23.5714 43.3668L23.3607 43.6127L23.2201 43.5073C18.6182 39.9593 14.8594 35.9194 12.0842 31.7391L22.0258 29.9475C23.6417 32.4065 25.8197 34.7602 28.4895 36.8679L23.5714 43.3668ZM29.8244 36.0599C22.0258 30.1934 18.6534 21.4463 22.3419 16.5984C25.9953 11.7155 35.3397 12.5586 43.1384 18.4252C50.937 24.2917 54.3094 33.0388 50.6208 37.8867C46.9323 42.7345 37.6231 41.9265 29.8244 36.0599ZM39.239 51.9032L38.2203 41.9968C41.1009 42.8399 43.9112 43.0858 46.3 42.6993L53.115 53.1327C49.0049 53.8001 44.2274 53.3786 39.239 51.9032ZM48.3374 59.9477C44.2625 60.58 39.5552 60.1585 34.6723 58.7182L39.3093 52.5355L39.3444 52.5004C39.3795 52.5004 39.4147 52.5355 39.4498 52.5355C39.6606 52.6057 39.8362 52.6409 40.047 52.7111C40.1172 52.7463 40.1875 52.7463 40.2577 52.7814C40.5388 52.8516 40.8198 52.9219 41.0657 52.9922C41.136 53.0273 41.2062 53.0273 41.2765 53.0273C41.4873 53.0624 41.6981 53.1327 41.8737 53.1678C41.9791 53.2029 42.0845 53.2029 42.1547 53.2381C42.3304 53.2732 42.506 53.3083 42.6817 53.3435C42.787 53.3786 42.8925 53.3786 42.9627 53.4137C43.1384 53.4488 43.3491 53.484 43.5248 53.5191C43.595 53.5191 43.7004 53.5542 43.7707 53.5542C44.0517 53.5894 44.2976 53.6596 44.5786 53.6947C44.6489 53.6947 44.684 53.6947 44.7543 53.7299C44.9651 53.765 45.1758 53.8001 45.3515 53.8001C45.4568 53.8001 45.5271 53.8353 45.6325 53.8353C45.8082 53.8704 45.9838 53.8704 46.1594 53.9055C46.2648 53.9055 46.3702 53.9406 46.4756 53.9406C46.6513 53.9406 46.8269 53.9758 47.0026 53.9758C47.1079 53.9758 47.1782 53.9758 47.2836 54.0109C47.5295 54.0109 47.7754 54.046 48.0564 54.046C48.0916 54.046 48.1618 54.046 48.1969 54.046C48.4077 54.046 48.6185 54.046 48.8292 54.0812C48.9346 54.0812 49.0049 54.0812 49.1103 54.0812C49.2859 54.0812 49.4265 54.0812 49.6021 54.0812C49.7075 54.0812 49.8129 54.0812 49.9182 54.0812C50.0588 54.0812 50.2344 54.0812 50.3749 54.0812C50.4803 54.0812 50.5857 54.0812 50.656 54.0812C50.8316 54.0812 51.0424 54.046 51.218 54.046C51.2883 54.046 51.3937 54.046 51.4639 54.046C51.6747 54.046 51.8855 54.0109 52.0963 53.9758C52.2017 53.9758 52.307 53.9406 52.3773 53.9406C52.5178 53.9406 52.6583 53.9055 52.7989 53.9055C52.834 53.9055 52.9042 53.9055 52.9394 53.8704L48.3374 59.9477Z" fill="#0177FC"/>
</svg>
