<svg width="176" height="161" viewBox="0 0 176 161" fill="none" xmlns="http://www.w3.org/2000/svg">
<path d="M113.623 124.814C148.066 104.928 164.609 69.098 150.572 44.7862C136.535 20.4745 97.2344 16.8869 62.7914 36.7732C28.3484 56.6595 11.8058 92.4891 25.8426 116.801C39.8794 141.113 79.1801 144.7 113.623 124.814Z" fill="#030D18"/>
<path d="M146.092 74.6586C148.586 67.4572 148.551 60.6773 145.495 55.1269L138.399 43.745C129.09 27.7613 97.2979 28.218 66.9815 44.9043C36.4192 61.696 18.9249 88.6049 27.9531 105.01C28.0233 105.151 28.1287 105.291 28.199 105.432C28.199 105.467 28.199 105.467 28.2341 105.502L34.5222 116.181C37.4379 121.486 42.6019 125.244 49.4872 127.177C49.6277 127.352 49.8736 127.423 50.1195 127.352C53.6324 128.266 57.5669 128.757 61.8877 128.722C66.3843 128.722 71.1267 128.195 76.0799 127.141C85.5999 125.174 95.7171 121.38 105.694 115.97C105.975 115.83 106.221 115.689 106.467 115.549C116.478 110.034 125.085 103.429 131.83 96.4738C138.504 89.5534 143.352 82.2465 145.881 75.3261L146.092 74.6586ZM122.626 34.4007C129.23 36.122 134.324 39.4944 137.205 44.4476L115.424 56.4266C113.668 53.6163 110.682 51.7193 106.853 50.7357L122.626 34.4007ZM67.9651 45.1853C77.3797 40.0916 86.9699 36.5787 95.8927 34.6817L90.4477 51.087C85.3189 52.2463 79.909 54.2838 74.5342 57.1995L67.9651 45.1853ZM42.0047 64.7522L59.0072 69.0029C55.424 72.8319 52.8245 76.8366 51.4544 80.6306L28.6205 85.3379C30.9742 78.5931 35.5761 71.5322 42.0047 64.7522ZM43.3045 116.006L48.5387 125.526C42.6721 123.558 38.281 120.151 35.7166 115.443L33.0468 110.912C33.3629 111.158 33.6791 111.404 34.0304 111.614C34.1007 111.65 34.1709 111.72 34.2412 111.755C34.5573 111.966 34.8735 112.176 35.1896 112.387C35.2248 112.387 35.2248 112.422 35.2599 112.422C35.5761 112.633 35.9274 112.809 36.2787 112.984C36.3841 113.055 36.5246 113.125 36.63 113.16C36.911 113.301 37.192 113.441 37.5082 113.582C37.5785 113.617 37.6838 113.652 37.7541 113.687C38.1054 113.863 38.4567 114.003 38.8431 114.144C38.9836 114.214 39.1241 114.249 39.2295 114.319C39.5457 114.46 39.8618 114.565 40.178 114.671C40.2483 114.706 40.3536 114.741 40.4239 114.776C40.8103 114.917 41.2319 115.057 41.6534 115.162C41.7588 115.198 41.8642 115.233 42.0047 115.268C42.3911 115.373 42.7775 115.479 43.1991 115.584C43.2342 115.584 43.2694 115.619 43.3045 115.619C43.2342 115.795 43.2342 115.9 43.3045 116.006ZM43.9368 114.671C37.3325 112.949 32.2388 109.577 29.3582 104.624L51.7355 92.3286C53.3514 95.174 56.1968 97.1061 59.8854 98.1951L43.9368 114.671ZM104.499 115.338C95.2253 120.291 85.8458 123.839 77.0284 125.771L71.197 115.162C71.5482 115.092 71.8995 114.987 72.2508 114.917C72.3913 114.881 72.5319 114.846 72.6373 114.811C72.9534 114.741 73.2696 114.671 73.5506 114.565C73.7614 114.53 73.937 114.46 74.1478 114.425C74.464 114.354 74.745 114.249 75.0611 114.179C75.2719 114.109 75.4827 114.073 75.6584 114.003C75.9745 113.933 76.2556 113.828 76.5717 113.757C76.7825 113.687 76.9933 113.652 77.2041 113.582C77.5202 113.476 77.8012 113.406 78.1174 113.301C78.3282 113.23 78.5038 113.16 78.7146 113.125C79.2415 112.949 79.7684 112.774 80.3305 112.598C80.5764 112.528 80.8224 112.422 81.0683 112.352C81.3493 112.247 81.5952 112.176 81.8762 112.071C82.1572 111.966 82.4032 111.895 82.6842 111.79C82.9301 111.685 83.176 111.614 83.457 111.509C83.738 111.404 84.0191 111.298 84.3352 111.193C84.5811 111.123 84.7919 111.017 85.0378 110.912C85.3891 110.771 85.7404 110.631 86.0566 110.525C86.2322 110.455 86.4078 110.385 86.6186 110.315C87.1456 110.104 87.6725 109.893 88.1994 109.682C88.3048 109.647 88.4102 109.577 88.5156 109.542C88.9372 109.366 89.3938 109.191 89.8154 108.98C89.991 108.909 90.1315 108.839 90.3072 108.769C90.6936 108.593 91.08 108.418 91.4665 108.242C91.6421 108.172 91.7826 108.102 91.9583 108.031C92.3798 107.856 92.7662 107.645 93.1878 107.469C93.3283 107.399 93.4688 107.329 93.5742 107.294C94.1011 107.048 94.6632 106.767 95.1901 106.521C95.7522 106.24 96.3143 105.959 96.9115 105.642C96.9466 105.607 97.0169 105.572 97.052 105.572C97.5438 105.326 98.0356 105.045 98.5274 104.799C98.5625 104.764 98.6328 104.764 98.6679 104.729L104.499 115.338ZM98.3517 103.429L98.5976 103.886L98.2815 104.062C88.9723 109.085 79.5225 112.528 70.67 114.39L76.0448 98.16C81.2088 97.071 86.724 95.1038 92.169 92.188L98.3517 103.429ZM92.0285 89.6939C76.4312 98.2654 59.9908 98.441 55.3889 90.0803C50.787 81.7196 59.7449 67.9139 75.3422 59.3424C90.9395 50.7709 107.38 50.5952 111.982 58.9559C116.584 67.3518 107.626 81.1224 92.0285 89.6939ZM124.593 84.3191L108.258 80.209C111.982 76.2746 114.652 72.1645 116.022 68.23L137.942 63.7335C135.624 70.4783 131.022 77.5743 124.593 84.3191ZM144.687 74.9748C142.333 81.5791 137.767 88.5346 131.478 95.174L125.647 84.565C125.647 84.5299 125.612 84.5299 125.612 84.4948C125.647 84.4245 125.717 84.3894 125.752 84.3191C125.998 84.0381 126.279 83.7571 126.525 83.5112C126.631 83.4058 126.701 83.3004 126.806 83.195C127.158 82.8086 127.474 82.4573 127.825 82.0709C127.93 81.9655 128.001 81.8601 128.071 81.7547C128.317 81.4737 128.563 81.1926 128.809 80.9116C128.914 80.7711 129.055 80.6306 129.16 80.4901C129.371 80.2442 129.581 79.9983 129.792 79.7172C129.898 79.5767 130.003 79.4362 130.144 79.2957C130.354 79.0146 130.565 78.7687 130.776 78.4877C130.881 78.3823 130.952 78.2418 131.057 78.1364C131.338 77.75 131.619 77.3636 131.9 77.0123C131.97 76.9069 132.041 76.8366 132.076 76.7313C132.286 76.4502 132.497 76.1341 132.708 75.853C132.813 75.7125 132.919 75.572 132.989 75.4315C133.165 75.1856 133.34 74.9397 133.516 74.6938C133.621 74.5533 133.727 74.4127 133.797 74.2371C133.973 73.9912 134.113 73.7102 134.289 73.4642C134.359 73.3237 134.464 73.1832 134.535 73.0778C134.781 72.6914 134.991 72.3401 135.237 71.9537C135.272 71.8834 135.308 71.8132 135.343 71.7429C135.518 71.4268 135.694 71.1106 135.905 70.7944C135.975 70.6539 136.045 70.5134 136.151 70.3729C136.291 70.127 136.432 69.8811 136.537 69.6352C136.607 69.4947 136.713 69.319 136.783 69.1785C136.888 68.9326 137.029 68.7218 137.134 68.4759C137.204 68.3354 137.275 68.1598 137.345 68.0192C137.486 67.7382 137.626 67.4572 137.731 67.141C137.802 67.0005 137.837 66.8951 137.907 66.7546C138.048 66.4384 138.188 66.0871 138.329 65.771C138.399 65.5953 138.469 65.4548 138.504 65.2792C138.575 65.0684 138.68 64.8576 138.75 64.6468C138.785 64.5766 138.82 64.4712 138.856 64.401L144.687 74.9748Z" fill="#0177FC"/>
</svg>
