<svg width="176" height="161" viewBox="0 0 176 161" fill="none" xmlns="http://www.w3.org/2000/svg">
<path d="M113.623 124.814C148.066 104.927 164.609 69.0977 150.572 44.786C136.535 20.4742 97.2344 16.8867 62.7914 36.773C28.3484 56.6593 11.8058 92.4888 25.8426 116.801C39.8794 141.112 79.1801 144.7 113.623 124.814Z" fill="#F0F0F0"/>
<path d="M146.092 74.6581C148.586 67.4567 148.551 60.6768 145.495 55.1264L138.399 43.7446C129.09 27.7608 97.2979 28.2175 66.9815 44.9038C36.4192 61.6955 18.9249 88.6044 27.9531 105.01C28.0233 105.15 28.1287 105.291 28.199 105.431C28.199 105.466 28.199 105.466 28.2341 105.501L34.5222 116.181C37.4379 121.485 42.6019 125.244 49.4872 127.176C49.6277 127.352 49.8736 127.422 50.1195 127.352C53.6324 128.265 57.5669 128.757 61.8877 128.722C66.3843 128.722 71.1267 128.195 76.0799 127.141C85.5999 125.174 95.7171 121.38 105.694 115.97C105.975 115.829 106.221 115.689 106.467 115.548C116.478 110.033 125.085 103.429 131.83 96.4733C138.504 89.5529 143.352 82.246 145.881 75.3256L146.092 74.6581ZM122.626 34.4002C129.23 36.1215 134.324 39.4939 137.205 44.4471L115.424 56.4262C113.668 53.6158 110.682 51.7189 106.853 50.7352L122.626 34.4002ZM67.9651 45.1849C77.3797 40.0911 86.9699 36.5782 95.8927 34.6813L90.4477 51.0865C85.3189 52.2458 79.909 54.2833 74.5342 57.199L67.9651 45.1849ZM42.0047 64.7518L59.0072 69.0024C55.424 72.8314 52.8245 76.8361 51.4544 80.6301L28.6205 85.3374C30.9742 78.5926 35.5761 71.5317 42.0047 64.7518ZM43.3045 116.005L48.5387 125.525C42.6721 123.558 38.281 120.15 35.7166 115.443L33.0468 110.911C33.3629 111.157 33.6791 111.403 34.0304 111.614C34.1007 111.649 34.1709 111.719 34.2412 111.754C34.5573 111.965 34.8735 112.176 35.1896 112.387C35.2248 112.387 35.2248 112.422 35.2599 112.422C35.5761 112.633 35.9274 112.808 36.2787 112.984C36.3841 113.054 36.5246 113.124 36.63 113.16C36.911 113.3 37.192 113.441 37.5082 113.581C37.5785 113.616 37.6838 113.651 37.7541 113.687C38.1054 113.862 38.4567 114.003 38.8431 114.143C38.9836 114.213 39.1241 114.249 39.2295 114.319C39.5457 114.459 39.8618 114.565 40.178 114.67C40.2483 114.705 40.3536 114.74 40.4239 114.776C40.8103 114.916 41.2319 115.057 41.6534 115.162C41.7588 115.197 41.8642 115.232 42.0047 115.267C42.3911 115.373 42.7775 115.478 43.1991 115.584C43.2342 115.584 43.2694 115.619 43.3045 115.619C43.2342 115.794 43.2342 115.9 43.3045 116.005ZM43.9368 114.67C37.3325 112.949 32.2388 109.576 29.3582 104.623L51.7355 92.3281C53.3514 95.1735 56.1968 97.1056 59.8854 98.1946L43.9368 114.67ZM104.499 115.338C95.2253 120.291 85.8458 123.839 77.0284 125.771L71.197 115.162C71.5482 115.092 71.8995 114.986 72.2508 114.916C72.3913 114.881 72.5319 114.846 72.6373 114.811C72.9534 114.74 73.2696 114.67 73.5506 114.565C73.7614 114.53 73.937 114.459 74.1478 114.424C74.464 114.354 74.745 114.249 75.0611 114.178C75.2719 114.108 75.4827 114.073 75.6584 114.003C75.9745 113.932 76.2556 113.827 76.5717 113.757C76.7825 113.687 76.9933 113.651 77.2041 113.581C77.5202 113.476 77.8012 113.406 78.1174 113.3C78.3282 113.23 78.5038 113.16 78.7146 113.124C79.2415 112.949 79.7684 112.773 80.3305 112.598C80.5764 112.527 80.8224 112.422 81.0683 112.352C81.3493 112.246 81.5952 112.176 81.8762 112.071C82.1572 111.965 82.4032 111.895 82.6842 111.79C82.9301 111.684 83.176 111.614 83.457 111.509C83.738 111.403 84.0191 111.298 84.3352 111.192C84.5811 111.122 84.7919 111.017 85.0378 110.911C85.3891 110.771 85.7404 110.63 86.0566 110.525C86.2322 110.455 86.4078 110.384 86.6186 110.314C87.1456 110.103 87.6725 109.893 88.1994 109.682C88.3048 109.647 88.4102 109.576 88.5156 109.541C88.9372 109.366 89.3938 109.19 89.8154 108.979C89.991 108.909 90.1315 108.839 90.3072 108.768C90.6936 108.593 91.08 108.417 91.4665 108.242C91.6421 108.171 91.7826 108.101 91.9583 108.031C92.3798 107.855 92.7662 107.644 93.1878 107.469C93.3283 107.398 93.4688 107.328 93.5742 107.293C94.1011 107.047 94.6632 106.766 95.1901 106.52C95.7522 106.239 96.3143 105.958 96.9115 105.642C96.9466 105.607 97.0169 105.572 97.052 105.572C97.5438 105.326 98.0356 105.045 98.5274 104.799C98.5625 104.764 98.6328 104.764 98.6679 104.729L104.499 115.338ZM98.3517 103.429L98.5976 103.886L98.2815 104.061C88.9723 109.085 79.5225 112.527 70.67 114.389L76.0448 98.1595C81.2088 97.0705 86.724 95.1033 92.169 92.1876L98.3517 103.429ZM92.0285 89.6934C76.4312 98.2649 59.9908 98.4405 55.3889 90.0798C50.787 81.7191 59.7449 67.9134 75.3422 59.3419C90.9395 50.7704 107.38 50.5947 111.982 58.9555C116.584 67.3513 107.626 81.1219 92.0285 89.6934ZM124.593 84.3186L108.258 80.2085C111.982 76.2741 114.652 72.164 116.022 68.2295L137.942 63.733C135.624 70.4778 131.022 77.5738 124.593 84.3186ZM144.687 74.9743C142.333 81.5786 137.767 88.5341 131.478 95.1735L125.647 84.5645C125.647 84.5294 125.612 84.5294 125.612 84.4943C125.647 84.424 125.717 84.3889 125.752 84.3186C125.998 84.0376 126.279 83.7566 126.525 83.5107C126.631 83.4053 126.701 83.2999 126.806 83.1945C127.158 82.8081 127.474 82.4568 127.825 82.0704C127.93 81.965 128.001 81.8596 128.071 81.7542C128.317 81.4732 128.563 81.1922 128.809 80.9111C128.914 80.7706 129.055 80.6301 129.16 80.4896C129.371 80.2437 129.581 79.9978 129.792 79.7167C129.898 79.5762 130.003 79.4357 130.144 79.2952C130.354 79.0141 130.565 78.7682 130.776 78.4872C130.881 78.3818 130.952 78.2413 131.057 78.1359C131.338 77.7495 131.619 77.3631 131.9 77.0118C131.97 76.9064 132.041 76.8361 132.076 76.7308C132.286 76.4497 132.497 76.1336 132.708 75.8525C132.813 75.712 132.919 75.5715 132.989 75.431C133.165 75.1851 133.34 74.9392 133.516 74.6933C133.621 74.5528 133.727 74.4123 133.797 74.2366C133.973 73.9907 134.113 73.7097 134.289 73.4638C134.359 73.3232 134.464 73.1827 134.535 73.0773C134.781 72.6909 134.991 72.3396 135.237 71.9532C135.272 71.883 135.308 71.8127 135.343 71.7424C135.518 71.4263 135.694 71.1101 135.905 70.7939C135.975 70.6534 136.045 70.5129 136.151 70.3724C136.291 70.1265 136.432 69.8806 136.537 69.6347C136.607 69.4942 136.713 69.3185 136.783 69.178C136.888 68.9321 137.029 68.7213 137.134 68.4754C137.204 68.3349 137.275 68.1593 137.345 68.0188C137.486 67.7377 137.626 67.4567 137.731 67.1405C137.802 67 137.837 66.8946 137.907 66.7541C138.048 66.4379 138.188 66.0866 138.329 65.7705C138.399 65.5948 138.469 65.4543 138.504 65.2787C138.575 65.0679 138.68 64.8571 138.75 64.6464C138.785 64.5761 138.82 64.4707 138.856 64.4005L144.687 74.9743Z" fill="#0177FC"/>
</svg>
