<svg width="172" height="150" viewBox="0 0 172 150" fill="none" xmlns="http://www.w3.org/2000/svg">
<path d="M153.74 99.2072C163.757 71.2232 141.521 37.6722 104.075 24.2688C66.629 10.8655 28.1531 22.6854 18.1366 50.6693C8.12003 78.6533 30.3559 112.204 67.8017 125.608C105.248 139.011 143.724 127.191 153.74 99.2072Z" fill="#F0F0F0"/>
<path d="M110.522 73.6373C108.59 71.0027 105.92 68.8598 102.478 67.1736C99.9131 65.9441 95.7328 64.8199 89.9716 63.8363L85.5102 57.6536C86.6343 58.04 87.5125 58.3913 88.18 58.7777C88.8123 59.1642 89.7608 59.8316 90.9201 60.8503L98.9998 59.3047C96.7515 57.0564 94.2222 55.3 91.3416 54.0353C88.461 52.7707 85.1589 52.1032 81.4001 52.0329L79.8544 49.9252L76.3064 50.0306L77.8521 52.1383C74.023 52.4545 71.7045 53.4732 70.9316 55.2297C70.1588 56.9861 70.6857 59.129 72.5475 61.6583C73.8825 63.5202 75.5335 65.0658 77.4656 66.3305C79.3977 67.5951 81.2596 68.4734 83.0512 69.0354C84.8427 69.5624 87.6531 70.1947 91.4821 70.8973L96.9623 78.4149C95.4868 77.9582 94.2573 77.4313 93.3088 76.8341C92.3604 76.2369 91.2362 75.2181 89.9013 73.813L80.838 75.1127C82.1729 76.5179 83.4727 77.7123 84.8076 78.6959C86.1074 79.6795 87.6179 80.5929 89.3393 81.436C91.0606 82.2791 92.817 82.9114 94.6437 83.3681C96.4705 83.8248 98.6485 84.1058 101.143 84.2112L104.093 88.251L107.642 88.1456L104.691 84.1058C106.623 83.9653 108.133 83.6842 109.222 83.2627C110.311 82.8411 111.154 82.1737 111.716 81.2603C112.314 80.347 112.524 79.258 112.349 77.9231C112.314 76.6233 111.681 75.183 110.522 73.6373ZM82.8755 62.0447C82.1378 61.5881 81.5406 61.0611 81.0488 60.4288C80.6272 59.8316 80.4165 59.3047 80.5219 58.848C80.5921 58.3913 81.0488 58.0049 81.8568 57.6536L85.8615 63.1337C84.632 62.8878 83.6483 62.5014 82.8755 62.0447ZM102.794 77.1151C102.618 77.7474 101.915 78.2392 100.756 78.5554L95.7679 71.7052C97.7 72.1268 99.1403 72.6186 100.089 73.1806C101.037 73.7427 101.775 74.3399 102.232 75.0074C102.794 75.7802 102.969 76.4828 102.794 77.1151Z" fill="#ECBF2E"/>
<path d="M146.318 91.7989C146.845 88.4617 146.81 85.0893 146.353 81.7871C145.896 78.485 144.983 75.2531 143.754 72.1618C142.524 69.0704 141.049 66.0844 139.327 63.239C135.885 57.5481 131.599 52.4192 126.821 47.8524C122.044 43.2505 116.739 39.2458 111.119 35.768C105.463 32.3254 99.4558 29.4097 93.2029 27.2668C86.9499 25.0888 80.4159 23.6134 73.7765 23.1567C70.4743 22.9459 67.1019 22.9459 63.7998 23.2972C60.4977 23.6485 57.1955 24.316 53.9988 25.4401C50.8372 26.5642 47.781 28.0748 45.076 30.1123C42.3711 32.1497 40.0526 34.679 38.261 37.5948C38.0853 37.9109 37.8746 38.2271 37.6989 38.5432L37.6638 38.5081C35.7317 41.8102 33.7644 45.1124 31.7972 48.4145C31.3054 49.2225 30.8487 50.1007 30.3569 50.9789C30.1462 51.4005 29.9354 51.8572 29.7246 52.3138L29.4084 52.9813L29.1625 53.6839C28.46 55.5106 28.0384 57.4427 27.7222 59.3748L27.5466 60.8151C27.5115 61.2366 27.5115 61.6582 27.4763 62.0446L27.1953 62.3959L27.4412 62.5715C27.4412 62.7121 27.4412 62.8526 27.4061 62.9931V63.7308C27.4061 64.2226 27.4061 64.7144 27.4412 65.2062C27.5115 66.1898 27.5466 67.1383 27.7222 68.1219C27.7925 68.6137 27.8276 69.1055 27.933 69.5622L28.2141 71.0025C28.2843 71.4943 28.4248 71.951 28.5302 72.4077C28.6356 72.8644 28.741 73.3562 28.8815 73.8128L29.3031 75.218L29.5138 75.9206L29.7597 76.588L30.2515 77.9581C30.4272 78.4147 30.6028 78.8714 30.8136 79.293C31.1649 80.2063 31.5865 81.0846 32.008 81.9277C32.1134 82.1736 32.2539 82.4194 32.3593 82.6654L32.289 82.7708L32.4647 82.9113C34.0455 86.0729 35.9073 89.0589 37.9448 91.8692C40.1931 94.9957 42.7224 97.9465 45.4273 100.687C50.8372 106.202 56.9848 110.944 63.5539 114.949C70.1582 118.954 77.2542 122.115 84.6313 124.328C90.252 126.015 96.1186 127.069 101.985 127.314L102.582 127.595L102.688 127.35C104.304 127.385 105.92 127.385 107.536 127.314C111.4 127.139 115.264 126.471 118.988 125.347C119.444 125.207 119.901 125.031 120.358 124.891C120.814 124.715 121.271 124.574 121.728 124.399C122.641 124.012 123.519 123.661 124.397 123.204L125.065 122.888C125.276 122.783 125.486 122.677 125.697 122.537L126.962 121.799C127.383 121.553 127.77 121.237 128.191 120.991L128.789 120.57C128.999 120.429 129.175 120.253 129.386 120.113L130.545 119.2L131.634 118.181C132.02 117.865 132.337 117.478 132.653 117.127C132.969 116.776 133.355 116.424 133.636 116.003L134.55 114.844C134.831 114.457 135.112 114.036 135.393 113.614L135.814 112.982L136.201 112.385L136.939 111.155L142.981 101.354L142.805 101.249C144.597 98.3329 145.756 95.1362 146.318 91.7989ZM28.9869 59.5856C29.303 57.7237 29.7246 55.897 30.4272 54.1757L30.6731 53.5082L30.9541 52.8759C31.1649 52.4543 31.3406 52.0328 31.5513 51.6113C32.008 50.8033 32.4647 49.9953 32.9916 49.1873C33.6239 48.1686 34.2563 47.185 34.8886 46.1663C34.8183 46.4824 34.7481 46.7634 34.7129 47.0796C34.3617 49.2225 34.2563 51.3654 34.3265 53.5434L28.8464 60.4286L28.9869 59.5856ZM28.6707 63.8011V63.52L34.5022 55.4052C34.5724 56.0024 34.6076 56.5996 34.7129 57.1968C34.9588 59.0586 35.3804 60.9205 35.9073 62.7472L29.549 71.7402C29.4787 71.4592 29.4084 71.143 29.3733 70.862L29.1274 69.4568C29.0572 69.0002 28.9869 68.5083 28.9518 68.0517C28.8112 67.1032 28.7761 66.1898 28.7059 65.2413C28.6356 64.7495 28.6707 64.2577 28.6707 63.8011ZM32.9565 81.5764C32.5701 80.6981 32.1485 79.855 31.7972 78.9768C31.6216 78.5201 31.4459 78.0986 31.2703 77.6419L30.8136 76.307L30.5677 75.6395L30.3569 74.9721L29.9354 73.6021C29.8651 73.3913 29.83 73.1805 29.7597 72.9697L36.4343 64.7495C36.6802 65.4872 36.9261 66.1898 37.2071 66.9275C38.0151 69.0001 38.9636 71.0376 40.0174 73.0049L39.8418 72.8644L33.0267 81.8925C33.0619 81.752 32.9916 81.6466 32.9565 81.5764ZM50.4859 87.3727L50.2751 87.2321L43.0737 96.7521C41.5982 95.0659 40.1579 93.3095 38.8582 91.4828L45.5678 81.5412C47.1135 83.5436 48.7646 85.5108 50.4859 87.3727ZM37.8394 90.0073C36.4343 87.9347 35.1345 85.827 33.9752 83.6138L40.8957 74.4452C41.1767 74.9018 41.4577 75.3936 41.7388 75.8503C42.8629 77.677 44.0573 79.4335 45.3219 81.1548L37.8394 90.0073ZM44.3032 98.0519L51.5398 88.4617C52.4531 89.4101 53.3665 90.3235 54.315 91.2017C54.877 91.7287 55.4742 92.2907 56.0363 92.8177L48.7294 102.478C47.8863 101.67 47.0081 100.862 46.2001 100.019C45.5327 99.3868 44.9004 98.7194 44.3032 98.0519ZM62.5352 98.1573L55.5445 108.239C53.4719 106.659 51.4695 105.007 49.5374 103.251L50.0292 103.637L57.3361 93.9769C59.0222 95.4523 60.7436 96.8224 62.5352 98.1573ZM62.5703 113.122L69.9123 103.392L68.5071 102.338L61.0597 112.174C59.3736 111.05 57.6874 109.89 56.0714 108.661L63.9052 99.176C65.9076 100.616 67.9802 101.986 70.0528 103.251C71.9849 104.41 73.9521 105.499 75.9545 106.518L68.3666 116.003L69.7718 117.057L76.9381 107.01C79.1161 108.099 81.3292 109.082 83.5775 109.996L76.7976 120.394C72.4064 118.602 68.1558 116.495 64.116 114.036C63.6242 113.79 63.0972 113.438 62.5703 113.122ZM93.6595 125.242C91.0248 124.82 88.4253 124.223 85.8609 123.52L92.7813 113.157C95.0296 113.79 97.313 114.317 99.6315 114.738L93.6595 125.242ZM100.791 114.949C102.758 115.265 104.76 115.511 106.763 115.652L101.493 126.085C99.4909 125.98 97.5237 125.804 95.5214 125.523L101.353 115.265L100.791 114.949ZM84.6665 123.169C82.5939 122.572 80.5212 121.869 78.5189 121.097L85.2988 110.698C86.2122 111.05 87.1255 111.401 88.074 111.682C89.0576 112.033 90.0764 112.349 91.06 112.63L84.6665 123.169ZM107.536 126.085C106.13 126.155 104.69 126.19 103.285 126.155L107.465 115.722C107.5 115.722 107.5 115.722 107.536 115.722C110.135 115.897 112.735 115.897 115.334 115.722L109.819 125.909C109.046 125.98 108.273 126.015 107.536 126.085ZM117.828 124.293L117.863 124.328C115.65 124.961 113.402 125.453 111.119 125.734L117.372 115.546C117.407 115.546 117.442 115.546 117.442 115.546C119.304 115.335 121.201 115.019 123.027 114.598L117.828 124.293ZM125.1 121.272C124.889 121.413 124.714 121.518 124.503 121.624L123.871 121.94C123.063 122.396 122.184 122.748 121.306 123.134C120.955 123.275 120.604 123.415 120.252 123.556L125.416 113.965C126.049 113.79 126.646 113.579 127.278 113.368C128.156 113.052 129.035 112.701 129.878 112.349L125.943 120.78L125.1 121.272ZM135.639 110.312L134.901 111.541L134.515 112.174L134.128 112.771C133.882 113.157 133.636 113.544 133.355 113.93L132.512 115.019C132.231 115.406 131.915 115.722 131.599 116.073C131.283 116.424 131.002 116.776 130.65 117.092L129.632 118.04L128.543 118.919C128.367 119.059 128.191 119.235 127.981 119.34L127.419 119.727C127.313 119.797 127.243 119.867 127.138 119.937L132.266 111.19L132.196 111.155C133.531 110.417 134.831 109.609 136.06 108.696C136.376 108.45 136.693 108.204 137.009 107.923L135.639 110.312ZM141.576 100.441L140.065 102.935C138.695 104.691 137.079 106.237 135.323 107.572C133.882 108.626 132.372 109.539 130.791 110.347C129.491 110.979 128.191 111.541 126.821 112.033C123.765 113.087 120.604 113.755 117.372 114.106C114.14 114.457 110.908 114.457 107.641 114.246C101.142 113.79 94.7485 112.349 88.6009 110.242C82.4182 108.134 76.5517 105.253 70.9661 101.881C65.4157 98.4734 60.1815 94.539 55.4742 90.0073C50.7669 85.5108 46.5866 80.4874 43.2142 74.9018C41.528 72.1266 40.0877 69.2109 38.8933 66.2249C37.6989 63.2038 36.8558 60.1125 36.3991 56.9157C35.9425 53.7541 35.9073 50.5223 36.4343 47.3606C36.8909 44.6908 37.7692 42.1264 38.9987 39.7376C39.0689 39.6322 39.1041 39.562 39.1743 39.4566H39.1392C39.3148 39.1404 39.4905 38.7891 39.7013 38.473C41.3523 35.768 43.5655 33.3793 46.0947 31.4472C48.6592 29.5502 51.5398 28.0748 54.5609 26.9858C57.582 25.8968 60.7787 25.2293 63.9755 24.878C67.2073 24.5267 70.4392 24.4916 73.6711 24.7024C80.17 25.1239 86.5634 26.5291 92.7462 28.6368C98.9289 30.7095 104.831 33.5549 110.416 36.9273C115.966 40.3348 121.236 44.2342 125.978 48.7658C130.721 53.2623 134.936 58.2858 138.309 63.8713C139.995 66.6465 141.47 69.5622 142.629 72.5833C143.789 75.6044 144.667 78.766 145.124 81.9628C145.58 85.1595 145.58 88.4265 145.053 91.5882C144.491 94.7498 143.367 97.806 141.716 100.546L141.576 100.441Z" fill="#ECBF2E" stroke="#ECBF2E" stroke-width="2"/>
<path d="M131.566 71.4242C130.652 69.0354 129.493 66.7169 128.193 64.5389C125.558 60.1478 122.291 56.1782 118.603 52.6653C116.776 50.9088 114.844 49.2226 112.807 47.6769C110.769 46.1313 108.661 44.691 106.483 43.3912C102.092 40.7916 97.4903 38.5785 92.6425 36.9626C87.8298 35.3466 82.8064 34.2225 77.6776 33.9415C75.1131 33.801 72.5487 33.8361 70.0194 34.1171C67.4901 34.3981 64.9608 34.9251 62.5369 35.8033C60.113 36.6815 57.7945 37.8408 55.7219 39.4216C53.6844 41.0024 51.8928 42.9345 50.5579 45.1476C49.223 47.3608 48.3448 49.8549 47.9232 52.3842C47.5017 54.9487 47.5719 57.5131 47.9232 60.0424C48.2745 62.5717 48.9771 65.0658 49.9256 67.4195C50.8389 69.8083 51.9982 72.0565 53.3331 74.2345C55.9678 78.5905 59.2699 82.4899 62.9233 85.9676C66.5768 89.4805 70.6517 92.5016 74.9726 95.1715C79.2935 97.771 83.8954 100.019 88.673 101.67C93.4505 103.321 98.4388 104.446 103.533 104.797C106.062 104.972 108.626 104.972 111.156 104.691C113.685 104.446 116.214 103.919 118.638 103.075C121.062 102.232 123.38 101.073 125.453 99.5274C127.526 97.9818 129.317 96.0497 130.687 93.8366C132.022 91.6234 132.936 89.1292 133.392 86.5999C133.814 84.0355 133.814 81.436 133.463 78.8716C133.181 76.3423 132.479 73.8481 131.566 71.4242ZM132.163 86.3892C131.741 88.778 130.933 91.1316 129.669 93.2042C128.404 95.2768 126.718 97.1035 124.786 98.6141C122.818 100.09 120.605 101.214 118.287 102.057C115.968 102.9 113.509 103.427 111.05 103.673C108.591 103.954 106.097 103.989 103.603 103.848C98.6145 103.567 93.6964 102.443 88.9891 100.827C84.2467 99.2113 79.715 97.0333 75.4293 94.4689C73.2864 93.1691 71.2138 91.7639 69.2114 90.2534C67.2091 88.7428 65.3121 87.0918 63.5205 85.3704C59.9022 81.9278 56.6704 78.0636 54.1059 73.7778C51.5415 69.5272 49.5743 64.8199 48.9068 59.9019C48.5907 57.4428 48.5555 54.9487 48.9771 52.5247C49.3986 50.1008 50.2769 47.7823 51.5415 45.6746C52.8413 43.602 54.5275 41.7753 56.4947 40.2998C58.462 38.8595 60.6751 37.7354 62.9936 36.9274C65.3121 36.1195 67.7712 35.6277 70.2302 35.3818C72.6892 35.1359 75.1834 35.1359 77.6424 35.3115C82.5956 35.6628 87.4786 36.7869 92.1859 38.4029C96.8932 40.0188 101.39 42.2319 105.64 44.8315C107.748 46.1313 109.821 47.5364 111.788 49.047C113.79 50.5224 115.687 52.1383 117.479 53.8597C121.097 57.2672 124.329 61.0963 126.893 65.3117C128.193 67.4195 129.317 69.6326 130.231 71.916C131.144 74.1994 131.811 76.5882 132.163 79.0121C132.514 81.5062 132.549 83.9653 132.163 86.3892Z" fill="#ECBF2E"/>
</svg>
