<svg width="350" height="337" viewBox="0 0 350 337" fill="none" xmlns="http://www.w3.org/2000/svg">
<path d="M162.412 130.93L165.731 135.673C167.391 138.045 166.916 141.128 164.783 142.788L160.752 146.108C158.381 148.005 157.433 151.088 158.381 153.934L159.566 157.255H132.774L142.495 151.8C145.103 150.377 146.526 147.294 145.815 144.211L144.866 138.756C144.392 136.385 145.578 134.013 147.712 132.827L155.773 129.033C158.144 128.084 160.989 128.796 162.412 130.93Z" fill="#0177FC"/>
<path d="M322.216 315.678H265.55C264.838 315.678 264.364 315.203 264.364 314.492C264.364 313.78 264.838 313.306 265.55 313.306H322.216C326.01 313.306 329.092 310.223 329.092 306.428V211.329C329.092 210.617 329.566 210.143 330.277 210.143C330.989 210.143 331.463 210.617 331.463 211.329V306.428C331.463 311.409 327.195 315.678 322.216 315.678Z" fill="#E0E6EF"/>
<path d="M193.235 315.676H43.3894C38.1732 315.676 34.1426 311.407 34.1426 306.427V165.319C34.1426 160.101 38.4103 156.07 43.3894 156.07H284.518C285.229 156.07 285.703 156.544 285.703 157.256C285.703 157.967 285.229 158.441 284.518 158.441H43.3894C39.5958 158.441 36.5136 161.524 36.5136 165.319V306.427C36.5136 310.222 39.5958 313.305 43.3894 313.305H193.235C193.946 313.305 194.421 313.779 194.421 314.491C194.421 315.202 193.946 315.676 193.235 315.676Z" fill="#E0E6EF"/>
<path d="M156.722 107.693C156.485 107.693 156.248 107.693 156.01 107.456L151.268 103.898C140.599 96.072 136.806 81.3683 142.259 69.2733L144.156 65.0045L142.496 60.4985C141.073 56.4669 142.022 51.9609 144.63 48.8779L162.886 28.0081C163.36 27.5338 164.072 27.5338 164.546 28.0081C165.02 28.4824 165.02 29.1939 164.546 29.6682L146.289 50.538C144.156 53.1467 143.444 56.704 144.393 59.7871L146.289 65.2417C146.289 65.4788 146.289 65.9531 146.289 66.1903L144.63 70.4591C139.651 81.6055 143.207 94.8863 152.928 102.001L157.67 105.558C158.144 106.033 158.381 106.744 157.907 107.218C157.433 107.693 157.196 107.693 156.722 107.693Z" fill="#E0E6EF"/>
<path d="M196.317 66.9002C195.843 66.9002 195.132 66.9002 194.657 66.6631C191.812 65.7144 190.39 62.6314 191.338 59.7855L195.369 48.402C193.946 47.9277 191.812 46.9791 190.39 44.8447C188.73 42.4731 188.019 39.6272 188.493 35.8327C188.493 35.1212 189.204 34.6469 189.915 34.8841C190.627 34.8841 191.101 35.5956 190.864 36.307C190.39 39.3901 190.864 41.7616 192.286 43.4217C194.183 45.7933 197.028 46.2676 197.028 46.2676C197.265 46.2676 197.74 46.5048 197.977 46.7419C198.214 46.9791 198.214 47.4534 197.977 47.6905L193.472 60.497C192.998 61.9199 193.709 63.58 195.369 64.2915C196.791 64.7658 198.451 64.0544 199.162 62.3943L203.193 50.7736C203.193 50.5364 203.43 50.2993 203.904 50.0621L222.398 41.2873C226.191 39.3901 229.985 33.9355 229.985 27.5322C229.985 23.2634 228.088 17.3345 219.553 13.3028C214.574 10.9313 210.069 10.4569 205.801 12.117C198.925 14.7258 195.606 21.8405 195.369 21.8405C195.132 22.3148 194.657 22.5519 194.183 22.5519C193.709 22.5519 193.235 22.0776 193.235 21.6033C193.235 21.6033 190.627 10.4569 182.802 8.55969C175.69 6.66244 172.37 14.0143 172.37 14.4886C172.133 14.7258 171.896 15.2001 171.659 15.2001C171.422 15.2001 170.948 15.2001 170.711 14.9629C164.783 10.2198 159.093 8.55969 155.062 10.4569C151.743 12.117 149.372 15.9115 149.372 20.6547C149.372 25.3978 151.506 31.801 157.907 35.3584C158.381 35.5956 158.619 36.307 158.381 37.0185C158.144 37.4928 157.433 37.73 156.722 37.4928C149.135 33.4611 146.764 26.1093 146.764 20.6547C147.001 14.9629 149.609 10.2198 153.877 8.32253C158.619 6.18812 164.546 7.37391 170.948 12.117C172.844 8.79685 177.112 4.52803 183.514 6.18813C190.153 7.84822 193.472 14.7258 194.894 18.5203C196.554 15.9115 199.874 11.8799 205.09 9.98263C209.832 8.32253 215.048 8.79685 220.738 11.4056C230.933 16.1487 232.593 23.7377 232.593 27.7694C232.593 34.4098 228.799 41.0502 223.583 43.6589L205.564 52.1965L201.533 63.3429C200.585 65.4773 198.451 66.9002 196.317 66.9002Z" fill="#E0E6EF"/>
<path d="M301.351 271.33H240.891C240.417 271.33 240.18 271.093 239.943 270.855C239.706 270.618 239.706 270.144 239.706 269.67L286.414 152.04C286.651 151.329 287.362 151.091 287.836 151.329C288.548 151.566 288.785 152.277 288.548 152.751L242.551 268.721H300.64C303.959 262.792 330.751 213.464 343.554 172.435C348.296 157.257 348.533 144.925 344.503 135.913C335.73 116.704 301.825 101.763 245.87 112.435C229.036 115.518 227.614 115.992 209.357 121.21H208.883C205.327 122.158 201.533 121.21 198.925 118.364C196.317 115.755 195.606 111.723 196.791 108.166L212.677 62.8691C212.677 62.6319 212.914 62.3948 213.388 62.1576L224.294 56.9402C225.954 56.2287 227.14 54.8058 227.614 53.1457C228.088 51.4856 228.088 49.5883 227.377 48.1654C225.717 44.8452 221.923 43.4223 218.604 45.0824L205.089 51.7227C204.615 51.9599 203.904 51.7227 203.43 51.2484C202.956 50.7741 203.43 50.0626 203.904 49.5883L217.419 42.9479C221.923 40.8135 227.377 42.7108 229.511 47.2168C230.459 49.3512 230.696 51.7227 229.985 54.0943C229.273 56.4659 227.614 58.126 225.48 59.3118L215.048 64.292L199.162 109.589C198.214 112.435 198.925 115.281 200.822 117.415C202.718 119.55 205.564 120.261 208.409 119.55H208.883C227.377 114.332 228.799 113.858 245.633 110.775C286.651 102.949 334.071 107.692 346.874 135.676C351.379 145.4 350.904 158.206 346.162 173.858C332.411 217.495 303.011 270.618 302.537 271.093C302.062 271.093 301.825 271.33 301.351 271.33Z" fill="#E0E6EF"/>
<path d="M211.729 60.2602C211.255 60.2602 210.78 60.0231 210.543 59.5488C210.306 59.0744 210.543 58.363 211.017 57.8887C213.151 56.94 214.1 54.0942 213.151 51.9597C212.914 51.7226 212.914 51.2483 213.151 51.0111C213.151 50.774 213.388 50.5368 213.863 50.2997L221.924 46.5051C222.398 46.268 223.109 46.5051 223.584 46.9795C223.821 47.4538 223.584 48.1652 223.109 48.6396L215.996 51.9597C216.945 55.0428 215.522 58.6001 212.44 60.0231C211.966 60.2602 211.729 60.2602 211.729 60.2602Z" fill="#E0E6EF"/>
<path d="M168.577 51.486C170.017 51.486 171.185 50.318 171.185 48.8773C171.185 47.4365 170.017 46.2686 168.577 46.2686C167.136 46.2686 165.969 47.4365 165.969 48.8773C165.969 50.318 167.136 51.486 168.577 51.486Z" fill="#E0E6EF"/>
<path d="M166.206 67.6116C164.784 67.6116 163.835 67.3744 163.835 67.3744C163.124 67.1373 162.887 66.663 162.887 65.9515C163.124 65.24 163.598 65.0029 164.309 65.0029C164.546 65.0029 171.659 66.4258 175.453 60.2597C175.69 59.7854 176.638 59.5483 177.113 59.7854C177.587 60.0226 177.824 60.9712 177.587 61.4455C174.267 66.663 169.051 67.6116 166.206 67.6116Z" fill="#E0E6EF"/>
<path d="M179.484 63.3414C179.247 63.3414 179.01 63.3413 179.01 63.1042L173.083 60.0212C172.609 59.784 172.372 59.0725 172.609 58.3611C172.846 57.8867 173.557 57.6496 174.268 57.8867L180.196 60.9698C180.67 61.2069 180.907 61.9184 180.67 62.6299C180.196 63.1042 179.959 63.3414 179.484 63.3414Z" fill="#E0E6EF"/>
<path d="M212.439 336.549C211.728 336.549 211.254 336.549 210.543 336.312C208.172 336.074 206.512 334.889 205.564 333.229C203.193 328.723 206.749 320.185 212.914 308.09C213.151 307.853 213.388 307.141 213.625 306.193C215.759 301.687 220.264 290.778 224.769 287.457C229.51 283.663 233.778 279.157 236.86 274.177L239.706 269.671C239.943 269.196 240.891 268.959 241.365 269.196C241.84 269.433 242.077 270.382 241.84 270.856L238.994 275.362C235.675 280.58 231.407 285.323 226.428 289.355C222.635 292.438 217.893 303.11 215.996 307.141C215.522 308.09 215.285 308.801 215.048 309.039C210.068 318.762 205.564 328.248 207.697 332.043C208.172 332.991 209.357 333.703 211.017 333.94C224.769 335.837 232.356 309.987 232.593 309.75C232.83 309.039 233.541 308.801 234.015 309.039C234.727 309.276 234.964 309.987 234.727 310.462C234.49 311.41 227.139 336.549 212.439 336.549Z" fill="#E0E6EF"/>
<path d="M231.644 333.227C230.222 333.227 229.036 332.99 227.851 332.515C225.954 331.804 225.006 330.618 224.769 328.958C224.769 328.246 225.243 327.772 225.954 327.772C226.665 327.772 227.14 328.246 227.14 328.958C227.14 329.669 227.614 330.144 228.562 330.381C231.881 331.567 238.52 330.381 242.077 326.823C246.344 322.792 248.478 310.934 248.478 310.934C248.715 310.223 249.19 309.985 249.901 309.985C250.612 310.223 250.849 310.697 250.849 311.408C250.849 311.883 248.478 323.978 243.736 328.721C240.654 331.567 235.675 333.227 231.644 333.227Z" fill="#E0E6EF"/>
<path d="M248.48 329.432C246.82 329.432 245.397 329.195 243.738 328.721C243.026 328.483 242.789 327.772 243.026 327.298C243.264 326.586 243.975 326.349 244.449 326.586C247.531 327.535 255.83 328.721 262.706 317.574C265.314 313.305 268.633 306.665 272.427 298.839C272.901 297.89 274.086 294.57 275.272 290.776C279.065 279.866 281.91 271.092 283.807 269.431C284.281 268.957 284.993 268.957 285.467 269.431C285.941 269.906 285.941 270.617 285.467 271.092C283.807 272.514 279.777 284.372 277.406 291.487C275.983 295.519 275.035 298.839 274.323 299.787C270.53 307.614 266.973 314.491 264.365 318.76C260.335 325.638 254.407 329.432 248.48 329.432Z" fill="#E0E6EF"/>
<path d="M200.111 327.059C199.163 327.059 198.451 327.059 197.503 326.822C195.132 326.11 193.472 324.687 192.287 322.079C189.442 316.15 193.709 313.067 200.822 307.849C205.327 304.766 211.492 300.26 218.367 293.62C218.842 293.146 219.553 293.146 220.027 293.62C220.501 294.094 220.501 294.806 220.027 295.28C212.914 302.158 206.75 306.426 202.245 309.747C194.658 314.964 192.524 316.861 194.421 320.893C195.369 322.79 196.554 323.976 198.214 324.45C202.008 325.636 206.75 322.79 206.75 322.79C207.224 322.553 207.935 322.553 208.409 323.264C208.884 323.976 208.646 324.45 207.935 324.925C207.698 324.687 204.142 327.059 200.111 327.059Z" fill="#E0E6EF"/>
<path d="M22.2867 28.4804C28.703 28.4804 33.9045 23.2776 33.9045 16.8597C33.9045 10.4418 28.703 5.23901 22.2867 5.23901C15.8704 5.23901 10.6689 10.4418 10.6689 16.8597C10.6689 23.2776 15.8704 28.4804 22.2867 28.4804Z" fill="#0177FC"/>
<path d="M52.8732 62.8668C52.399 62.8668 51.9248 62.6296 51.6877 61.9182L49.0797 52.4319C48.8426 51.7204 49.3168 51.009 49.791 51.009C50.5023 50.7718 50.9764 51.2461 51.2135 51.9576L53.8216 61.4438C54.0587 62.1553 53.5845 62.6296 52.8732 62.8668C52.8732 62.8668 53.1103 62.8668 52.8732 62.8668Z" fill="#E0E6EF"/>
<path d="M50.2647 53.1438C50.0276 53.1438 49.7905 53.1438 49.7905 52.9067L40.0695 47.4521C39.5953 47.2149 39.3582 46.5035 39.5953 45.792C39.8324 45.3177 40.5437 45.0805 41.255 45.3177L50.0276 50.298L75.6341 5.00103L4.26776 24.4479L23.2356 35.3571C23.7098 35.5942 23.9469 36.3057 23.7098 37.0172C23.4727 37.4915 22.7614 37.7287 22.0501 37.4915L0.711293 25.3965C0.237098 24.9222 0 24.4479 0 23.9736C0 23.4993 0.474195 23.0249 0.94839 23.0249L78.0051 1.91799C78.4793 1.68083 78.9535 1.91799 79.1906 2.3923C79.4277 2.86662 79.4277 3.34093 79.1906 3.81524L51.2131 52.6695C50.976 52.9067 50.7389 53.1438 50.5018 53.1438H50.2647Z" fill="#E0E6EF"/>
<path d="M45.522 113.855C45.0478 113.855 44.5736 113.618 44.3365 112.907L42.2026 105.08C41.7285 103.183 40.543 101.76 38.8833 100.812C34.8526 98.44 29.3994 94.6455 27.5026 90.1395C25.8429 86.1079 24.1832 80.6533 26.7913 76.6216C28.6881 73.7757 32.4817 72.3528 37.6978 72.5899C40.0688 72.8271 60.9333 75.673 64.7269 80.8904C66.3866 83.0248 66.6237 85.3964 65.4382 87.768C63.0672 92.5111 55.9543 95.1198 45.522 95.357C44.8107 95.357 44.3365 94.8827 44.3365 94.1712C44.3365 93.4597 44.8107 92.9854 45.522 92.9854C59.2737 92.7483 62.593 88.0051 63.3043 86.5822C64.0156 85.1593 63.7785 83.4992 62.8301 82.3134C59.985 78.5189 43.6252 75.9101 37.4607 74.9615C33.1929 74.9615 30.1107 75.9102 28.6881 78.0446C26.5542 81.3648 28.2139 86.5822 29.3994 89.1909C31.0591 93.2226 36.7494 96.7799 39.8317 98.6772C41.9655 99.863 43.6252 101.997 44.3365 104.369L46.4704 112.195C46.7075 112.907 46.2333 113.381 45.522 113.618C45.7591 113.855 45.7591 113.855 45.522 113.855Z" fill="#E0E6EF"/>
<path d="M27.74 78.7584C27.5029 78.7584 27.2658 78.7584 27.0287 78.5212C25.1319 76.8612 23.9464 75.2011 23.2351 74.0153C21.3383 69.9836 19.9157 64.2919 22.5238 60.4973C24.4206 57.6515 28.2142 56.2285 33.4303 56.4657C35.8013 56.7028 56.6659 59.5487 60.4594 64.7662C61.882 66.6634 62.3562 69.035 61.6449 70.9322C60.9336 72.8295 58.7997 75.6754 52.8723 77.3355C52.161 77.5726 51.6868 77.0983 51.4497 76.624C51.2126 75.9125 51.6868 75.4382 52.161 75.2011C56.1917 74.0153 58.5626 72.3552 59.2739 70.2208C59.7481 68.5607 59.0368 67.1377 58.3255 66.1891C55.4804 62.3946 39.1206 59.7859 32.9561 58.8372C28.6884 58.8372 25.6061 59.7859 24.1835 61.9203C22.0496 65.2405 23.7093 70.4579 24.8948 73.0666C25.1319 73.7781 26.0803 74.9639 27.9771 76.8612C28.4513 77.3355 28.4513 78.0469 27.9771 78.5212C28.2142 78.7584 27.9771 78.7584 27.74 78.7584Z" fill="#E0E6EF"/>
<path d="M31.297 58.1236C26.0808 58.1236 21.1018 54.092 19.4421 47.9259C18.4937 44.6057 18.7308 41.0484 20.1534 38.2025C21.576 35.1194 23.9469 32.985 26.7921 32.2736C32.7195 30.6135 39.1212 35.1194 41.018 41.997C42.9147 49.1117 39.5954 56.2264 33.6679 57.8865C32.9566 57.8865 32.2454 58.1236 31.297 58.1236ZM29.4002 34.1708C28.6889 34.1708 28.2147 34.1708 27.5034 34.408C25.3695 35.1194 23.4727 36.7795 22.2873 39.1511C21.1018 41.5227 21.1018 44.6057 21.8131 47.4516C23.4727 53.1434 28.4518 56.9379 33.1937 55.5149C37.9357 54.3291 40.5438 48.4002 38.8841 42.7085C37.4615 37.491 33.4308 34.1708 29.4002 34.1708Z" fill="#E0E6EF"/>
<path d="M51.6873 40.5752C51.4502 40.5752 51.2131 40.5752 50.976 40.338L0.94842 2.1558C0.474225 1.91864 0.474225 0.970011 0.94842 0.495698C1.42261 0.0213843 2.13391 -0.215772 2.6081 0.258541L52.3986 38.4408C52.8728 38.9151 53.1099 39.6266 52.6357 40.1009C52.3986 40.5752 51.9244 40.5752 51.6873 40.5752Z" fill="#E0E6EF"/>
<path d="M78.2434 104.845C77.7692 104.845 77.2951 104.608 77.058 103.896L74.9241 96.0703C74.4499 94.4102 74.4499 92.7501 74.687 91.09C75.6354 86.3469 77.058 74.2519 69.2337 64.0542C66.1515 59.7854 68.0482 56.4652 70.6563 52.4335C72.5531 49.3505 74.9241 45.556 76.5838 39.8642C77.7692 35.3582 77.058 31.8009 74.4499 30.6151C71.1305 28.955 64.966 30.8522 60.6982 36.7812C60.224 37.2555 59.5127 37.4926 59.0385 37.0183C58.5643 36.544 58.3272 35.8325 58.8014 35.3582C63.3063 29.1922 70.6563 26.3463 75.6354 28.4807C77.2951 29.4293 81.3257 32.2752 78.9547 40.5757C77.2951 46.7417 74.687 50.7734 72.7902 53.8564C69.945 58.3624 69.2337 60.0225 71.3676 62.8684C79.666 74.0148 78.2434 86.8212 77.2951 91.8015C77.058 92.9873 77.058 94.4102 77.5322 95.8332L79.666 103.659C79.9031 104.371 79.4289 104.845 78.7176 105.082C78.2434 104.845 78.2434 104.845 78.2434 104.845Z" fill="#E0E6EF"/>
<path d="M62.3563 97.4931C61.8821 97.4931 61.4079 97.2559 61.1708 96.5445L59.7482 91.0899C59.5111 90.3784 59.9853 89.9041 60.6966 89.6669C61.4079 89.4298 61.8821 89.9041 62.1192 90.6155L63.5418 96.0701C63.7789 96.7816 63.3047 97.2559 62.5934 97.4931H62.3563Z" fill="#E0E6EF"/>
<path d="M54.7706 99.8655C54.2964 99.8655 53.8222 99.6284 53.5851 98.9169C53.348 98.2054 53.8222 97.7311 54.5335 97.4939L70.6561 92.988C71.3674 92.7508 71.8416 93.2251 72.0787 93.9366C72.3158 94.6481 71.8416 95.1224 71.1303 95.3595L55.0077 99.8655H54.7706Z" fill="#E0E6EF"/>
<path d="M41.4922 158.443C41.018 158.443 40.5438 157.969 40.3067 157.495C40.0696 156.546 35.5648 132.83 41.018 113.146C41.018 112.672 41.4922 112.435 41.9664 112.198L84.4069 101.526C85.1182 101.289 85.5924 101.763 85.8295 102.237L104.323 156.783C104.56 157.495 104.086 157.969 103.612 158.206C102.9 158.443 102.426 157.969 102.189 157.495L84.1698 104.134L43.6261 114.569C38.6471 133.542 43.1519 157.02 43.1519 157.258C42.9148 157.495 42.4406 158.206 41.4922 158.443C41.7293 158.443 41.7293 158.443 41.4922 158.443Z" fill="#E0E6EF"/>
<path d="M291.867 152.988C285.466 152.988 283.332 149.905 283.332 149.905C282.858 149.431 283.095 148.719 283.569 148.245C284.043 147.771 284.754 148.008 285.229 148.482C285.229 148.482 287.599 151.565 294.95 150.379C295.661 150.379 296.135 150.854 296.372 151.328C296.609 151.802 295.898 152.514 295.424 152.751C294.001 152.988 292.816 152.988 291.867 152.988Z" fill="#E0E6EF"/>
<path d="M101.952 155.12C101.477 155.12 101.003 154.883 101.003 154.409C100.766 153.935 101.003 153.223 101.477 152.749C107.168 149.903 110.25 145.16 113.569 140.179C119.26 131.642 125.424 121.918 146.526 118.361C147.237 118.361 147.711 118.598 147.949 119.31C147.949 120.021 147.711 120.495 147 120.733C127.084 124.053 121.156 133.065 115.703 141.602C112.147 146.82 109.064 151.8 102.663 155.12C102.189 155.12 102.189 155.12 101.952 155.12Z" fill="#E0E6EF"/>
</svg>
