<svg width="561" height="561" viewBox="0 0 561 561" fill="none" xmlns="http://www.w3.org/2000/svg">
<path d="M236.476 103.267C233.148 108.931 229.28 114.226 225.691 119.739C221.884 125.532 217.351 132.18 218.936 139.465C220.143 144.794 226.01 145.866 227.013 151.25C228.154 157.7 227.005 164.101 226.84 170.607C226.647 177.56 226.807 185.006 230.044 191.334C232.856 196.895 238.21 201.261 243.408 204.494C253.178 210.539 264.593 213.134 275.629 215.684C277.667 216.166 276.789 219.191 274.769 218.778C265.616 216.678 256.358 214.46 247.81 210.509C239.505 206.641 230.663 200.493 226.751 191.923C222.051 181.508 224.309 170.477 224.382 159.518C224.406 156.868 224.64 153.355 223.737 150.807C222.889 148.464 220.243 147.631 218.614 145.938C215.623 142.995 215.124 137.843 215.608 133.895C216.336 128.12 219.811 123.004 222.93 118.203C226.519 112.689 230.387 107.395 233.715 101.73C234.699 99.9248 237.479 101.53 236.476 103.267Z" fill="#F0F0F0"/>
<path d="M257.381 149.501C264.263 147.51 269.85 143.15 273.392 136.914C274.377 135.109 277.156 136.713 276.172 138.519C272.228 145.449 265.912 150.373 258.207 152.584C256.221 153.116 255.395 150.033 257.381 149.501Z" fill="#F0F0F0"/>
<path d="M270.853 134.29C273.974 134.702 276.931 135.599 279.792 136.961C281.648 137.859 280.043 140.638 278.187 139.741C275.897 138.592 273.338 137.81 270.82 137.456C268.787 137.267 268.802 134.032 270.853 134.29Z" fill="#F0F0F0"/>
<path d="M233.106 104.39C219.092 98.6734 200.857 81.3125 207.886 64.5245C210.879 57.3349 218.088 53.2741 224.992 50.5431C231.64 47.954 240.623 45.0332 245.592 52.0717C244.597 52.1916 243.669 52.2933 242.692 52.4817C245.786 42.1078 257.187 36.7035 267.392 35.8781C277.391 35.1078 289.112 41.5854 287.755 52.9623C286.686 52.8082 285.685 52.6358 284.634 52.5503C290.499 36.0743 307.249 26.5201 323.971 24.5356C333.088 23.4877 342.866 24.9059 350.041 31.1331C357.111 37.2417 358.781 46.4861 357.124 55.3736C356.048 60.9483 353.884 66.3004 351.597 71.4654C349.247 76.9411 346.567 82.2848 343.105 87.1771C341.929 88.814 339.167 87.2777 340.326 85.5723C346.46 76.9536 351.541 66.0474 353.826 55.6699C355.153 49.6609 355.076 43.0734 351.667 37.7462C348.751 33.1676 343.9 30.1355 338.8 28.6386C319.766 23.0925 294.617 34.4567 287.797 53.3917C287.255 54.9318 284.45 54.8758 284.676 52.9797C285.911 42.5166 274.722 38.0256 266.021 39.2558C257.799 40.3575 248.412 44.7817 245.923 53.3047C245.481 54.6712 243.814 54.7509 243.022 53.7148C238.689 47.6806 228.703 52.3386 223.412 54.7844C217.522 57.464 211.725 61.587 210.202 68.2358C208.516 75.3691 211.837 82.5557 216.416 87.8632C221.119 93.3579 227.384 98.6543 234.121 101.328C235.871 102.107 235.012 105.201 233.106 104.39Z" fill="#F0F0F0"/>
<path d="M347.489 93.1246C344.054 97.5692 340.235 101.676 335.927 105.327C335.844 104.468 335.692 103.628 335.627 102.837C338.27 104.479 339.813 107.223 339.177 110.33C338.7 112.66 336.753 115.532 334.208 115.626C332.97 115.664 332.311 114.299 332.826 113.206C332.876 113.12 332.876 113.12 332.926 113.033C333.309 112.269 334.355 112.063 335.118 112.445L335.205 112.495C337.011 113.48 335.406 116.26 333.6 115.275L333.513 115.225C334.267 115.023 334.952 114.839 335.705 114.637C335.655 114.724 335.655 114.724 335.605 114.811C335.161 113.976 334.667 113.227 334.223 112.392C335.396 111.563 335.997 110.521 336.197 109.073C336.204 107.455 335.462 106.332 334.073 105.53C333.273 105.01 332.924 103.709 333.773 103.041C338.081 99.3899 341.9 95.283 345.334 90.8384C346.461 89.2884 348.752 91.5379 347.489 93.1246Z" fill="#F0F0F0"/>
<path d="M336.363 159.836C336.833 152.001 337.166 144.202 337.568 136.385C337.751 132.959 337.866 129.55 337.962 126.074C338.114 122.803 339.369 121.732 341.687 119.422C346.541 114.524 352.567 110.707 356.059 104.558C359.031 99.2094 358.447 92.0971 353.408 88.0875C346.659 82.6273 338.052 90.5135 332.863 94.9875C330.353 97.1285 328.017 99.3698 325.699 101.68C324.43 102.974 322.952 104.031 322.415 105.864C321.828 107.783 321.78 110.072 321.504 112.055C320.965 115.797 320.563 119.502 320.247 123.258C320.068 125.876 319.627 128.343 318.168 130.57C315.788 134.291 312.162 135.557 308.304 133.213C297.076 126.383 303.788 112.25 302.012 101.786C302.396 102.123 302.73 102.548 303.114 102.885C294.894 100.976 289.157 94.3637 287.215 86.2938C286.751 84.2888 289.834 83.4628 290.297 85.4678C291.964 92.5102 296.772 98.1235 303.992 99.86C304.458 99.9554 305.035 100.462 305.095 100.96C306.01 106.294 305.085 111.609 304.849 117.031C304.738 119.631 304.663 122.368 305.48 124.865C306.369 127.637 310.172 132.786 313.564 130.923C316.7 129.201 316.955 124.948 317.23 121.864C317.532 118.332 317.971 114.764 318.497 111.245C318.927 108.193 318.708 104.36 320.957 102.069C323.376 99.5855 325.881 97.1522 328.473 94.7689C335.911 88.0034 348.027 77.0477 357.194 87.1465C360.332 90.6375 361.828 95.6701 361.166 100.326C360.332 105.983 356.149 110.922 351.996 114.604C349.317 116.937 346.62 119.202 344.202 121.685C342.527 123.382 341.546 124.379 341.399 126.842C341.209 128.875 341.262 130.99 341.141 133.005C340.759 141.991 340.358 150.909 339.821 159.864C339.408 161.883 336.242 161.851 336.363 159.836Z" fill="#F0F0F0"/>
<path d="M277.936 376.374C273.537 376.671 269.042 376.334 264.739 377.267L254.568 356.57C248.638 344.576 250.032 330.326 258.11 319.645L273.677 299.1C274.47 297.126 274.681 294.353 273.701 292.339L266.387 276.824C264.555 273.277 265.711 269.37 268.737 267.237L289.467 250.89L304.728 264.275C308.162 266.952 308.09 271.891 305.413 275.325L295.355 287.932C293.74 290.127 293.008 292.599 293.687 295.134L304.039 307.191C313.971 318.774 315.832 335.309 308.662 348.831L295.389 373.827C289.525 374.957 283.847 375.965 277.936 376.374Z" fill="#0177FC"/>
<path d="M257.757 112.542C258.336 115.251 256.905 118.131 254.096 118.883C251.356 119.617 248.558 117.944 247.756 115.222C247.04 112.551 248.645 109.771 251.229 109.005C254.138 108.079 256.886 109.839 257.757 112.542C258.426 114.492 255.344 115.318 254.675 113.368C253.895 111.008 250.246 111.912 250.907 114.378C251.568 116.844 255.18 115.803 254.675 113.368C254.279 111.345 257.362 110.519 257.757 112.542Z" fill="#F0F0F0"/>
<path d="M253.742 117.289C251.851 117.796 249.906 116.673 249.399 114.782C248.893 112.89 250.015 110.946 251.907 110.439C253.799 109.932 255.743 111.055 256.25 112.946C256.757 114.838 255.634 116.782 253.742 117.289Z" fill="#F0F0F0"/>
<path d="M339.448 161.212C339.349 166.598 340.507 172.015 341.884 177.153C343.242 182.222 344.899 188.68 349.069 192.188C355.421 197.534 365.194 198.66 373.044 200.008C382.448 201.673 391.902 203.251 401.306 204.917C419.56 208.102 437.928 210.889 456.137 214.454C470.394 217.242 485.329 221.463 495.999 231.967C521 256.766 511.736 296.179 506.556 326.716C503.535 344.486 500.29 362.243 495.783 379.676C491.618 395.917 486.617 412.602 479.043 427.628C475.547 434.585 470.972 440.803 464.738 445.484C458.197 450.394 450.421 453.432 442.598 455.749C425.55 460.904 407.833 464.109 390.207 466.556C353.648 471.506 316.69 472.231 279.774 472.284C261.71 472.279 243.61 472.136 225.497 472.217C214.574 472.28 193.704 475.229 191.877 459.639C191.032 452.377 193.562 444.283 195.596 437.35C197.68 430.331 200.335 423.525 203.406 416.902C208.569 405.754 214.859 394.156 223.501 385.306C225.869 382.909 228.58 380.421 231.955 379.59C237.865 378.08 244.15 377.424 250.175 376.617C264.147 374.782 278.216 373.582 292.327 372.811C306.954 372.049 321.71 371.767 336.361 372.466C351.392 373.211 366.454 376.811 381.356 372.965C390.28 370.648 398.2 365.956 404.803 359.634C406.258 358.216 408.55 360.466 407.094 361.884C395.107 373.319 379.626 378.568 363.17 377.985C356.51 377.787 349.934 376.539 343.287 376.117C336.845 375.641 330.389 375.388 323.92 375.359C296.012 375.055 267.69 376.77 240.121 381.293C235.9 381.984 231.862 382.258 228.485 384.999C224.615 388.092 221.536 392.22 218.731 396.276C210.718 407.748 204.484 420.652 200.046 433.955C197.738 440.961 195.39 448.639 195.034 456.077C194.593 465.666 201.801 468.728 210.116 469.07C218.294 469.448 226.544 469 234.698 469.017C243.73 469.02 252.761 469.023 261.811 469.094C297.733 469.161 333.704 469.141 369.447 465.804C387.139 464.148 404.815 461.614 422.212 457.76C438.014 454.26 456.566 450.611 468.11 438.34C473.822 432.257 477.371 424.404 480.46 416.749C483.698 408.832 486.452 400.752 488.946 392.522C493.865 376.079 497.522 359.313 500.558 342.42C503.758 325.043 507.314 307.35 508.91 289.741C510.384 273.047 508.951 255.369 499.386 241.045C490.494 227.862 475.704 221.986 460.715 218.66C443.845 214.884 426.55 212.543 409.452 209.562C400.291 207.979 391.061 206.414 381.899 204.83C373.67 203.438 365.19 202.479 357.215 199.844C351.973 198.091 346.771 195.667 343.782 190.815C340.935 186.218 339.38 180.687 338.122 175.444C337.029 170.818 336.173 165.981 336.232 161.266C336.247 159.133 339.482 159.147 339.448 161.212Z" fill="#F0F0F0"/>
<path d="M403.349 355.031C406.088 357.307 408.809 359.515 411.617 361.773C413.222 363.105 410.954 365.328 409.367 364.064C406.628 361.788 403.907 359.58 401.1 357.322C399.495 355.99 401.762 353.767 403.349 355.031Z" fill="#F0F0F0"/>
<path d="M384.24 370.577C384.098 366.21 383.663 361.848 382.73 357.545C382.335 355.522 381.821 353.604 381.22 351.636C380.945 350.608 380.999 349.713 379.843 349.509C378.581 349.186 378.277 350.515 377.675 351.558C374.056 358.328 372.242 366.083 371.941 373.726C371.82 375.741 368.672 375.776 368.775 373.693C369.006 367.978 370.063 362.335 371.985 356.9C373.251 353.404 374.851 347.322 378.628 345.796C382.472 344.252 383.734 348.686 384.537 351.408C386.362 357.674 387.279 364.109 387.474 370.592C387.509 372.638 384.274 372.624 384.24 370.577Z" fill="#F0F0F0"/>
<path d="M226.162 387.016C214.978 389.939 202.519 389.753 191.991 394.85C189.329 396.151 186.106 397.822 184.515 400.378C182.704 403.213 183.54 406.88 185.27 409.5C188.996 415.183 196.58 416.088 202.735 416.862C204.718 417.138 204.753 420.286 202.702 420.028C195.944 419.195 188.255 418.172 183.602 412.59C179.809 408.027 178.819 401.317 183.249 396.752C187.967 391.89 195.379 389.684 201.842 388.32C209.606 386.606 217.645 385.921 225.318 383.865C227.323 383.401 228.149 386.484 226.162 387.016Z" fill="#F0F0F0"/>
<path d="M381.025 466.814C378.01 470.632 378.637 475.163 379.04 479.68C379.341 483.271 379.186 487.351 377.746 490.747C376.735 493 374.733 495.666 372.161 496.208C369.951 496.727 367.067 496.104 364.847 496.039C362.11 495.964 359.356 495.821 356.601 495.678C335.083 494.836 313.56 493.701 292.082 492.188C252.708 489.375 212.84 485.814 174.41 476.654C156.291 472.332 138.421 466.474 121.582 458.431C117.541 456.503 113.295 454.63 109.555 452.182C106.25 449.984 103.788 446.825 101.719 443.488C99.5449 440.033 99.8369 435.916 99.6494 431.928C99.3872 426.565 99.2619 421.166 99.3789 415.848C99.7357 397.177 102.295 378.503 106.133 360.22C110.125 340.868 114.903 321.159 121.368 302.54C124.732 292.901 128.6 283.495 133.23 274.471C137.761 265.621 142.871 256.469 149.436 248.91C162.246 234.244 182.177 229.711 200.654 227.697C202.714 227.439 202.631 230.692 200.621 230.863C184.086 232.724 166.31 236.532 153.99 248.644C147.661 254.892 143.034 263.107 138.708 270.801C134.35 278.65 130.532 286.868 127.353 295.283C120.676 312.564 116.098 330.824 111.875 348.769C107.603 366.801 104.331 385.005 103.042 403.486C102.386 412.546 102.246 421.614 102.69 430.673C102.874 435.469 102.756 439.686 105.593 443.698C108.43 447.711 112.134 450.022 116.403 452.256C132.439 460.587 149.505 466.734 166.975 471.378C203.264 481.038 240.917 484.825 278.28 487.809C300.708 489.582 323.164 490.908 345.595 491.872C351.535 492.117 357.542 492.342 363.481 492.586C365.926 492.666 369.536 493.534 371.81 492.704C373.947 491.912 375.035 489.124 375.449 487.104C377.157 479.23 373.155 471.419 378.715 464.496C379.997 462.977 382.289 465.227 381.025 466.814Z" fill="#F0F0F0"/>
<path d="M180.768 399.547C171.803 378.968 175.983 356.482 183.538 336.175C184.28 334.288 187.356 335.079 186.632 337.035C179.423 356.441 174.972 378.192 183.493 397.935C184.368 399.83 181.574 401.46 180.768 399.547Z" fill="#F0F0F0"/>
<path d="M188.965 336.704C187.066 337.286 185.101 337.078 183.282 336.317C182.468 336.021 182.293 334.82 182.695 334.125C183.146 333.344 184.073 333.242 184.887 333.538C185.961 333.984 187.13 333.965 188.139 333.621C190.126 333.089 190.952 336.171 188.965 336.704Z" fill="#F0F0F0"/>
</svg>
