<svg width="290" height="174" viewBox="0 0 290 174" fill="none" xmlns="http://www.w3.org/2000/svg">
<path d="M247.384 38L289.223 59.0423V106.431C289.223 106.431 258.274 100.108 258.52 98.7733C258.766 97.4384 234 70.8105 234 70.8105L247.384 38Z" fill="#030D18"/>
<path d="M283.611 61.1042L283.564 61.0579C283.563 61.0483 283.562 61.0385 283.561 61.0288C283.555 60.9895 283.542 60.918 283.505 60.8386C283.503 60.8324 283.502 60.8266 283.5 60.8213V60.7682L283.474 60.6912C283.313 60.2081 282.941 59.9 282.516 59.7512L151.716 1.37591L151.693 1.36591L151.67 1.35816C151.462 1.28882 151.21 1.28882 151.002 1.35816L150.959 1.37262L150.919 1.39471L76.5568 42.4221C76.4392 42.4838 76.3642 42.5661 76.3247 42.6134C76.3087 42.6326 76.2924 42.6539 76.2856 42.6628L76.1518 42.7967V42.8817C76.1471 42.894 76.1427 42.9068 76.1388 42.92C76.0801 43.0735 76.081 43.214 76.0814 43.2733C76.0815 43.276 76.0815 43.2786 76.0815 43.281C76.0815 43.2823 76.0815 43.2836 76.0815 43.2848L75.379 83.6042H75.3789V83.613V83.6481V83.6832V83.6834V83.6837V83.6839V83.6841V83.6843V83.6845V83.6847V83.6849V83.6851V83.6853V83.6855V83.6857V83.6859V83.6861V83.6863V83.6865V83.6867V83.687V83.6872V83.6874V83.6876V83.6878V83.688V83.6882V83.6884V83.6886V83.6888V83.689V83.6892V83.6894V83.6896V83.6898V83.69V83.6902V83.6904V83.6907V83.6909V83.6911V83.6913V83.6915V83.6917V83.6919V83.6921V83.6923V83.6925V83.6927V83.6929V83.6931V83.6933V83.6935V83.6937V83.6939V83.6942V83.6944V83.6946V83.6948V83.695V83.6952V83.6954V83.6956V83.6958V83.696V83.6962V83.6964V83.6966V83.6968V83.697V83.6972V83.6974V83.6977V83.6979V83.6981V83.6983V83.6985V83.6987V83.6989V83.6991V83.6993V83.6995V83.6997V83.6999V83.7001V83.7003V83.7005V83.7007V83.7009V83.7011V83.7014V83.7016V83.7018V83.702V83.7022V83.7024V83.7026V83.7028V83.703V83.7032V83.7034V83.7036V83.7038V83.704V83.7042V83.7044V83.7047V83.7049V83.7051V83.7053V83.7055V83.7057V83.7059V83.7061V83.7063V83.7065V83.7067V83.7069V83.7071V83.7073V83.7075V83.7077V83.7079V83.7081V83.7084V83.7086V83.7088V83.709V83.7092V83.7094V83.7096V83.7098V83.71V83.7102V83.7104V83.7106V83.7108V83.711V83.7112V83.7114V83.7116V83.7119V83.7121V83.7123V83.7125V83.7127V83.7129V83.7131V83.7133V83.7135V83.7137V83.7139V83.7141V83.7143V83.7145V83.7147V83.7149V83.7151V83.7153V83.7156V83.7158V83.716V83.7162V83.7164V83.7166V83.7168V83.717V83.7172V83.7174V83.7176V83.7178V83.718V83.7182V83.7184V83.7186V83.7188V83.7191V83.7193V83.7195V83.7197V83.7199V83.7201V83.7203V83.7205V83.7207V83.7209V83.7211V83.7213V83.7215V83.7217V83.7219V83.7221V83.7223V83.7225V83.7228V83.723V83.7232V83.7234V83.7236V83.7238V83.724V83.7242V83.7244V83.7246V83.7248V83.725V83.7252V83.7254V83.7256V83.7258V83.7261V83.7263V83.7265V83.7267V83.7269V83.7271V83.7273V83.7275V83.7277V83.7279V83.7281V83.7283V83.7285V83.7287V83.7289V83.7291V83.7293V83.7295V83.7298V83.73V83.7302V83.7304V83.7306V83.7308V83.731V83.7312V83.7314V83.7316V83.7318V83.732V83.7322V83.7324V83.7326V83.7328V83.733V83.7333V83.7335V83.7337V83.7339V83.7341V83.7343V83.7345V83.7347V83.7349V83.7351V83.7353V83.7355V83.7357V83.7359V83.7361V83.7363V83.7365V83.7367V83.737V83.7372V83.7374V83.7376V83.7378V83.738V83.7382V83.7384V83.7386V83.7388V83.739V83.7392V83.7394V83.7396V83.7398V83.74V83.7402V83.7405V83.7407V83.7409V83.7411V83.7413V83.7415V83.7417V83.7419V83.7421V83.7423V83.7425V83.7427V83.7429V83.7431V83.7433V83.7435V83.7437V83.7439V83.7442V83.7444V83.7446V83.7448V83.745V83.7452V83.7454V83.7456V83.7458V83.746V83.7462V83.7464V83.7466V83.7468V83.747V83.7472V83.7475V83.7477V83.7479V83.7481V83.7483V83.7485V83.7487V83.7489V83.7491V83.7493V83.7495V83.7497V83.7499V83.7501V83.7503V83.7505V83.7507V83.7509V83.7512V83.7514V83.7516V83.7518V83.752V83.7522V83.7524V83.7526V83.7528V83.753V83.7532V83.7534V83.7536V83.7538V83.754V83.7542V83.7544V83.7547V83.7549V83.7551V83.7553V83.7555V83.7557V83.7559V83.7561V83.7563V83.7565V83.7567V83.7569V83.7571V83.7573V83.7575V83.7577V83.7579V83.7581V83.7584V83.7586V83.7588V83.759V83.7592V83.7594V83.7596V83.7598V83.76V83.7602V83.7604V83.7606V83.7608V83.761V83.7612V83.7614V83.7617V83.7619V83.7621V83.7623V83.7625V83.7627V83.7629V83.7631V83.7633V83.7635V83.7637V83.7639V83.7641V83.7643V83.7645V83.7647V83.7649V83.7651V83.7654V83.7656V83.7658V83.766V83.7662V83.7664V83.7666V83.7668V83.767V83.7672V83.7674V83.7676V83.7678V83.768V83.7682V83.7684V83.7686V83.7689V83.7691V83.7693V83.7695V83.7697V83.7699V83.7701V83.7703V83.7705V83.7707V83.7709V83.7711V83.7713V83.7715V83.7717V83.7719V83.7721V83.7723V83.7726V83.7728V83.773V83.7732V83.7734V83.7736V83.7738V83.774V83.7742V83.7744V83.7746V83.7748V83.775V83.7752V83.7754V83.7756V83.7758V83.7761V83.7763V83.7765V83.7767V83.7769V83.7771V83.7773V83.7775V83.7777V83.7779V83.7781V83.7783V83.7785V83.7787V83.7789V83.7791V83.7793V83.7795V83.7798V83.78V83.7802V83.7804V83.7806V83.7808V83.781V83.7812V83.7814V83.7816V83.7818V83.782V83.7822V83.7824V83.7826V83.7828V83.7831V83.7833V83.7835V83.7837V83.7839V83.7841V83.7843V83.7845V83.7847V83.7849V83.7851V83.7853V83.7855V83.7857V83.7859V83.7861V83.7863V83.7865V83.7868V83.787V83.7872V83.7874V83.7876V83.7878V83.788V83.7882V83.7884V83.7886V83.7888V83.789V83.7892V83.7894V83.7896V83.7898V83.79V83.7902V83.7904V83.7906V83.7908V83.791V83.7912V83.7914V83.7916V83.7918V83.792V83.7922V83.7924V83.7926V83.7928V83.7929V83.7931V83.7933V83.7935V83.7937V83.7939V83.7941V83.7943V83.7944V83.7946V83.7948V83.795V83.7952V83.7953V83.7955V83.7957V83.7959V83.7961V83.7962V83.7964V83.7966V83.7968V83.7969V83.7971V83.7973V83.7974V83.7976V83.7978V83.798V83.7981V83.7983V83.7985V83.7986V83.7988V83.799V83.7991V83.7993V83.7995V83.7996V83.7998V83.7999V83.8001V83.8003V83.8004V83.8006V83.8008V83.8009V83.8011V83.8012V83.8014V83.8015V83.8017V83.8018V83.802V83.8022V83.8023V83.8025V83.8026V83.8028V83.8029V83.8031V83.8032V83.8034V83.8035V83.8037V83.8038V83.804V83.8041V83.8043V83.8044V83.8046V83.8047V83.8048V83.805V83.8051V83.8053V83.8054V83.8056V83.8057V83.8058V83.806V83.8061V83.8063V83.8064V83.8065V83.8067V83.8068V83.8069V83.8071V83.8072V83.8074V83.8075V83.8076V83.8078V83.8079V83.808V83.8082V83.8083V83.8084V83.8086V83.8087V83.8088V83.809V83.8091V83.8092V83.8093V83.8095V83.8096V83.8097V83.8099V83.81V83.8101V83.8102V83.8104V83.8105V83.8106V83.8107V83.8109V83.811V83.8111V83.8112V83.8114V83.8115V83.8116V83.8117V83.8118V83.812V83.8121V83.8122V83.8123V83.8124V83.8126V83.8127V83.8128V83.8129V83.813V83.8132V83.8133V83.8134V83.8135V83.8136V83.8138V83.8139V83.814V83.8141V83.8142V83.8143V83.8144V83.8146V83.8147V83.8148V83.8149V83.815V83.8151V83.8152V83.8154V83.8155V83.8156V83.8157V83.8158V83.8159V83.816V83.8161V83.8162V83.8164V83.8165V83.8166V83.8167V83.8168V83.8169V83.817V83.8171V83.8172V83.8173V83.8175V83.8176V83.8177V83.8178V83.8179V83.818V83.8181V83.8182V83.8183V83.8184V83.8185V83.8186V83.8187V83.8189V83.819V83.8191V83.8192V83.8193V83.8194V83.8195V83.8196V83.8197V83.8198V83.8199V83.82V83.8201V83.8202V83.8203V83.8204V83.8205V83.8206V83.8207V83.8209V83.821V83.8211V83.8212V83.8213V83.8214V83.8215V83.8216V83.8217V83.8218V83.8219V83.822V83.8221V83.8222V83.8223V83.8224V83.8225V83.8226V83.8227V83.8228V83.8229V83.823V83.8231V83.8232V83.8233V83.8234V83.8235V83.8236V83.8237V83.8239V83.824V83.8241V83.8242V83.8243V83.8244V83.8245V83.8246V83.8247V83.8248V83.8249V83.825V83.8251V83.8252V83.8253V83.8254V83.8255V83.8256V83.8257V83.8258V83.8259V83.826V83.8261V83.8262V83.8263V83.8264V83.8265V83.8266V83.8268V83.8269V83.827V83.8271V83.8272V83.8273V83.8274V83.8275V83.8276V83.8277V83.8278V83.8279V83.828V83.8281V83.8282V83.8283V83.8284V83.8285V83.8286V83.8288V83.8289V83.829V83.8291V83.8292V83.8293V83.8294V83.8295V83.8296V83.8297V83.8298V83.8299V83.83V83.8302V83.8303V83.8304V83.8305V83.8306V83.8307V83.8308V83.8309V83.831V83.8311V83.8313V83.8314V83.8315V83.8316V83.8317V83.8318V83.8319V83.832V83.8321V83.8323V83.8324V83.8325V83.8326V83.8327V83.8328V83.8329V83.8331V83.8332V83.8333V83.8334V83.8335V83.8336V83.8337V83.8339V83.834V83.8341V83.8342V83.8343V83.8345V83.8346V83.8347V83.8348V83.8349V83.8351V83.8352V83.8353V83.8354V83.8355V83.8357V83.8358V83.8359V83.836V83.8361V83.8363V83.8364V83.8365V83.8366V83.8368V83.8369V83.837V83.8371V83.8373V83.8374V83.8375V83.8376V83.8378V83.8379V83.838V83.8382V83.8383V83.8384V83.8385V83.8387V83.8388V83.8389V83.8391V83.8392V83.8393V83.8395V83.8396V83.8397V83.8399V83.84V83.8401V83.8403V83.8404V83.8406V83.8407V83.8408V83.841V83.8411V83.8412V83.8414V83.8415V83.8417V83.8418V83.8419V83.8421V83.8422V83.8424V83.8425V83.8427V83.8428V83.8429V83.8431V83.8432V83.8434V83.8435V83.8437V83.8438V83.844V83.8441V83.8443V83.8444V83.8446V83.8447V83.8449V83.845V83.8452V83.8453V83.8455V83.8456V83.8458V83.846V83.8461V83.8463V83.8464V83.8466V83.8467V83.8469V83.8471V83.8472V83.8474V83.8475V83.8477V83.8479V83.848V83.8482V83.8484V83.8485V83.8487V83.8489V83.849V83.8492V83.8494V83.8495V83.8497V83.8499V83.8501V83.8502V83.8504V83.8506V83.8507V83.8509V83.8511V83.8513V83.8514V83.8516V83.8518V83.852V83.8522V83.8523V83.8525V83.8527V83.8529V83.8531V83.8532V83.8534V83.8536V83.8538V83.854V83.8542V83.8544V83.8546V83.8547V83.8549V83.8551V83.8553V83.8555V83.8557V83.8559V83.8561V83.8563V83.8565V83.8567V83.8569V83.8571V83.8573V83.8575V83.8577V83.8579V83.8581V83.8583V83.8585V83.8587V83.8589V83.904L75.387 83.9483C75.4905 84.5175 75.897 84.965 76.4262 85.1647L206.399 144.058C206.632 144.192 206.92 144.289 207.227 144.289C207.61 144.289 207.917 144.126 208.11 144.011C208.112 144.009 208.114 144.008 208.116 144.007L281.842 102.6C282.318 102.48 282.532 102.048 282.582 101.705L282.586 101.676L282.586 101.647L283.605 61.3186L283.611 61.1042ZM76.2803 42.6857C76.2818 42.6841 76.2821 42.6838 76.2806 42.6853L76.2803 42.6857ZM280.429 63.8401L280.497 101.021L208.74 140.07L208.501 103.51C232.477 90.3436 256.487 77.1092 280.429 63.8401ZM78.4478 82.6565L78.004 44.8046C120.839 64.3575 163.779 83.9447 206.822 103.498L205.73 140.284L78.4478 82.6565ZM278.553 61.3481C254.887 74.4276 231.256 87.5417 207.624 100.724C190.897 93.202 174.169 85.7135 157.442 78.2259L228.923 38.6453L278.553 61.3481ZM155.072 77.1529C129.807 65.8359 104.509 54.5189 79.2098 43.2019L151.393 3.20015L226.597 37.601L155.072 77.1529Z" fill="#FFD44A" stroke="#FFD44A"/>
<path d="M85.8906 56.7041H0V159.457H85.8906V56.7041Z" fill="#030D18"/>
<path d="M82.6592 101.142C82.6592 101.107 82.6592 101.107 82.6592 101.072C82.6592 101.037 82.6592 101.002 82.6592 100.967L82.4836 92.7113C82.4836 92.6762 82.4836 92.6411 82.4484 92.6411C82.4484 92.606 82.4484 92.5357 82.4484 92.5006L82.0971 83.9642C81.8512 72.1608 67.9752 62.6409 50.8323 62.6409C33.5488 62.6409 19.5674 72.3014 19.5674 84.2452C19.5674 84.3506 19.5674 84.456 19.5674 84.5614V84.5965L19.743 92.5006C19.743 92.7465 19.743 93.0275 19.7782 93.2734L19.9538 100.967C19.9538 101.142 19.9538 101.318 19.9538 101.494L20.1294 109.398C20.1294 113.262 21.4643 116.95 23.9936 120.147C23.9936 120.288 24.099 120.393 24.2395 120.428C25.5393 122.009 27.1553 123.484 29.0171 124.819C30.9492 126.189 33.1623 127.349 35.5511 128.297C40.153 130.124 45.4575 131.107 51.0782 131.143C51.2187 131.143 51.3592 131.143 51.5348 131.143C57.1906 131.143 62.4951 130.089 67.097 128.262C71.6638 126.435 75.4929 123.871 78.2329 120.744L78.4788 120.463C81.254 117.196 82.87 113.402 82.87 109.363L82.6592 101.142ZM20.3753 89.1633C20.4456 89.4092 20.551 89.62 20.6213 89.8659C20.6564 89.901 20.6564 89.9713 20.6915 90.0064C20.7618 90.2172 20.8672 90.4279 20.9725 90.6387C20.9725 90.6387 20.9725 90.6739 21.0077 90.6739C21.1131 90.8847 21.2184 91.0954 21.3238 91.3062C21.359 91.3764 21.3941 91.4467 21.4292 91.517C21.5346 91.6926 21.6049 91.8682 21.7103 92.0439C21.7454 92.079 21.7454 92.1493 21.7805 92.1844C21.8859 92.3952 22.0264 92.5709 22.1318 92.7816C22.1669 92.8519 22.2372 92.9221 22.2723 92.9924C22.3777 93.168 22.4831 93.3086 22.5885 93.4842C22.6236 93.5193 22.6587 93.5544 22.6939 93.6247C22.8344 93.8355 22.9749 94.0111 23.1154 94.2219C23.1505 94.2922 23.1857 94.3273 23.2208 94.3976C23.3613 94.5732 23.5018 94.7488 23.6424 94.9596L23.6775 94.9947C23.6424 95.065 23.6072 95.1352 23.6072 95.2055V102.126C21.5346 99.2102 20.4456 95.9432 20.4456 92.5357L20.3753 89.1633ZM35.8673 102.653L42.0851 95.2407C44.5793 96.2243 47.4599 96.8215 50.5161 96.8566V105.007V105.323H50.3404C45.0711 105.323 40.153 104.339 35.8673 102.653ZM50.3053 105.85V113.578C45.1062 113.508 40.1881 112.594 35.9024 110.978V103.25C36.078 103.32 36.2537 103.391 36.4293 103.426C36.4996 103.461 36.5699 103.461 36.6401 103.496C36.7806 103.566 36.9563 103.601 37.0968 103.636C37.2022 103.672 37.2724 103.707 37.3778 103.742C37.5183 103.777 37.694 103.847 37.8345 103.882C37.9399 103.918 38.0453 103.953 38.1507 103.988C38.2912 104.023 38.4668 104.093 38.6073 104.128C38.7127 104.163 38.8181 104.199 38.9235 104.234C39.064 104.269 39.2397 104.339 39.3802 104.374C39.4856 104.409 39.591 104.444 39.6963 104.444C39.9774 104.515 40.2584 104.585 40.5043 104.655C40.6448 104.69 40.7502 104.726 40.8907 104.761C41.0312 104.796 41.1718 104.831 41.3123 104.866C41.4528 104.901 41.5933 104.936 41.7338 104.971C41.8743 105.007 42.0149 105.042 42.1202 105.042C42.2608 105.077 42.4364 105.112 42.5769 105.147C42.6823 105.182 42.8228 105.182 42.9282 105.217C43.1039 105.252 43.2795 105.288 43.4552 105.323C43.5605 105.323 43.6308 105.358 43.7362 105.358C44.0172 105.393 44.2983 105.428 44.5793 105.498C44.6495 105.498 44.6847 105.498 44.7549 105.533C45.0008 105.569 45.2116 105.604 45.4575 105.639C45.5629 105.639 45.6332 105.674 45.7385 105.674C45.9493 105.709 46.1601 105.709 46.3709 105.744C46.4762 105.744 46.5465 105.779 46.6519 105.779C46.8627 105.815 47.1086 105.814 47.3194 105.85C47.3896 105.85 47.4599 105.85 47.5301 105.85C47.8112 105.885 48.1273 105.885 48.4083 105.92C48.7245 105.92 49.0407 105.955 49.3568 105.955C49.392 105.955 49.4271 105.955 49.4271 105.955C49.7081 105.955 49.9892 105.955 50.2351 105.99C50.2351 105.85 50.2702 105.85 50.3053 105.85ZM50.481 114.491V122.044C45.2819 121.974 40.3638 121.061 36.078 119.445V111.857C40.3638 113.508 45.2819 114.456 50.481 114.491ZM66.9916 111.435C70.9612 109.784 74.3687 107.501 76.9332 104.831C77.1439 104.62 77.3547 104.409 77.5304 104.199V111.857C74.9308 114.808 71.3125 117.302 66.9916 119.093V111.435ZM77.3547 103.391C74.7552 106.341 71.1369 108.836 66.816 110.627V102.899V102.864C66.8511 102.864 66.8862 102.829 66.9214 102.829C67.097 102.758 67.2727 102.688 67.4483 102.618C67.5186 102.583 67.5888 102.547 67.6591 102.547C67.905 102.442 68.1158 102.337 68.3617 102.231C68.4319 102.196 68.5022 102.161 68.5373 102.126C68.713 102.056 68.8886 101.95 69.0642 101.88C69.1345 101.845 69.2399 101.81 69.3102 101.74C69.4507 101.669 69.6263 101.599 69.7668 101.494C69.8371 101.458 69.9425 101.423 70.0127 101.353C70.1533 101.283 70.3289 101.177 70.4694 101.107C70.5397 101.072 70.6099 101.037 70.6802 101.002C70.891 100.896 71.1017 100.756 71.3125 100.615C71.3476 100.58 71.4179 100.545 71.453 100.51C71.6287 100.405 71.7692 100.299 71.9448 100.194C72.0151 100.159 72.0853 100.088 72.1556 100.053C72.2961 99.9831 72.4366 99.8777 72.542 99.8074C72.6123 99.7723 72.6825 99.702 72.7879 99.6669C72.9284 99.5615 73.069 99.4913 73.1744 99.3859C73.2446 99.3507 73.3149 99.2805 73.3851 99.2453C73.5608 99.1048 73.7715 98.9643 73.9472 98.8238C73.9823 98.7887 74.0174 98.7887 74.0526 98.7536C74.1931 98.6482 74.3687 98.5077 74.5093 98.4023C74.5795 98.332 74.6498 98.2969 74.72 98.2266C74.8254 98.1213 74.9659 98.051 75.0713 97.9456C75.1416 97.8753 75.2118 97.8051 75.2821 97.7699C75.3875 97.6646 75.4929 97.5943 75.5983 97.4889C75.6685 97.4186 75.7388 97.3835 75.809 97.3132C75.9495 97.2079 76.0549 97.0673 76.1954 96.962C76.2657 96.8917 76.3008 96.8566 76.3711 96.7863C76.5116 96.6458 76.6521 96.5053 76.7926 96.3648C76.8629 96.2945 76.9332 96.2243 77.0034 96.154C77.1088 96.0486 77.1791 95.9784 77.2844 95.873C77.3196 95.8378 77.3547 95.8027 77.3898 95.7676V103.391H77.3547ZM66.3944 102.407L60.282 95.1001C62.8464 94.0463 64.9893 92.5708 66.4998 90.7792L77.0737 94.9947C74.5092 98.051 70.8207 100.615 66.3944 102.407ZM77.4601 73.9173C79.9191 76.9033 81.3243 80.3459 81.3946 84.0345H69.0994C68.994 81.9267 68.186 79.9244 66.7457 78.2031L77.4601 73.9173ZM51.1835 63.1327C56.488 63.1678 61.4764 64.1514 65.7972 65.8376L59.5443 73.3552C57.0501 72.4419 54.2047 71.915 51.1835 71.8798V63.1327ZM51.0079 73.3201C59.8253 73.3201 66.9916 78.2733 66.9916 84.3507C66.9916 90.428 59.8253 95.3811 51.0079 95.3811C42.1905 95.3811 35.0242 90.428 35.0242 84.3507C35.0242 78.2733 42.1905 73.3201 51.0079 73.3201ZM35.2349 66.0835L41.5933 73.6714C39.1343 74.7253 37.0617 76.1305 35.5511 77.8518L24.5557 73.4606C27.1553 70.4395 30.8438 67.9102 35.2349 66.0835ZM32.9164 84.4911C32.9516 86.5638 33.7244 88.531 35.0593 90.2523L24.2044 94.5732C21.7454 91.5872 20.3402 88.1446 20.27 84.456H32.9164V84.4911ZM23.6072 103.285C23.6072 103.391 23.7126 103.496 23.818 103.566C23.818 103.601 23.818 103.636 23.818 103.636V110.557C21.7454 107.641 20.6564 104.374 20.6564 100.967L20.5861 97.6294C21.2184 99.6318 22.2372 101.529 23.6072 103.285ZM23.9936 112.032V118.953C21.921 116.037 20.832 112.77 20.832 109.363L20.7618 106.06C21.3941 108.063 22.448 109.925 23.818 111.681C23.818 111.857 23.8883 111.962 23.9936 112.032ZM50.6917 130.475C45.4926 130.405 40.5746 129.491 36.2888 127.876V120.253C40.5746 121.904 45.4926 122.852 50.6917 122.922V130.475ZM67.2024 127.489V119.831C70.083 118.602 72.6825 117.091 74.8605 115.299C75.9144 114.456 76.8629 113.578 77.7411 112.63V120.217C75.1416 123.239 71.4882 125.698 67.2024 127.489Z" fill="#0177FC"/>
<path d="M177.858 57.828C173.959 45.1464 155.832 35.521 134.017 35.521C109.392 35.521 89.4033 47.7811 89.4033 62.9217C89.4033 66.0482 90.2815 69.0693 91.8624 71.8796V174H185.095V57.828H177.858Z" fill="#030D18"/>
<path d="M178.983 119.339C178.983 119.304 178.983 119.304 178.983 119.269C178.983 119.234 178.983 119.163 178.983 119.128L178.737 108.098C178.737 107.992 178.702 107.887 178.632 107.817L178.386 96.8916C178.386 96.8565 178.386 96.8565 178.386 96.8214C178.386 96.7863 178.386 96.716 178.386 96.6809L178.14 85.6503C178.14 85.6152 178.14 85.5801 178.105 85.5449C178.105 85.4747 178.105 85.4395 178.105 85.3693L177.613 73.9523C177.297 58.2145 158.643 45.4978 135.634 45.4978C112.448 45.4978 93.6543 58.4253 93.6543 74.3388C93.6543 74.4793 93.6543 74.6198 93.6543 74.7603C93.6543 74.7954 93.6543 74.7954 93.6543 74.8306L93.9002 85.3693C93.9002 85.7206 93.9002 86.0719 93.9353 86.388L94.1812 96.6809C94.1812 96.8916 94.1812 97.1376 94.1812 97.3483L94.4271 107.887C94.4271 108.73 94.4623 109.538 94.5677 110.346L94.7784 119.093C94.7784 119.304 94.7784 119.55 94.7784 119.761L95.0243 130.299C95.0243 135.463 96.8159 140.381 100.223 144.667C100.259 144.843 100.364 145.018 100.54 145.054C102.296 147.196 104.439 149.164 106.968 150.92C109.568 152.747 112.519 154.328 115.715 155.557C121.898 157.981 128.994 159.316 136.547 159.386C136.758 159.386 136.933 159.386 137.144 159.386C144.732 159.386 151.863 157.981 158.046 155.557C164.158 153.133 169.322 149.691 173.011 145.545L173.362 145.159C177.121 140.803 179.264 135.744 179.264 130.299L178.983 119.339ZM94.7433 80.8728C94.8487 81.1889 94.9541 81.5051 95.0946 81.7861C95.1297 81.8564 95.1297 81.9266 95.1648 81.9969C95.2702 82.2779 95.4107 82.559 95.5161 82.84C95.5161 82.8751 95.5513 82.8751 95.5513 82.9102C95.6918 83.1913 95.8323 83.4723 95.9728 83.7534C96.0079 83.8587 96.0782 83.929 96.1133 84.0344C96.2187 84.2803 96.3592 84.4911 96.4998 84.7019C96.5349 84.7721 96.57 84.8424 96.6051 84.8775C96.7457 85.1585 96.9213 85.4044 97.0969 85.6855C97.1672 85.7908 97.2023 85.8611 97.2726 85.9665C97.4131 86.1773 97.5536 86.3881 97.6941 86.634C97.7293 86.7042 97.7644 86.7393 97.7995 86.8096C97.9752 87.0906 98.1859 87.3365 98.3967 87.6176C98.467 87.6878 98.5021 87.7581 98.5724 87.8283C98.748 88.0742 98.9588 88.3202 99.1696 88.5661C99.1696 88.6012 99.2047 88.6012 99.2047 88.6363C99.1696 88.7066 99.1344 88.8119 99.1344 88.8822V98.1563C96.3592 94.2921 94.8838 89.9361 94.8838 85.3693L94.7433 80.8728ZM115.54 98.9291L123.865 89.0227C127.203 90.3225 131.067 91.1305 135.177 91.2007V102.126V102.583H134.966C127.905 102.442 121.301 101.142 115.54 98.9291ZM134.931 103.18V113.508C127.94 113.402 121.371 112.208 115.575 110.03V99.702C115.786 99.7722 116.032 99.8776 116.277 99.9478C116.383 99.983 116.453 100.018 116.558 100.053C116.769 100.124 116.98 100.194 117.191 100.264C117.331 100.299 117.437 100.334 117.577 100.405C117.788 100.475 117.999 100.545 118.174 100.615C118.315 100.65 118.455 100.686 118.596 100.756C118.807 100.826 119.017 100.896 119.193 100.931C119.334 100.967 119.474 101.002 119.615 101.037C119.825 101.107 120.036 101.142 120.247 101.213C120.388 101.248 120.528 101.283 120.669 101.318C121.02 101.423 121.406 101.494 121.758 101.599C121.933 101.634 122.109 101.669 122.284 101.739C122.46 101.775 122.636 101.81 122.847 101.845C123.022 101.88 123.233 101.915 123.409 101.95C123.584 101.985 123.76 102.02 123.936 102.056C124.146 102.091 124.322 102.126 124.533 102.161C124.708 102.196 124.849 102.231 125.025 102.266C125.27 102.302 125.516 102.337 125.762 102.407C125.903 102.442 126.008 102.442 126.149 102.477C126.535 102.547 126.886 102.583 127.273 102.653C127.343 102.653 127.413 102.688 127.519 102.688C127.835 102.723 128.151 102.758 128.467 102.793C128.573 102.793 128.713 102.828 128.819 102.828C129.1 102.864 129.381 102.899 129.662 102.934C129.767 102.934 129.907 102.969 130.013 102.969C130.294 103.004 130.61 103.039 130.891 103.039C130.997 103.039 131.102 103.039 131.172 103.074C131.559 103.109 131.98 103.145 132.367 103.145C132.788 103.18 133.21 103.18 133.631 103.215C133.666 103.215 133.701 103.215 133.737 103.215C134.088 103.215 134.474 103.25 134.826 103.25C134.861 103.18 134.896 103.18 134.931 103.18ZM135.774 137.185V147.267C128.783 147.161 122.214 145.967 116.418 143.789V133.707C117.472 134.093 118.526 134.445 119.615 134.726C124.603 136.236 130.048 137.114 135.774 137.185ZM171.535 100.967V111.189C168.058 115.124 163.175 118.461 157.378 120.85V110.627C162.718 108.414 167.285 105.393 170.727 101.81C171.009 101.529 171.254 101.248 171.535 100.967ZM171.781 112.278V122.43C168.304 126.365 163.421 129.702 157.624 132.091V121.868C161.524 120.252 165.001 118.215 167.917 115.826C169.322 114.702 170.622 113.543 171.781 112.278ZM135.212 114.737V124.819C128.221 124.714 121.652 123.519 115.856 121.341V111.189C121.617 113.402 128.186 114.667 135.212 114.737ZM116.102 122.43C121.863 124.608 128.432 125.908 135.458 125.979V136.061C129.521 135.955 123.865 135.077 118.772 133.496C117.858 133.215 116.98 132.899 116.137 132.548V122.43H116.102ZM157.976 133.075C162.683 131.107 166.793 128.543 170.06 125.487C170.798 124.819 171.5 124.117 172.133 123.414V133.637C168.655 137.571 163.772 140.908 157.976 143.297V133.075ZM171.254 99.8776C167.777 103.812 162.894 107.149 157.097 109.538V99.2101C157.097 99.175 157.097 99.175 157.097 99.1399C157.133 99.1048 157.203 99.1048 157.238 99.0696C157.484 98.9642 157.73 98.8589 157.94 98.7535C158.046 98.7184 158.116 98.6832 158.222 98.6481C158.538 98.5076 158.854 98.3671 159.17 98.2266C159.24 98.1914 159.346 98.1563 159.416 98.1212C159.662 98.0158 159.873 97.9104 160.119 97.7699C160.224 97.6996 160.329 97.6645 160.47 97.5942C160.681 97.4888 160.856 97.3834 161.067 97.278C161.172 97.2078 161.278 97.1727 161.383 97.1024C161.594 96.997 161.805 96.8916 162.015 96.7511C162.121 96.716 162.191 96.6457 162.297 96.6106C162.578 96.4349 162.859 96.2945 163.175 96.1188C163.245 96.0837 163.315 96.0485 163.386 96.0134C163.596 95.8729 163.842 95.7324 164.053 95.627C164.158 95.5567 164.264 95.4865 164.369 95.4162C164.545 95.3108 164.72 95.1703 164.896 95.0649C165.001 94.9947 165.107 94.9244 165.212 94.8541C165.388 94.7487 165.564 94.6082 165.739 94.4677C165.845 94.3975 165.915 94.3272 166.02 94.257C166.266 94.0813 166.547 93.8705 166.793 93.6949C166.828 93.6598 166.898 93.6246 166.934 93.5895C167.144 93.4139 167.355 93.2733 167.566 93.0977C167.671 93.0274 167.742 92.9572 167.847 92.8869C167.987 92.7464 168.163 92.641 168.304 92.5005C168.409 92.4302 168.514 92.3249 168.585 92.2546C168.725 92.1141 168.866 92.0087 169.006 91.8682C169.112 91.7979 169.182 91.6925 169.287 91.6223C169.463 91.4818 169.638 91.3061 169.814 91.1305C169.884 91.0602 169.955 90.99 170.025 90.9197C170.201 90.744 170.411 90.5333 170.587 90.3576C170.692 90.2522 170.763 90.182 170.868 90.0766C170.973 89.9361 171.114 89.8307 171.219 89.6902C171.254 89.655 171.325 89.5848 171.36 89.5497V99.8776H171.254ZM156.57 98.613L148.35 88.8471C151.793 87.4419 154.673 85.4395 156.711 83.0859L170.938 88.7065C167.425 92.7815 162.472 96.1891 156.57 98.613ZM171.43 60.533C174.697 64.5378 176.629 69.1397 176.699 74.0226H160.189C160.083 71.2123 158.924 68.5425 157.027 66.2591L171.43 60.533ZM136.125 46.1301C143.257 46.2004 149.931 47.5002 155.762 49.7484L147.332 59.7602C143.994 58.5307 140.165 57.8281 136.125 57.793V46.1301ZM135.879 59.7602C147.718 59.7602 157.343 66.3645 157.343 74.5144C157.343 82.6644 147.718 89.2686 135.879 89.2686C124.041 89.2686 114.416 82.6644 114.416 74.5144C114.416 66.3645 124.041 59.7602 135.879 59.7602ZM114.732 50.0997L123.268 60.252C119.966 61.622 117.156 63.5541 115.153 65.8375L100.364 59.971C103.877 55.896 108.83 52.4885 114.732 50.0997ZM111.605 74.6549C111.64 77.4301 112.659 80.0648 114.486 82.3482L99.9073 88.1445C96.6403 84.1398 94.7082 79.5379 94.6379 74.6549H111.605ZM99.0993 99.7371C99.0993 99.9127 99.2047 100.018 99.3803 100.088C99.3803 100.124 99.3803 100.159 99.3803 100.194V109.468C96.6051 105.604 95.1297 101.248 95.1297 96.6809L95.0243 92.2195C95.8674 94.8541 97.2375 97.3834 99.0993 99.7371ZM99.3452 111.049C99.3452 111.189 99.4506 111.33 99.5911 111.4V111.435V120.569C98.5021 119.093 97.6239 117.548 96.9564 115.932C96.2187 114.105 95.6918 112.208 95.481 110.241C95.4108 109.608 95.3756 108.976 95.3756 108.309L95.3405 108.273C95.3405 108.133 95.3405 108.028 95.3405 107.887L95.2351 103.496C96.1133 106.166 97.4834 108.695 99.3452 111.049ZM99.5911 122.29C99.6262 122.466 99.7316 122.641 99.9073 122.676V131.88C97.1321 128.016 95.6567 123.66 95.6567 119.093L95.5513 115.018C96.4646 117.583 97.7995 120.007 99.5911 122.29ZM100.188 133.883V143.157C97.4131 139.292 95.9377 134.936 95.9377 130.37L95.8323 125.979C96.7105 128.648 98.0806 131.178 99.9424 133.496C99.9424 133.637 100.048 133.777 100.188 133.847V133.883ZM136.02 158.508C129.029 158.403 122.46 157.208 116.664 155.03V144.878C122.425 147.056 128.994 148.356 136.02 148.426V158.508ZM158.222 154.538V144.316C162.121 142.7 165.599 140.662 168.514 138.274C169.92 137.15 171.219 135.99 172.379 134.726V144.878C168.866 148.812 164.018 152.15 158.222 154.538Z" fill="#27B727"/>
<path d="M138.268 70.8609C139.076 70.2637 140.024 69.9827 141.148 69.9827C142.483 69.9827 143.678 70.334 144.696 71.0366V70.2637C143.642 69.7017 142.448 69.4207 141.113 69.4207C139.708 69.4207 138.514 69.7719 137.53 70.4394C136.546 71.1419 136.055 72.0202 136.055 73.074C136.055 73.1092 136.055 73.1443 136.055 73.1794H132.366V73.7415H135.914C135.914 74.409 135.563 74.971 134.895 75.4628C134.228 75.9546 133.315 76.2005 132.19 76.2005C130.961 76.2005 129.977 75.9195 129.204 75.3574C128.467 74.7954 128.08 74.0577 128.08 73.1443C128.08 72.231 128.432 71.4933 129.134 70.8961C129.837 70.2989 130.785 69.9827 131.944 69.9827C133.455 69.9827 134.649 70.4394 135.563 71.3879L136.3 71.0015C135.282 69.9476 133.841 69.4207 131.944 69.4207C130.504 69.4207 129.345 69.7719 128.432 70.4394C127.518 71.1068 127.062 72.0202 127.062 73.1092C127.062 74.1982 127.518 75.0764 128.467 75.7439C129.415 76.4113 130.645 76.7275 132.19 76.7275C132.998 76.7275 133.736 76.6221 134.368 76.4113C135.001 76.2005 135.493 75.9195 135.844 75.5682C136.125 75.2872 136.371 74.971 136.546 74.6549C136.792 75.0061 137.108 75.3575 137.495 75.6385C138.443 76.3411 139.673 76.6924 141.148 76.6924C142.518 76.6924 143.713 76.4113 144.731 75.8844V75.1115C143.678 75.8141 142.518 76.1303 141.148 76.1303C139.954 76.1303 139.005 75.8141 138.233 75.217C137.46 74.6198 137.073 73.882 137.073 73.0389C137.073 72.1958 137.495 71.4581 138.268 70.8609Z" fill="#27B727" stroke="#27B727" stroke-width="2" stroke-miterlimit="10"/>
<path d="M136.301 85.0882C145.342 85.0882 152.671 80.1025 152.671 73.9523C152.671 67.8021 145.342 62.8164 136.301 62.8164C127.26 62.8164 119.931 67.8021 119.931 73.9523C119.931 80.1025 127.26 85.0882 136.301 85.0882Z" stroke="#27B727" stroke-width="2" stroke-miterlimit="10"/>
<path d="M141.075 19.2194C141.298 19.9385 142.055 20.6577 143.301 21.3768L141.61 22.1859L143.301 23.0399L144.948 22.2308C146.55 22.95 148.242 23.3994 149.978 23.4893C151.402 23.5792 152.827 23.3545 154.118 22.7702C156.744 21.4667 156.432 20.0284 153.183 18.4553L153.094 18.4104L155.943 17.062C157.011 17.7362 157.278 18.3205 156.744 18.8598L159.815 19.7138C160.572 19.1295 160.839 18.4553 160.617 17.8261C160.394 17.1519 159.726 16.5226 158.524 15.8484L160.038 15.1293L158.391 14.3202L156.833 15.0394C155.275 14.4551 153.673 14.0955 152.07 14.0056C150.735 13.9606 149.399 14.1854 148.153 14.7247C145.66 15.8484 145.883 17.1968 148.865 18.7699L145.972 20.1183C144.903 19.4441 144.592 18.8149 145.037 18.1407L141.921 17.2417C141.12 17.871 140.853 18.5452 141.075 19.2194ZM154.207 16.2529L151.358 17.6013C150.022 16.8822 149.755 16.3428 150.601 15.9383C151.491 15.5787 152.693 15.6686 154.207 16.2529ZM147.619 21.0173L150.557 19.6239C152.159 20.433 152.515 21.0622 151.536 21.5117C150.646 21.9162 149.355 21.7814 147.619 21.0173ZM169.875 21.6465L167.338 20.433L162.219 20.2981L159.103 21.8263L164.267 21.9611L154.385 26.9053L156.967 28.2087L169.875 21.6465ZM178.911 27.5345C178.689 28.6582 177.621 29.7369 175.617 30.8606C173.659 31.9393 171.478 32.6135 169.252 32.7933C167.026 32.9731 165.112 32.6584 163.599 31.8943C162.041 31.0853 161.418 30.0965 161.729 28.9728C162.086 27.8492 163.243 26.7704 165.29 25.7367C167.205 24.7478 169.297 24.1635 171.433 23.9837C173.303 23.759 175.217 24.0287 176.953 24.8377C178.466 25.5119 179.134 26.4109 178.911 27.5345ZM171.522 25.8715C170.276 26.0513 169.074 26.4558 168.006 27.0401C166.715 27.7143 165.958 28.3436 165.691 28.9279C165.424 29.5122 165.691 30.0066 166.448 30.4111C167.338 30.8156 168.362 30.9505 169.341 30.7707C170.632 30.5909 171.834 30.1414 172.947 29.5122C174.193 28.838 174.95 28.2087 175.172 27.6244C175.395 27.0401 175.128 26.5906 174.371 26.1861C173.436 25.7816 172.457 25.6917 171.522 25.8715ZM190.974 33.4225C190.841 34.5911 189.773 35.7598 187.814 36.9284C185.855 38.097 183.674 38.7712 181.404 38.951C179.134 39.1308 177.175 38.8161 175.573 38.0071C173.926 37.1531 173.214 36.1193 173.481 34.9507C173.748 33.7821 174.905 32.6135 176.953 31.5348C178.867 30.501 180.959 29.8268 183.096 29.647C185.01 29.4223 187.013 29.692 188.793 30.501C190.396 31.2651 191.153 32.2539 190.974 33.4225ZM183.318 31.6696C182.072 31.8494 180.87 32.2989 179.802 32.9281C178.555 33.6473 177.799 34.2765 177.532 34.9058C177.309 35.535 177.576 36.0294 178.377 36.434C179.312 36.8385 180.336 36.9733 181.315 36.7935C182.606 36.5688 183.808 36.1193 184.921 35.4451C186.167 34.726 186.879 34.0518 187.102 33.4675C187.324 32.8832 187.013 32.3438 186.212 31.9842C185.321 31.5797 184.298 31.4898 183.318 31.6696Z" fill="#FFD44A"/>
</svg>
