<svg width="338" height="338" viewBox="0 0 338 338" fill="none" xmlns="http://www.w3.org/2000/svg">
<g clip-path="url(#clip0)">
<path d="M12.2939 279.637L11.9361 281.687C11.7572 282.712 10.846 283.395 9.86978 283.265L7.99864 283.086C6.90849 282.972 5.88345 283.509 5.39539 284.485L4.85854 285.64L-1.97561 278.806L1.89689 279.88C2.92197 280.19 4.07717 279.75 4.67913 278.79L5.83425 277.147C6.32233 276.431 7.21721 276.122 8.07957 276.366L11.0897 277.457C11.9196 277.831 12.4728 278.742 12.2939 279.637Z" fill="#0177FC"/>
<path d="M5.82358 367.629L-8.62583 353.18C-8.72347 352.919 -8.73974 352.675 -8.56077 352.496C-8.38181 352.317 -8.13776 352.301 -7.97503 352.529L6.47437 366.978C7.46695 367.906 9.04522 367.922 10.0377 366.962L34.296 342.704C34.4587 342.509 34.7027 342.493 34.898 342.688C35.0933 342.883 35.0933 343.111 34.9468 343.355L10.6886 367.613C9.35443 368.817 7.17413 368.817 5.82358 367.629Z" fill="#030D18"/>
<path d="M-27.0781 334.727L-65.3008 296.505C-66.5537 295.089 -65.3011 291.624 -65.3011 291.624L-29.3123 255.635C-29.3123 255.635 -25.7816 254.447 -24.4636 255.668L37.0441 317.175C37.1743 317.403 37.1743 317.663 36.9954 317.842C36.8164 318.021 36.5723 318.038 36.3933 317.826L-25.1144 256.318C-26.0744 255.358 -28.6614 256.286 -28.6614 256.286L-64.6502 292.274C-64.6502 292.274 -65.5775 294.861 -64.65 295.854L-26.4273 334.077C-26.2158 334.223 -26.2158 334.483 -26.3947 334.662C-26.5737 334.841 -26.8178 334.825 -27.0781 334.727Z" fill="#030D18"/>
<path d="M-14.2728 336.144L-14.9074 335.509C-15.0701 335.346 -15.0539 335.102 -14.9074 334.956L-1.33843 321.387C-1.33843 321.387 -0.882853 321.224 -0.703862 321.436L8.06663 330.206C8.24562 330.385 8.2619 330.629 8.08294 330.808C7.90397 330.987 7.65991 331.004 7.41584 330.857L-1.04549 322.396L-13.8986 335.249L-13.6057 335.542C-13.4756 335.672 -13.4267 335.884 -13.5406 336.03C-13.7196 336.339 -14.045 336.372 -14.2728 336.144Z" fill="#0177FC"/>
<path d="M13.6475 327.945L-7.22937 307.068C-7.39208 306.905 -7.40837 306.629 -7.22941 306.45L-1.81168 301.032C-1.64898 300.869 -1.37238 300.853 -1.19339 301.032L21.8639 324.089C21.9778 324.203 21.9778 324.333 21.9941 324.447C21.9941 324.577 21.8802 324.691 21.75 324.821L14.1681 328.075C13.9566 328.124 13.7614 328.059 13.6475 327.945ZM-6.56229 306.759L14.0542 327.375L20.8877 324.447L-1.68144 301.878L-6.56229 306.759Z" fill="#030D18"/>
<path d="M16.6864 272.25C16.6213 272.185 16.5725 272.136 16.5725 272.006L16.2795 269.891C15.5633 265.172 18.329 260.454 22.8196 258.762L24.3979 258.16L25.13 256.582C25.797 255.199 27.1962 254.288 28.628 254.158L38.602 253.491C38.8298 253.491 39.0251 253.687 39.0251 253.914C39.0251 254.142 38.8298 254.337 38.6021 254.337L28.6281 255.004C27.424 255.134 26.3177 255.85 25.7808 256.875L24.8698 258.762C24.7884 258.844 24.6908 258.941 24.6095 259.023L23.1126 259.673C18.9962 261.251 16.5233 265.547 17.1907 269.826L17.4837 271.941C17.4837 272.169 17.3535 272.429 17.1257 272.429C16.8654 272.429 16.8003 272.364 16.6864 272.25Z" fill="#030D18"/>
<path d="M37.2528 271.991C37.1389 271.877 36.9436 271.682 36.8948 271.503C36.4066 270.527 36.8295 269.388 37.8058 268.9L41.7269 267.029C41.4828 266.557 41.1736 265.76 41.3688 264.849C41.5478 263.824 42.1009 262.912 43.1747 262.066C43.3537 261.887 43.6628 261.936 43.7768 262.18C43.9557 262.359 43.907 262.668 43.6629 262.782C42.7681 263.449 42.2637 264.181 42.1987 264.962C42.0848 266.053 42.6706 266.899 42.6706 266.899C42.7357 266.964 42.7845 267.143 42.8008 267.257C42.8008 267.387 42.6869 267.501 42.5568 267.501L38.1312 269.616C37.6594 269.86 37.4154 270.462 37.6595 271.064C37.9036 271.536 38.5056 271.78 39.1076 271.536L43.0939 269.6C43.1589 269.535 43.2728 269.551 43.4518 269.6L50.4159 272.073C51.864 272.545 54.2233 272.139 55.8665 270.495C56.9566 269.405 57.9815 267.404 56.8261 264.199C56.1589 262.327 55.1338 261.042 53.6205 260.375C51.1961 259.285 48.544 260.244 48.4789 260.179C48.3 260.228 48.121 260.179 47.9908 260.049C47.8769 259.935 47.8606 259.691 47.9907 259.561C47.9907 259.561 50.1708 256.047 48.6412 253.573C47.3231 251.279 44.5734 252.304 44.4595 252.418C44.3294 252.418 44.1667 252.483 44.1016 252.418C44.0365 252.353 43.9226 252.239 43.9226 252.109C43.6133 249.391 42.5881 247.52 41.0911 246.967C39.822 246.544 38.2437 246.918 37.0397 248.122C35.8358 249.326 34.7295 251.506 35.4618 254.061C35.5107 254.24 35.3968 254.484 35.1527 254.598C34.9738 254.646 34.7297 254.532 34.6158 254.288C33.7044 251.327 34.9734 248.854 36.3726 247.455C37.8857 246.072 39.7731 245.519 41.3351 246.137C43.0762 246.804 44.2966 248.61 44.7361 251.458C46.0703 251.1 48.2506 251.1 49.4547 253.15C50.724 255.266 49.813 257.869 49.211 259.187C50.3012 258.943 52.1723 258.764 53.9947 259.61C55.6218 260.391 56.8423 261.839 57.6234 263.955C59.0229 267.762 57.5099 270.121 56.4686 271.163C54.7765 272.855 52.1244 273.587 50.1231 272.919L43.3542 270.511L39.4819 272.333C38.6847 272.707 37.7897 272.528 37.2528 271.991Z" fill="#030D18"/>
<path d="M11.8916 350.919L-3.53409 335.493C-3.53409 335.493 -3.64801 335.249 -3.66429 335.135C-3.6643 335.005 -3.5504 334.891 -3.42024 334.761L38.5085 316.687C38.7525 316.573 38.9966 316.687 39.0454 316.866C39.1593 317.11 39.0455 317.354 38.8665 317.403L-2.46023 335.266L12.3472 350.073C14.7064 349.406 34.1009 343.68 47.8167 336.473C52.893 333.805 56.0982 330.73 57.3671 327.411C60.035 320.284 55.2018 307.837 38.2143 296.283C33.1376 292.769 26.5477 289.075 26.5477 289.075C26.5477 289.075 24.7252 287.155 24.7902 285.755C24.7901 284.421 25.6361 283.217 26.8564 282.615L42.4596 275.115C42.5247 275.05 42.6386 275.067 42.8176 275.115L46.9342 276.564C47.5362 276.808 48.2033 276.759 48.7402 276.45C49.2772 276.141 49.7653 275.653 49.9442 275.116C50.3672 273.847 49.765 272.529 48.4796 272.089L43.3379 270.332C43.159 270.283 43.0288 270.023 43.0288 269.795C43.0287 269.567 43.3379 269.486 43.5657 269.486L48.7074 271.243C50.3996 271.862 51.3109 273.717 50.709 275.425C50.4161 276.206 49.863 276.889 49.0657 277.296C48.2847 277.719 47.4387 277.719 46.5763 277.475L42.6387 276.075L27.0354 283.575C26.0592 284.063 25.5223 284.958 25.4573 285.999C25.4086 287.024 26.8568 288.473 26.8568 288.473L26.9707 288.587C33.0236 291.971 33.4955 292.215 38.5885 295.714C51.0525 304.176 61.9385 317.502 58.083 327.899C56.7653 331.527 53.3649 334.667 48.1584 337.465C33.5152 345.079 12.4611 351.131 12.2171 351.147C12.1357 351.033 12.0218 351.049 11.8916 350.919Z" fill="#030D18"/>
<path d="M42.8665 274.221C42.7526 274.107 42.6875 273.911 42.7363 273.733C42.7851 273.554 43.0454 273.423 43.2732 273.423C44.0542 273.716 45.0141 273.245 45.3232 272.447C45.3232 272.317 45.4371 272.203 45.5673 272.203C45.6323 272.138 45.7462 272.154 45.9252 272.203L48.9354 273.294C49.1143 273.342 49.2445 273.603 49.2445 273.831C49.1957 274.01 48.9354 274.14 48.7076 274.14L46.0392 273.163C45.5023 274.188 44.2332 274.741 43.078 274.302C42.9316 274.286 42.8665 274.221 42.8665 274.221Z" fill="#030D18"/>
<path d="M34.0957 260.992C34.4699 261.366 35.0557 261.366 35.4299 260.992C35.8041 260.618 35.804 260.032 35.4298 259.658C35.0555 259.284 34.4698 259.284 34.0956 259.658C33.7376 260.016 33.7214 260.618 34.0957 260.992Z" fill="#030D18"/>
<path d="M29.3772 264.474C29.0192 264.116 28.8402 263.806 28.8402 263.806C28.7263 263.562 28.7751 263.383 28.9541 263.204C29.1981 263.091 29.3771 263.139 29.5561 263.318C29.6212 263.383 31.0694 265.548 33.6077 264.962C33.7866 264.913 34.0958 265.092 34.1446 265.271C34.1934 265.45 34.0145 265.759 33.8355 265.808C31.6715 266.312 30.1094 265.206 29.3772 264.474Z" fill="#030D18"/>
<path d="M33.852 266.8C33.7869 266.735 33.7381 266.687 33.8032 266.621L33.0708 264.327C33.022 264.148 33.1359 263.904 33.38 263.79C33.5589 263.742 33.803 263.855 33.9169 264.1L34.6492 266.394C34.6981 266.573 34.5842 266.817 34.3401 266.931C34.0961 266.914 33.9659 266.914 33.852 266.8Z" fill="#030D18"/>
<path d="M27.1193 321.893L-33.526 261.248C-33.6887 261.085 -33.705 260.841 -33.5748 260.678C-33.3796 260.418 -33.0867 260.386 -32.8914 260.581L27.8027 321.275C27.9491 321.421 27.9817 321.617 27.9003 321.796C27.7376 322.154 27.3472 322.121 27.1193 321.893Z" fill="#030D18"/>
<path d="M-16.4195 352.252C-16.8426 351.829 -17.1355 351.406 -17.4447 350.869C-17.5586 350.625 -17.4447 350.381 -17.2657 350.332C-17.0217 350.218 -16.7776 350.332 -16.7288 350.511C-16.1918 351.536 -14.3693 353.944 -9.78096 352.871C-8.02374 352.448 -5.48553 351.602 -2.5243 350.561C-2.16635 350.43 -1.01115 349.893 0.257933 349.243C4.00012 347.421 6.97759 345.908 7.88877 345.973C8.11656 345.973 8.31182 346.168 8.31183 346.396C8.31184 346.624 8.11661 346.819 7.88882 346.819C7.10781 346.754 3.0565 348.755 0.632216 349.975C-0.750765 350.642 -1.84088 351.244 -2.26392 351.309C-5.22515 352.35 -7.89353 353.196 -9.63449 353.603C-12.4168 354.302 -14.9062 353.765 -16.4195 352.252Z" fill="#030D18"/>
<path d="M2.64128 217.791C4.28474 219.434 6.93689 219.418 8.56386 217.791C10.2071 216.148 10.1906 213.496 8.56345 211.869C6.91999 210.225 4.26787 210.241 2.6409 211.868C1.01393 213.495 1.0141 216.164 2.64128 217.791Z" fill="#0177FC"/>
<path d="M1.71481 234.338C1.6009 234.224 1.53581 234.029 1.64969 233.785L3.40672 230.694C3.5206 230.45 3.82973 230.401 3.94363 230.515C4.1877 230.629 4.18772 230.889 4.05757 231.117L2.30053 234.208C2.18665 234.452 1.95887 234.452 1.71481 234.338C1.77989 234.403 1.71481 234.338 1.71481 234.338Z" fill="#030D18"/>
<path d="M3.48811 231.231C3.42302 231.166 3.37422 231.117 3.43929 231.052L2.36517 227.179C2.31634 227 2.43022 226.756 2.67428 226.642C2.85325 226.593 3.09733 226.707 3.21125 226.951L4.18771 230.466L22.2643 225.439L-0.922491 212.177L1.12812 219.792C1.17694 219.971 1.06307 220.215 0.819014 220.329C0.640039 220.378 0.395956 220.264 0.282045 220.02L-2.07777 211.478C-2.07778 211.25 -2.0127 211.054 -1.89881 210.941C-1.78492 210.827 -1.54086 210.81 -1.41069 210.941L23.631 225.212C23.81 225.261 23.8751 225.456 23.8263 225.635C23.7775 225.814 23.6473 225.944 23.4684 225.993L3.86235 231.312C3.73219 231.312 3.63455 231.312 3.56946 231.247L3.52064 231.198L3.48811 231.231Z" fill="#030D18"/>
<path d="M-13.1883 245.499C-13.3022 245.385 -13.3673 245.19 -13.2535 244.946L-11.7893 242.408C-11.4151 241.806 -11.3663 241.139 -11.5453 240.472C-11.9685 238.844 -12.3917 236.469 -11.7247 234.858C-11.1228 233.41 -10.1466 231.588 -8.45449 231.23C-7.2342 230.986 -5.91624 231.588 -4.64702 232.987C-4.11004 233.655 0.494994 239.691 0.137192 242.002C0.0233606 242.962 -0.529787 243.645 -1.44093 243.938C-3.24695 244.54 -5.73646 243.384 -8.45385 240.797C-8.63284 240.618 -8.64913 240.374 -8.45389 240.179C-8.27492 240 -8.03088 239.984 -7.83562 240.179C-4.25581 243.629 -2.20572 243.271 -1.6688 243.092C-1.13187 242.913 -0.773934 242.425 -0.692616 241.888C-0.464939 240.196 -3.96348 235.363 -5.29781 233.541C-6.38803 232.45 -7.41313 231.913 -8.32428 232.076C-9.70728 232.385 -10.6183 234.142 -10.9925 235.102C-11.5944 236.55 -11.0573 238.91 -10.7481 240.195C-10.5202 241.041 -10.6341 242.001 -11.0408 242.798L-12.505 245.336C-12.6189 245.581 -12.8792 245.581 -13.107 245.45C-13.1395 245.548 -13.1395 245.548 -13.1883 245.499Z" fill="#030D18"/>
<path d="M-8.78006 232.011C-8.84515 231.946 -8.89396 231.897 -8.89397 231.767C-8.95911 230.856 -8.82899 230.14 -8.69885 229.652C-8.16201 228.138 -7.07198 226.332 -5.42865 226.023C-4.20835 225.779 -2.89036 226.382 -1.62114 227.781C-1.08416 228.448 3.52087 234.485 3.16306 236.795C3.03294 237.641 2.56112 238.374 1.89403 238.683C1.22695 238.992 -0.0421672 239.154 -1.97847 238.064C-2.22254 237.95 -2.22254 237.69 -2.15747 237.527C-2.04359 237.283 -1.78326 237.283 -1.62055 237.348C-0.286292 238.064 0.738794 238.243 1.47096 237.902C2.00788 237.592 2.18681 237.056 2.25187 236.633C2.47956 234.94 -1.01898 230.108 -2.35331 228.285C-3.44353 227.195 -4.46861 226.658 -5.37977 226.821C-6.76277 227.13 -7.67383 228.887 -8.048 229.847C-8.16188 230.091 -8.22694 230.644 -8.22688 231.588C-8.22686 231.816 -8.4221 232.011 -8.64989 232.011C-8.66615 232.125 -8.71497 232.076 -8.78006 232.011Z" fill="#030D18"/>
<path d="M-2.61367 227.667C-3.94796 226.333 -4.19219 224.039 -3.0371 222.037C-2.43516 220.947 -1.45897 220.101 -0.385125 219.743C0.753796 219.32 1.90901 219.369 2.82021 219.923C4.7565 221.013 5.22855 223.795 3.97586 226.024C2.64183 228.334 -0.0102373 229.294 -1.94653 228.204C-2.12552 228.025 -2.38586 227.895 -2.61367 227.667ZM3.01555 221.061C2.83656 220.882 2.70638 220.752 2.46231 220.638C1.74638 220.28 0.835206 220.215 -0.0759336 220.508C-0.987073 220.801 -1.78428 221.598 -2.30488 222.509C-3.32981 224.38 -3.03677 226.626 -1.45845 227.456C0.0547868 228.351 2.235 227.505 3.25992 225.634C4.21978 223.958 4.04068 222.087 3.01555 221.061Z" fill="#030D18"/>
<path d="M7.05104 228.383C6.98595 228.318 6.93714 228.27 6.93713 228.139L3.92556 205.637C3.87674 205.458 4.12078 205.214 4.34857 205.214C4.57636 205.214 4.83671 205.344 4.83672 205.572L7.79948 228.026C7.79949 228.253 7.66935 228.514 7.44155 228.514C7.23004 228.562 7.11613 228.449 7.05104 228.383Z" fill="#030D18"/>
<path d="M-2.54692 251.552C-2.66082 251.439 -2.72592 251.243 -2.61204 250.999L-1.14782 248.461C-0.838709 247.924 -0.415706 247.501 0.056125 247.127C1.50417 246.167 4.95342 243.434 5.5714 238.845C5.88043 236.974 7.19833 236.6 8.89048 236.242C10.1596 235.95 11.7379 235.575 13.6089 234.55C15.0733 233.704 15.7728 232.614 15.4311 231.654C15.008 230.385 12.9415 229.295 10.3382 229.718C10.1104 229.718 9.85004 229.588 9.85002 229.36C9.85001 229.132 9.98015 228.872 10.2079 228.872C12.9414 228.449 15.5286 229.604 16.2609 231.41C16.4399 232.077 16.7492 233.818 14.0157 235.348C12.0145 236.503 10.3224 236.861 9.05326 237.153C7.16587 237.576 6.56387 237.82 6.40124 239.09C5.66938 244.052 2.05744 246.948 0.528047 247.989C0.153833 248.233 -0.204111 248.591 -0.431871 249.079L-1.89607 251.618C-2.00995 251.862 -2.2703 251.862 -2.4981 251.731C-2.54692 251.552 -2.54692 251.552 -2.54692 251.552Z" fill="#030D18"/>
<path d="M-25.6027 255.83C-25.7166 255.716 -25.7329 255.472 -25.6678 255.277C-25.4888 254.968 -20.5755 247.776 -14.1813 244.148C-14.0674 244.035 -13.8884 244.083 -13.6932 244.148L-0.155306 252.252C0.0887648 252.366 0.0887828 252.626 0.023709 252.789L-9.16812 271.419C-9.282 271.663 -9.54233 271.663 -9.70504 271.598C-9.94911 271.484 -9.94913 271.223 -9.88406 271.061L-0.871181 252.87L-13.8883 245.19C-19.9897 248.753 -24.8216 255.895 -24.8867 255.96C-24.9844 255.96 -25.2935 256.009 -25.6027 255.83C-25.5376 255.895 -25.5376 255.895 -25.6027 255.83Z" fill="#030D18"/>
<path d="M39.6475 318.314C38.0203 316.687 38.248 315.353 38.248 315.353C38.248 315.125 38.4921 314.979 38.7361 314.995C38.9639 314.995 39.1104 315.239 39.0941 315.483C39.0941 315.483 38.9152 316.866 41.0794 318.445C41.2584 318.624 41.2747 318.868 41.1933 319.047C41.1445 319.226 40.7703 319.242 40.5913 319.16C40.2008 318.868 39.8916 318.558 39.6475 318.314Z" fill="#030D18"/>
<path d="M-9.36339 270.442C-9.47729 270.328 -9.54239 270.133 -9.42851 270.019C-9.3797 269.84 -9.11938 269.71 -8.89159 269.71C-6.71125 270.426 -4.70995 270.02 -2.59477 269.597C1.03358 268.865 5.08495 267.97 11.382 272.445C11.561 272.624 11.6261 272.819 11.496 273.047C11.317 273.226 11.1218 273.291 10.894 273.161C4.97112 268.93 1.16378 269.711 -2.41575 270.492C-4.6611 270.915 -6.71118 271.403 -9.1844 270.621C-9.2983 270.507 -9.2983 270.507 -9.36339 270.442Z" fill="#030D18"/>
<path d="M138.43 362.171C138.365 362.106 138.316 362.057 138.316 361.927C137.161 355.825 135.729 349.284 135.354 347.348C135.289 347.055 135.224 346.86 135.24 346.746C135.24 346.518 135.37 346.258 135.598 346.258C135.826 346.258 136.086 346.388 136.086 346.616C136.086 346.616 136.135 346.795 136.217 347.104C136.461 348.194 137.242 350.927 138.69 351.757C139.162 352.001 139.715 352.067 140.268 351.871C142.579 351.025 142.497 342.255 141.96 336.87C141.96 336.642 142.155 336.447 142.318 336.382C142.545 336.382 142.741 336.577 142.806 336.74C142.985 338.253 144.255 351.27 140.561 352.652C139.78 352.945 138.983 352.896 138.332 352.473C137.86 352.229 137.486 351.855 137.177 351.448C137.779 354.361 138.56 358.168 139.293 361.796C139.293 362.024 139.163 362.285 138.935 362.285C138.674 362.285 138.479 362.219 138.43 362.171Z" fill="#0177FC"/>
<path d="M177.085 99.8192C176.297 95.7614 177.87 90.7263 181.14 87.4567C183.331 85.2653 188.37 82.0261 196.518 84.9557C201.024 86.6103 204.106 89.2052 205.763 92.671C207.558 96.5529 207.167 100.544 206.641 102.87C209.455 101.58 215.011 99.623 219.515 102.319C223.881 104.876 223.87 109.525 223.1 112.372C229.135 113.26 233.015 115.818 234.428 119.597C235.704 122.96 234.549 126.953 231.592 130.187C228.81 132.97 223.98 135.514 218.223 134.279L217.395 146.669C217.145 149.757 215.194 152.746 212.207 154.141L208.837 155.711L207.545 159.08C203.879 168.631 193.836 174.589 183.777 173.087L179.199 172.404C178.921 172.335 178.887 172.3 178.748 172.162C178.506 171.92 178.367 171.781 178.334 171.261C178.335 170.775 178.995 170.461 179.481 170.46L183.851 171.143C193.008 172.509 202.182 167.213 205.534 158.46L206.93 155.265C207.104 155.091 207.312 154.882 207.486 154.708L211.516 152.755C213.705 151.605 215.272 149.276 215.521 146.673L216.456 133.416C216.317 133.208 216.283 132.965 216.353 132.757C216.388 132.653 216.458 132.583 216.527 132.514L217.03 125.434C217.031 124.948 217.449 124.531 217.935 124.53C218.42 124.528 218.836 124.944 218.835 125.43L218.367 132.336C223.43 133.434 227.738 131.203 230.173 128.768C232.747 126.194 233.553 122.826 232.658 120.122C231.52 116.898 227.535 114.721 221.707 114.111C221.43 114.111 221.188 113.869 221.049 113.731C220.911 113.592 221.05 113.245 221.051 112.967C221.294 112.724 223.529 106.889 218.609 104.056C213.308 100.842 205.836 105.475 205.836 105.475C205.593 105.718 205.072 105.754 204.795 105.477C204.553 105.235 204.415 104.819 204.52 104.437C204.382 104.298 206.478 98.6028 204.131 93.4731C202.716 90.2495 200.015 88.0354 195.993 86.6572C189.163 84.2102 184.89 86.4066 182.56 88.7371C179.081 92.2154 178.132 97.249 179.165 100.369L179.648 101.756C180.132 102.518 180.373 103.108 180.926 103.939C180.961 103.974 180.996 104.008 180.961 104.043L184.855 114.894C184.855 115.172 184.785 115.519 184.68 115.762C184.68 115.832 184.645 115.866 184.575 115.936L180.426 124.447C179.902 125.732 180.419 127.015 181.424 127.533C182.707 128.05 183.992 127.527 184.515 126.519L189.049 117.07C189.049 116.793 189.293 116.549 189.57 116.548C189.848 116.548 190.195 116.686 190.333 116.824C190.333 116.824 192.134 118.138 194.46 117.82C196.126 117.678 197.69 116.667 199.117 114.686C199.361 114.165 200.021 114.059 200.402 114.44C200.921 114.682 201.024 115.341 200.641 115.723C198.831 118.018 196.885 119.202 194.698 119.589C192.789 119.976 191.09 119.321 190.051 118.837L186.04 127.209C184.994 129.294 182.563 130.202 180.483 129.166C180.102 129.063 179.687 128.648 179.444 128.405C178.302 127.263 177.89 125.321 178.554 123.619L182.46 115.351L177.877 102.281C176.561 101.174 174.723 100.797 172.917 101.426C171.771 101.81 170.728 102.853 170.066 104C169.404 105.147 169.296 106.57 169.813 107.852L172.88 116.624C172.983 117.005 173.017 117.248 172.878 117.387L156.801 150.702C155.511 153.308 152.904 155.084 150.094 155.125C147.283 155.236 144.822 153.889 143.336 151.637C143.198 151.429 143.164 151.186 143.199 150.943C143.199 150.874 143.269 150.804 143.303 150.77C143.581 150.561 144.103 150.247 144.275 150.628C145.45 152.569 147.356 153.709 149.542 153.6C151.729 153.49 153.675 152.306 154.721 150.221L170.589 117.254C170.693 117.011 170.729 116.768 170.625 116.525L167.834 108.586L167.834 108.516C167.352 106.713 167.322 104.944 168.228 103.276C169.135 101.608 170.56 100.46 172.227 99.7617C173.894 99.133 175.594 99.233 177.085 99.8192Z" fill="#030D18"/>
<path d="M174.648 115.585C173.711 113.204 174.756 110.57 176.85 109.512L174.722 103.968C174.71 103.496 174.966 102.964 175.334 102.872C175.806 102.884 176.352 103.168 176.462 103.541L178.879 109.833C178.99 110.206 179.029 110.443 178.898 110.574C178.905 110.844 178.675 111.074 178.405 111.067C176.803 111.632 175.844 113.628 176.492 115.261C176.504 115.733 176.248 116.266 175.88 116.357C175.512 116.449 175.138 116.338 174.862 116.062C174.896 116.096 174.793 115.993 174.648 115.585Z" fill="#030D18"/>
<path d="M205.793 135.004C206.687 134.111 206.76 132.786 205.961 131.987C205.161 131.187 203.837 131.261 202.943 132.154C202.05 133.048 204.035 132.314 204.834 133.113C205.634 133.913 204.9 135.898 205.793 135.004Z" fill="#030D18"/>
<path d="M191.299 133.971L196.233 135.645C196.76 135.9 197.015 136.426 196.919 136.806C196.688 137.322 196.172 137.553 195.788 137.441L194.248 136.92C193.596 141.906 197.9 144.85 198.042 144.993C198.433 145.383 198.581 145.803 198.314 146.284C197.94 146.657 197.527 146.787 197.034 146.498C197.034 146.498 196.365 146.101 195.583 145.319C194.056 143.791 191.831 140.616 192.429 136.323L190.853 135.767C190.718 135.902 190.575 135.76 190.469 135.654C190.22 135.405 190.214 135.127 190.167 134.605C190.399 134.089 190.879 133.822 191.299 133.971Z" fill="#030D18"/>
<path d="M139.753 287.408C142.467 289.357 145.458 291.098 148.485 292.596C151.511 294.093 154.676 295.383 157.945 296.289C161.214 297.196 164.552 297.686 167.89 297.55C171.228 297.413 174.495 296.582 177.345 294.915C178.04 294.499 178.77 294.047 179.395 293.561C179.708 293.318 180.021 293.075 180.368 292.797C180.646 292.519 180.993 292.241 181.236 291.928C182.383 290.713 183.39 289.427 184.328 288.002C186.168 285.187 187.66 282.094 188.979 278.966C191.581 272.675 193.592 266.071 195.325 259.466C198.721 246.187 201.178 232.595 202.557 218.966C202.729 217.263 202.902 215.559 203.004 213.856C203.107 212.152 203.245 210.414 203.243 208.814C203.242 207.354 202.441 205.928 201.536 204.606C200.596 203.249 199.483 201.997 198.299 200.813C195.933 198.377 193.323 196.185 190.644 194.062C187.965 191.938 185.182 189.919 182.364 188.005L182.434 188.074C180.381 186.925 178.364 185.741 176.381 184.384C175.372 183.722 174.398 183.026 173.493 182.26C173.041 181.877 172.554 181.46 172.136 180.973C171.892 180.729 171.684 180.451 171.509 180.138C171.405 179.964 171.301 179.79 171.231 179.581C171.161 179.372 171.091 179.233 171.057 179.059C170.882 178.329 170.881 177.634 170.916 176.973C170.95 176.312 171.088 175.687 171.262 175.096C171.574 173.879 172.025 172.732 172.684 171.585C172.823 171.307 173.031 171.029 173.24 170.751C173.448 170.473 173.691 170.23 174.074 169.918C174.282 169.779 174.491 169.64 174.838 169.571C175.012 169.536 175.221 169.536 175.464 169.571L175.638 169.606L175.673 169.641L175.777 169.676C176.055 169.745 176.299 169.85 176.577 169.92C177.69 170.199 178.803 170.408 179.915 170.618C180.437 170.723 180.82 171.245 180.716 171.766C180.612 172.288 180.126 172.635 179.569 172.565C178.387 172.355 177.274 172.146 176.092 171.866C175.814 171.797 175.501 171.692 175.222 171.622L175.118 171.587L175.049 171.587L175.083 171.622C175.153 171.622 175.222 171.622 175.222 171.622C175.292 171.622 175.257 171.588 175.222 171.622C175.153 171.692 174.979 171.865 174.806 172.039C174.667 172.248 174.528 172.456 174.389 172.665C173.868 173.533 173.452 174.576 173.174 175.619C172.932 176.627 172.794 177.74 173.003 178.574C173.108 179.235 173.978 180.035 174.778 180.766C175.613 181.462 176.553 182.124 177.492 182.785C179.405 184.073 181.388 185.292 183.371 186.371L183.406 186.406L183.441 186.441C186.328 188.425 189.111 190.444 191.825 192.602C194.539 194.76 197.184 197.057 199.62 199.563C200.838 200.85 202.021 202.173 203.065 203.634C203.587 204.364 204.04 205.164 204.423 206.034C204.632 206.451 204.772 206.938 204.911 207.425C205.051 207.912 205.086 208.434 205.086 208.92C205.088 210.728 204.915 212.432 204.778 214.17C204.606 215.874 204.398 217.612 204.226 219.316C203.777 222.757 203.293 226.164 202.74 229.571C202.186 232.978 201.633 236.385 200.975 239.757C199.764 246.536 198.31 253.28 196.646 259.954C194.949 266.663 193.007 273.268 190.405 279.698C189.087 282.895 187.594 286.058 185.719 289.046C184.782 290.541 183.705 291.965 182.489 293.251C181.899 293.911 181.204 294.536 180.474 295.057C179.779 295.613 179.015 296.099 178.25 296.515C175.157 298.286 171.577 299.222 168.031 299.358C164.484 299.494 160.972 298.969 157.599 298.027C154.225 297.086 150.956 295.762 147.86 294.195C144.764 292.627 141.738 290.851 138.92 288.798C138.607 288.554 138.502 288.102 138.745 287.72C138.918 287.198 139.37 287.094 139.753 287.408Z" fill="#030D18"/>
<path d="M115.53 96.0527C118.432 97.2133 121.77 96.5068 123.946 94.2359C126.219 91.9146 126.896 88.3317 125.687 85.2029" stroke="#0177FC" stroke-width="2" stroke-miterlimit="10" stroke-linecap="round" stroke-linejoin="round"/>
<path d="M139.714 95.2447C136.788 96.5246 133.366 95.9831 130.985 93.9157C128.555 91.7498 127.663 88.304 128.754 85.2029" stroke="#0177FC" stroke-width="2" stroke-miterlimit="10" stroke-linecap="round" stroke-linejoin="round"/>
<path d="M115.53 99.2812C118.479 98.011 121.928 98.5972 124.278 100.698C126.727 102.847 127.576 106.267 126.477 109.345" stroke="#0177FC" stroke-width="2" stroke-miterlimit="10" stroke-linecap="round" stroke-linejoin="round"/>
<path d="M139.714 98.5331C136.645 97.3149 133.167 98.0255 130.815 100.31C128.411 102.645 127.644 106.248 128.871 109.345" stroke="#0177FC" stroke-width="2" stroke-miterlimit="10" stroke-linecap="round" stroke-linejoin="round"/>
<path d="M246 185.296C248.347 186.185 251.044 185.642 252.842 183.914C254.69 182.136 255.24 179.37 254.241 177" stroke="#0177FC" stroke-width="2" stroke-miterlimit="10" stroke-linecap="round" stroke-linejoin="round"/>
<path d="M266.153 184.517C263.93 185.503 261.322 185.08 259.486 183.53C257.602 181.886 256.925 179.349 257.795 177" stroke="#0177FC" stroke-width="2" stroke-miterlimit="10" stroke-linecap="round" stroke-linejoin="round"/>
<path d="M246.672 188.261C248.955 187.251 251.578 187.705 253.375 189.424C255.221 191.192 255.901 193.972 255.027 196.448" stroke="#0177FC" stroke-width="2" stroke-miterlimit="10" stroke-linecap="round" stroke-linejoin="round"/>
<path d="M266.153 188.186C263.82 187.246 261.139 187.79 259.352 189.522C257.515 191.303 256.919 194.073 257.863 196.448" stroke="#0177FC" stroke-width="2" stroke-miterlimit="10" stroke-linecap="round" stroke-linejoin="round"/>
</g>
<path d="M230 86.5047C235.091 88.5052 240.831 87.2549 244.724 83.404C248.667 79.403 249.914 73.3015 247.768 68.0002" stroke="#0177FC" stroke-width="2" stroke-miterlimit="10" stroke-linecap="round" stroke-linejoin="round"/>
<path d="M270.977 85.5582C265.97 87.8028 260.162 86.905 256.106 83.2137C251.951 79.4228 250.398 73.3872 252.301 68" stroke="#0177FC" stroke-width="2" stroke-miterlimit="10" stroke-linecap="round" stroke-linejoin="round"/>
<path d="M230.672 91.2864C235.526 89.1085 241.206 90.0489 245.089 93.7612C249.118 97.5725 250.526 103.562 248.681 108.907" stroke="#0177FC" stroke-width="2" stroke-miterlimit="10" stroke-linecap="round" stroke-linejoin="round"/>
<path d="M270.977 90.4522C265.908 88.396 260.192 89.5996 256.316 93.4612C252.339 97.423 251.097 103.541 253.135 108.907" stroke="#0177FC" stroke-width="2" stroke-miterlimit="10" stroke-linecap="round" stroke-linejoin="round"/>
<defs>
<clipPath id="clip0">
<rect width="266.018" height="211.912" fill="white" transform="translate(149.845) rotate(45)"/>
</clipPath>
</defs>
</svg>
