<svg width="330" height="300" viewBox="0 0 330 300" fill="none" xmlns="http://www.w3.org/2000/svg">
<path d="M97.2593 228.71C97.0732 228.71 96.887 228.673 96.7382 228.45C92.1226 222.755 90.0009 215.422 90.6709 207.717C91.7504 195.359 96.4032 188.027 105.485 184.751C105.485 184.565 105.374 184.118 105.411 183.709C105.188 181.848 104.815 178.163 108.538 177.046C109.319 176.711 110.548 177.009 111.813 177.12C113.972 177.53 116.689 177.753 118.29 176.264C118.699 175.892 119.22 175.929 119.555 176.376C119.89 176.823 119.816 177.418 119.444 177.79C117.248 179.838 114.009 179.354 111.441 179.13C110.362 179.019 109.282 178.721 108.91 178.907C106.863 179.54 106.714 181.178 107.049 183.448C107.123 184.677 107.384 186.128 106.23 186.649C97.7432 189.59 93.4998 196.141 92.4948 207.866C91.862 214.938 93.8348 221.638 98.1526 226.924C98.4876 227.37 98.4132 227.966 98.0409 228.338C97.6315 228.748 97.4454 228.71 97.2593 228.71Z" fill="#F0F0F0"/>
<path d="M117.061 249.183C116.875 249.183 116.689 249.145 116.54 248.922C116.205 248.475 116.094 247.88 116.466 247.508L141.33 214.194C141.74 213.821 142.298 213.673 142.633 214.119C142.968 214.566 143.08 215.161 142.708 215.571L117.657 248.885C117.62 249.034 117.248 249.22 117.061 249.183Z" fill="#F0F0F0"/>
<path d="M139.47 217.097C138.725 217.023 138.018 216.762 137.534 216.315C136.008 214.975 135.673 212.481 136.753 210.732L140.4 204.739C139.06 203.399 136.604 200.124 138.614 193.572C138.837 192.977 139.209 192.828 139.768 192.865C140.289 193.126 140.438 193.535 140.4 194.131C138.13 201.054 141.964 203.436 142.15 203.474C142.299 203.697 142.485 203.92 142.634 204.144C142.82 204.367 142.597 204.739 142.559 204.963L138.316 211.737C137.683 212.705 137.944 213.933 138.614 214.603C138.949 215.05 139.47 215.087 140.065 214.938C140.624 214.789 140.996 214.603 141.443 214.045L149.408 202.506C149.632 202.134 150.19 201.948 150.525 202.208C150.525 202.208 154.21 203.958 157.858 202.245C160.352 201.017 162.399 198.374 163.702 194.205C165.488 188.25 164.818 183.485 161.617 180.172C157.076 175.706 148.887 175.185 144.272 177.641C143.899 177.827 143.341 177.753 143.043 177.12C142.894 176.711 142.932 176.301 143.155 175.892C143.602 174.924 144.42 169.676 142.708 166.251C141.778 164.539 140.363 163.609 138.577 163.46C136.045 163.236 134.147 163.906 133.142 165.023C131.914 166.549 132.1 168.596 132.1 168.596C132.063 169.006 132.025 169.415 131.653 169.564C131.467 169.75 130.909 169.713 130.723 169.676C128.452 168.261 121.975 164.837 119.258 166.624C118.29 167.145 117.993 168.336 118.03 170.197C117.993 170.792 117.583 171.165 117.211 171.351C116.653 171.314 116.355 170.867 116.206 170.457C116.057 167.777 116.764 166.028 118.328 164.949C121.64 162.79 127.596 165.544 130.388 167.219C130.462 166.214 130.946 165.023 131.765 163.869C133.179 162.157 135.636 161.338 138.725 161.636C142.001 161.71 144.383 163.981 145.128 167.889C145.649 170.197 145.612 173.026 145.239 175.036C150.525 173.249 158.304 174.142 162.883 178.609C165.563 181.289 168.094 186.202 165.488 194.764C163.962 199.528 161.692 202.58 158.639 204.144C155.178 205.893 151.977 205 150.562 204.441L143.043 215.199C142.41 216.166 141.443 216.688 140.512 216.799C140.028 217.134 139.842 217.134 139.47 217.097Z" fill="#F0F0F0"/>
<path d="M128.713 184.937C129.904 185.049 130.946 184.49 131.02 183.709C131.095 182.927 130.164 182.22 128.973 182.108C127.782 181.996 126.74 182.555 126.665 183.336C126.591 184.118 127.521 184.862 128.713 184.937Z" fill="#F0F0F0"/>
<path d="M116.168 194.466C110.548 193.982 106.751 191.19 106.379 191.153C106.044 190.93 105.895 190.297 106.156 189.701C106.379 189.329 106.937 189.143 107.458 189.404C107.645 189.404 117.285 196.178 127.782 189.553C128.191 189.18 128.712 189.441 129.047 189.85C129.382 190.297 129.122 190.893 128.75 191.265C124.246 194.131 119.816 194.764 116.168 194.466Z" fill="#F0F0F0"/>
<path d="M129.68 192.977C129.494 192.977 129.159 192.716 128.973 192.493L126.405 188.399C126.07 187.952 126.33 187.356 126.702 186.984C127.112 186.612 127.633 186.873 127.968 187.282L130.536 191.376C130.871 191.823 130.611 192.419 130.238 192.791C130.052 193.014 129.866 193.014 129.68 192.977Z" fill="#F0F0F0"/>
<path d="M162.249 285.549C161.877 285.512 161.728 285.288 161.542 285.065C161.207 284.618 161.468 284.023 161.84 283.651C168.466 278.923 169.433 270.027 170.699 259.53C171.443 253.054 172.225 246.205 174.458 239.468C174.682 239.095 175.054 238.723 175.426 238.723C190.129 240.026 192.139 231.837 194.782 220.41C195.973 215.199 197.387 209.206 200.291 203.548C200.514 203.176 200.886 202.99 201.258 203.027C217.115 205.856 219.46 195.843 222.401 183.262C223.852 177.083 225.378 170.271 228.84 164.241L195.712 137.069L163.999 181.624C163.589 181.996 163.031 182.145 162.696 181.699C162.361 181.252 162.249 180.656 162.622 180.284L194.968 134.985C195.377 134.613 195.936 134.464 196.271 134.687L230.776 163.199C231.111 163.423 231.26 164.055 231.036 164.651C227.426 170.458 225.9 177.269 224.225 183.858C221.321 196.253 218.641 208.052 201.668 205.335C199.174 210.62 197.797 216.204 196.606 221.192C193.963 232.395 191.655 242.185 176.022 240.994C174.012 247.359 173.267 253.612 172.746 259.865C171.629 270.362 170.401 280.263 162.994 285.512C162.584 285.586 162.398 285.549 162.249 285.549Z" fill="#F0F0F0"/>
<path d="M72.8788 165.991C72.6927 165.991 72.5066 165.954 72.3577 165.73C72.0227 165.284 71.9111 164.688 72.2833 164.316L131.355 82.9852C131.578 82.6129 132.323 82.464 132.658 82.9107L163.217 107.999C163.552 108.222 163.701 108.855 163.478 109.227C162.733 111.423 161.803 113.582 161.058 115.741C155.326 131.151 149.333 147.156 139.469 144.849C135.971 157.579 131.541 164.39 124.804 166.251C124.246 166.4 123.278 166.512 123.129 166.103C122.98 165.693 123.203 165.246 123.613 165.06C129.978 163.385 134.817 156.052 138.13 143.471C138.13 143.285 138.353 142.876 138.539 142.913C138.725 142.727 139.097 142.764 139.283 142.764C148.18 145.779 153.912 130.183 159.458 115.145C160.165 113.172 160.872 111.386 161.617 109.413L132.248 85.2185L73.6233 165.879C73.4744 165.842 73.2511 166.028 72.8788 165.991Z" fill="#F0F0F0"/>
<path d="M99.6789 238.872L101.763 248.438C102.136 250.523 101.242 252.458 99.3439 253.128L92.5323 255.585C91.4156 255.883 90.5967 256.85 90.2989 258.042L86.6884 269.58L60 269.469L82.2217 254.059C83.1895 253.538 83.6361 252.347 83.9339 251.342L85.1995 243.078C85.5345 241.254 86.7628 239.952 88.4378 239.691L99.6789 238.872Z" fill="#0177FC"/>
<path d="M261.782 99.9214C278.085 73.3819 269.785 38.6535 243.245 22.3501C216.706 6.04678 181.977 14.3473 165.674 40.8868C149.371 67.4263 157.671 102.155 184.211 118.458C189.794 121.883 195.749 124.228 201.817 125.53C203.306 124.749 204.534 123.371 206.097 122.553C207.698 121.734 209.187 120.878 210.266 119.389C212.574 116.299 214.361 112.912 216.854 109.934C218.902 107.515 221.433 104.686 224.448 103.457C226.383 102.639 228.207 102.974 229.92 103.867C232.078 101.559 234.758 99.1769 238.034 100.852C240.305 102.006 241.607 104.462 242.277 106.994C242.836 106.547 243.32 106.063 243.803 105.691C245.106 104.723 246.521 103.718 248.233 103.569C250.02 103.457 251.732 104.425 252.588 105.989C253.556 107.775 252.923 109.785 252.03 111.46C251.881 111.758 251.732 112.019 251.546 112.279C255.38 108.78 258.878 104.649 261.782 99.9214ZM198.839 97.018C196.122 97.2786 193.107 94.9336 190.873 93.7052C187.709 91.9558 184.657 90.0947 181.642 88.1219C179.856 86.9308 181.679 84.1391 183.466 85.3302C186.258 87.1913 189.124 88.9408 192.064 90.5786C193.516 91.3975 195.005 92.2163 196.494 92.9608C196.941 93.1841 197.536 93.6308 198.057 93.668C198.876 93.7052 199.025 93.2958 199.434 92.7002C201.444 89.9086 203.045 86.7447 204.832 83.8413C206.507 81.0869 208.144 78.3697 209.819 75.6152C213.728 69.1385 217.673 62.6991 221.582 56.2224C221.396 56.3341 221.21 56.4085 221.023 56.5202C214.845 59.7957 208.07 62.1035 201.593 64.7463C199.621 65.5652 198.094 62.5502 200.104 61.7313C205.986 59.3119 212.016 57.1157 217.785 54.3613C220.8 52.9468 223.703 51.1602 226.048 48.8524C227.575 46.3585 229.063 43.8646 230.59 41.3707C231.595 39.6957 234.088 41.0357 233.567 42.8224C232.637 45.9863 230.925 48.6663 228.691 50.9368C222.549 61.0241 216.445 71.1485 210.303 81.2358C208.368 84.3997 206.469 87.5636 204.534 90.7275C203.231 92.9236 201.817 96.7202 198.839 97.018ZM213.653 106.919C210.341 105.095 207.065 103.197 203.864 101.187C202.04 100.07 204.162 97.4647 205.948 98.5814C208.926 100.405 211.941 102.155 214.993 103.83C216.854 104.872 215.552 107.961 213.653 106.919Z" fill="#0177FC"/>
<path d="M197.983 138.335C197.797 138.335 197.797 138.335 197.611 138.298C197.09 138.037 196.941 137.441 197.201 136.846C197.648 135.878 197.946 134.464 198.095 132.863C198.653 128.62 199.546 122.59 208.368 119.91C212.835 110.902 221.21 102.676 226.086 101.485C227.389 101.187 228.319 101.261 228.989 101.745C230.18 102.676 230.962 104.165 231.185 105.802C231.632 113.172 220.689 125.27 220.093 125.828C219.684 126.2 219.162 126.163 218.79 125.903C218.455 125.456 218.53 124.86 218.716 124.488C221.731 121.287 229.547 111.572 229.101 106.212C229.026 105.17 228.542 104.314 227.686 103.644C227.351 103.42 226.793 103.346 226.197 103.718C221.88 104.984 213.616 113.061 209.41 121.696C209.224 121.883 209.038 122.031 208.852 122.18C200.775 124.525 200.179 129.364 199.435 133.608C199.1 135.431 198.951 137.032 198.281 138.409C198.727 138.223 198.318 138.372 197.983 138.335Z" fill="#F0F0F0"/>
<path d="M228.356 130.034C228.17 130.034 227.984 129.997 227.835 129.774C227.5 129.55 227.351 128.918 227.612 128.322C227.798 128.136 238.406 111.535 239.858 105.319C240.193 103.495 239.932 102.266 238.741 101.559C236.843 100.368 233.158 100.666 230.18 103.271C229.771 103.644 229.249 103.606 228.914 103.16C228.579 102.713 228.654 102.118 229.026 101.745C232.227 98.7676 237.066 97.7626 239.821 99.847C241.533 101.001 242.277 103.309 241.682 105.914C240.193 112.316 229.622 128.731 229.175 129.513C228.914 129.848 228.542 130.034 228.356 130.034Z" fill="#F0F0F0"/>
<path d="M236.769 134.017C236.583 134.017 236.397 133.98 236.248 133.756C235.913 133.31 235.801 132.714 236.173 132.342C236.173 132.342 241.31 125.865 245.888 119.537C250.467 112.986 251.844 109.86 252.179 108.445C252.514 106.845 252.253 105.579 251.211 104.909C249.499 103.755 245.405 104.202 242.427 106.993L242.017 107.366C241.831 107.552 241.608 107.738 241.012 108.482C240.603 108.855 240.045 109.003 239.71 108.557C239.375 108.11 239.263 107.515 239.635 107.142C240.231 106.398 240.454 106.212 240.863 105.802L241.273 105.43C244.66 102.266 249.499 101.261 252.291 103.122C254.003 104.276 254.561 106.398 254.003 108.78C253.445 111.162 251.248 115.071 247.489 120.654C243.06 127.205 237.774 133.459 237.737 133.682C237.365 133.868 236.955 134.017 236.769 134.017Z" fill="#F0F0F0"/>
<path d="M225.602 161.599C225.416 161.599 225.416 161.599 225.23 161.562C224.709 161.301 224.56 160.706 224.783 160.296C227.091 154.973 243.841 139.117 247.228 135.953C249.238 134.092 249.945 131.895 249.164 130.63C248.233 128.918 244.623 128.21 240.007 130.63C239.635 130.816 239.076 130.742 238.779 130.109C238.63 129.699 238.704 129.067 239.263 128.732C245.032 125.568 249.313 126.945 250.727 129.513C251.844 131.225 251.769 134.501 248.382 137.479C238.63 146.635 227.947 157.504 226.533 161.264C226.346 161.45 225.974 161.636 225.602 161.599Z" fill="#F0F0F0"/>
<path d="M135.189 85.7024C135.003 85.7024 135.003 85.7024 134.817 85.6652C134.296 85.4046 134.147 84.8091 134.407 84.2135C135.524 81.8685 137.087 78.5185 138.911 74.6102C146.17 58.7163 151.976 46.5818 156.294 45.3162C157.076 44.9812 157.783 45.2418 158.453 45.7257C166.009 51.4951 154.619 70.6646 154.21 71.4463C153.986 71.8185 153.428 72.0046 152.907 71.744C152.572 71.5207 152.423 70.8879 152.683 70.2924C155.698 65.2674 162.398 51.1601 157.448 47.2518C157.262 47.2518 157.113 47.0285 156.741 47.1773C152.981 48.294 145.537 64.5601 140.549 75.3174C138.762 79.2257 137.162 82.5757 136.045 84.9207C135.971 85.3674 135.561 85.7396 135.189 85.7024Z" fill="#F0F0F0"/>
<path d="M165.823 100.145C164.52 101.522 162.51 103.569 159.793 106.1C159.383 106.473 159.346 107.068 159.681 107.515C159.83 107.738 160.202 107.775 160.388 107.775C160.575 107.775 160.761 107.813 160.947 107.626C163.627 105.095 165.6 103.123 166.902 101.783C166.493 101.224 166.158 100.666 165.823 100.145Z" fill="#F0F0F0"/>
</svg>
