<svg width="246" height="256" viewBox="0 0 246 256" fill="none" xmlns="http://www.w3.org/2000/svg">
<g clip-path="url(#clip0)">
<path d="M110.357 90.1088C110.246 90.1823 110.136 90.2559 109.951 90.2191L106.521 89.9984C98.8868 89.6306 92.3588 83.7456 91.1417 76.2053L90.6991 73.5571L88.4493 71.9019C86.4946 70.4306 85.4988 67.9295 85.757 65.649L87.8961 49.7961C87.9699 49.4283 88.3018 49.2076 88.7075 49.2812C89.0763 49.3547 89.2976 49.6858 89.2239 50.0904L87.0847 65.9433C86.9003 67.8927 87.6748 69.8053 89.1132 70.9823L91.7687 73.0053C91.8424 73.1525 91.99 73.3364 92.0637 73.4835L92.617 76.0214C93.7603 82.9731 99.7351 88.2329 106.669 88.5639L110.099 88.7846C110.468 88.8582 110.836 89.1157 110.726 89.5203C110.726 89.8513 110.615 89.9249 110.357 90.1088Z" fill="#0E2B49"/>
<path d="M116.553 57.8143C116.332 57.9614 115.963 58.1821 115.668 58.2189C114.008 58.6603 112.312 57.6304 111.869 55.9752L110.172 49.2074C109.324 49.4281 107.996 49.6488 106.632 49.0971C105.083 48.4718 103.829 47.3316 102.833 45.3821C102.612 45.0511 102.796 44.5729 103.202 44.4626C103.534 44.2419 104.013 44.4258 104.124 44.8304C104.862 46.4488 105.857 47.4419 107.074 47.8097C108.734 48.3614 110.283 47.6626 110.283 47.6626C110.394 47.589 110.689 47.5522 110.91 47.589C111.094 47.6258 111.242 47.8465 111.205 48.0304L113.123 55.6074C113.344 56.4534 114.229 57.0051 115.262 56.8212C116.11 56.6005 116.664 55.7178 116.479 54.6879L114.709 47.8097C114.635 47.6994 114.672 47.5155 114.82 47.258L120.942 37.1431C122.159 35.0097 122.27 31.1844 120.204 28.1316C118.84 26.0718 116.037 23.8281 110.652 24.6005C107.48 25.0419 105.157 26.2557 103.644 28.389C101.173 31.8465 101.837 36.2971 101.727 36.3706C101.763 36.6649 101.616 36.9224 101.395 37.1063C101.173 37.2534 100.805 37.1798 100.62 36.9591C100.62 36.9591 95.8255 32.435 91.4366 34.0166C87.4165 35.3775 88.1542 39.9752 88.3017 40.1959C88.2648 40.3798 88.3017 40.6741 88.1911 40.7476C88.0804 40.8212 87.8591 40.9683 87.6747 40.9316C83.2858 40.527 80.0402 41.5568 78.6756 43.727C77.606 45.566 77.6798 48.1775 79.1919 50.458C80.7041 52.7385 83.7653 55.1293 88.0066 54.835C88.3017 54.7982 88.4123 55.0557 88.5599 55.4971C88.5967 55.7913 88.5599 56.1591 88.1173 56.2695C83.1752 56.7476 79.6714 53.9522 77.938 51.3407C76.2414 48.5453 75.9833 45.4189 77.4216 43.1385C79.0444 40.6005 82.2531 39.2764 86.8633 39.5339C86.7158 37.327 87.4165 33.9063 91.0309 32.6925C94.756 31.3683 98.5548 33.6488 100.436 35.0097C100.399 33.2442 100.731 30.2281 102.649 27.6534C104.419 25.3362 107.074 23.9017 110.652 23.3499C117.069 22.3936 120.315 25.5201 121.569 27.4695C123.671 30.6695 123.966 35.0465 122.27 37.989L116.295 47.8097L117.918 54.4672C118.176 55.7913 117.586 57.1522 116.553 57.8143Z" fill="#0E2B49"/>
<path d="M195.996 178.716H161.033C161.033 178.716 160.627 178.569 160.479 178.458C160.332 178.311 160.332 178.054 160.332 177.759L187.366 109.934C187.514 109.53 187.919 109.382 188.178 109.529C188.583 109.677 188.731 110.081 188.583 110.339L161.992 177.244H195.554C197.472 173.824 212.962 145.428 220.338 121.778C223.068 113.024 223.215 105.925 220.892 100.739C215.839 89.6674 199.168 75.7272 167.229 80.9502C158.709 82.495 148.677 84.4812 146.317 85.1433C145.985 85.2536 144.879 85.3272 144.547 85.2904C142.666 85.0697 137.539 84.5548 135.99 83.5249C134.22 82.3479 130.458 79.5893 129.905 77.4927L123.118 50.6422C123.045 50.5318 123.082 50.3479 123.229 50.0904L126.843 44.1318C127.434 43.2491 127.544 42.1824 127.249 41.2629C126.954 40.3065 126.327 39.387 125.553 38.9456C123.709 37.8789 121.422 38.3939 120.352 40.233L115.963 47.7364C115.816 47.9939 115.373 48.1042 115.004 48.0307C114.636 47.9571 114.636 47.4422 114.709 47.0743L119.098 39.5709C120.574 37.1065 123.819 36.2973 126.29 37.7686C127.434 38.5042 128.282 39.5709 128.724 40.9318C129.13 42.2927 128.872 43.6169 128.208 44.8675L124.778 50.5686L131.564 77.4192C131.933 78.7801 134.662 80.7663 136.285 82.1272C136.986 82.7157 137.797 83.1203 138.682 83.341C140.6 83.8192 144.252 84.3341 145.69 84.1502C151.222 83.4146 157.492 81.5755 167.118 79.81C190.833 75.2858 214.954 84.2973 222.367 100.408C224.985 105.998 224.69 113.392 221.961 122.44C213.995 147.598 196.992 178.238 196.734 178.532C196.402 178.569 196.291 178.716 195.996 178.716Z" fill="#0E2B49"/>
<path d="M121.901 49.7223C121.68 49.8694 121.385 49.9062 121.09 49.7591C120.831 49.6119 120.721 49.1706 120.794 48.8027C121.532 47.6625 121.09 46.0073 119.946 45.2717C119.762 45.2349 119.614 45.0142 119.651 44.8303C119.577 44.72 119.614 44.5361 119.762 44.2786L122.454 39.9016C122.602 39.6441 123.044 39.5338 123.413 39.6073C123.671 39.7545 123.782 40.1958 123.708 40.5637L121.348 44.4257C122.786 45.6027 123.229 47.7728 122.196 49.428C122.012 49.6487 121.901 49.7223 121.901 49.7223Z" fill="#0E2B49"/>
<path d="M98.2596 59.2123C98.9604 58.7709 99.1448 57.8145 98.7022 57.1157C98.2596 56.4168 97.3007 56.2329 96.6 56.6743C95.8992 57.1157 95.7148 58.072 96.1574 58.7709C96.6368 59.4697 97.5958 59.6904 98.2596 59.2123Z" fill="#0E2B49"/>
<path d="M102.28 67.7451C101.579 68.1865 101.063 68.3704 101.063 68.3704C100.657 68.4807 100.362 68.3336 100.141 68.0026C100.03 67.598 100.178 67.3037 100.51 67.083C100.62 67.0095 104.493 65.4279 104.382 61.2715C104.345 60.9773 104.714 60.5359 105.046 60.4991C105.341 60.4624 105.784 60.8302 105.821 61.1612C105.857 64.6922 103.645 66.8256 102.28 67.7451Z" fill="#0E2B49"/>
<path d="M107.333 61.4559C107.222 61.5294 107.111 61.603 107.038 61.4926L103.202 61.8972C102.907 61.934 102.538 61.6766 102.427 61.2352C102.39 60.9409 102.649 60.5731 103.091 60.4628L106.927 60.0582C107.222 60.0214 107.591 60.2789 107.701 60.7202C107.591 61.1248 107.554 61.3087 107.333 61.4559Z" fill="#0E2B49"/>
<path d="M144.583 216.306C144.177 216.306 143.882 216.306 143.477 216.159C142.112 216.012 141.153 215.35 140.6 214.393C139.235 211.782 141.301 206.89 144.841 199.901C144.989 199.754 145.099 199.35 145.247 198.798C146.464 196.187 149.083 189.897 151.701 187.984C154.43 185.814 156.901 183.203 158.709 180.334L160.368 177.722C160.516 177.465 161.069 177.318 161.327 177.465C161.585 177.612 161.733 178.164 161.585 178.421L159.926 181.033C158.008 184.049 155.537 186.77 152.66 189.088C150.484 190.853 147.718 197.033 146.612 199.35C146.353 199.901 146.206 200.306 146.058 200.453C143.182 206.044 140.563 211.524 141.817 213.731C142.075 214.283 142.776 214.688 143.735 214.835C151.701 215.938 156.09 201.042 156.201 200.895C156.348 200.49 156.754 200.343 157.012 200.49C157.418 200.637 157.565 201.042 157.418 201.299C157.344 201.814 153.103 216.306 144.583 216.306Z" fill="#0E2B49"/>
<path d="M155.685 214.394C154.873 214.394 154.172 214.247 153.509 213.989C152.402 213.585 151.849 212.886 151.738 211.93C151.738 211.525 151.996 211.231 152.439 211.231C152.882 211.231 153.14 211.488 153.14 211.93C153.14 212.371 153.398 212.629 153.951 212.739C155.869 213.438 159.705 212.739 161.77 210.679C164.241 208.362 165.458 201.52 165.458 201.52C165.606 201.116 165.864 200.969 166.27 200.969C166.675 201.116 166.823 201.373 166.823 201.778C166.823 202.035 165.458 209.024 162.692 211.746C160.922 213.438 158.045 214.394 155.685 214.394Z" fill="#0E2B49"/>
<path d="M165.421 212.224C164.462 212.224 163.651 212.077 162.692 211.819C162.286 211.672 162.139 211.268 162.286 211.01C162.434 210.606 162.84 210.458 163.098 210.606C164.868 211.157 169.663 211.819 173.646 205.419C175.158 202.955 177.076 199.13 179.252 194.606C179.51 194.054 180.211 192.141 180.912 189.971C183.088 183.681 184.747 178.605 185.854 177.649C186.112 177.392 186.554 177.392 186.813 177.649C187.071 177.907 187.071 178.348 186.813 178.605C185.854 179.415 183.53 186.256 182.166 190.376C181.354 192.693 180.801 194.606 180.395 195.157C178.219 199.681 176.154 203.654 174.642 206.081C172.281 210.017 168.851 212.224 165.421 212.224Z" fill="#0E2B49"/>
<path d="M122.897 114.237C122.639 113.281 122.897 112.361 123.524 111.552L127.323 106.807C128.355 105.52 128.355 103.644 127.064 102.651L121.311 97.5752L113.455 103.718C112.312 104.527 111.869 105.998 112.57 107.322L115.336 113.171C115.705 113.906 115.631 114.936 115.336 115.709L109.435 123.433C108.734 124.352 108.181 125.309 107.775 126.338C109.029 125.934 110.283 125.566 111.537 125.198C111.98 124.941 112.422 124.72 112.902 124.573C114.414 124.021 116.074 124.021 117.66 123.727C117.77 123.617 117.844 123.543 117.992 123.469C119.836 122.403 121.901 122.072 123.893 121.373C124.225 121.263 124.556 121.263 124.852 121.336C125.81 120.858 126.769 120.453 127.728 120.086C127.433 119.644 127.101 119.203 126.733 118.761L122.897 114.237Z" fill="#0177FC"/>
<path d="M137.465 210.862C136.912 210.862 136.506 210.862 135.953 210.715C134.588 210.31 133.629 209.501 132.928 207.993C131.269 204.573 133.74 202.807 137.871 199.791C140.489 198.025 144.03 195.414 148.013 191.589C148.271 191.331 148.714 191.331 148.972 191.589C149.23 191.846 149.23 192.287 148.972 192.545C144.841 196.517 141.301 198.982 138.682 200.894C134.293 203.91 133.076 205.014 134.146 207.331C134.699 208.435 135.363 209.097 136.322 209.391C138.498 210.09 141.264 208.435 141.264 208.435C141.522 208.287 141.669 208.14 141.964 208.545C142.223 208.95 142.001 209.391 141.596 209.648C141.485 209.464 139.788 210.862 137.465 210.862Z" fill="#0E2B49"/>
<path d="M189.726 110.89C186.406 109.235 186.111 107.065 186.111 107.065C186.001 106.697 186.296 106.403 186.665 106.256C187.033 106.146 187.329 106.44 187.476 106.808C187.476 106.808 187.882 109.015 192.012 110.302C192.381 110.486 192.492 110.854 192.492 111.148C192.492 111.442 191.939 111.626 191.644 111.626C190.832 111.442 190.205 111.111 189.726 110.89Z" fill="#0E2B49"/>
<path d="M67.4263 122.072C67.1681 122.072 66.8731 121.925 66.8731 121.667C66.7255 121.41 66.8731 120.969 67.1312 120.711C70.4137 119.056 85.4982 106.035 87.4161 103.166C90.6985 98.2375 94.2761 92.6467 106.484 90.5869C106.89 90.5869 107.185 90.734 107.295 91.1386C107.295 91.5432 107.148 91.8375 106.742 91.9478C95.235 93.8605 91.805 99.0467 88.6332 103.975C86.5678 106.992 71.5201 120.159 67.832 122.072C67.5738 122.072 67.5738 122.072 67.4263 122.072Z" fill="#0E2B49"/>
<path d="M59.3494 160.582C50.461 172.684 41.0193 184.38 32.0571 196.445C31.762 196.849 32.1677 197.474 32.6472 197.438C33.5323 197.364 34.6019 196.408 34.3806 195.451C34.3069 195.194 34.0118 194.937 33.7536 194.973C33.016 195.047 32.5734 195.782 32.1677 196.297C31.9096 196.628 31.9096 197.327 32.4628 197.401C58.7962 200.969 85.2034 204.058 111.574 207.479C115.409 207.957 119.282 208.73 123.118 208.914C126.658 209.097 130.125 208.656 133.592 207.994C134.44 207.847 134.071 206.56 133.223 206.707C129.978 207.332 126.732 207.7 123.45 207.589C120.093 207.442 116.7 206.817 113.344 206.376C106.89 205.53 100.435 204.72 93.9812 203.911C81.1096 202.293 68.201 200.711 55.3293 199.056C47.8055 198.1 40.3186 197.107 32.7947 196.114C32.9054 196.481 32.9791 196.849 33.0898 197.217C32.9791 197.364 33.9012 196.261 33.7168 196.261C33.4955 196.114 33.2742 195.93 33.0898 195.783C33.016 195.415 32.8685 196.077 32.6103 196.077C32.7947 196.408 32.9791 196.739 33.2004 197.07C42.1626 185.005 51.5674 173.309 60.4928 161.208C61.0091 160.546 59.8658 159.884 59.3494 160.582Z" fill="#0E2B49"/>
<path d="M79.6709 138.955C77.0892 140.831 74.6181 142.854 72.2946 145.097C71.6676 145.686 72.6265 146.642 73.2166 146.017C75.4664 143.884 77.8268 141.897 80.3348 140.095C81.0355 139.617 80.3716 138.44 79.6709 138.955Z" fill="#0E2B49"/>
<path d="M152.844 188.352C155.61 181.511 158.819 174.89 161.954 168.196C163.54 164.812 165.126 161.428 166.638 158.008C167.965 155.028 169.625 152.196 170.953 149.217C173.977 142.302 177.149 135.46 180.247 128.582C181.685 125.382 183.05 122.182 184.525 118.982C185.89 116.003 187.365 113.097 188.176 109.934C188.287 109.566 187.992 109.051 187.549 109.088C186.332 109.198 185.115 109.345 183.898 109.456C183.05 109.566 183.05 110.854 183.898 110.78C185.115 110.67 186.332 110.559 187.549 110.412C188.361 110.302 188.398 109.014 187.549 109.088C180.69 109.713 173.866 110.706 167.043 111.847C160.146 113.024 153.25 114.017 146.39 115.488C139.493 116.959 132.522 118.394 125.736 120.27C119.245 122.035 112.643 123.543 106.336 125.787C99.3657 128.251 92.5426 131.12 86.1252 134.798C85.3876 135.24 86.0515 136.38 86.7891 135.939C92.6164 132.591 98.7756 129.943 105.082 127.626C111.205 125.382 117.548 124.021 123.818 122.182C136.764 118.357 150.225 116.003 163.54 113.796C171.506 112.472 179.472 111.148 187.549 110.412C187.549 109.971 187.549 109.529 187.549 109.088C186.332 109.235 185.115 109.345 183.898 109.456C183.898 109.897 183.898 110.339 183.898 110.78C185.115 110.633 186.332 110.522 187.549 110.412C187.328 110.118 187.107 109.86 186.923 109.566C186.037 113.06 184.304 116.187 182.866 119.46C181.427 122.734 179.989 125.971 178.514 129.208C175.452 135.865 172.576 142.67 169.441 149.29C168.666 150.945 167.633 152.453 166.859 154.109C166.158 155.58 165.568 157.125 164.904 158.596C163.392 162.017 161.806 165.401 160.183 168.785C157.196 175.148 154.172 181.474 151.516 187.985C151.221 188.794 152.512 189.125 152.844 188.352Z" fill="#0E2B49"/>
<path d="M31.4305 198.062C40.9828 209.612 51.8997 219.947 63.96 228.812C66.3942 230.614 69.0497 233.299 72.3321 232.563C76.4997 231.607 80.5936 229.878 84.6137 228.517C92.617 225.869 100.62 223.221 108.66 220.573C117.844 217.52 126.991 214.504 136.174 211.451C137.17 211.12 136.764 209.501 135.732 209.869C120.167 215.019 104.64 220.168 89.0763 225.317C85.2407 226.568 81.405 227.855 77.5693 229.106C75.8727 229.658 74.1762 230.32 72.4796 230.798C69.9717 231.46 68.312 229.915 66.3942 228.517C60.4931 224.288 54.8502 219.653 49.5024 214.724C43.4907 209.17 37.8479 203.175 32.6107 196.885C31.9099 196.076 30.7666 197.253 31.4305 198.062Z" fill="#0E2B49"/>
<path d="M74.9879 202.77C84.7984 202.586 94.6089 202.366 104.419 202.182C110.136 202.071 115.816 201.887 121.422 200.6C131.712 198.209 141.264 192.986 148.825 185.667C154.283 180.37 158.119 174.007 162.139 167.644C162.582 166.908 161.438 166.246 160.996 166.982C157.75 172.131 154.652 177.428 150.558 181.952C143.366 189.933 133.925 195.782 123.561 198.687C117.549 200.379 111.501 200.747 105.305 200.858C99.5141 200.968 93.7606 201.078 87.9702 201.189C83.6182 201.262 79.303 201.373 74.951 201.446C74.1027 201.483 74.1027 202.807 74.9879 202.77Z" fill="#0E2B49"/>
<path d="M81.1468 125.677C82.032 127.92 82.4377 129.833 82.659 131.525C83.1384 131.378 83.6179 131.267 84.0974 131.194C83.8392 129.502 83.4335 127.479 82.4746 125.198C80.5936 120.564 77.7537 120.711 76.6842 120.858C73.6599 121.631 71.2995 125.53 71.447 129.943C71.4101 130.311 71.742 130.569 72.1477 130.605C72.5534 130.642 72.7747 130.311 72.8116 129.907C72.6641 125.713 74.8032 122.661 76.9055 122.219C78.5282 121.815 80.1142 123.175 81.1468 125.677Z" fill="#0E2B49"/>
<path d="M85.9416 126.118C75.6516 126.118 66.505 131.084 60.7884 138.734C61.5997 138.955 62.3743 139.36 63.1119 139.801C65.2879 141.088 67.5377 142.523 69.4186 144.251C71.0045 145.723 72.9593 148.04 71.1521 150.1C69.8981 151.497 67.6483 151.939 65.878 151.939C66.4681 152.601 67.427 152.932 68.1647 153.373C69.8981 154.366 70.9308 156.279 70.4882 158.523C69.8981 161.502 65.3617 162.716 62.9644 160.803C60.1614 160.73 57.2108 159.994 54.666 159.001C55.4774 175.516 69.1973 188.684 85.9785 188.684C103.276 188.684 117.328 174.67 117.328 157.419C117.328 140.169 103.239 126.118 85.9416 126.118ZM86.9374 173.493C83.3599 175.516 79.3767 176.619 75.3197 176.987C74.3976 177.061 74.3976 175.626 75.3197 175.553C79.4504 175.222 83.4705 173.971 87.0111 171.801C88.3389 170.992 88.1913 169.852 87.8963 168.491C87.675 167.424 87.4537 166.357 87.2324 165.327C86.7898 163.194 86.3841 161.097 86.0153 158.964C85.0564 153.557 84.245 148.15 83.5812 142.707C82.3641 147.93 79.5979 152.748 75.6147 156.463C74.9509 157.088 73.9182 156.095 74.5821 155.433C80.2249 150.21 83.2123 142.743 82.7698 135.13C82.696 134.541 82.6591 133.953 82.6222 133.364C82.5485 132.445 83.95 132.481 84.0606 133.364C84.1344 133.953 84.2081 134.541 84.245 135.093C85.1671 144.73 86.5317 154.33 88.4126 163.819C88.8183 165.916 89.7772 168.343 89.7035 170.477C89.6666 172.132 88.1913 172.794 86.9374 173.493ZM103.866 169.042C100.436 169.962 97.006 170.808 93.576 171.617C92.6909 171.838 92.2852 170.44 93.2072 170.219C96.6741 169.447 100.104 168.601 103.497 167.645C104.382 167.387 104.751 168.785 103.866 169.042Z" fill="#0177FC"/>
<path d="M71.1147 157.051C70.2664 153.41 59.8289 147.231 58.6118 146.569C55.8826 145.281 53.5591 145.171 51.8994 146.238C49.6127 147.783 49.2439 151.056 49.207 153.557C49.207 156.389 51.2355 159.626 52.8583 161.796C53.5222 162.679 53.8541 163.709 53.6697 164.812L53.0427 169.447C53.0427 169.668 53.0796 169.851 53.1534 169.962C53.4115 169.373 53.6697 168.822 54.0016 168.307C54.1492 168.049 54.3704 167.865 54.5917 167.718L54.9606 164.923C55.1081 163.488 54.7024 161.98 53.8541 160.877C52.637 159.185 50.4241 156.022 50.461 153.484C50.4241 151.828 50.7192 148.702 52.6001 147.415C53.8541 146.606 55.6982 146.789 57.948 147.746C61.0091 149.622 69.1231 154.697 69.7869 157.346C70.0082 158.192 69.7869 159.111 69.0862 159.737C68.3854 160.325 62.2262 160.987 54.8499 158.008C54.4811 157.861 54.1123 158.008 53.9648 158.376C53.8172 158.743 53.9648 159.111 54.3336 159.258C59.9396 161.465 67.6478 162.789 69.9713 160.84C71.1147 159.847 71.5204 158.56 71.1147 157.051Z" fill="#0E2B49"/>
<path d="M51.8996 147.562C51.789 147.525 51.6414 147.451 51.5677 147.267C50.9407 145.943 50.6825 144.803 50.5719 144.031C50.4612 141.456 51.0145 138.109 53.2642 136.711C54.9239 135.644 57.2474 135.718 59.9767 137.042C61.1938 137.704 71.6312 143.92 72.4795 147.525C72.8114 148.849 72.5164 150.21 71.705 151.056C70.8936 151.902 69.1233 152.932 65.5827 152.49C65.1401 152.454 64.9926 152.086 64.9926 151.792C65.0294 151.35 65.3983 151.203 65.6933 151.203C68.0906 151.497 69.7503 151.129 70.5985 150.173C71.2255 149.401 71.1518 148.481 71.0042 147.819C70.3404 145.171 62.2264 140.095 59.1653 138.219C56.8786 137.263 55.0345 137.079 53.8174 137.888C51.9365 139.175 51.6414 142.302 51.6783 143.957C51.6414 144.398 51.8627 145.244 52.4528 146.679C52.6004 147.047 52.4528 147.415 52.084 147.562C52.1578 147.672 52.0471 147.635 51.8996 147.562Z" fill="#0E2B49"/>
<path d="M58.4648 137.41C55.6987 136.233 53.9653 132.96 54.4447 129.318C54.7029 127.332 55.6249 125.493 57.0264 124.316C58.4648 122.992 60.2351 122.403 61.8948 122.661C65.4354 123.102 67.7958 126.964 67.2795 131.01C66.6894 135.203 63.2963 138.256 59.7925 137.778C59.3868 137.668 58.9811 137.631 58.4648 137.41ZM62.8537 124.279C62.4849 124.132 62.2267 124.022 61.7841 123.985C60.4933 123.875 59.0918 124.353 57.9485 125.309C56.8051 126.265 56.0675 127.92 55.8093 129.612C55.4036 132.996 57.2108 136.16 60.0507 136.454C62.8537 136.895 65.5829 134.321 65.9886 130.937C66.3943 127.847 65.0297 125.199 62.8537 124.279Z" fill="#0E2B49"/>
<path d="M49.2441 174.486C46.2567 174.449 43.1218 173.603 40.245 172.868C38.5485 172.426 36.815 171.948 35.1922 171.323C33.5326 170.661 32.6105 170.183 32.0573 168.417C31.2828 165.953 31.1721 163.341 31.5041 160.803C31.7991 158.523 32.758 156.831 33.9751 154.992C36.4831 151.24 39.2492 147.635 42.126 144.141C45.224 140.353 48.5802 136.895 52.379 133.805C53.0798 133.217 52.084 132.224 51.3464 132.776C43.8594 138.881 37.7371 146.716 32.4261 154.734C29.7706 158.743 29.2912 163.599 30.5083 168.233C30.9509 169.815 31.3934 170.955 32.8318 171.764C34.3071 172.61 36.0405 173.162 37.6633 173.64C41.3146 174.707 45.4084 175.847 49.2441 175.92C50.1662 175.957 50.1662 174.523 49.2441 174.486Z" fill="#0E2B49"/>
<path d="M149.267 179.047C150.484 178.458 151.664 177.87 152.881 177.244C153.656 176.876 152.955 175.699 152.217 176.104C151.037 176.693 149.82 177.318 148.603 177.906C147.829 178.274 148.492 179.414 149.267 179.047Z" fill="#0E2B49"/>
<path d="M138.35 184.233C140.637 183.166 142.923 182.136 145.173 181.033C145.948 180.665 145.284 179.525 144.509 179.892C142.259 180.959 139.973 182.026 137.686 183.092C136.912 183.423 137.575 184.564 138.35 184.233Z" fill="#0E2B49"/>
<path d="M128.06 188.904C130.125 187.985 132.191 187.028 134.219 186.109C134.994 185.741 134.33 184.601 133.555 184.969C131.49 185.888 129.425 186.844 127.396 187.764C126.622 188.132 127.285 189.272 128.06 188.904Z" fill="#0E2B49"/>
<path d="M116.737 194.127C119.061 193.023 121.384 191.956 123.745 190.853C124.519 190.485 123.855 189.345 123.081 189.713C120.757 190.779 118.397 191.883 116.073 192.986C115.299 193.354 115.999 194.494 116.737 194.127Z" fill="#0E2B49"/>
<path d="M105.636 199.35C107.849 198.173 110.099 197.033 112.459 196.15C113.234 195.856 112.902 194.568 112.09 194.863C109.619 195.782 107.259 196.959 104.935 198.21C104.198 198.578 104.899 199.718 105.636 199.35Z" fill="#0E2B49"/>
</g>
<defs>
<clipPath id="clip0">
<rect width="246" height="256" fill="white"/>
</clipPath>
</defs>
</svg>
