<svg width="403" height="423" viewBox="0 0 403 423" fill="none" xmlns="http://www.w3.org/2000/svg">
<path d="M289.316 261.149L296.869 272.483C298.613 274.808 297.741 278.004 295.417 279.748L286.701 286.141C285.248 287.303 284.377 288.756 284.377 290.5L281.762 312.295L257.938 340.483L250.966 313.748L270.722 289.628C271.593 288.466 272.174 286.722 271.884 285.269L269.85 273.936C269.269 271.32 270.722 268.996 273.046 268.124L289.316 261.149Z" fill="#0177FC"/>
<path d="M295.707 227.733C295.416 227.733 295.416 227.733 295.707 227.733L287.282 226.861C282.633 226.28 277.985 223.665 275.37 219.887C265.783 207.391 266.364 189.664 276.823 177.75L280.309 173.681L280.018 167.579C279.728 162.639 282.343 157.698 286.41 155.083L314.01 137.356C314.591 137.066 315.463 137.066 316.044 137.938C316.334 138.519 316.334 139.391 315.463 139.972L287.863 157.698C284.376 159.733 282.633 163.801 282.633 167.579L282.924 174.263C282.924 174.553 282.924 175.134 282.633 175.425L278.856 180.075C269.559 191.117 268.978 207.1 277.694 218.724C280.018 221.921 283.795 223.955 287.863 224.536L295.998 225.408C296.869 225.408 297.45 226.28 297.16 227.152C296.869 227.152 296.288 227.733 295.707 227.733Z" fill="#0E2B49"/>
<path d="M340.447 192.859C338.994 192.859 337.832 192.569 336.67 191.697C335.217 190.825 334.346 189.372 334.055 187.629C333.765 185.885 334.055 184.432 335.217 182.979L343.352 171.646C341.9 170.774 339.866 168.74 338.704 166.124C337.542 162.928 337.832 159.15 339.575 155.372C339.866 154.5 340.737 154.209 341.609 154.791C342.19 155.081 342.771 155.953 342.19 156.825C340.737 160.022 340.447 162.928 341.318 165.543C342.481 169.03 345.967 170.483 345.967 170.483C346.257 170.774 346.548 171.064 346.839 171.355C347.129 171.646 346.839 172.227 346.548 172.517L337.251 185.304C336.67 186.176 336.38 187.047 336.67 187.919C336.67 188.791 337.251 189.663 338.123 190.244C338.994 190.825 339.866 191.116 340.737 190.825C341.609 190.825 342.481 190.244 343.062 189.372L351.487 177.458C351.777 177.167 352.068 176.876 352.359 176.876L376.182 173.099C381.121 172.227 387.222 167.287 389.546 160.312C390.999 155.372 390.999 148.107 382.573 140.842C377.634 136.483 372.695 134.449 367.466 134.739C358.75 135.32 352.649 142.295 352.359 142.295C352.068 142.876 351.196 142.876 350.615 142.585C350.034 142.295 349.744 141.714 349.744 141.132C349.744 141.132 350.325 127.765 342.19 122.825C334.636 118.175 328.535 125.731 328.245 126.021C327.954 126.312 327.664 126.602 327.083 126.602C326.502 126.602 326.211 126.312 325.921 126.021C320.691 118.466 314.88 114.978 309.651 115.85C305.293 116.431 301.516 120.209 299.773 125.44C298.03 130.961 298.32 138.808 304.712 144.91C305.293 145.491 305.293 146.363 304.712 146.944C304.131 147.526 303.259 147.526 302.678 146.944C295.415 139.97 295.125 130.671 297.158 124.568C299.192 118.175 303.84 113.816 309.36 112.944C312.847 112.363 319.819 112.944 327.373 123.115C330.569 119.919 336.961 116.722 343.643 120.79C350.615 124.859 352.068 133.577 352.359 138.517C355.264 136.192 360.203 132.705 366.885 132.414C372.986 132.124 378.797 134.449 384.026 139.098C393.904 148.107 393.323 157.116 391.87 161.475C389.837 169.03 383.154 175.423 376.182 176.295L352.94 180.073L344.805 191.406C343.933 192.859 342.481 193.731 340.737 194.022C341.319 192.859 340.737 192.859 340.447 192.859Z" fill="#0E2B49"/>
<path d="M249.513 422.722C216.393 422.722 194.022 404.415 186.759 370.996L166.712 271.32C166.422 270.448 167.003 269.867 167.874 269.576C168.746 269.285 169.327 269.867 169.618 270.738L189.664 370.414C197.799 408.483 226.561 425.919 268.107 418.073C311.105 410.227 341.029 379.423 362.238 353.56C367.758 346.585 379.96 328.568 388.676 309.969C399.716 286.721 403.202 269.867 398.263 260.858C395.067 254.755 388.095 252.14 377.345 253.012L347.421 254.174C347.13 254.174 347.13 254.174 346.84 254.174C341.029 251.849 337.543 245.747 338.705 239.644V239.354L358.461 194.892C358.751 194.311 359.042 194.02 359.623 194.02L373.568 191.695C377.926 191.114 380.831 187.046 379.96 182.687C379.669 180.652 378.507 178.909 376.764 177.746C375.021 176.584 372.987 176.003 370.953 176.293L353.231 179.199C352.36 179.199 351.779 178.909 351.488 178.037C351.488 177.165 351.779 176.584 352.65 176.293L370.372 173.387C373.278 172.806 375.892 173.678 378.217 175.422C380.541 177.165 381.993 179.49 382.575 182.396C383.446 188.208 379.669 193.729 373.859 194.601L360.494 196.635L341.029 240.225C340.157 244.875 342.772 249.525 347.13 251.268L376.764 250.106C388.676 249.234 396.81 252.431 400.587 259.405C412.789 282.944 375.311 341.645 363.981 355.303C342.482 381.457 312.267 412.842 268.107 420.688C261.715 422.141 255.614 422.722 249.513 422.722Z" fill="#0E2B49"/>
<path d="M358.751 190.244C358.17 190.244 357.299 189.663 357.299 189.081C357.299 188.21 357.589 187.628 358.461 187.338C361.366 186.757 363.109 184.141 362.819 181.235C362.819 180.363 363.109 179.492 363.981 179.492L374.44 177.748C375.312 177.748 375.893 178.039 376.183 178.91C376.183 179.782 375.893 180.363 375.021 180.654L365.724 182.107C365.724 186.175 362.819 189.663 358.751 190.244C358.751 190.244 359.042 190.244 358.751 190.244Z" fill="#0E2B49"/>
<path d="M291.349 184.43C290.186 184.43 289.315 183.849 288.443 182.686C286.991 180.362 287.572 176.293 289.896 173.097C291.349 171.062 293.092 169.609 294.835 169.609C295.997 169.609 296.869 170.191 297.45 171.353C298.902 173.678 298.321 177.746 295.997 180.943C294.835 182.977 293.092 184.43 291.349 184.43ZM294.835 172.515C294.544 172.515 293.382 173.097 292.511 174.55C291.058 176.874 290.477 180.071 291.058 181.233C291.058 181.524 291.349 181.524 291.349 181.524C291.639 181.524 292.801 180.943 293.673 179.49C295.416 176.874 295.997 173.968 294.835 172.515C295.125 172.515 295.125 172.515 294.835 172.515Z" fill="#0E2B49"/>
<path d="M311.978 163.216C311.397 163.216 310.815 162.926 310.525 162.344C310.234 161.473 310.525 160.891 311.397 160.601L317.207 158.276C318.079 157.985 318.66 158.276 319.241 159.148C319.531 160.02 319.241 160.601 318.369 160.891L312.559 163.216C312.559 163.216 312.268 163.216 311.978 163.216Z" fill="#0E2B49"/>
<path d="M261.715 362.277C261.134 362.277 260.553 361.696 260.262 361.115L237.601 260.567L168.455 272.482C167.584 272.772 167.003 272.191 166.712 271.319C166.422 270.448 167.003 269.866 167.874 269.576L238.182 257.371C239.054 257.08 239.635 257.661 239.925 258.533L262.877 360.534C263.168 361.405 262.586 361.987 261.715 362.277Z" fill="#0E2B49"/>
<path d="M240.506 266.381C240.216 266.381 239.635 266.091 239.344 265.8C238.763 265.219 238.763 264.347 239.344 263.766C240.506 262.603 241.959 261.15 243.121 259.988C250.675 252.142 259.39 243.133 277.113 241.971C277.984 241.971 278.565 242.552 278.565 243.424C278.565 244.296 277.984 244.877 277.113 244.877C260.553 246.039 252.418 254.467 245.155 262.022C243.992 263.475 242.54 264.638 241.378 265.8C241.378 266.381 240.797 266.381 240.506 266.381Z" fill="#0E2B49"/>
<path d="M298.323 157.987C297.742 157.987 297.161 157.405 296.871 156.824L296.289 154.209C295.999 153.337 296.58 152.756 297.452 152.465C298.323 152.175 298.904 152.756 299.195 153.628L299.776 156.243C300.066 157.115 299.485 157.696 298.614 157.987C298.323 157.987 298.323 157.987 298.323 157.987Z" fill="#0E2B49"/>
<path d="M257.939 341.938C257.649 341.938 257.358 341.938 257.068 341.647C256.487 341.066 256.487 340.194 257.068 339.613L304.424 287.886C305.005 287.305 305.876 287.305 306.457 287.886C307.038 288.467 307.038 289.339 306.457 289.92L259.101 341.647C258.811 341.938 258.23 341.938 257.939 341.938Z" fill="#0E2B49"/>
<path d="M217.264 262.892C217.264 262.892 216.973 262.892 217.264 262.892C216.392 262.892 215.811 262.021 215.811 261.149L216.683 254.465C216.973 252.431 217.845 250.397 218.717 248.944C219.007 248.362 219.298 248.072 219.588 247.491C222.784 243.132 226.851 237.61 223.656 224.243C222.203 218.14 225.98 215.525 230.628 212.328C234.115 210.003 238.472 206.807 242.83 201.285C246.607 196.636 247.188 192.277 244.283 189.371C241.087 185.883 233.824 185.302 227.142 190.242C223.075 193.439 219.298 197.507 215.521 202.738C214.94 203.319 214.068 203.61 213.487 203.029C212.906 202.448 212.616 201.576 213.197 200.995C216.973 195.473 221.041 191.114 225.399 187.627C233.243 181.815 241.959 182.687 246.317 187.046C250.094 191.114 249.803 196.926 245.155 202.738C240.506 208.55 235.858 211.747 232.371 214.362C227.432 217.849 225.689 219.302 226.561 223.371C230.047 237.901 225.399 244.294 222.203 248.944C221.912 249.525 221.622 249.815 221.331 250.397C220.46 251.559 219.879 253.303 219.588 254.756L218.717 261.439C218.717 262.311 217.845 262.892 217.264 262.892Z" fill="#0E2B49"/>
<path d="M89.1426 121.66C88.8521 121.66 88.8521 121.66 88.5616 121.66C87.69 121.369 87.3995 120.498 87.69 119.916C89.7237 114.395 91.7574 108.583 94.3722 102.771C101.345 86.788 109.48 72.5486 117.324 62.3776C123.134 54.822 131.269 46.6852 137.661 49.3006C138.532 49.5912 138.823 50.463 138.532 51.3348C138.242 52.2066 137.37 52.4972 136.499 52.2066C133.012 50.7536 126.911 55.4032 119.648 64.4118C111.804 74.2922 103.96 88.241 97.2774 104.224C94.9532 109.745 92.629 115.557 90.8858 121.079C90.3048 121.079 89.7237 121.66 89.1426 121.66Z" fill="#0E2B49"/>
<path d="M87.6896 171.06C86.818 171.06 85.9464 170.769 85.0748 170.478C77.8116 167.282 78.1021 151.008 85.3653 126.888C85.6559 126.017 86.5275 125.726 87.1085 126.017C87.9801 126.307 88.2706 127.179 87.9801 127.76C80.4264 152.752 81.879 166.119 86.2369 167.863C89.7233 169.316 95.8244 164.666 103.088 155.658C110.932 145.777 118.776 131.829 125.458 115.846C133.302 97.8283 138.241 80.1017 139.404 67.3153C139.404 66.4435 140.275 65.8623 140.856 65.8623C141.728 65.8623 142.309 66.7341 142.309 67.3153C141.147 80.3923 135.917 98.4095 128.073 116.717C121.1 132.7 112.965 146.94 105.121 157.111C100.182 164.085 93.5001 171.06 87.6896 171.06Z" fill="#0E2B49"/>
<path d="M237.02 182.104C236.729 182.104 236.729 182.104 237.02 182.104L85.6548 170.479C84.7832 170.479 84.2021 169.608 84.2021 169.027C84.2021 168.155 85.0737 167.574 85.6548 167.574L236.148 178.907C242.54 173.095 245.736 165.249 246.026 155.659L135.335 51.3334C134.754 50.7522 134.754 49.8804 135.335 49.2992C135.916 48.718 136.788 48.718 137.369 49.2992L248.931 154.206C249.222 154.496 249.512 154.787 249.512 155.368C249.222 166.411 245.445 175.129 238.182 181.813C237.601 182.104 237.31 182.104 237.02 182.104Z" fill="#0E2B49"/>
<path d="M217.555 180.653C217.265 180.653 216.974 180.653 216.684 180.363C216.103 179.781 216.103 178.91 216.684 178.328C226.271 168.157 231.501 155.662 232.372 141.713C232.372 140.841 233.244 140.26 233.825 140.26C234.697 140.26 235.278 141.132 235.278 141.713C234.406 156.243 228.596 169.32 218.718 180.072C218.137 180.653 217.846 180.653 217.555 180.653Z" fill="#0E2B49"/>
<path d="M120.228 132.122C119.938 132.122 119.938 132.122 119.647 132.122L112.675 129.216C107.736 127.182 106.864 118.754 110.641 110.327C114.418 101.9 120.809 96.9593 125.748 98.9935L132.721 101.9C133.593 102.19 133.883 103.062 133.593 103.934C133.302 104.806 132.43 105.096 131.559 104.806L124.586 101.9C121.681 100.737 116.451 104.515 113.256 111.78C110.06 119.045 110.931 125.729 113.837 126.891L120.809 129.797C121.681 130.088 121.971 130.96 121.681 131.831C121.39 131.831 120.809 132.122 120.228 132.122Z" fill="#0E2B49"/>
<path d="M213.777 202.449C213.487 202.449 213.487 202.449 213.196 202.449C212.325 202.158 212.034 201.286 212.325 200.414L221.331 179.201C221.622 178.329 222.493 178.038 223.365 178.329C224.237 178.619 224.527 179.491 224.236 180.363L215.23 201.577C214.94 202.158 214.358 202.449 213.777 202.449Z" fill="#0E2B49"/>
<path d="M196.638 193.727C196.347 193.727 196.347 193.727 196.057 193.727C195.185 193.436 194.895 192.565 195.185 191.693L201.286 177.453C201.577 176.582 202.448 176.291 203.32 176.582C204.191 176.872 204.482 177.744 204.191 178.616L198.09 192.855C197.8 193.436 197.219 193.727 196.638 193.727Z" fill="#0E2B49"/>
<path d="M204.193 219.592C203.612 219.592 202.74 219.301 201.578 218.72C195.768 216.104 176.593 206.515 180.369 196.634C181.532 193.728 183.565 191.694 186.761 190.822C193.734 188.788 204.774 192.856 215.523 200.993C216.104 201.574 216.395 202.446 215.814 203.027C215.233 203.609 214.361 203.899 213.78 203.318C203.902 195.762 193.443 191.984 187.342 193.438C185.018 194.019 183.565 195.472 182.984 197.506C182.403 198.668 182.694 199.831 183.275 201.284C186.471 208.258 201.869 215.523 204.193 216.395C204.483 216.395 204.483 216.395 204.774 216.686C205.355 216.976 205.645 217.848 205.355 218.72C205.064 219.301 204.774 219.592 204.193 219.592Z" fill="#0E2B49"/>
<path d="M186.179 251.85C185.888 251.85 185.598 251.85 185.307 251.56C184.726 250.979 168.166 239.355 170.781 228.893C171.652 225.696 173.686 223.662 177.172 223.081C178.044 223.081 178.625 223.372 178.916 224.243C179.206 225.115 178.625 225.696 177.753 225.987C175.429 226.278 173.977 227.731 173.686 229.474C171.943 236.739 182.692 246.038 187.05 248.944C187.631 249.526 187.922 250.397 187.341 250.979C187.05 251.85 186.469 251.85 186.179 251.85Z" fill="#0E2B49"/>
<path d="M196.057 237.901C195.767 237.901 195.476 237.901 195.476 237.61C192.571 236.157 167.876 223.371 171.072 212.037C172.525 206.225 178.335 204.191 187.051 206.225C187.922 206.516 188.213 207.097 188.213 207.969C187.922 208.841 187.341 209.131 186.47 209.131C182.402 208.26 175.43 207.388 173.977 212.909C171.943 220.755 189.956 231.508 196.929 235.285C197.51 235.576 197.8 236.448 197.51 237.32C197.219 237.61 196.638 237.901 196.057 237.901Z" fill="#0E2B49"/>
<path d="M35.9761 72.8395C40.9501 72.8395 44.9824 68.8062 44.9824 63.8309C44.9824 58.8556 40.9501 54.8223 35.9761 54.8223C31.002 54.8223 26.9697 58.8556 26.9697 63.8309C26.9697 68.8062 31.002 72.8395 35.9761 72.8395Z" fill="#0177FC"/>
<path d="M57.4756 147.814C60.6846 147.814 63.2861 145.212 63.2861 142.002C63.2861 138.793 60.6846 136.19 57.4756 136.19C54.2665 136.19 51.665 138.793 51.665 142.002C51.665 145.212 54.2665 147.814 57.4756 147.814Z" fill="#0177FC"/>
<path d="M183.273 259.407C182.982 259.407 182.692 259.407 182.692 259.117L176.591 255.63C174.557 254.467 173.395 251.561 174.266 249.236L176.3 244.296C176.591 243.424 177.462 243.134 178.043 243.424C178.915 243.715 179.205 244.587 178.915 245.168L176.881 250.108C176.591 250.98 176.881 252.142 177.753 252.724L183.854 256.211C184.435 256.501 184.725 257.373 184.435 258.245C184.144 259.117 183.563 259.407 183.273 259.407Z" fill="#0E2B49"/>
</svg>
