<svg width="549" height="528" viewBox="0 0 549 528" fill="none" xmlns="http://www.w3.org/2000/svg">
<path d="M254.604 205.252L259.808 212.688C262.41 216.406 261.666 221.239 258.321 223.841L252.002 229.046C248.286 232.02 246.799 236.853 248.286 241.315L250.144 246.52H208.144L223.383 237.969C227.471 235.738 229.701 230.905 228.586 226.072L227.099 217.521C226.356 213.803 228.215 210.085 231.56 208.227L244.197 202.278C247.914 200.791 252.374 201.906 254.604 205.252Z" fill="#0177FC"/>
<path d="M505.12 494.87H416.287C415.172 494.87 414.429 494.127 414.429 493.012C414.429 491.896 415.172 491.153 416.287 491.153H505.12C511.067 491.153 515.899 486.32 515.899 480.371V331.288C515.899 330.173 516.642 329.429 517.757 329.429C518.872 329.429 519.615 330.173 519.615 331.288V480.371C519.615 488.178 512.925 494.87 505.12 494.87Z" fill="#0E2B49"/>
<path d="M302.924 494.868H68.0191C59.8421 494.868 53.5234 488.176 53.5234 480.369V259.161C53.5234 250.982 60.2138 244.662 68.0191 244.662H446.023C447.138 244.662 447.881 245.405 447.881 246.521C447.881 247.636 447.138 248.38 446.023 248.38H68.0191C62.0722 248.38 57.2403 253.213 57.2403 259.161V480.369C57.2403 486.317 62.0722 491.15 68.0191 491.15H302.924C304.039 491.15 304.782 491.894 304.782 493.009C304.782 494.125 304.039 494.868 302.924 494.868Z" fill="#0E2B49"/>
<path d="M259.807 349.877H82.8853C81.7702 349.877 81.0269 349.134 81.0269 348.018V314.558C81.0269 313.443 81.7702 312.699 82.8853 312.699H259.807C260.922 312.699 261.666 313.443 261.666 314.558V348.018C261.666 349.134 260.922 349.877 259.807 349.877ZM84.7437 346.159H257.949V316.417H84.7437V346.159Z" fill="#0177FC"/>
<path d="M323.365 460.669H82.8853C81.7702 460.669 81.0269 459.925 81.0269 458.81V375.16C81.0269 374.045 81.7702 373.301 82.8853 373.301H323.365C324.48 373.301 325.224 374.045 325.224 375.16V458.81C325.224 459.554 324.109 460.669 323.365 460.669ZM84.7437 456.951H321.507V377.019H84.7437V456.951Z" fill="#0E2B49"/>
<path d="M487.278 460.669H433.383C432.268 460.669 431.525 459.926 431.525 458.81C431.525 457.695 432.268 456.951 433.383 456.951H485.419V395.608C485.419 394.493 486.163 393.749 487.278 393.749C488.393 393.749 489.136 394.493 489.136 395.608V458.81C489.136 459.554 488.021 460.669 487.278 460.669Z" fill="#0177FC"/>
<path d="M346.41 460.669H343.064C341.949 460.669 341.206 459.925 341.206 458.81V375.16C341.206 374.045 341.949 373.301 343.064 373.301H396.959C398.074 373.301 398.817 374.045 398.817 375.16C398.817 376.275 398.074 377.019 396.959 377.019H344.923V456.951H346.41C347.525 456.951 348.268 457.695 348.268 458.81C348.268 459.925 347.525 460.669 346.41 460.669Z" fill="#0177FC"/>
<path d="M407.365 349.877H278.39C277.275 349.877 276.532 349.134 276.532 348.018V314.558C276.532 313.443 277.275 312.699 278.39 312.699H420.745C421.489 312.699 421.861 313.071 422.232 313.443C422.604 313.815 422.604 314.558 422.604 315.302L409.223 348.762C408.852 349.505 408.108 349.877 407.365 349.877ZM280.249 346.159H405.878L417.772 316.417H280.249V346.159Z" fill="#0E2B49"/>
<path d="M245.683 168.824C245.311 168.824 244.939 168.824 244.567 168.452L237.134 162.875C220.408 150.607 214.461 127.556 223.01 108.596L225.983 101.904L223.381 94.8401C221.151 88.5198 222.638 81.4561 226.727 76.623L255.346 43.9065C256.09 43.163 257.205 43.163 257.948 43.9065C258.692 44.6501 258.692 45.7654 257.948 46.509L229.328 79.2254C225.983 83.315 224.868 88.8916 226.355 93.7247L229.328 102.276C229.328 102.647 229.328 103.391 229.328 103.763L226.727 110.455C218.921 127.928 224.497 148.748 239.736 159.901L247.169 165.478C247.913 166.221 248.284 167.337 247.541 168.08C246.798 168.824 246.426 168.824 245.683 168.824Z" fill="#0E2B49"/>
<path d="M307.753 104.876C307.01 104.876 305.895 104.876 305.152 104.504C300.691 103.017 298.461 98.1836 299.948 93.7223L306.267 75.8769C304.037 75.1334 300.691 73.6463 298.461 70.3003C295.86 66.5825 294.744 62.1212 295.488 56.1727C295.488 55.0574 296.603 54.3138 297.718 54.6856C298.833 54.6856 299.576 55.8009 299.205 56.9163C298.461 61.7494 299.205 65.4672 301.435 68.0696C304.408 71.7874 308.868 72.5309 308.868 72.5309C309.24 72.5309 309.984 72.9027 310.355 73.2745C310.727 73.6463 310.727 74.3898 310.355 74.7616L303.293 94.8376C302.55 97.0683 303.665 99.6707 306.267 100.786C308.497 101.53 311.099 100.414 312.214 97.8118L318.532 79.5947C318.532 79.2229 318.904 78.8512 319.647 78.4794L348.639 64.7236C354.586 61.7494 360.533 53.1985 360.533 43.1605C360.533 36.4685 357.559 27.1741 344.179 20.8539C336.373 17.1361 329.311 16.3925 322.621 18.995C311.842 23.0845 306.638 34.2379 306.267 34.2379C305.895 34.9814 305.152 35.3532 304.408 35.3532C303.665 35.3532 302.922 34.6096 302.922 33.8661C302.922 33.8661 298.833 16.3925 286.567 13.4183C275.417 10.4441 270.213 21.9692 270.213 22.7128C269.842 23.0845 269.47 23.8281 269.098 23.8281C268.727 23.8281 267.983 23.8281 267.611 23.4563C258.319 16.0208 249.399 13.4183 243.08 16.3925C237.877 18.995 234.16 24.9434 234.16 32.379C234.16 39.8145 237.505 49.8525 247.54 55.4292C248.284 55.8009 248.656 56.9163 248.284 58.0316C247.912 58.7752 246.797 59.1469 245.682 58.7752C233.788 52.455 230.071 40.9299 230.071 32.379C230.443 23.4563 234.532 16.0208 241.222 13.0465C248.656 9.70054 257.948 11.5594 267.983 18.995C270.957 13.7901 277.647 7.0981 287.682 9.70054C298.09 12.303 303.293 23.0845 305.523 29.033C308.125 24.9434 313.329 18.6232 321.506 15.649C328.939 13.0465 337.116 13.7901 346.037 17.8796C362.019 25.3152 364.621 37.2121 364.621 43.5323C364.621 53.9421 358.674 64.3518 350.497 68.4414L322.249 81.8254L315.93 99.2989C314.444 102.645 311.099 104.876 307.753 104.876Z" fill="#0E2B49"/>
<path d="M472.412 425.349H377.632C376.889 425.349 376.517 424.977 376.145 424.605C375.774 424.233 375.774 423.49 375.774 422.746L448.995 238.345C449.367 237.229 450.482 236.858 451.226 237.229C452.341 237.601 452.712 238.717 452.341 239.46L380.234 421.259H471.297C476.5 411.965 518.5 334.635 538.571 270.318C546.005 246.524 546.377 227.191 540.058 213.064C526.306 182.95 473.155 159.528 385.437 176.258C359.048 181.091 356.818 181.835 328.198 190.014H327.454C321.879 191.501 315.932 190.014 311.844 185.552C307.755 181.463 306.64 175.143 308.499 169.566L333.401 98.5564C333.401 98.1846 333.773 97.8129 334.517 97.4411L351.614 89.262C354.216 88.1467 356.074 85.916 356.818 83.3135C357.561 80.7111 357.561 77.7369 356.446 75.5062C353.844 70.3013 347.897 68.0707 342.694 70.6731L321.508 81.0829C320.764 81.4547 319.649 81.0829 318.906 80.3393C318.162 79.5958 318.906 78.4804 319.649 77.7369L340.835 67.3271C347.897 63.9811 356.446 66.9553 359.791 74.0191C361.278 77.3651 361.649 81.0829 360.534 84.8007C359.419 88.5184 356.818 91.1209 353.472 92.9798L337.118 100.787L312.215 171.797C310.729 176.258 311.844 180.719 314.817 184.065C317.791 187.411 322.251 188.527 326.711 187.411H327.454C356.446 179.232 358.676 178.489 385.066 173.655C449.367 161.387 523.704 168.822 543.775 212.692C550.837 227.935 550.094 248.011 542.66 272.548C521.102 340.955 475.013 424.233 474.27 424.977C473.527 424.977 473.155 425.349 472.412 425.349Z" fill="#0E2B49"/>
<path d="M331.914 94.4666C331.171 94.4666 330.428 94.0949 330.056 93.3513C329.684 92.6077 330.056 91.4924 330.799 90.7489C334.144 89.2617 335.631 84.8004 334.144 81.4544C333.773 81.0826 333.773 80.3391 334.144 79.9673C334.144 79.5955 334.516 79.2238 335.26 78.852L347.897 72.9035C348.64 72.5318 349.755 72.9035 350.499 73.6471C350.87 74.3906 350.499 75.506 349.755 76.2495L338.605 81.4544C340.091 86.2875 337.861 91.8642 333.029 94.0949C332.286 94.4666 331.914 94.4666 331.914 94.4666Z" fill="#0E2B49"/>
<path d="M264.268 80.7115C266.526 80.7115 268.356 78.8805 268.356 76.6219C268.356 74.3633 266.526 72.5323 264.268 72.5323C262.01 72.5323 260.179 74.3633 260.179 76.6219C260.179 78.8805 262.01 80.7115 264.268 80.7115Z" fill="#0E2B49"/>
<path d="M260.549 105.991C258.319 105.991 256.832 105.619 256.832 105.619C255.717 105.247 255.345 104.503 255.345 103.388C255.717 102.273 256.46 101.901 257.575 101.901C257.947 101.901 269.098 104.132 275.045 94.4655C275.416 93.7219 276.903 93.3501 277.646 93.7219C278.39 94.0937 278.761 95.5808 278.39 96.3243C273.186 104.503 265.009 105.991 260.549 105.991Z" fill="#0E2B49"/>
<path d="M281.365 99.2965C280.993 99.2965 280.622 99.2965 280.622 98.9247L271.33 94.0916C270.586 93.7198 270.215 92.6045 270.586 91.4891C270.958 90.7456 272.073 90.3738 273.188 90.7456L282.48 95.5787C283.224 95.9505 283.595 97.0658 283.224 98.1811C282.48 98.9247 282.108 99.2965 281.365 99.2965Z" fill="#0E2B49"/>
<path d="M430.041 289.646H57.2407C56.1257 289.646 55.3823 288.902 55.3823 287.787C55.3823 286.672 56.1257 285.928 57.2407 285.928H430.412C431.527 285.928 432.271 286.672 432.271 287.787C432.271 288.902 431.156 289.646 430.041 289.646Z" fill="#0E2B49"/>
<path d="M333.029 527.589C331.914 527.589 331.171 527.589 330.056 527.217C326.339 526.845 323.737 524.987 322.25 522.384C318.534 515.32 324.109 501.936 333.773 482.976C334.144 482.604 334.516 481.489 334.888 480.002C338.233 472.938 345.295 455.836 352.357 450.631C359.791 444.683 366.481 437.619 371.313 429.812L375.773 422.748C376.145 422.004 377.632 421.632 378.375 422.004C379.118 422.376 379.49 423.863 379.118 424.607L374.658 431.67C369.454 439.85 362.764 447.285 354.959 453.605C349.012 458.438 341.578 475.168 338.605 481.489C337.861 482.976 337.49 484.091 337.118 484.463C329.312 499.706 322.25 514.577 325.596 520.525C326.339 522.012 328.197 523.128 330.799 523.499C352.357 526.474 364.251 485.95 364.623 485.578C364.994 484.463 366.109 484.091 366.853 484.463C367.968 484.835 368.339 485.95 367.968 486.693C367.596 488.181 356.074 527.589 333.029 527.589Z" fill="#0E2B49"/>
<path d="M363.135 522.381C360.905 522.381 359.047 522.009 357.188 521.266C354.215 520.15 352.728 518.291 352.356 515.689C352.356 514.574 353.1 513.83 354.215 513.83C355.33 513.83 356.073 514.574 356.073 515.689C356.073 516.804 356.817 517.548 358.303 517.92C363.507 519.779 373.914 517.92 379.489 512.343C386.18 506.023 389.525 487.434 389.525 487.434C389.897 486.319 390.64 485.947 391.755 485.947C392.87 486.319 393.242 487.062 393.242 488.177C393.242 488.921 389.525 507.882 382.091 515.317C377.259 519.779 369.454 522.381 363.135 522.381Z" fill="#0E2B49"/>
<path d="M389.527 516.432C386.925 516.432 384.695 516.061 382.093 515.317C380.978 514.945 380.606 513.83 380.978 513.086C381.349 511.971 382.464 511.599 383.208 511.971C388.04 513.458 401.049 515.317 411.828 497.843C415.916 491.151 421.12 480.742 427.067 468.473C427.81 466.986 429.668 461.781 431.527 455.833C437.474 438.731 441.934 424.975 444.908 422.373C445.651 421.629 446.766 421.629 447.509 422.373C448.253 423.116 448.253 424.232 447.509 424.975C444.908 427.206 438.589 445.795 434.872 456.948C432.642 463.268 431.155 468.473 430.04 469.96C424.093 482.229 418.518 493.01 414.429 499.702C408.111 510.484 398.819 516.432 389.527 516.432Z" fill="#0E2B49"/>
<path d="M313.703 512.712C312.216 512.712 311.101 512.712 309.615 512.341C305.898 511.225 303.296 508.995 301.438 504.905C296.977 495.611 303.668 490.778 314.818 482.598C321.88 477.765 331.544 470.702 342.323 460.292C343.066 459.548 344.181 459.548 344.925 460.292C345.668 461.035 345.668 462.151 344.925 462.894C333.774 473.676 324.11 480.368 317.048 485.573C305.154 493.752 301.809 496.726 304.783 503.046C306.27 506.02 308.128 507.879 310.73 508.623C316.677 510.482 324.11 506.02 324.11 506.02C324.854 505.649 325.969 505.649 326.712 506.764C327.456 507.879 327.084 508.623 325.969 509.366C325.597 508.995 320.022 512.712 313.703 512.712Z" fill="#0E2B49"/>
<path d="M34.9381 44.6468C44.9967 44.6468 53.1507 36.4908 53.1507 26.4297C53.1507 16.3687 44.9967 8.21265 34.9381 8.21265C24.8796 8.21265 16.7256 16.3687 16.7256 26.4297C16.7256 36.4908 24.8796 44.6468 34.9381 44.6468Z" fill="#0177FC"/>
<path d="M82.8871 98.5527C82.1438 98.5527 81.4004 98.181 81.0287 97.0656L76.9402 82.1946C76.5685 81.0792 77.3119 79.9639 78.0552 79.9639C79.1703 79.5921 79.9137 80.3357 80.2853 81.451L84.3739 96.3221C84.7456 97.4374 84.0022 98.181 82.8871 98.5527C82.8871 98.5527 83.2588 98.5527 82.8871 98.5527Z" fill="#0E2B49"/>
<path d="M78.7972 83.311C78.4255 83.311 78.0538 83.311 78.0538 82.9392L62.8147 74.3883C62.0714 74.0166 61.6997 72.9012 62.0714 71.7859C62.4431 71.0423 63.5581 70.6706 64.6732 71.0424L78.4255 78.8497L118.567 7.84016L6.69033 38.3259L36.4251 55.4277C37.1685 55.7995 37.5402 56.9148 37.1685 58.0301C36.7968 58.7737 35.6817 59.1455 34.5667 58.7737L1.11505 39.813C0.371685 39.0695 0 38.3259 0 37.5824C0 36.8388 0.74337 36.0953 1.48674 36.0953L122.284 3.00706C123.028 2.63528 123.771 3.00706 124.143 3.75061C124.514 4.49417 124.514 5.23772 124.143 5.98128L80.2839 82.5675C79.9122 82.9392 79.5406 83.311 79.1689 83.311H78.7972Z" fill="#0E2B49"/>
<path d="M71.3622 178.485C70.6188 178.485 69.8755 178.113 69.5038 176.998L66.1586 164.729C65.4152 161.755 63.5568 159.524 60.955 158.037C54.6364 154.319 46.0876 148.371 43.1141 141.307C40.5124 134.987 37.9106 126.436 41.9991 120.116C44.9726 115.655 50.9195 113.424 59.0966 113.796C62.8134 114.167 95.5217 118.629 101.469 126.808C104.07 130.154 104.442 133.872 102.584 137.589C98.8669 145.025 87.7163 149.115 71.3622 149.486C70.2471 149.486 69.5038 148.743 69.5038 147.627C69.5038 146.512 70.2471 145.769 71.3622 145.769C92.9199 145.397 98.1235 137.961 99.2385 135.731C100.354 133.5 99.9819 130.897 98.4952 129.039C94.035 123.09 68.3887 119.001 58.7249 117.513C52.0346 117.513 47.2027 119.001 44.9726 122.347C41.6274 127.551 44.2292 135.731 46.0876 139.82C48.6894 146.14 57.6098 151.717 62.4418 154.691C65.7869 156.55 68.3887 159.896 69.5038 163.614L72.8489 175.883C73.2206 176.998 72.4772 177.741 71.3622 178.113C71.7339 178.485 71.7339 178.485 71.3622 178.485Z" fill="#0E2B49"/>
<path d="M43.4863 123.465C43.1146 123.465 42.7429 123.465 42.3713 123.093C39.3978 120.491 37.5394 117.889 36.4243 116.03C33.4508 109.709 31.2207 100.787 35.3092 94.8383C38.2827 90.377 44.2297 88.1463 52.4067 88.5181C56.1236 88.8899 88.8319 93.3512 94.7788 101.53C97.0089 104.505 97.7523 108.222 96.6372 111.197C95.5222 114.171 92.177 118.632 82.8849 121.235C81.7698 121.606 81.0265 120.863 80.6548 120.119C80.2831 119.004 81.0265 118.26 81.7698 117.889C88.0885 116.03 91.8053 113.427 92.9204 110.081C93.6638 107.479 92.5487 105.248 91.4336 103.761C86.9734 97.8126 61.3272 93.723 51.6634 92.2359C44.973 92.2359 40.1411 93.723 37.911 97.069C34.5659 102.274 37.1677 110.453 39.0261 114.543C39.3978 115.658 40.8845 117.517 43.858 120.491C44.6014 121.235 44.6014 122.35 43.858 123.093C44.2297 123.465 43.858 123.465 43.4863 123.465Z" fill="#0E2B49"/>
<path d="M49.0622 91.1173C40.8852 91.1173 33.0798 84.7971 30.478 75.1309C28.9912 69.926 29.3629 64.3494 31.593 59.888C33.8231 55.0549 37.54 51.7089 42.0002 50.5936C51.2923 47.9912 61.3278 55.0549 64.3013 65.8365C67.2748 76.9898 62.0712 88.1431 52.7791 90.7456C51.664 90.7456 50.549 91.1173 49.0622 91.1173ZM46.0887 53.5678C44.9737 53.5678 44.2303 53.5678 43.1153 53.9396C39.7701 55.0549 36.7966 57.6574 34.9382 61.3751C33.0798 65.0929 33.0798 69.926 34.1948 74.3874C36.7966 83.31 44.602 89.2585 52.0357 87.0278C59.4694 85.1689 63.5579 75.8745 60.9561 66.9518C58.726 58.7727 52.4074 53.5678 46.0887 53.5678Z" fill="#0E2B49"/>
<path d="M81.0273 63.6075C80.6556 63.6075 80.2839 63.6075 79.9122 63.2357L1.48673 3.37952C0.743357 3.00774 0.743357 1.52063 1.48673 0.777078C2.2301 0.0335229 3.34515 -0.338254 4.08852 0.405301L82.1423 60.2615C82.8857 61.005 83.2574 62.1204 82.514 62.8639C82.1423 63.6075 81.399 63.6075 81.0273 63.6075Z" fill="#0E2B49"/>
<path d="M122.657 164.36C121.914 164.36 121.171 163.989 120.799 162.873L117.454 150.605C116.71 148.002 116.71 145.4 117.082 142.797C118.569 135.362 120.799 116.401 108.533 100.415C103.701 93.7226 106.675 88.5177 110.763 82.1975C113.737 77.3644 117.454 71.416 120.055 62.4933C121.914 55.4295 120.799 49.8529 116.71 47.994C111.507 45.3915 101.843 48.3658 95.1526 57.6602C94.4092 58.4038 93.2942 58.7755 92.5508 58.032C91.8074 57.2884 91.4358 56.1731 92.1791 55.4295C99.2411 45.7633 110.763 41.302 118.569 44.648C121.171 46.1351 127.489 50.5964 123.772 63.6086C121.171 73.2749 117.082 79.5951 114.109 84.4282C109.648 91.492 108.533 94.0944 111.878 98.5557C124.887 116.029 122.657 136.105 121.171 143.913C120.799 145.771 120.799 148.002 121.542 150.233L124.887 162.501C125.259 163.617 124.516 164.36 123.401 164.732C122.657 164.36 122.657 164.36 122.657 164.36Z" fill="#0E2B49"/>
<path d="M97.7526 152.835C97.0092 152.835 96.2659 152.463 95.8942 151.348L93.6641 142.797C93.2924 141.681 94.0358 140.938 95.1508 140.566C96.2659 140.194 97.0092 140.938 97.3809 142.053L99.611 150.604C99.9827 151.719 99.2393 152.463 98.1243 152.835H97.7526Z" fill="#0E2B49"/>
<path d="M85.8599 156.553C85.1165 156.553 84.3732 156.182 84.0015 155.066C83.6298 153.951 84.3732 153.207 85.4882 152.836L110.763 145.772C111.878 145.4 112.621 146.144 112.993 147.259C113.365 148.374 112.621 149.118 111.506 149.49L86.2316 156.553H85.8599Z" fill="#0E2B49"/>
<path d="M65.0448 248.383C64.3014 248.383 63.558 247.64 63.1863 246.896C62.8147 245.409 55.7526 208.231 64.3014 177.374C64.3014 176.63 65.0448 176.258 65.7881 175.886L132.32 159.157C133.435 158.785 134.178 159.528 134.55 160.272L163.541 245.781C163.913 246.896 163.17 247.64 162.426 248.011C161.311 248.383 160.568 247.64 160.196 246.896L131.948 163.246L68.3899 179.604C60.5845 209.346 67.6466 246.152 67.6466 246.524C67.2749 246.896 66.5315 248.011 65.0448 248.383C65.4164 248.383 65.4164 248.383 65.0448 248.383Z" fill="#0E2B49"/>
<path d="M82.8846 275.891C87.4007 275.891 91.0617 272.229 91.0617 267.712C91.0617 263.195 87.4007 259.533 82.8846 259.533C78.3685 259.533 74.7075 263.195 74.7075 267.712C74.7075 272.229 78.3685 275.891 82.8846 275.891Z" fill="#0177FC"/>
<path d="M113.737 275.891C118.253 275.891 121.914 272.229 121.914 267.712C121.914 263.195 118.253 259.533 113.737 259.533C109.221 259.533 105.56 263.195 105.56 267.712C105.56 272.229 109.221 275.891 113.737 275.891Z" fill="#0177FC"/>
<path d="M144.956 275.891C149.472 275.891 153.133 272.229 153.133 267.712C153.133 263.195 149.472 259.533 144.956 259.533C140.44 259.533 136.779 263.195 136.779 267.712C136.779 272.229 140.44 275.891 144.956 275.891Z" fill="#0E2B49"/>
<path d="M457.543 239.831C447.508 239.831 444.163 234.998 444.163 234.998C443.419 234.255 443.791 233.139 444.534 232.396C445.278 231.652 446.393 232.024 447.136 232.767C447.136 232.767 450.853 237.601 462.375 235.742C463.49 235.742 464.234 236.485 464.605 237.229C464.977 237.972 463.862 239.088 463.118 239.459C460.888 239.831 459.03 239.831 457.543 239.831Z" fill="#0E2B49"/>
<path d="M159.824 243.174C159.081 243.174 158.337 242.802 158.337 242.058C157.966 241.315 158.337 240.199 159.081 239.456C168.001 234.994 172.833 227.559 178.037 219.752C186.957 206.368 196.621 191.125 229.701 185.548C230.816 185.548 231.559 185.92 231.931 187.035C231.931 188.151 231.559 188.894 230.444 189.266C199.223 194.471 189.93 208.598 181.382 221.982C175.806 230.161 170.975 237.969 160.939 243.174C160.196 243.174 160.196 243.174 159.824 243.174Z" fill="#0E2B49"/>
</svg>
