<svg width="322" height="282" viewBox="0 0 322 282" fill="none" xmlns="http://www.w3.org/2000/svg">
<path d="M104.967 87.6159C105.253 87.9012 105.416 88.3902 105.131 88.6754C104.845 88.9607 104.518 89.1237 104.355 89.1237C104.192 89.1237 104.069 89.1237 103.906 88.9607C94.8053 82.7665 84.8066 76.3685 81.909 74.4124C81.4601 74.1272 81.1336 73.9642 81.0112 73.8012C80.7255 73.5159 80.5622 73.0269 80.8479 72.7416C81.1336 72.4564 81.6233 72.2934 81.909 72.5786C81.909 72.5786 82.1947 72.7416 82.6844 73.0269C84.3577 74.0864 88.7653 76.5315 91.6221 75.7572C92.5199 75.472 93.2953 74.8607 93.7442 73.9234C95.5808 69.9705 84.4801 59.0899 77.0525 53.0179C76.7668 52.7327 76.7668 52.2436 76.8892 51.9584C77.1749 51.6731 77.6647 51.6731 77.9503 51.7954C80.0725 53.4662 97.9886 68.1775 95.091 74.5347C94.4789 75.8795 93.4178 76.8168 92.071 77.102C91.1732 77.3873 90.2345 77.3873 89.3366 77.265C93.7442 80.1991 99.5394 83.989 104.967 87.6159Z" fill="#0273FF"/>
<path d="M68.2773 89.7351C70.8892 89.7351 72.9705 87.6161 72.9705 85.0487C72.9705 82.4406 70.8484 80.3623 68.2773 80.3623C65.6654 80.3623 63.584 82.4814 63.584 85.0487C63.584 87.6161 65.6654 89.7351 68.2773 89.7351Z" fill="#0177FC"/>
<path d="M79.5005 128.815C81.1738 128.815 82.5205 127.471 82.5205 125.8C82.5205 124.129 81.1738 122.784 79.5005 122.784C77.8272 122.784 76.4805 124.129 76.4805 125.8C76.4805 127.471 77.8272 128.815 79.5005 128.815Z" fill="#0177FC"/>
<path d="M62.0741 122.254C61.9109 122.254 61.9109 122.254 61.7884 122.254C61.5028 122.091 61.1763 121.806 61.3395 121.48C61.3395 121.317 62.4006 103.59 49.9532 97.559C49.6675 97.396 49.341 96.9477 49.6675 96.4995C49.8308 96.2142 50.2797 95.8882 50.7286 96.2142C61.5028 101.349 62.8495 114.226 63.0128 119.402C66.645 115.612 78.0313 107.421 101.539 115.164C101.987 115.327 102.151 115.775 101.987 116.06C101.824 116.508 101.375 116.671 101.09 116.508C86.3568 111.659 76.8069 113.493 71.3791 115.734C65.4614 118.138 62.8903 121.806 62.8903 121.928C62.523 122.091 62.1966 122.254 62.0741 122.254Z" fill="#0273FF"/>
<path d="M125.862 85.9856C118.312 70.5408 110.476 54.4032 110.109 36.8394C110.027 32.3975 110.354 27.9556 111.374 23.6359C112.19 20.1313 113.619 16.3821 116.884 14.4261C121.699 11.5327 129.209 12.959 131.943 18.0937C135.208 24.2064 130.678 32.3567 124.067 33.4977C122.516 33.783 123.169 36.1058 124.719 35.8613C131.208 34.761 135.861 28.1593 135.412 21.7206C134.963 14.9966 128.964 10.5547 122.475 10.5547C119.332 10.5547 116.19 11.5735 113.864 13.6925C110.64 16.5859 109.334 21.1093 108.599 25.2252C106.722 35.2501 107.864 45.5602 110.558 55.2998C113.66 66.4657 118.761 76.898 123.781 87.2897C124.434 88.6345 126.556 87.4119 125.862 85.9856Z" fill="#0273FF"/>
<path d="M93.4989 138.922C85.4999 135.009 76.5214 134.072 67.7062 134.724C59.3807 135.335 50.7288 137.129 43.8725 142.182C37.9141 146.583 33.384 153.755 33.7513 161.335C33.9146 164.595 34.9348 168.1 37.9141 169.893C40.2811 171.319 43.3828 171.401 45.913 170.382C48.6474 169.281 51.3817 166.347 50.6879 163.169C49.7493 158.89 44.852 160.52 42.4033 162.272C41.1381 163.209 42.3625 165.329 43.6276 164.391C44.4847 163.739 45.9539 162.598 47.1374 162.843C49.3412 163.291 47.872 166.062 46.8109 167.04C45.1784 168.548 42.6073 168.996 40.4852 168.385C34.3227 166.551 35.9143 157.301 37.9549 152.981C43.5868 141.041 57.7891 137.577 69.8692 137.047C77.5417 136.68 85.2958 137.618 92.2745 141.041C93.6621 141.693 94.9273 139.614 93.4989 138.922Z" fill="#0273FF"/>
<path d="M224.298 119.32C230.257 114.185 236.174 109.091 242.133 103.957C247.234 99.5556 253.07 95.2767 256.294 89.2048C257.682 86.5967 258.58 83.7033 258.58 80.7285C258.58 78.6909 258.335 75.227 256.213 74.2082C253.886 73.1079 250.173 76.1235 248.336 77.2646C245.398 79.0984 242.623 81.2175 240.052 83.5403C238.868 84.5998 240.623 86.3114 241.766 85.2519C244.01 83.255 246.418 81.3805 248.948 79.7504C250.173 78.9761 251.397 78.2426 252.662 77.5498C253.07 77.3461 254.131 76.5718 254.58 76.5718C255.519 76.4903 255.56 77.0201 255.764 77.8351C257.315 83.4181 254.009 89.2048 250.336 93.1577C246.377 97.4366 241.684 101.063 237.276 104.853C232.379 109.091 227.441 113.33 222.544 117.568C221.36 118.627 223.115 120.339 224.298 119.32Z" fill="#0273FF"/>
<path d="M230.584 141.489C244.582 139.614 258.907 141.285 272.089 146.298C277.925 148.539 285.312 151.391 289.148 156.648C290.127 157.993 290.821 159.583 290.821 161.253C290.821 163.495 289.76 164.473 287.556 164.554C283.516 164.676 279.312 163.984 275.394 163.25C275.68 163.658 276.007 164.024 276.292 164.432C276.292 163.495 277.109 162.802 278.006 163.046C279.516 163.454 280.169 161.09 278.659 160.683C276.17 160.031 273.803 161.824 273.844 164.432C273.844 164.921 274.211 165.491 274.742 165.614C278.251 166.266 281.802 166.755 285.393 166.918C287.76 167.04 290.739 167.285 292.29 165.043C295.351 160.642 291.597 154.937 288.209 152.084C283.638 148.213 277.721 145.768 272.13 143.689C266.049 141.407 259.682 139.859 253.275 139.003C245.766 138.025 238.175 138.025 230.625 139.003C229.033 139.248 229.033 141.733 230.584 141.489Z" fill="#0273FF"/>
<path d="M269.681 101.512C271.354 101.512 272.701 100.167 272.701 98.4961C272.701 96.8253 271.354 95.4805 269.681 95.4805C268.008 95.4805 266.661 96.8253 266.661 98.4961C266.661 100.167 268.008 101.512 269.681 101.512Z" fill="#0177FC"/>
<path d="M239.154 127.837C238.746 127.878 238.256 127.756 238.215 127.308C238.174 126.9 238.215 126.533 238.297 126.411C238.378 126.289 238.46 126.167 238.705 126.126C249.153 122.621 260.253 118.465 263.559 117.364C264.089 117.201 264.375 117.038 264.579 116.998C264.987 116.957 265.477 117.079 265.518 117.527C265.559 117.935 265.436 118.424 264.987 118.465C264.987 118.465 264.702 118.628 264.171 118.791C262.335 119.483 257.723 121.521 256.621 124.292C256.335 125.189 256.335 126.167 256.784 127.063C258.825 130.894 274.211 128.612 283.556 126.33C283.965 126.289 284.332 126.533 284.495 126.859C284.536 127.267 284.291 127.634 283.965 127.797C281.353 128.49 258.825 133.909 255.478 127.797C254.744 126.493 254.662 125.107 255.233 123.844C255.519 122.947 256.09 122.214 256.743 121.562C251.846 123.355 245.316 125.678 239.154 127.837Z" fill="#0273FF"/>
<path d="M149.858 104.202C154.47 104.12 158.714 102.327 161.938 99.0669C162.755 98.2111 161.49 96.9478 160.633 97.7628C157.735 100.697 153.98 102.286 149.858 102.368C148.675 102.368 148.675 104.202 149.858 104.202Z" fill="#0E2B49"/>
<path d="M159.122 97.7218C160.51 98.2923 161.775 99.1073 162.877 100.085C163.775 100.86 165.081 99.5556 164.183 98.7813C162.795 97.5588 161.285 96.6623 159.612 95.9695C158.51 95.4805 158.02 97.2735 159.122 97.7218Z" fill="#0E2B49"/>
<path d="M161.53 81.9104C161.53 81.7066 162.02 81.7882 161.857 81.6251C161.816 81.5844 161.489 81.5436 161.408 81.5436C161.081 81.5029 160.755 81.4214 160.428 81.4214C160.102 81.4214 159.775 81.4621 159.449 81.5436C159.326 81.5436 159.163 81.5844 159.081 81.6251C159.041 81.6251 159 81.6251 158.959 81.6659C158.755 81.7066 158.877 81.7882 159.326 81.9512C159.367 81.9512 159.49 81.3399 159.571 81.2176C159.775 80.9731 160.061 80.8509 160.347 80.8101C160.959 80.7286 161.489 81.2584 161.53 81.9104C161.612 83.0922 163.448 83.0922 163.367 81.9104C163.285 80.3211 162.061 78.9355 160.387 78.9355C158.796 78.9355 157.449 80.2803 157.408 81.9104C157.408 82.5624 157.694 83.2145 158.347 83.4182C158.959 83.622 159.612 83.296 160.224 83.2552C160.877 83.2145 161.571 83.5812 162.224 83.459C162.959 83.296 163.244 82.6439 163.285 81.9512C163.407 80.7286 161.571 80.7286 161.53 81.9104Z" fill="#0E2B49"/>
<path fill-rule="evenodd" clip-rule="evenodd" d="M162.428 81.9106C162.428 83.0516 161.53 82.3181 160.387 82.3181C159.245 82.3181 158.347 83.0516 158.347 81.9106C158.347 80.7696 159.245 79.873 160.387 79.873C161.53 79.873 162.428 80.7696 162.428 81.9106Z" fill="#0E2B49"/>
<path d="M136.472 176.658C137.044 173.805 137.656 170.993 138.268 168.141C138.35 167.122 138.35 166.062 138.35 165.044C138.227 164.718 138.187 164.351 138.227 163.903C138.268 163.577 138.309 163.291 138.35 162.965C138.35 161.906 138.431 160.846 138.554 159.746C138.676 158.686 139.37 158.034 140.145 157.871C140.268 157.586 140.39 157.301 140.513 157.016C141.329 153.47 142.104 149.925 142.023 146.339C142.023 145.646 142.268 145.157 142.676 144.831L142.064 143.894L131.902 148.254C130.473 148.784 129.535 150.251 129.902 151.881L131.167 158.931C131.33 159.827 131.004 160.928 130.432 161.661L118.107 176.698L122.474 193.325L136.432 176.861C136.432 176.739 136.472 176.698 136.472 176.658Z" fill="#0177FC"/>
<path d="M146.063 122.866C145.859 122.866 145.859 122.866 146.063 122.866L140.798 122.336C137.901 121.969 135.003 120.339 133.371 117.975C127.372 110.192 127.739 99.1482 134.269 91.7314L136.432 89.2048L136.228 85.4149C136.064 82.3586 137.697 79.2615 140.227 77.6314L157.449 66.5878C157.817 66.4247 158.347 66.4248 158.715 66.9545C158.919 67.3213 158.919 67.851 158.347 68.2178L141.125 79.2615C138.962 80.5248 137.86 83.0513 137.86 85.4149L138.023 89.5716C138.023 89.7346 138.023 90.1013 137.86 90.3051L135.493 93.1985C129.698 100.085 129.331 110.029 134.758 117.283C136.187 119.279 138.554 120.543 141.084 120.909L146.145 121.439C146.675 121.439 147.043 121.969 146.879 122.54C146.757 122.499 146.39 122.866 146.063 122.866Z" fill="#0E2B49"/>
<path d="M173.529 100.126C173.203 100.086 172.836 99.9226 172.509 99.7188C171.978 99.352 171.611 98.8223 171.611 98.2517C171.448 97.722 171.611 97.1515 171.978 96.6217L177.774 88.6752C177.937 88.5121 178.141 88.1454 177.937 87.9416C177.774 87.7786 177.57 87.5749 177.406 87.4119C177.406 87.4119 175.243 86.5153 174.509 84.3555C173.978 82.7254 174.141 80.9324 175.039 78.9355C175.407 78.4058 175.039 77.8353 174.672 77.6723C174.141 77.3055 173.57 77.5092 173.407 78.039C172.305 80.4026 172.142 82.7254 172.876 84.7223C173.611 86.3523 174.876 87.6156 175.774 88.1454L170.713 95.1954C169.979 96.0919 169.816 96.9884 169.979 98.0887C170.142 99.189 170.713 100.086 171.611 100.615C172.101 100.982 172.591 101.186 173.162 101.267C173.244 100.86 173.366 100.493 173.529 100.126Z" fill="#0E2B49"/>
<path d="M202.75 65.406C199.485 62.5127 195.853 61.0456 192.057 61.2494C187.894 61.4124 184.793 63.613 182.997 65.0393C182.834 61.9829 181.895 56.5222 177.569 53.9956C173.407 51.469 169.407 53.4659 167.407 55.4627C162.714 49.1462 158.347 48.7794 156.184 49.1462C152.756 49.676 149.858 52.4063 148.593 56.4C147.328 60.1898 147.491 65.9765 152.021 70.3369C152.389 70.7037 152.919 70.7037 153.287 70.3369C153.654 69.9702 153.654 69.4404 153.287 69.0737C149.287 65.2838 149.124 60.3936 150.226 56.9705C151.328 53.7104 153.654 51.3468 156.388 50.98C159.653 50.4502 163.285 52.6101 166.55 57.2965C166.713 57.4595 166.918 57.6632 167.285 57.6632C167.652 57.6632 167.815 57.5002 168.019 57.2965C168.224 57.1335 172.019 52.4063 176.712 55.2997C181.773 58.356 181.405 66.7101 181.405 66.7101C181.405 67.0768 181.569 67.4436 181.936 67.6066C182.303 67.7696 182.834 67.7696 183.038 67.4436C183.242 67.4436 187.037 63.0832 192.465 62.7572C195.73 62.5942 198.791 63.8575 201.893 66.5471C207.157 71.0705 207.157 75.5939 206.259 78.6502C205.28 81.6251 201.974 86.0262 199.73 87.4118C200.424 87.6156 201.117 87.9008 201.77 88.3898C203.974 86.6783 206.953 82.1141 207.688 79.3838C208.545 76.6127 208.912 71.0297 202.75 65.406Z" fill="#0E2B49"/>
<path d="M156.43 252.332C157.327 252.006 158.225 251.68 159.123 251.354C136.473 244.671 125.984 228.248 130.433 205.917L143.574 143.974C143.615 143.404 143.452 142.915 142.88 142.874C142.309 142.833 141.819 142.996 141.778 143.567L128.637 205.509C124.556 226.415 132.841 242.389 151.777 250.58C153.328 251.232 154.838 251.803 156.43 252.332Z" fill="#0E2B49"/>
<path d="M207.361 138.555C204.709 137.169 201.158 136.599 196.75 136.884L184.181 137.373C183.977 138.066 183.65 138.718 183.201 139.248L197.118 138.718C201.77 138.351 205.28 139.003 207.647 140.715C207.565 139.981 207.443 139.248 207.361 138.555Z" fill="#0E2B49"/>
<path d="M173.488 219.039C173.162 218.876 172.958 218.428 172.958 218.021L184.834 154.937L142.309 144.709C141.737 144.668 141.533 144.179 141.615 143.608C141.656 143.038 142.145 142.834 142.717 142.916L185.977 153.267C186.548 153.307 186.752 153.796 186.67 154.367L174.59 218.347C174.549 218.876 174.06 219.08 173.488 219.039Z" fill="#0E2B49"/>
<path d="M111.618 147.112C111.414 147.112 111.088 146.949 110.884 146.746C110.517 146.379 110.517 145.849 110.884 145.482C111.618 144.749 112.516 143.852 113.251 143.119C117.944 138.229 123.413 132.605 134.432 131.912C134.962 131.912 135.33 132.279 135.33 132.809C135.33 133.338 134.962 133.705 134.432 133.705C124.107 134.439 119.046 139.696 114.516 144.382C113.781 145.279 112.884 146.012 112.149 146.746C112.149 147.112 111.823 147.112 111.618 147.112Z" fill="#0E2B49"/>
<path d="M172.672 151.106C172.672 151.106 172.509 151.025 172.672 151.106C172.183 150.902 172.06 150.25 172.264 149.761L174.427 146.175C175.08 145.075 176.101 144.138 176.958 143.526C177.284 143.282 177.488 143.16 177.815 142.915C180.712 141.204 184.426 139.044 185.895 130.649C186.589 126.818 189.364 126.248 192.833 125.555C195.404 125.066 198.669 124.332 202.546 122.254C205.852 120.543 207.28 118.179 206.342 115.815C205.362 113.044 201.363 110.925 196.302 112.066C193.2 112.881 190.017 114.267 186.548 116.345C186.059 116.549 185.487 116.467 185.324 116.019C185.12 115.53 185.201 114.96 185.65 114.797C189.16 112.555 192.588 111.088 195.935 110.151C201.852 108.765 206.627 111.414 208.056 114.96C209.198 118.22 207.607 121.48 203.526 123.64C199.445 125.8 195.976 126.492 193.323 127.144C189.65 127.919 188.262 128.326 187.773 130.853C186.181 140.022 181.937 142.548 178.957 144.382C178.631 144.627 178.427 144.749 178.1 144.993C177.325 145.442 176.55 146.298 176.019 147.072L173.856 150.699C173.652 151.147 172.999 151.228 172.672 151.106Z" fill="#0E2B49"/>
<path d="M175.815 123.273C175.488 123.11 175.039 122.743 174.55 122.132C171.856 119.198 163.245 109.01 167.856 104.283C169.244 102.897 170.917 102.245 172.958 102.531C177.447 103.101 182.753 108.154 186.915 115.449C187.119 115.938 187.038 116.508 186.589 116.671C186.099 116.875 185.528 116.794 185.364 116.345C181.569 109.581 176.508 104.854 172.672 104.161C171.203 103.916 170.019 104.405 169.162 105.424C168.55 105.954 168.428 106.687 168.387 107.665C168.509 112.433 175.529 120.38 176.631 121.48C176.794 121.562 176.794 121.562 176.876 121.806C177.121 122.132 177.08 122.703 176.712 123.11C176.386 123.314 176.141 123.395 175.815 123.273Z" fill="#0E2B49"/>
<path d="M157.531 137.251C157.367 137.169 157.204 137.088 157.123 136.884C156.918 136.395 150.307 125.677 154.388 120.339C155.694 118.709 157.327 118.057 159.49 118.587C159.979 118.79 160.265 119.116 160.183 119.687C160.143 120.258 159.653 120.461 159.081 120.38C157.694 119.972 156.47 120.461 155.898 121.358C153.123 125.066 156.959 133.053 158.755 135.784C158.959 136.273 158.877 136.843 158.428 137.006C158.02 137.495 157.694 137.332 157.531 137.251Z" fill="#0E2B49"/>
<path d="M166.632 131.749C166.468 131.668 166.305 131.586 166.387 131.423C165.081 129.875 154.103 116.467 158.714 110.803C161 107.828 164.795 108.113 169.284 111.414C169.693 111.781 169.733 112.188 169.529 112.677C169.162 113.085 168.754 113.126 168.264 112.922C166.142 111.414 162.387 109.214 160.184 111.985C157.082 115.978 164.754 126.574 167.774 130.445C168.019 130.771 167.979 131.342 167.611 131.749C167.366 131.871 166.958 131.871 166.632 131.749Z" fill="#0E2B49"/>
<path d="M154.021 140.878C153.858 140.796 153.695 140.715 153.776 140.552L151.164 137.047C150.307 135.865 150.348 133.95 151.409 132.809L153.776 130.486C154.144 130.079 154.715 130.12 155.001 130.405C155.409 130.772 155.368 131.342 155.082 131.627L152.715 133.95C152.348 134.358 152.225 135.132 152.552 135.662L155.164 139.166C155.409 139.492 155.368 140.063 155.001 140.47C154.592 140.919 154.184 140.959 154.021 140.878Z" fill="#0E2B49"/>
<path d="M206.3 140.062C210.218 141.163 213.646 143.649 215.85 147.072C218.503 151.228 218.87 156.159 218.136 160.927C217.401 165.695 215.891 170.341 214.463 174.946C213.034 179.591 211.565 184.237 209.973 188.842C206.749 198.215 203.158 207.465 199.199 216.512C195.689 224.581 192.343 233.506 186.507 240.23C183.12 244.101 178.834 246.627 174.019 248.298C168.836 250.132 163.04 252.373 157.572 250.743C156.429 250.417 155.939 252.17 157.082 252.496C162.143 254.044 166.999 252.455 171.856 250.947C176.182 249.602 180.467 247.932 184.058 245.079C191.527 239.17 195.322 229.716 199.077 221.28C203.443 211.5 207.402 201.556 210.953 191.45C212.789 186.275 214.503 181.018 216.095 175.761C217.646 170.708 219.319 165.614 220.013 160.357C220.666 155.222 220.094 149.924 217.074 145.564C214.585 141.978 210.953 139.41 206.749 138.188C205.647 137.943 205.158 139.736 206.3 140.062Z" fill="#0E2B49"/>
<path d="M172.468 103.59C175.202 99.8819 178.018 96.2143 180.916 92.6281C182.304 90.8758 183.732 89.1235 185.16 87.3712C185.977 86.3932 188.425 82.3588 189.772 82.5218C190.466 82.6033 191.486 83.4591 192.098 83.8258C193.037 84.3556 193.935 84.9261 194.833 85.4966C196.751 86.7599 198.628 88.1047 200.424 89.4903C203.77 92.0984 206.913 94.9917 209.933 97.9666C209.851 97.6813 209.769 97.3553 209.688 97.07C208.341 102.368 204.709 106.524 201.607 110.885C200.913 111.863 202.505 112.759 203.199 111.822C205.076 109.173 207.117 106.647 208.79 103.876C209.525 102.653 210.178 101.39 210.667 100.086C210.994 99.2299 211.81 97.7628 211.361 96.8255C210.871 95.7252 209.076 94.5434 208.178 93.6877C206.954 92.5466 205.729 91.4463 204.464 90.3868C202.056 88.3492 199.526 86.3932 196.914 84.6408C195.526 83.7036 194.139 82.807 192.71 81.992C191.853 81.503 190.547 80.4435 189.527 80.525C188.466 80.6065 187.65 81.4215 186.997 82.155C185.813 83.4591 184.752 84.8854 183.61 86.2709C179.243 91.6093 174.958 97.0293 170.876 102.571C170.183 103.59 171.774 104.528 172.468 103.59Z" fill="#0E2B49"/>
<path d="M193.935 96.9885C193.69 96.3773 193.363 95.766 192.874 95.3177C192.384 94.8695 191.731 94.5842 191.078 94.625C190.18 94.6657 189.364 95.277 188.833 96.0105C188.262 96.744 187.936 97.6406 187.65 98.4963C188.997 98.3333 190.303 99.3521 190.507 100.697C190.547 100.941 190.547 101.186 190.507 101.39C190.384 102.001 189.854 102.49 189.242 102.612C188.629 102.734 188.017 102.531 187.609 102.082C187.242 101.716 186.956 101.145 186.507 100.901C186.303 101.186 186.262 101.553 186.221 101.879C186.181 102.408 186.14 102.979 186.262 103.509C186.385 103.998 186.67 104.405 186.956 104.772C187.731 105.75 188.711 106.524 189.854 106.932C190.996 107.339 192.302 107.38 193.486 106.932C194.792 106.443 195.894 105.383 196.71 104.202C197.485 103.02 198.057 101.553 197.649 100.249C197.485 99.7189 197.159 99.2299 196.792 98.7816C196.098 97.8851 195.118 97.07 193.976 97.1515" fill="#0177FC"/>
<path d="M194.669 96.0512C195.608 95.4399 196.71 95.1954 197.771 95.2769C198.832 95.3584 199.852 95.7659 200.75 96.3365C199.73 96.6625 198.668 96.8662 197.607 96.8662C196.546 96.8662 195.485 96.6217 194.669 96.0512Z" fill="#0177FC"/>
<path d="M190.384 90.2646C191.511 90.2646 192.425 89.3523 192.425 88.227C192.425 87.1017 191.511 86.1895 190.384 86.1895C189.257 86.1895 188.344 87.1017 188.344 88.227C188.344 89.3523 189.257 90.2646 190.384 90.2646Z" fill="#0E2B49"/>
<path d="M191.813 88.227C191.731 90.0608 188.956 90.0608 188.956 88.227C188.956 86.3932 191.731 86.3932 191.813 88.227C191.853 89.0012 193.078 89.0012 193.037 88.227C192.955 86.8007 191.894 85.5781 190.384 85.5781C188.956 85.5781 187.731 86.8007 187.731 88.227C187.731 89.6125 188.874 90.7943 190.262 90.8758C191.813 90.9573 192.955 89.694 193.037 88.227C193.078 87.4527 191.853 87.4527 191.813 88.227Z" fill="#0E2B49"/>
<path d="M96.6 158.034C84.6423 165.329 73.0112 173.886 64.9714 185.501C57.707 195.974 52.4832 211.337 61.2576 222.544C65.8692 228.412 72.9704 231.55 79.6226 234.402C80.6837 234.851 81.6223 233.302 80.5612 232.813C75.0109 230.409 69.2157 227.923 64.7673 223.685C59.7883 218.917 57.911 212.397 58.6456 205.632C60.1148 192.347 69.5014 180.977 79.2961 172.542C84.9688 167.651 91.1721 163.454 97.5387 159.583C98.5181 159.012 97.6203 157.423 96.6 158.034Z" fill="#0E2B49"/>
<path d="M90.478 199.6C103.782 197.441 117.495 199.274 129.779 204.817C130.84 205.306 131.779 203.716 130.718 203.227C117.944 197.481 103.823 195.607 89.9883 197.807C88.8456 198.011 89.3353 199.804 90.478 199.6Z" fill="#0E2B49"/>
</svg>
