<svg width="56" height="26" viewBox="0 0 56 26" fill="none" xmlns="http://www.w3.org/2000/svg">
<g clip-path="url(#clip0)">
<mask id="path-1-inside-1" fill="white">
<path d="M0 20.7993V4.68728C0 2.04728 2.17434 -0.000718639 4.72331 -0.000718639H51.4543C52.0521 -0.00982635 52.6455 0.105063 53.1998 0.33718C53.754 0.569298 54.2577 0.913949 54.6813 1.35083C55.1049 1.78771 55.4399 2.30798 55.6663 2.88099C55.8928 3.454 56.0062 4.06816 56 4.68728V20.7993"/>
</mask>
<path d="M51.4543 -0.000718639V1.99928H51.4696L51.4848 1.99905L51.4543 -0.000718639ZM56 4.68728L54.0001 4.6671L54 4.67719V4.68728H56ZM2 20.7993V4.68728H-2V20.7993H2ZM2 4.68728C2 3.1963 3.23394 1.99928 4.72331 1.99928V-2.00072C1.11475 -2.00072 -2 0.898265 -2 4.68728H2ZM4.72331 1.99928H51.4543V-2.00072H4.72331V1.99928ZM51.4848 1.99905C51.8056 1.99416 52.1258 2.05569 52.4271 2.18192L53.9724 -1.50756C53.1653 -1.84556 52.2986 -2.01381 51.4239 -2.00049L51.4848 1.99905ZM52.4271 2.18192C52.7287 2.30822 53.0076 2.49776 53.2455 2.74307L56.1172 -0.0414192C55.5078 -0.66986 54.7792 -1.16963 53.9724 -1.50756L52.4271 2.18192ZM53.2455 2.74307C53.4835 2.98855 53.6754 3.28477 53.8063 3.61611L57.5263 2.14586C57.2043 1.33118 56.7264 0.586867 56.1172 -0.0414192L53.2455 2.74307ZM53.8063 3.61611C53.9373 3.94755 54.0038 4.30512 54.0001 4.6671L57.9999 4.70747C58.0087 3.83119 57.8483 2.96044 57.5263 2.14586L53.8063 3.61611ZM54 4.68728V20.7993H58V4.68728H54Z" fill="#D0E6FF" mask="url(#path-1-inside-1)"/>
<path d="M0 20.8V21.088C0.0197605 22.381 0.523143 23.6155 1.40416 24.5317C2.28517 25.4479 3.47507 25.9743 4.72331 26H51.4543C54.0033 26 56 23.728 56 21.088V20.8" fill="#D0E6FF"/>
<path d="M14.9194 6.51223L13.9539 7.46023C13.2956 6.78285 12.5199 6.24004 11.6675 5.86023C10.9046 5.5092 10.0807 5.32274 9.24601 5.31223C8.26794 5.31309 7.306 5.57042 6.44987 6.06023C5.5982 6.5262 4.88723 7.22658 4.39525 8.08423C3.91893 8.89852 3.66653 9.83215 3.66532 10.7842C3.67194 11.7642 3.9392 12.7233 4.43773 13.5562C4.93629 14.4192 5.65178 15.1256 6.5078 15.6002C7.40174 16.1057 8.40519 16.3673 9.42366 16.3602C10.6031 16.3964 11.7568 15.9981 12.6794 15.2362C13.5515 14.5141 14.1169 13.4678 14.2551 12.3202H10.281V11.0722H15.657C15.657 13.0696 15.0842 14.6549 13.9384 15.8282C12.7927 17.0016 11.2762 17.5922 9.3889 17.6002C7.07166 17.6002 5.2449 16.7869 3.90863 15.1602C2.89081 13.9545 2.33923 12.4017 2.35994 10.8002C2.35464 9.5991 2.66289 8.41881 3.25208 7.38423C3.8319 6.34438 4.67618 5.48932 5.6929 4.91223C6.76769 4.30001 7.97699 3.98585 9.20352 4.00023C10.2265 3.99303 11.2408 4.19418 12.1889 4.59223C13.2066 5.05053 14.1326 5.7017 14.9194 6.51223Z" fill="#D0E6FF"/>
<path d="M18.0244 4.34436H20.5077C21.4732 4.30738 22.4398 4.37171 23.3927 4.53636C24.0776 4.70078 24.6912 5.09442 25.1383 5.65636C25.6034 6.25866 25.8445 7.01366 25.8181 7.78436C25.8473 8.55218 25.6133 9.30596 25.1577 9.91236C24.6888 10.4888 24.047 10.8859 23.3348 11.0404C22.2872 11.219 21.2251 11.29 20.164 11.2524H19.2719V17.2524H18.0244V4.34436ZM19.2719 5.60036V10.0004L21.3844 10.0284C22.0175 10.0603 22.6511 9.97908 23.2575 9.78836C23.6439 9.63254 23.9716 9.35204 24.1921 8.98836C24.4172 8.63182 24.5354 8.21432 24.532 7.78836C24.5371 7.36217 24.4187 6.94418 24.1921 6.58836C23.9797 6.24038 23.6659 5.97141 23.2961 5.82036C22.7064 5.63989 22.0911 5.56548 21.4771 5.60036H19.2719Z" fill="#D0E6FF"/>
<path d="M27.6064 4.34448H28.8887L31.4376 13.6565L35.0139 4.34448H35.2727L38.8064 13.6565L41.3979 4.34448H42.6685L39.0845 17.2645H38.8528L35.1452 7.48848L31.3758 17.2645H31.1441L27.6064 4.34448Z" fill="#D0E6FF"/>
<path d="M47.9976 4.34448L53.8139 17.2645H52.466L50.5041 13.0125H45.1319L43.2009 17.2645H41.8105L47.7041 4.34448H47.9976ZM47.8392 7.08848L45.7035 11.7645H49.9518L47.8392 7.08848Z" fill="#D0E6FF"/>
<path d="M13.3894 21.9407H13.8721L14.8338 24.5247H14.3395L14.1425 24.0007H13.1306L12.9259 24.5327H12.4277L13.3894 21.9407ZM13.6327 22.6247L13.2967 23.5127H13.9648L13.6327 22.6247Z" fill="#030D18"/>
<path d="M15.1973 21.9405H15.7032C15.9032 21.9299 16.1034 21.957 16.2941 22.0205C16.413 22.0706 16.5132 22.1589 16.5799 22.2725C16.648 22.394 16.6839 22.532 16.6842 22.6725C16.6908 22.8348 16.6431 22.9945 16.549 23.1245C16.4501 23.2489 16.3144 23.3361 16.1628 23.3725C15.9975 23.4063 15.829 23.4197 15.6607 23.4125V24.5085H15.1973V21.9405ZM15.6723 22.9525H15.8345C15.9178 22.9562 16.0011 22.9468 16.0817 22.9245C16.1259 22.9079 16.1638 22.877 16.1898 22.8365C16.217 22.7924 16.2305 22.7407 16.2284 22.6885C16.2314 22.6446 16.2225 22.6008 16.2027 22.562C16.1829 22.5231 16.153 22.4907 16.1164 22.4685C16.0215 22.4263 15.9182 22.4084 15.8152 22.4165H15.68L15.6723 22.9525Z" fill="#030D18"/>
<path d="M17.1436 21.9405H17.6495C17.8495 21.9299 18.0497 21.957 18.2404 22.0205C18.3593 22.0706 18.4595 22.1589 18.5262 22.2725C18.5942 22.394 18.6302 22.532 18.6304 22.6725C18.6371 22.8348 18.5893 22.9945 18.4953 23.1245C18.3964 23.2489 18.2607 23.3361 18.1091 23.3725C17.9438 23.4063 17.7753 23.4197 17.607 23.4125V24.5085H17.1436V21.9405ZM17.6186 22.9525H17.7653C17.8486 22.9562 17.932 22.9468 18.0125 22.9245C18.0567 22.9079 18.0946 22.877 18.1207 22.8365C18.1478 22.7924 18.1613 22.7407 18.1593 22.6885C18.1622 22.6446 18.1533 22.6008 18.1335 22.562C18.1137 22.5231 18.0839 22.4907 18.0473 22.4685C17.9595 22.4239 17.8631 22.4006 17.7653 22.4005H17.6302L17.6186 22.9525Z" fill="#030D18"/>
<path d="M19.125 21.9402H19.6271C19.8268 21.9286 20.027 21.9544 20.218 22.0162C20.3351 22.0675 20.4338 22.1556 20.4999 22.2682C20.5727 22.3952 20.6101 22.5405 20.608 22.6882C20.6131 22.8404 20.5712 22.9904 20.4883 23.1162C20.3988 23.239 20.2747 23.3299 20.133 23.3762L20.7239 24.5242H20.2064L19.6464 23.4282H19.6039V24.5242H19.125V21.9402ZM19.6 22.9522H19.7507C19.8583 22.9626 19.9666 22.9418 20.0635 22.8922C20.093 22.8683 20.1162 22.8371 20.1311 22.8014C20.1459 22.7658 20.1519 22.7268 20.1484 22.6882C20.1496 22.6355 20.1347 22.5837 20.106 22.5402C20.0781 22.4997 20.0391 22.469 19.994 22.4522C19.9096 22.4293 19.8223 22.4198 19.7352 22.4242H19.6039L19.6 22.9522Z" fill="#030D18"/>
<path d="M22.2875 21.8726C22.4578 21.8709 22.6267 21.9055 22.7835 21.9743C22.9403 22.0431 23.0817 22.1447 23.199 22.2726C23.3235 22.3983 23.422 22.5489 23.4884 22.7154C23.5548 22.8818 23.5878 23.0605 23.5852 23.2406C23.5876 23.4195 23.5546 23.597 23.4882 23.7621C23.4217 23.9272 23.3233 24.0765 23.199 24.2006C22.9542 24.4542 22.6222 24.5966 22.276 24.5966C21.9297 24.5966 21.5977 24.4542 21.3529 24.2006C21.1723 24.0098 21.05 23.7681 21.0012 23.5057C20.9524 23.2433 20.9794 22.9718 21.0787 22.7252C21.178 22.4786 21.3452 22.2677 21.5595 22.1189C21.7738 21.9701 22.0257 21.89 22.2837 21.8886L22.2875 21.8726ZM22.2875 22.3526C22.179 22.3492 22.0709 22.3695 21.9704 22.4122C21.8699 22.4549 21.7793 22.5191 21.7044 22.6006C21.6257 22.6847 21.5643 22.7844 21.5238 22.8937C21.4833 23.003 21.4646 23.1196 21.4688 23.2366C21.4635 23.3662 21.4876 23.4952 21.5393 23.6133C21.5909 23.7314 21.6686 23.8353 21.7662 23.9166C21.9145 24.0449 22.102 24.1143 22.2953 24.1126C22.4028 24.1144 22.5096 24.093 22.6087 24.0496C22.7078 24.0062 22.797 23.9418 22.8707 23.8606C23.0239 23.6916 23.1091 23.4684 23.1091 23.2366C23.1091 23.0048 23.0239 22.7817 22.8707 22.6126C22.7961 22.5292 22.7051 22.4632 22.6039 22.419C22.5026 22.3749 22.3935 22.3536 22.2837 22.3566L22.2875 22.3526Z" fill="#030D18"/>
<path d="M23.8408 21.9407H24.3313L24.9608 23.7767L25.5981 21.9407H26.0847L25.181 24.5247H24.7175L23.8408 21.9407Z" fill="#030D18"/>
<path d="M26.4629 21.9407H27.8262V22.4247H26.9341V22.8927H27.8262V23.3607H26.9341V24.0407H27.8262V24.5247H26.4629V21.9407Z" fill="#030D18"/>
<path d="M28.2705 21.9403H28.8344C29.1101 21.9242 29.3859 21.9721 29.6415 22.0803C29.8277 22.1838 29.9797 22.3426 30.078 22.5363C30.1759 22.7331 30.2334 22.9489 30.2467 23.1699C30.26 23.3909 30.2288 23.6124 30.1552 23.8203C30.0952 23.9719 30.0043 24.1083 29.8887 24.2203C29.7851 24.3247 29.6595 24.4027 29.5218 24.4483C29.2977 24.5008 29.0678 24.5223 28.8382 24.5123H28.2705V21.9403ZM28.7417 22.4003V24.0323H28.9657C29.1262 24.0428 29.287 24.0169 29.4369 23.9563C29.5409 23.8976 29.6246 23.8067 29.6763 23.6963C29.7424 23.5557 29.7742 23.4005 29.769 23.2443C29.7759 23.1274 29.7596 23.0103 29.7211 22.9002C29.6825 22.7902 29.6226 22.6894 29.545 22.6043C29.365 22.4525 29.1351 22.3793 28.9039 22.4003H28.7417Z" fill="#030D18"/>
<path d="M31.6689 21.9405H32.1749C32.3749 21.9299 32.5751 21.957 32.7658 22.0205C32.8846 22.0706 32.9848 22.1589 33.0516 22.2725C33.1196 22.394 33.1556 22.532 33.1558 22.6725C33.1625 22.8348 33.1147 22.9945 33.0207 23.1245C32.9218 23.2489 32.786 23.3361 32.6345 23.3725C32.4692 23.4063 32.3007 23.4197 32.1324 23.4125V24.5085H31.6689V21.9405ZM32.144 22.9525H32.2946C32.3779 22.9562 32.4612 22.9468 32.5418 22.9245C32.586 22.9079 32.6239 22.877 32.6499 22.8365C32.6771 22.7924 32.6906 22.7407 32.6885 22.6885C32.6915 22.6446 32.6826 22.6008 32.6628 22.562C32.643 22.5231 32.6131 22.4907 32.5765 22.4685C32.4816 22.4263 32.3783 22.4084 32.2753 22.4165H32.1401L32.144 22.9525Z" fill="#030D18"/>
<path d="M34.8012 21.8726C34.9715 21.8709 35.1403 21.9055 35.2972 21.9743C35.454 22.0431 35.5954 22.1447 35.7127 22.2726C35.8372 22.3983 35.9357 22.5489 36.0021 22.7154C36.0685 22.8818 36.1014 23.0605 36.0989 23.2406C36.1013 23.4195 36.0683 23.597 36.0018 23.7621C35.9354 23.9272 35.837 24.0765 35.7127 24.2006C35.4679 24.4542 35.1358 24.5966 34.7896 24.5966C34.4434 24.5966 34.1114 24.4542 33.8666 24.2006C33.686 24.0098 33.5637 23.7681 33.5149 23.5057C33.4661 23.2433 33.4931 22.9718 33.5923 22.7252C33.6916 22.4786 33.8589 22.2677 34.0732 22.1189C34.2875 21.9701 34.5394 21.89 34.7973 21.8886L34.8012 21.8726ZM34.8012 22.3526C34.6926 22.3492 34.5846 22.3695 34.4841 22.4122C34.3836 22.4549 34.2929 22.5191 34.218 22.6006C34.1396 22.6855 34.0786 22.786 34.0388 22.896C33.999 23.006 33.9811 23.1233 33.9863 23.2406C33.981 23.3702 34.0052 23.4992 34.0568 23.6173C34.1085 23.7354 34.1862 23.8393 34.2837 23.9206C34.432 24.0489 34.6196 24.1183 34.8128 24.1166C34.9204 24.1184 35.0271 24.097 35.1262 24.0536C35.2253 24.0102 35.3146 23.9458 35.3882 23.8646C35.5414 23.6956 35.6266 23.4724 35.6266 23.2406C35.6266 23.0088 35.5414 22.7857 35.3882 22.6166C35.3135 22.5319 35.2221 22.4649 35.1201 22.42C35.0182 22.3752 34.9081 22.3535 34.7973 22.3566L34.8012 22.3526Z" fill="#030D18"/>
<path d="M36.5742 21.9402H37.0763C37.2761 21.9286 37.4762 21.9544 37.6672 22.0162C37.7844 22.0675 37.883 22.1556 37.9491 22.2682C38.0219 22.3952 38.0593 22.5405 38.0573 22.6882C38.0623 22.8404 38.0204 22.9904 37.9375 23.1162C37.8481 23.239 37.7239 23.3299 37.5822 23.3762L38.1731 24.5242H37.6556L37.0763 23.4282H37.0338V24.5242H36.5742V21.9402ZM37.0493 22.9522H37.1999C37.3075 22.9626 37.4158 22.9418 37.5127 22.8922C37.5422 22.8683 37.5655 22.8371 37.5803 22.8014C37.5951 22.7658 37.6011 22.7268 37.5977 22.6882C37.5988 22.6355 37.584 22.5837 37.5552 22.5402C37.5274 22.4997 37.4883 22.469 37.4432 22.4522C37.3588 22.4293 37.2716 22.4198 37.1844 22.4242H37.0531L37.0493 22.9522Z" fill="#030D18"/>
<path d="M38.3115 21.9407H39.6903V22.4247H39.2384V24.5247H38.7557V22.4247H38.3115V21.9407Z" fill="#030D18"/>
<path d="M40.78 21.9407H41.2628L42.2244 24.5247H41.7108L41.5331 24.0007H40.5135L40.3088 24.5327H39.8184L40.78 21.9407ZM41.0233 22.6247L40.6873 23.5127H41.3555L41.0233 22.6247Z" fill="#030D18"/>
<path d="M42.5869 21.9407H43.0619V24.0567H43.7533V24.5247H42.5946L42.5869 21.9407Z" fill="#030D18"/>
</g>
<defs>
<clipPath id="clip0">
<rect width="56" height="26" fill="white"/>
</clipPath>
</defs>
</svg>
