<svg width="43" height="42" viewBox="0 0 43 42" fill="none" xmlns="http://www.w3.org/2000/svg">
<g clip-path="url(#clip0)">
<path d="M15.864 20.9997C15.864 28.2493 21.7515 34.1235 29.0165 34.1235C36.2815 34.1235 42.1689 28.248 42.1689 20.9997C42.1689 13.7514 36.2801 7.87598 29.0165 7.87598C21.7529 7.87598 15.864 13.7514 15.864 20.9997Z" fill="#F2994A"/>
<path d="M13.2182 7.87598C16.1679 7.87598 18.8834 8.85634 21.0779 10.4929L21.0673 10.4942C20.6357 10.9102 20.1596 11.203 19.7925 11.6819L22.529 11.7252C22.9579 12.157 23.3486 12.6268 23.717 13.1151H18.8913C18.5242 13.5546 18.1849 13.9367 17.8769 14.4222H24.5919C24.8379 14.8448 25.0655 15.2792 25.2642 15.7306H17.1124C16.8993 16.1807 16.7086 16.5206 16.5467 16.9971H25.747C25.893 17.4499 26.018 17.9131 26.1128 18.3855H16.1612C16.0638 18.8396 15.989 19.2595 15.9376 19.6874H26.3102C26.3536 20.1193 26.376 20.5576 26.376 20.9999H15.8627C15.8627 21.4645 15.8956 21.8949 15.9429 22.3123H26.3102C26.2654 22.7572 26.1996 23.1942 26.1128 23.6247H16.1771C16.2797 24.0499 16.3982 24.4777 16.5468 24.9213H25.7773C25.6379 25.3701 25.4681 25.8058 25.2826 26.231H17.1124C17.3387 26.7088 17.5953 27.0906 17.8781 27.5381H24.6154C24.3496 27.9975 24.0563 28.4358 23.738 28.8558L18.8912 28.9279C19.3043 29.4226 19.8344 29.7205 20.3174 30.1537C20.2911 30.1747 21.0897 30.1511 22.6619 30.1262C20.2701 32.5882 16.927 34.1236 13.2183 34.1236C5.95199 34.1236 0.0619659 28.2481 0.0619659 20.9999C0.0619659 13.7517 5.9507 7.87598 13.2182 7.87598Z" fill="#EB5757"/>
</g>
<defs>
<clipPath id="clip0">
<rect width="42.1028" height="42" fill="white" transform="matrix(-1 0 0 1 42.1689 0)"/>
</clipPath>
</defs>
</svg>
