<svg width="16" height="16" viewBox="0 0 16 16" fill="none" xmlns="http://www.w3.org/2000/svg">
<path d="M7.99979 15.2C11.6177 15.2 14.7169 12.4854 15.1959 8.97605C15.2225 8.78114 15.1109 8.59375 14.9269 8.52428C14.7429 8.45484 14.5352 8.52175 14.4264 8.68563C13.4979 10.0843 11.8436 10.9532 10.1092 10.9532C7.31771 10.9532 5.04667 8.68214 5.04667 5.89068C5.04667 4.15627 5.91554 2.50199 7.31422 1.57341C7.47808 1.46463 7.54504 1.25701 7.47557 1.07299C7.40613 0.888965 7.21876 0.777365 7.0238 0.803944C3.5099 1.28362 0.799805 4.38698 0.799805 8.00006C0.799805 11.9645 4.03558 15.2 7.99979 15.2ZM5.53115 2.08405C4.6896 3.14318 4.20292 4.4954 4.20292 5.89068C4.20292 9.14739 6.85246 11.7969 10.1092 11.7969C11.5044 11.7969 12.8566 11.3103 13.9158 10.4687C12.9333 12.7678 10.6226 14.3563 7.99979 14.3563C4.49495 14.3563 1.64355 11.5049 1.64355 8.00006C1.64355 5.37723 3.23202 3.06651 5.53115 2.08405Z" fill="#031120"/>
</svg>
