<svg width="24" height="24" viewBox="0 0 24 24" fill="none" xmlns="http://www.w3.org/2000/svg">
<path d="M11.9997 22.6666C10.2316 22.6666 8.53587 21.9642 7.28563 20.714C6.03539 19.4637 5.33301 17.768 5.33301 15.9999V7.99992C5.33301 6.23181 6.03539 4.53612 7.28563 3.28587C8.53587 2.03563 10.2316 1.33325 11.9997 1.33325C13.7678 1.33325 15.4635 2.03563 16.7137 3.28587C17.964 4.53612 18.6663 6.23181 18.6663 7.99992V15.9999C18.6663 16.8754 18.4939 17.7423 18.1589 18.5511C17.8238 19.36 17.3328 20.0949 16.7137 20.714C16.0947 21.333 15.3597 21.8241 14.5509 22.1591C13.7421 22.4941 12.8752 22.6666 11.9997 22.6666ZM11.9997 2.66659C10.5852 2.66659 9.22863 3.22849 8.22844 4.22868C7.22824 5.22888 6.66634 6.58543 6.66634 7.99992V15.9999C6.66634 17.4144 7.22824 18.771 8.22844 19.7712C9.22863 20.7713 10.5852 21.3333 11.9997 21.3333C13.4142 21.3333 14.7707 20.7713 15.7709 19.7712C16.7711 18.771 17.333 17.4144 17.333 15.9999V7.99992C17.333 6.58543 16.7711 5.22888 15.7709 4.22868C14.7707 3.22849 13.4142 2.66659 11.9997 2.66659Z" fill="#414E5B"/>
<path d="M11.9997 10C11.8229 10 11.6533 9.92976 11.5283 9.80474C11.4032 9.67971 11.333 9.51014 11.333 9.33333V6.66667C11.333 6.48986 11.4032 6.32029 11.5283 6.19526C11.6533 6.07024 11.8229 6 11.9997 6C12.1765 6 12.3461 6.07024 12.4711 6.19526C12.5961 6.32029 12.6663 6.48986 12.6663 6.66667V9.33333C12.6663 9.51014 12.5961 9.67971 12.4711 9.80474C12.3461 9.92976 12.1765 10 11.9997 10Z" fill="#414E5B"/>
</svg>
