<svg width="50" height="50" viewBox="0 0 50 50" fill="none" xmlns="http://www.w3.org/2000/svg">
<g clip-path="url(#clip0)">
<path d="M36.8126 22.8203C36.8958 22.8203 36.9785 22.8214 37.0617 22.823L37.0831 22.8233C37.5496 22.8317 38.0123 22.8619 38.4705 22.9118V5.89943C38.4705 2.6413 35.8292 0 32.571 0H6.97365C3.71552 0 1.07422 2.6413 1.07422 5.89943V39.8323C1.07422 43.0904 3.71552 45.7317 6.97365 45.7317H24.0635C22.5891 43.362 21.8151 40.6551 21.8151 37.8262C21.8151 29.5517 28.5431 22.8203 36.8126 22.8203ZM22.2324 9.63249H30.9746C31.7837 9.63249 32.4394 10.2882 32.4394 11.0973C32.4394 11.9064 31.7837 12.5622 30.9746 12.5622H22.2324C21.4233 12.5622 20.7676 11.9064 20.7676 11.0973C20.7676 10.2882 21.4233 9.63249 22.2324 9.63249ZM22.2324 15.4922H30.9746C31.7837 15.4922 32.4394 16.148 32.4394 16.9571C32.4394 17.7662 31.7837 18.4219 30.9746 18.4219H22.2324C21.4233 18.4219 20.7676 17.7662 20.7676 16.9571C20.7676 16.148 21.4233 15.4922 22.2324 15.4922ZM17.3126 36.0992H8.5701C7.761 36.0992 7.10526 35.4435 7.10526 34.6344C7.10526 33.8257 7.761 33.1696 8.5701 33.1696H17.3122C18.1213 33.1696 18.7771 33.8257 18.7771 34.6344C18.7771 35.4435 18.1213 36.0992 17.3126 36.0992ZM17.3126 30.1414H8.5701C7.761 30.1414 7.10526 29.4857 7.10526 28.6766C7.10526 27.8675 7.761 27.2118 8.5701 27.2118H17.3122C18.1213 27.2118 18.7771 27.8675 18.7771 28.6766C18.7771 29.4857 18.1213 30.1414 17.3126 30.1414ZM17.3126 24.2817H8.5701C7.761 24.2817 7.10526 23.6259 7.10526 22.8168C7.10526 22.0078 7.761 21.352 8.5701 21.352H17.3122C18.1213 21.352 18.7771 22.0078 18.7771 22.8168C18.7771 23.6259 18.1213 24.2817 17.3126 24.2817ZM17.3126 18.4219H8.5701C7.761 18.4219 7.10526 17.7662 7.10526 16.9571C7.10526 16.148 7.761 15.4922 8.5701 15.4922H17.3122C18.1213 15.4922 18.7771 16.148 18.7771 16.9571C18.7771 17.7662 18.1213 18.4219 17.3126 18.4219ZM17.3126 12.5622H8.5701C7.761 12.5622 7.10526 11.9064 7.10526 11.0973C7.10526 10.2882 7.761 9.63249 8.5701 9.63249H17.3122C18.1213 9.63249 18.7771 10.2882 18.7771 11.0973C18.7771 11.9064 18.1213 12.5622 17.3126 12.5622ZM20.7676 22.8168C20.7676 22.0078 21.4233 21.352 22.2324 21.352H26.4427C27.2518 21.352 27.9076 22.0078 27.9076 22.8168C27.9076 23.6259 27.2518 24.2817 26.4427 24.2817H22.2324C21.4233 24.2817 20.7676 23.6259 20.7676 22.8168Z" fill="#F0F0F0"/>
<path d="M45.4872 29.2912C43.2388 27.0031 40.2358 25.7115 37.0319 25.655L37.0109 25.6546C36.9449 25.6535 36.8789 25.6523 36.8129 25.6523C30.1048 25.6523 24.6475 31.1135 24.6475 37.8262C24.6475 40.4923 25.4936 43.0241 27.0938 45.1485C29.4166 48.2319 32.9589 50 36.8129 50C43.5211 50 48.9784 44.5389 48.9784 37.8262C48.9784 34.6127 47.7386 31.5815 45.4872 29.2912ZM40.9633 39.84C41.5416 40.4061 41.5511 41.3334 40.9854 41.9113C40.6982 42.2043 40.3186 42.3516 39.9387 42.3516C39.5686 42.3516 39.199 42.2123 38.9137 41.9331L36.8129 39.8762L34.7118 41.9331C34.4268 42.2123 34.0568 42.3516 33.6871 42.3516C33.3068 42.3516 32.9273 42.2043 32.6404 41.9113C32.0743 41.3334 32.0842 40.4057 32.6621 39.84L34.719 37.8262L32.6621 35.8124C32.0842 35.2463 32.0743 34.319 32.6404 33.741C33.2061 33.1627 34.1339 33.1532 34.7118 33.7189L36.8129 35.7762L38.9137 33.7189C39.492 33.1528 40.4193 33.1627 40.9854 33.741C41.5511 34.319 41.5416 35.2463 40.9633 35.8124L38.9068 37.8262L40.9633 39.84Z" fill="#F0F0F0"/>
</g>
<defs>
<clipPath id="clip0">
<rect width="50" height="50" fill="white"/>
</clipPath>
</defs>
</svg>
