<svg width="16" height="16" viewBox="0 0 16 16" fill="none" xmlns="http://www.w3.org/2000/svg">
<g clip-path="url(#clip0)">
<path d="M8 12.9283C7.74112 12.9283 7.53125 13.1382 7.53125 13.3971V15.5312C7.53125 15.7901 7.74112 16 8 16C8.25888 16 8.46875 15.7901 8.46875 15.5312V13.3971C8.46875 13.1382 8.25888 12.9283 8 12.9283Z" fill="#031120"/>
<path d="M15.5316 7.53125H13.3975C13.1386 7.53125 12.9287 7.74112 12.9287 8C12.9287 8.25888 13.1386 8.46875 13.3975 8.46875H15.5316C15.7905 8.46875 16.0004 8.25888 16.0004 8C16.0004 7.74112 15.7905 7.53125 15.5316 7.53125Z" fill="#031120"/>
<path d="M8 8.84533e-05C7.74112 8.84533e-05 7.53125 0.209964 7.53125 0.468839V2.60303C7.53125 2.8619 7.74112 3.07178 8 3.07178C8.25888 3.07178 8.46875 2.8619 8.46875 2.60303V0.468839C8.46875 0.209964 8.25888 8.84533e-05 8 8.84533e-05Z" fill="#031120"/>
<path d="M2.60294 7.53125H0.46875C0.209875 7.53125 0 7.74112 0 8C0 8.25888 0.209875 8.46875 0.46875 8.46875H2.60294C2.86181 8.46875 3.07169 8.25888 3.07169 8C3.07169 7.74112 2.86181 7.53125 2.60294 7.53125Z" fill="#031120"/>
<path d="M7.99997 3.95312C5.76853 3.95312 3.95312 5.76856 3.95312 8C3.95312 10.2314 5.76853 12.0469 7.99997 12.0469C10.2314 12.0469 12.0468 10.2314 12.0468 8C12.0468 5.76856 10.2314 3.95312 7.99997 3.95312ZM7.99997 11.1094C6.28547 11.1094 4.89063 9.7145 4.89063 8C4.89063 6.2855 6.28547 4.89062 7.99997 4.89062C9.71447 4.89062 11.1093 6.2855 11.1093 8C11.1093 9.7145 9.71447 11.1094 7.99997 11.1094Z" fill="#031120"/>
<path d="M12.373 11.8779C12.2531 11.8779 12.1331 11.9237 12.0416 12.0152C11.8585 12.1982 11.8585 12.495 12.0416 12.6781L13.1932 13.8298C13.3763 14.0128 13.6731 14.0128 13.8561 13.8298C14.0392 13.6467 14.0392 13.3499 13.8561 13.1669L12.7045 12.0152C12.613 11.9237 12.493 11.8779 12.373 11.8779Z" fill="#031120"/>
<path d="M13.5237 1.98092C13.4037 1.98092 13.2838 2.0267 13.1923 2.11824L12.0406 3.26989C11.8576 3.45292 11.8576 3.74973 12.0406 3.9328C12.2236 4.11583 12.5205 4.11583 12.7035 3.9328L13.8552 2.78114C14.0382 2.59811 14.0382 2.3013 13.8552 2.11824C13.7636 2.02667 13.6437 1.98092 13.5237 1.98092Z" fill="#031120"/>
<path d="M2.47557 1.98092C2.3556 1.98092 2.23563 2.0267 2.14413 2.11824C1.96107 2.30127 1.96107 2.59808 2.14413 2.78114L3.29579 3.9328C3.47882 4.11583 3.77564 4.11583 3.9587 3.9328C4.14176 3.74976 4.14176 3.45295 3.9587 3.26989L2.80701 2.1182C2.71548 2.02667 2.59551 1.98092 2.47557 1.98092Z" fill="#031120"/>
<path d="M3.62723 11.8777C3.50726 11.8777 3.38729 11.9235 3.29579 12.015L2.14413 13.1666C1.96107 13.3496 1.96107 13.6465 2.14413 13.8295C2.32716 14.0126 2.62398 14.0126 2.80704 13.8295L3.9587 12.6779C4.14176 12.4948 4.14176 12.198 3.9587 12.015C3.86717 11.9235 3.7472 11.8777 3.62723 11.8777Z" fill="#031120"/>
</g>
<defs>
<clipPath id="clip0">
<rect width="16" height="16" fill="white" transform="matrix(1 0 0 -1 0 16)"/>
</clipPath>
</defs>
</svg>
