<svg width="60" height="60" viewBox="0 0 60 60" fill="none" xmlns="http://www.w3.org/2000/svg">
<circle cx="30" cy="30" r="30" fill="#0177FC"/>
<path fill-rule="evenodd" clip-rule="evenodd" d="M30.0002 17.2C28.3028 17.2 26.6749 17.8742 25.4747 19.0745C24.2744 20.2747 23.6002 21.9026 23.6002 23.6V25.2H22.0002C21.6063 25.1999 21.2262 25.3452 20.9328 25.6079C20.6393 25.8707 20.4531 26.2324 20.4098 26.624L18.8098 41.0239C18.785 41.2476 18.8077 41.4739 18.8763 41.6881C18.945 41.9024 19.058 42.0997 19.2081 42.2673C19.3582 42.4349 19.5419 42.569 19.7473 42.6608C19.9527 42.7525 20.1752 42.8 20.4002 42.7999H39.6002C39.8251 42.8 40.0476 42.7525 40.253 42.6608C40.4584 42.569 40.6421 42.4349 40.7922 42.2673C40.9423 42.0997 41.0553 41.9024 41.124 41.6881C41.1926 41.4739 41.2153 41.2476 41.1906 41.0239L39.5906 26.624C39.5472 26.2324 39.361 25.8707 39.0676 25.6079C38.7741 25.3452 38.3941 25.1999 38.0002 25.2H36.4002V23.6C36.4002 21.9026 35.7259 20.2747 34.5256 19.0745C33.3254 17.8742 31.6975 17.2 30.0002 17.2ZM33.2002 25.2V23.6C33.2002 22.7513 32.863 21.9373 32.2629 21.3372C31.6628 20.7371 30.8489 20.4 30.0002 20.4C29.1515 20.4 28.3375 20.7371 27.7374 21.3372C27.1373 21.9373 26.8002 22.7513 26.8002 23.6V25.2H33.2002ZM23.6002 30C23.6002 29.5756 23.7687 29.1686 24.0688 28.8686C24.3688 28.5685 24.7758 28.4 25.2002 28.4C25.6245 28.4 26.0315 28.5685 26.3315 28.8686C26.6316 29.1686 26.8002 29.5756 26.8002 30C26.8002 30.4243 26.6316 30.8313 26.3315 31.1313C26.0315 31.4314 25.6245 31.6 25.2002 31.6C24.7758 31.6 24.3688 31.4314 24.0688 31.1313C23.7687 30.8313 23.6002 30.4243 23.6002 30ZM34.8002 28.4C34.3758 28.4 33.9688 28.5685 33.6688 28.8686C33.3687 29.1686 33.2002 29.5756 33.2002 30C33.2002 30.4243 33.3687 30.8313 33.6688 31.1313C33.9688 31.4314 34.3758 31.6 34.8002 31.6C35.2245 31.6 35.6315 31.4314 35.9315 31.1313C36.2316 30.8313 36.4002 30.4243 36.4002 30C36.4002 29.5756 36.2316 29.1686 35.9315 28.8686C35.6315 28.5685 35.2245 28.4 34.8002 28.4Z" fill="#F0F0F0"/>
</svg>
