<svg width="11" height="7" viewBox="0 0 11 7" fill="none" xmlns="http://www.w3.org/2000/svg">
<path d="M9.09754 0.902814L9.10451 0.896747L9.11192 0.891212C9.39166 0.682101 9.78854 0.705304 10.0418 0.960492C10.3194 1.24012 10.3194 1.69272 10.0418 1.97234L6.0048 6.03951L5.99834 6.04601L5.99143 6.05202L5.9395 6.09719L5.93253 6.10325L5.92512 6.10879C5.64538 6.3179 5.2485 6.2947 4.9952 6.03951L0.958165 1.97234L0.951717 1.96585L0.94576 1.95889L0.900934 1.90658L0.894939 1.89959L0.889474 1.89217C0.68311 1.61196 0.705579 1.21496 0.958165 0.960493L0.964622 0.953988L0.971538 0.947974L1.02346 0.902813L1.03044 0.896747L1.03784 0.891213C1.31758 0.682101 1.71446 0.705304 1.96776 0.960493L1.96776 0.960497L5.5 4.51924L9.03224 0.960496L9.03869 0.95399L9.04561 0.947974L9.09754 0.902814Z" fill="#0177FC" stroke="#0177FC" stroke-width="0.5"/>
</svg>
