<svg width="43" height="45" viewBox="0 0 43 45" fill="none" xmlns="http://www.w3.org/2000/svg">
<ellipse cx="21.4746" cy="22.5" rx="21.3525" ry="22.5" fill="#03438B"/>
<path fill-rule="evenodd" clip-rule="evenodd" d="M28.3819 16.0004C28.5776 16.2066 28.6876 16.4864 28.6876 16.7782C28.6876 17.0699 28.5776 17.3497 28.3819 17.556L22.4767 23.7785C22.2809 23.9848 22.0154 24.1007 21.7385 24.1007C21.4617 24.1007 21.1961 23.9848 21.0004 23.7785L15.0952 17.556C14.8994 17.3497 14.7894 17.0699 14.7894 16.7782C14.7894 16.4864 14.8994 16.2066 15.0952 16.0004C15.291 15.7941 15.5565 15.6782 15.8333 15.6782C16.1102 15.6782 16.3757 15.7941 16.5715 16.0004L21.7385 21.4451L26.9056 16.0004C27.1013 15.7941 27.3669 15.6782 27.6437 15.6782C27.9206 15.6782 28.1861 15.7941 28.3819 16.0004V16.0004Z" fill="#F0F0F0"/>
<path fill-rule="evenodd" clip-rule="evenodd" d="M21.0675 22.4351C21.2455 22.2476 21.4868 22.1422 21.7385 22.1422C21.9902 22.1422 22.2316 22.2476 22.4096 22.4351L27.7779 28.092C27.9559 28.2795 28.0559 28.5339 28.0559 28.7991C28.0559 29.0643 27.9559 29.3187 27.7779 29.5062C27.6 29.6937 27.3586 29.7991 27.1069 29.7991C26.8552 29.7991 26.6138 29.6937 26.4358 29.5062L21.7385 24.5565L17.0412 29.5062C16.8632 29.6937 16.6219 29.7991 16.3702 29.7991C16.1185 29.7991 15.8771 29.6937 15.6991 29.5062C15.5212 29.3187 15.4212 29.0643 15.4212 28.7991C15.4212 28.5339 15.5212 28.2795 15.6991 28.092L21.0675 22.4351Z" fill="#F0F0F0"/>
</svg>
