<svg width="16" height="16" viewBox="0 0 16 16" fill="none" xmlns="http://www.w3.org/2000/svg">
<path d="M7.99979 15.1998C11.6177 15.1998 14.7169 12.4851 15.1959 8.9758C15.2225 8.7809 15.1109 8.5935 14.9269 8.52403C14.7429 8.45459 14.5352 8.5215 14.4264 8.68539C13.4979 10.084 11.8436 10.9529 10.1092 10.9529C7.31771 10.9529 5.04667 8.6819 5.04667 5.89044C5.04667 4.15603 5.91554 2.50174 7.31422 1.57317C7.47808 1.46438 7.54504 1.25676 7.47557 1.07274C7.40613 0.888721 7.21876 0.777121 7.0238 0.803699C3.5099 1.28337 0.799805 4.38674 0.799805 7.99981C0.799805 11.9643 4.03558 15.1998 7.99979 15.1998ZM5.53115 2.08381C4.6896 3.14294 4.20292 4.49516 4.20292 5.89044C4.20292 9.14714 6.85246 11.7967 10.1092 11.7967C11.5044 11.7967 12.8566 11.31 13.9158 10.4685C12.9333 12.7676 10.6226 14.3561 7.99979 14.3561C4.49495 14.3561 1.64355 11.5047 1.64355 7.99981C1.64355 5.37699 3.23202 3.06627 5.53115 2.08381Z" fill="#F0F0F0"/>
</svg>
