<svg width="30" height="30" viewBox="0 0 30 30" fill="none" xmlns="http://www.w3.org/2000/svg">
<circle cx="15" cy="15" r="15" fill="#0177FC"/>
<path fill-rule="evenodd" clip-rule="evenodd" d="M14.9998 10.5977C15.1296 10.5977 15.254 10.6492 15.3457 10.7409C15.4374 10.8326 15.489 10.9571 15.489 11.0868V14.9998C15.489 15.1296 15.4374 15.254 15.3457 15.3457C15.254 15.4374 15.1296 15.489 14.9998 15.489H11.0868C10.9571 15.489 10.8326 15.4374 10.7409 15.3457C10.6492 15.254 10.5977 15.1296 10.5977 14.9998C10.5977 14.8701 10.6492 14.7457 10.7409 14.654C10.8326 14.5622 10.9571 14.5107 11.0868 14.5107H14.5107V11.0868C14.5107 10.9571 14.5622 10.8326 14.654 10.7409C14.7457 10.6492 14.8701 10.5977 14.9998 10.5977Z" fill="#F0F0F0"/>
<path fill-rule="evenodd" clip-rule="evenodd" d="M14.5107 14.9999C14.5107 14.8701 14.5623 14.7457 14.654 14.654C14.7457 14.5623 14.8701 14.5107 14.9999 14.5107H18.9129C19.0426 14.5107 19.1671 14.5623 19.2588 14.654C19.3505 14.7457 19.402 14.8701 19.402 14.9999C19.402 15.1296 19.3505 15.254 19.2588 15.3457C19.1671 15.4375 19.0426 15.489 18.9129 15.489H15.489V18.9129C15.489 19.0426 15.4375 19.1671 15.3457 19.2588C15.254 19.3505 15.1296 19.402 14.9999 19.402C14.8701 19.402 14.7457 19.3505 14.654 19.2588C14.5623 19.1671 14.5107 19.0426 14.5107 18.9129V14.9999Z" fill="#F0F0F0"/>
</svg>
