<svg width="27" height="28" viewBox="0 0 27 28" fill="none" xmlns="http://www.w3.org/2000/svg">
<g clip-path="url(#clip0)">
<path d="M21.7222 2.96849C20.4905 1.57671 18.2613 0.980469 15.4095 0.980469H7.13342C6.55053 0.980469 6.05515 1.40047 5.96268 1.96872L2.51657 23.5965C2.44887 24.0231 2.78242 24.4085 3.21835 24.4085H8.32733L9.61035 16.3543L9.57072 16.608C9.66154 16.0397 10.1553 15.6197 10.7382 15.6197H13.1655C17.936 15.6197 21.6694 13.7025 22.7609 8.1568C22.794 7.99209 22.8451 7.67585 22.8451 7.67585C23.1555 5.62359 22.8434 4.2318 21.7222 2.96849Z" fill="#002C89"/>
<path d="M24.1409 8.72656C22.9553 14.1866 19.1723 17.0756 13.1684 17.0756H10.992L9.36719 27.3337H12.8976C13.4078 27.3337 13.8421 26.9664 13.9213 26.4673L13.9626 26.2499L14.775 21.1587L14.8279 20.8787C14.9071 20.3797 15.3414 20.0124 15.85 20.0124H16.4956C20.6684 20.0124 23.9345 18.3356 24.889 13.485C25.2721 11.5381 25.0871 9.90587 24.1409 8.72656Z" fill="#009BE0"/>
</g>
<defs>
<clipPath id="clip0">
<rect width="26.4188" height="26.3533" fill="white" transform="translate(0.582031 0.980469)"/>
</clipPath>
</defs>
</svg>
