<svg width="24" height="24" viewBox="0 0 24 24" fill="none" xmlns="http://www.w3.org/2000/svg">
<path d="M11.9997 22.6668C10.2316 22.6668 8.53587 21.9644 7.28563 20.7142C6.03539 19.464 5.33301 17.7683 5.33301 16.0002V8.00016C5.33301 6.23205 6.03539 4.53636 7.28563 3.28612C8.53587 2.03587 10.2316 1.3335 11.9997 1.3335C13.7678 1.3335 15.4635 2.03587 16.7137 3.28612C17.964 4.53636 18.6663 6.23205 18.6663 8.00016V16.0002C18.6663 16.8756 18.4939 17.7425 18.1589 18.5514C17.8238 19.3602 17.3328 20.0951 16.7137 20.7142C16.0947 21.3333 15.3597 21.8243 14.5509 22.1594C13.7421 22.4944 12.8752 22.6668 11.9997 22.6668ZM11.9997 2.66683C10.5852 2.66683 9.22863 3.22873 8.22844 4.22893C7.22824 5.22912 6.66634 6.58567 6.66634 8.00016V16.0002C6.66634 17.4146 7.22824 18.7712 8.22844 19.7714C9.22863 20.7716 10.5852 21.3335 11.9997 21.3335C13.4142 21.3335 14.7707 20.7716 15.7709 19.7714C16.7711 18.7712 17.333 17.4146 17.333 16.0002V8.00016C17.333 6.58567 16.7711 5.22912 15.7709 4.22893C14.7707 3.22873 13.4142 2.66683 11.9997 2.66683Z" fill="#748699"/>
<path d="M11.9997 10C11.8229 10 11.6533 9.92976 11.5283 9.80474C11.4032 9.67971 11.333 9.51014 11.333 9.33333V6.66667C11.333 6.48986 11.4032 6.32029 11.5283 6.19526C11.6533 6.07024 11.8229 6 11.9997 6C12.1765 6 12.3461 6.07024 12.4711 6.19526C12.5961 6.32029 12.6663 6.48986 12.6663 6.66667V9.33333C12.6663 9.51014 12.5961 9.67971 12.4711 9.80474C12.3461 9.92976 12.1765 10 11.9997 10Z" fill="#748699"/>
</svg>
