<svg width="44" height="14" viewBox="0 0 44 14" fill="none" xmlns="http://www.w3.org/2000/svg">
<path d="M40.3015 1.19336H37.6571C36.8358 1.19336 36.2249 1.41638 35.864 2.23296L30.7822 13.7125H34.3764C34.3764 13.7125 34.9626 12.1689 35.0955 11.8309C35.489 11.8309 38.9811 11.8361 39.4784 11.8361C39.5805 12.2734 39.8957 13.7125 39.8957 13.7125H43.0708L40.3015 1.19336ZM36.0806 9.26698C36.3623 8.54786 37.4441 5.76621 37.4441 5.76621C37.4256 5.80046 37.7232 5.04183 37.9001 4.57032L38.1307 5.65031C38.1307 5.65031 38.7865 8.64093 38.9238 9.26698H36.0806Z" fill="#1F2B83"/>
<path d="M17.8274 1.17676L15.6875 13.7029H19.11L21.2517 1.17676H17.8274Z" fill="#1F2B83"/>
<path d="M12.8178 1.19111L9.46571 9.73361L9.10832 8.44376C8.44724 6.88962 6.5705 4.65763 4.36719 3.251L7.43229 13.6971L11.0537 13.691L16.4436 1.18848L12.8178 1.19111Z" fill="#1F2B83"/>
<path d="M7.8102 2.08992C7.61126 1.3269 7.03468 1.09948 6.31903 1.07227H1.01276L0.96875 1.32163C5.09809 2.32084 7.83045 4.72843 8.96423 7.62334L7.8102 2.08992Z" fill="#1F2B83"/>
<path d="M28.1904 3.57945C29.3101 3.56189 30.1217 3.80599 30.7519 4.05886L31.0609 4.20374L31.5239 1.48884C30.8461 1.23508 29.7836 0.962891 28.458 0.962891C25.076 0.962891 22.6923 2.6619 22.6738 5.09671C22.6518 6.89582 24.3718 7.9003 25.6711 8.5C27.0047 9.11463 27.4518 9.50536 27.4457 10.0541C27.4351 10.8927 26.3823 11.2772 25.3991 11.2772C24.0285 11.2772 23.3005 11.0885 22.1764 10.6213L21.7354 10.4212L21.2539 13.2247C22.0549 13.5751 23.5329 13.8762 25.0672 13.8921C28.6648 13.8921 31.0028 12.2132 31.0275 9.6116C31.0424 8.18829 30.1296 7.10216 28.1516 6.21094C26.9545 5.62968 26.2221 5.24334 26.2291 4.65681C26.2291 4.13613 26.8506 3.57945 28.1904 3.57945Z" fill="#1F2B83"/>
</svg>
