<svg width="125" height="18" viewBox="0 0 125 18" fill="none" xmlns="http://www.w3.org/2000/svg">
<path d="M13.5 7.754V8.51C13.5 10.154 12.936 11.522 11.808 12.614C10.68 13.694 9.186 14.234 7.326 14.234C5.406 14.234 3.816 13.604 2.556 12.344C1.308 11.072 0.684 9.524 0.684 7.7C0.684 5.876 1.308 4.334 2.556 3.074C3.816 1.802 5.394 1.166 7.29 1.166C8.454 1.166 9.522 1.448 10.494 2.012C11.466 2.564 12.216 3.296 12.744 4.208L11.304 5.054C10.944 4.37 10.398 3.824 9.666 3.416C8.946 2.996 8.148 2.786 7.272 2.786C5.832 2.786 4.65 3.26 3.726 4.208C2.802 5.144 2.34 6.308 2.34 7.7C2.34 9.092 2.802 10.256 3.726 11.192C4.662 12.128 5.868 12.596 7.344 12.596C8.604 12.596 9.624 12.29 10.404 11.678C11.184 11.054 11.658 10.25 11.826 9.266H7.2V7.754H13.5ZM22.8255 5H24.3915V14H22.8255V12.452C22.0455 13.64 20.9115 14.234 19.4235 14.234C18.1635 14.234 17.0895 13.778 16.2015 12.866C15.3135 11.942 14.8695 10.82 14.8695 9.5C14.8695 8.18 15.3135 7.064 16.2015 6.152C17.0895 5.228 18.1635 4.766 19.4235 4.766C20.9115 4.766 22.0455 5.36 22.8255 6.548V5ZM19.6215 12.722C20.5335 12.722 21.2955 12.416 21.9075 11.804C22.5195 11.18 22.8255 10.412 22.8255 9.5C22.8255 8.588 22.5195 7.826 21.9075 7.214C21.2955 6.59 20.5335 6.278 19.6215 6.278C18.7215 6.278 17.9655 6.59 17.3535 7.214C16.7415 7.826 16.4355 8.588 16.4355 9.5C16.4355 10.412 16.7415 11.18 17.3535 11.804C17.9655 12.416 18.7215 12.722 19.6215 12.722ZM36.4842 4.766C37.4922 4.766 38.3082 5.096 38.9322 5.756C39.5562 6.404 39.8682 7.286 39.8682 8.402V14H38.3022V8.456C38.3022 7.76 38.1222 7.22 37.7622 6.836C37.4022 6.452 36.9222 6.26 36.3222 6.26C35.6502 6.26 35.1102 6.488 34.7022 6.944C34.3062 7.388 34.1082 8.072 34.1082 8.996V14H32.5422V8.456C32.5422 7.76 32.3682 7.22 32.0202 6.836C31.6842 6.452 31.2222 6.26 30.6342 6.26C29.9742 6.26 29.4222 6.488 28.9782 6.944C28.5462 7.4 28.3302 8.084 28.3302 8.996V14H26.7642V5H28.3302V6.206C28.9422 5.246 29.8362 4.766 31.0122 4.766C32.2242 4.766 33.1062 5.276 33.6582 6.296C34.2822 5.276 35.2242 4.766 36.4842 4.766ZM47.0076 4.766C48.2676 4.766 49.3416 5.228 50.2296 6.152C51.1176 7.064 51.5616 8.18 51.5616 9.5C51.5616 10.82 51.1176 11.942 50.2296 12.866C49.3416 13.778 48.2676 14.234 47.0076 14.234C45.5196 14.234 44.3856 13.64 43.6056 12.452V14H42.0396V1.4H43.6056V6.548C44.3856 5.36 45.5196 4.766 47.0076 4.766ZM46.8096 12.722C47.7096 12.722 48.4656 12.416 49.0776 11.804C49.6896 11.18 49.9956 10.412 49.9956 9.5C49.9956 8.588 49.6896 7.826 49.0776 7.214C48.4656 6.59 47.7096 6.278 46.8096 6.278C45.8976 6.278 45.1356 6.59 44.5236 7.214C43.9116 7.826 43.6056 8.588 43.6056 9.5C43.6056 10.412 43.9116 11.18 44.5236 11.804C45.1356 12.416 45.8976 12.722 46.8096 12.722ZM53.4302 14V0.86H54.9962V14H53.4302ZM58.1773 3.362C57.8773 3.362 57.6253 3.26 57.4213 3.056C57.2173 2.852 57.1153 2.606 57.1153 2.318C57.1153 2.03 57.2173 1.784 57.4213 1.58C57.6253 1.364 57.8773 1.256 58.1773 1.256C58.4653 1.256 58.7113 1.364 58.9153 1.58C59.1193 1.784 59.2213 2.03 59.2213 2.318C59.2213 2.606 59.1193 2.852 58.9153 3.056C58.7113 3.26 58.4653 3.362 58.1773 3.362ZM57.3853 14V5H58.9513V14H57.3853ZM65.8223 4.766C66.8783 4.766 67.7243 5.102 68.3603 5.774C68.9963 6.434 69.3143 7.334 69.3143 8.474V14H67.7483V8.564C67.7483 7.832 67.5503 7.268 67.1543 6.872C66.7583 6.464 66.2123 6.26 65.5163 6.26C64.7363 6.26 64.1063 6.506 63.6263 6.998C63.1463 7.478 62.9063 8.222 62.9063 9.23V14H61.3403V5H62.9063V6.296C63.5423 5.276 64.5143 4.766 65.8223 4.766ZM78.9705 5H80.5185V13.622C80.5185 14.954 80.0685 15.986 79.1685 16.718C78.2685 17.462 77.1885 17.834 75.9285 17.834C74.9205 17.834 74.0505 17.642 73.3185 17.258C72.5865 16.886 72.0345 16.346 71.6625 15.638L73.0305 14.864C73.5225 15.872 74.5005 16.376 75.9645 16.376C76.9005 16.376 77.6325 16.13 78.1605 15.638C78.7005 15.146 78.9705 14.474 78.9705 13.622V12.344C78.1785 13.544 77.0505 14.144 75.5865 14.144C74.3025 14.144 73.2165 13.688 72.3285 12.776C71.4405 11.864 70.9965 10.754 70.9965 9.446C70.9965 8.138 71.4405 7.034 72.3285 6.134C73.2165 5.222 74.3025 4.766 75.5865 4.766C77.0625 4.766 78.1905 5.36 78.9705 6.548V5ZM73.4805 11.732C74.0925 12.344 74.8545 12.65 75.7665 12.65C76.6785 12.65 77.4405 12.344 78.0525 11.732C78.6645 11.12 78.9705 10.358 78.9705 9.446C78.9705 8.546 78.6645 7.79 78.0525 7.178C77.4405 6.566 76.6785 6.26 75.7665 6.26C74.8545 6.26 74.0925 6.566 73.4805 7.178C72.8685 7.79 72.5625 8.546 72.5625 9.446C72.5625 10.358 72.8685 11.12 73.4805 11.732ZM93.3491 14.252C91.4531 14.252 89.8871 13.622 88.6511 12.362C87.4151 11.102 86.7971 9.548 86.7971 7.7C86.7971 5.84 87.4151 4.286 88.6511 3.038C89.8871 1.778 91.4531 1.148 93.3491 1.148C94.4891 1.148 95.5391 1.418 96.4991 1.958C97.4711 2.486 98.2271 3.206 98.7671 4.118L96.6251 5.36C96.3131 4.796 95.8691 4.358 95.2931 4.046C94.7171 3.722 94.0691 3.56 93.3491 3.56C92.1251 3.56 91.1351 3.944 90.3791 4.712C89.6351 5.48 89.2631 6.476 89.2631 7.7C89.2631 8.912 89.6351 9.902 90.3791 10.67C91.1351 11.438 92.1251 11.822 93.3491 11.822C94.0691 11.822 94.7171 11.666 95.2931 11.354C95.8811 11.03 96.3251 10.592 96.6251 10.04L98.7671 11.282C98.2271 12.194 97.4771 12.92 96.5171 13.46C95.5571 13.988 94.5011 14.252 93.3491 14.252ZM100.326 14V0.86H102.648V14H100.326ZM110.713 5H113.035V14H110.713V12.992C110.149 13.832 109.255 14.252 108.031 14.252C107.047 14.252 106.231 13.922 105.583 13.262C104.947 12.602 104.629 11.69 104.629 10.526V5H106.951V10.238C106.951 10.838 107.113 11.3 107.437 11.624C107.761 11.936 108.193 12.092 108.733 12.092C109.333 12.092 109.813 11.906 110.173 11.534C110.533 11.162 110.713 10.604 110.713 9.86V5ZM120.4 4.748C121.612 4.748 122.644 5.21 123.496 6.134C124.36 7.046 124.792 8.168 124.792 9.5C124.792 10.832 124.36 11.96 123.496 12.884C122.644 13.796 121.612 14.252 120.4 14.252C119.14 14.252 118.168 13.814 117.484 12.938V14H115.162V1.4H117.484V6.062C118.168 5.186 119.14 4.748 120.4 4.748ZM118.186 11.336C118.654 11.804 119.248 12.038 119.968 12.038C120.688 12.038 121.282 11.804 121.75 11.336C122.23 10.856 122.47 10.244 122.47 9.5C122.47 8.756 122.23 8.15 121.75 7.682C121.282 7.202 120.688 6.962 119.968 6.962C119.248 6.962 118.654 7.202 118.186 7.682C117.718 8.15 117.484 8.756 117.484 9.5C117.484 10.244 117.718 10.856 118.186 11.336Z" fill="#0E2B49"/>
</svg>
